<?xml version="1.0" encoding="utf-8"?>
<!-- Generator: Adobe Illustrator 22.1.0, SVG Export Plug-In . SVG Version: 6.00 Build 0)  -->
<svg version="1.1" id="Layer_1" xmlns="http://www.w3.org/2000/svg" xmlns:xlink="http://www.w3.org/1999/xlink" x="0px" y="0px"
	 viewBox="0 0 180.9 180.9" style="enable-background:new 0 0 180.9 180.9;" xml:space="preserve">
<style type="text/css">
	.st0{fill:#333333;}
	.st1{fill:url(#bg_1_);}
	.st2{fill:#375E9E;}
	.st3{fill:#B85794;}
	.st4{fill:#7A2A1C;stroke:#333333;stroke-width:2;stroke-miterlimit:10;}
	.st5{opacity:0.55;}
	.st6{filter:url(#Adobe_OpacityMaskFilter);}
	.st7{mask:url(#SVGID_1_);}
	.st8{fill:#CF9CBD;}
	.st9{fill:none;stroke:#333333;stroke-width:2;stroke-linecap:round;stroke-linejoin:round;}
	.st10{fill:#3A665F;stroke:#333333;stroke-width:2;stroke-miterlimit:10;}
	.st11{filter:url(#Adobe_OpacityMaskFilter_1_);}
	.st12{mask:url(#SVGID_2_);}
	.st13{fill:#AAA1B4;}
	.st14{fill:none;stroke:#333333;stroke-width:2;stroke-miterlimit:10;}
	.st15{fill:#744072;stroke:#333333;stroke-width:2;stroke-miterlimit:10;}
	.st16{filter:url(#Adobe_OpacityMaskFilter_2_);}
	.st17{mask:url(#SVGID_3_);}
	.st18{fill:#C4997E;}
	.st19{fill:#B57047;stroke:#333333;stroke-width:2;stroke-miterlimit:10;}
	.st20{filter:url(#Adobe_OpacityMaskFilter_3_);}
	.st21{mask:url(#SVGID_4_);}
	.st22{fill:#EDC0AF;}
	.st23{fill:#274579;stroke:#333333;stroke-width:2;stroke-miterlimit:10;}
	.st24{filter:url(#Adobe_OpacityMaskFilter_4_);}
	.st25{mask:url(#SVGID_5_);}
	.st26{fill:#CFC4CF;}

	#ballon1, #ballon2, #ballon3, #ballon24, #ballon5{
	transition: transform 2s ease-in-out;
	}
	#Layer_1:hover #ballon1{
	-moz-transform: translateY(-10px);
	transform: translateY(-10px);
	}
	#Layer_1:hover #ballon2{
	-moz-transform: translateY(-5px) translateX(5px);
	transform: translateY(-5px) translateX(5px);
	}
	#Layer_1:hover #ballon3{
	-moz-transform: translateY(-13px);
	transform: translateY(-13px);
	}
	#Layer_1:hover #ballon24{
	-moz-transform: translateY(-10px) translateX(-2px);
	transform: translateY(-10px) translateX(-2px);
	}
	#Layer_1:hover #ballon5{
	-moz-transform: translateY(-14px) translateX(-4px);
	transform: translateY(-14px) translateX(-4px);
	}


</style>
<title>baloons</title>
<ellipse transform="matrix(0.7071 -0.7071 0.7071 0.7071 -37.4698 90.4598)" class="st0" cx="90.5" cy="90.5" rx="90.4" ry="90.5"/>
<linearGradient id="bg_1_" gradientUnits="userSpaceOnUse" x1="80.2392" y1="194.0389" x2="97.5697" y2="21.4568" gradientTransform="matrix(1 0 0 -1 0 182)">
	<stop  offset="1.241987e-03" style="stop-color:#5C5AA8"/>
	<stop  offset="0.1296" style="stop-color:#635CA5"/>
	<stop  offset="0.319" style="stop-color:#77619C"/>
	<stop  offset="0.5461" style="stop-color:#98688E"/>
	<stop  offset="0.8001" style="stop-color:#C5737A"/>
	<stop  offset="1" style="stop-color:#ED7D68"/>
</linearGradient>
<path id="bg" class="st1" d="M153.2,90.6c-0.2,6.1-1.3,12.2-3.2,18c-0.3,1-0.7,2-1.1,3c-0.1,0.2-0.1,0.3-0.2,0.5
	c-0.3,0.8-0.7,1.6-1,2.4l0,0c-0.1,0.3-0.3,0.7-0.4,1c-0.4,0.8-0.8,1.6-1.1,2.3l0,0c-1.1,2.2-2.4,4.3-3.8,6.3
	c-1.1,1.6-2.2,3.2-3.5,4.6c-1.2,1.5-2.5,2.9-3.9,4.3c-1.8,1.8-3.7,3.5-5.8,5.1c-21.9,17.2-52.6,17.8-75.2,1.6c-2-1.5-4-3-5.9-4.7
	c-0.9-0.8-1.8-1.6-2.6-2.5c-1.3-1.3-2.6-2.7-3.8-4.2c-4.6-5.6-8.2-11.9-10.6-18.8l0,0c-0.3-0.8-0.5-1.6-0.8-2.4l-0.2-1.1
	c-0.1-0.3-0.2-0.6-0.3-0.9c-0.1-0.5-0.3-1-0.4-1.5s-0.3-1.1-0.4-1.7c-7.5-33.9,13.9-67.4,47.9-74.9s67.4,13.9,74.9,47.9
	C152.9,80.1,153.3,85.3,153.2,90.6z"/>
<path class="st2" d="M147.6,114.5c-0.1,0.3-0.3,0.7-0.4,1c-0.4,0.8-0.8,1.6-1.1,2.3l0,0c-15.6,8.6-33,13.1-50.8,13.1
	c-0.8,0-1.6,0-2.4,0c-27.2-0.6-48.3-11.5-61.8-21.2l0,0c-0.3-0.8-0.5-1.6-0.8-2.4l-0.3-1.1c13,9.9,34.6,22,63,22.6
	C112.2,129.1,131.1,124.2,147.6,114.5z"/>
<path class="st3" d="M134.8,133c-1.8,1.8-3.7,3.5-5.8,5.1c-10.6,4.7-21.9,7.4-33.4,8.1c-2,0.1-4.1,0.2-6,0.2
	c-12.2,0-24.4-2.3-35.8-6.7c-2.1-1.4-4-3-5.9-4.7c14.8,7,31.2,10.1,47.5,9.1C109.3,143.3,122.7,139.5,134.8,133z"/>
<g id="ballon2">

		<ellipse id="bal2" transform="matrix(0.9815 -0.1913 0.1913 0.9815 -16.4361 15.0765)" class="st4" cx="69.9" cy="92.7" rx="17.1" ry="18.8"/>
	<g id="bal2_1_" class="st5">
		<defs>
			<filter id="Adobe_OpacityMaskFilter" filterUnits="userSpaceOnUse" x="52.7" y="73.9" width="34.4" height="37.5">
				<feFlood  style="flood-color:white;flood-opacity:1" result="back"/>
				<feBlend  in="SourceGraphic" in2="back" mode="normal"/>
			</filter>
		</defs>
		<mask maskUnits="userSpaceOnUse" x="52.7" y="73.9" width="34.4" height="37.5" id="SVGID_1_">
			<g class="st6">

					<image style="overflow:visible;" width="40" height="43" xlink:href="F927F2C7A3BC4EDA.jpg"  transform="matrix(1 0 0 1 50 70.92)">
				</image>
			</g>
		</mask>
		<g class="st7">

				<ellipse transform="matrix(0.9815 -0.1913 0.1913 0.9815 -16.4361 15.0765)" class="st8" cx="69.9" cy="92.7" rx="17.1" ry="18.8"/>
		</g>
	</g>
	<path class="st9" d="M82.3,149c-6.3-6.2-7.2-10.7-6.8-13.6c0.3-2.7,1.7-3.4,1.4-6.2c-0.4-4.4-4-5.6-4.9-10
		c-0.4-2.6,0.1-5.3,1.5-7.5"/>
</g>
<g id="ballon24">

		<ellipse id="bal4" transform="matrix(0.3697 -0.9292 0.9292 0.3697 -20.6197 168.9162)" class="st10" cx="114.2" cy="99.7" rx="18.8" ry="17.1"/>
	<g id="bal4_1_">
		<defs>
			<filter id="Adobe_OpacityMaskFilter_1_" filterUnits="userSpaceOnUse" x="95.8" y="80" width="36.7" height="39.2">
				<feFlood  style="flood-color:white;flood-opacity:1" result="back"/>
				<feBlend  in="SourceGraphic" in2="back" mode="normal"/>
			</filter>
		</defs>
		<mask maskUnits="userSpaceOnUse" x="95.8" y="80" width="36.7" height="39.2" id="SVGID_2_">
			<g class="st11">

					<image style="overflow:visible;" width="42" height="44" xlink:href="F927F2C7A3BC4EDE.jpg"  transform="matrix(1 0 0 1 93 77.92)">
				</image>
			</g>
		</mask>
		<g class="st12">

				<ellipse transform="matrix(0.3697 -0.9292 0.9292 0.3697 -20.6197 168.9162)" class="st13" cx="114.2" cy="99.7" rx="18.8" ry="17.1"/>

				<ellipse transform="matrix(0.3697 -0.9292 0.9292 0.3697 -20.6197 168.9162)" class="st14" cx="114.2" cy="99.7" rx="18.8" ry="17.1"/>
		</g>
	</g>
	<path class="st9" d="M113.6,156.3c-5.4-7-5.7-11.5-4.9-14.4c0.7-2.6,2.1-3.2,2.2-6c0.2-4.4-3.2-6.1-3.5-10.6c0-2.6,0.8-5.2,2.4-7.2
		"/>
</g>
<g id="ballon3">

		<ellipse id="bal3" transform="matrix(0.1019 -0.9948 0.9948 0.1019 11.3887 154.4182)" class="st15" cx="91.2" cy="70.9" rx="18.8" ry="17.1"/>
	<g id="bal3_1_">
		<defs>
			<filter id="Adobe_OpacityMaskFilter_2_" filterUnits="userSpaceOnUse" x="73.1" y="51.1" width="36.3" height="39.6">
				<feFlood  style="flood-color:white;flood-opacity:1" result="back"/>
				<feBlend  in="SourceGraphic" in2="back" mode="normal"/>
			</filter>
		</defs>
		<mask maskUnits="userSpaceOnUse" x="73.1" y="51.1" width="36.3" height="39.6" id="SVGID_3_">
			<g class="st16">

					<image style="overflow:visible;" width="41" height="44" xlink:href="F927F2C7A3BC4ED9.jpg"  transform="matrix(1 0 0 1 71 48.92)">
				</image>
			</g>
		</mask>
		<g class="st17">

				<ellipse transform="matrix(0.1019 -0.9948 0.9948 0.1019 11.3887 154.4182)" class="st18" cx="91.2" cy="70.9" rx="18.8" ry="17.1"/>

				<ellipse transform="matrix(0.1019 -0.9948 0.9948 0.1019 11.3887 154.4182)" class="st14" cx="91.2" cy="70.9" rx="18.8" ry="17.1"/>
		</g>
	</g>
	<path class="st9" d="M87.7,135.8c5.1-8.1,5.3-13.5,4.6-16.9c-0.7-3.2-2-3.9-2.2-7.3c-0.2-5.3,3-7.1,3.2-12.4c0-3.1-0.8-6.2-2.4-8.8
		"/>
</g>
<g id="ballon5">

		<ellipse id="bal5" transform="matrix(0.1019 -0.9948 0.9948 0.1019 46.1923 213.2818)" class="st19" cx="141.2" cy="81.1" rx="18.8" ry="17.1"/>
	<g id="bal5_1_">
		<defs>
			<filter id="Adobe_OpacityMaskFilter_3_" filterUnits="userSpaceOnUse" x="124.1" y="62.3" width="34.3" height="37.6">
				<feFlood  style="flood-color:white;flood-opacity:1" result="back"/>
				<feBlend  in="SourceGraphic" in2="back" mode="normal"/>
			</filter>
		</defs>
		<mask maskUnits="userSpaceOnUse" x="124.1" y="62.3" width="34.3" height="37.6" id="SVGID_4_">
			<g class="st20">

					<image style="overflow:visible;" width="39" height="42" xlink:href="F927F2C7A3BC4EDB.jpg"  transform="matrix(1 0 0 1 122 59.92)">
				</image>
			</g>
		</mask>
		<g class="st21">

				<ellipse transform="matrix(0.1019 -0.9948 0.9948 0.1019 46.1923 213.2818)" class="st22" cx="141.2" cy="81.1" rx="18.8" ry="17.1"/>
		</g>
	</g>
	<path class="st9" d="M134.2,137.5c5.9-7,6.2-11.5,5.4-14.3c-0.7-2.6-2.2-3.1-2.3-5.9c-0.2-4.4,3.6-6.1,3.9-10.5
		c0.1-1.7-0.2-4.1-2.5-7.1"/>
</g>
<g id="ballon1">

		<ellipse id="bal1" transform="matrix(0.9815 -0.1913 0.1913 0.9815 -15.4908 9.2876)" class="st23" cx="40.4" cy="84.9" rx="17.1" ry="18.8"/>
	<g id="bal1_1_">
		<defs>
			<filter id="Adobe_OpacityMaskFilter_4_" filterUnits="userSpaceOnUse" x="23.2" y="66.1" width="34.4" height="37.5">
				<feFlood  style="flood-color:white;flood-opacity:1" result="back"/>
				<feBlend  in="SourceGraphic" in2="back" mode="normal"/>
			</filter>
		</defs>
		<mask maskUnits="userSpaceOnUse" x="23.2" y="66.1" width="34.4" height="37.5" id="SVGID_5_">
			<g class="st24">

					<image style="overflow:visible;" width="39" height="42" xlink:href="F927F2C7A3BC4ED8.jpg"  transform="matrix(1 0 0 1 21 63.92)">
				</image>
			</g>
		</mask>
		<g class="st25">

				<ellipse transform="matrix(0.9815 -0.1913 0.1913 0.9815 -15.4908 9.2876)" class="st26" cx="40.4" cy="84.9" rx="17.1" ry="18.8"/>
		</g>
	</g>
	<path class="st9" d="M47,141.6c4.1-7.9,3.6-12.4,2.3-15c-1.2-2.4-2.6-2.8-3.3-5.5c-1-4.3,2.1-6.6,1.6-11c-0.4-2.6-1.7-5-3.7-6.7"/>
</g>
</svg>
