<?xml version="1.0" encoding="utf-8"?>
<!-- Generator: Adobe Illustrator 22.1.0, SVG Export Plug-In . SVG Version: 6.00 Build 0)  -->
<svg version="1.1" id="reading" xmlns="http://www.w3.org/2000/svg" xmlns:xlink="http://www.w3.org/1999/xlink" x="0px" y="0px"
	 viewBox="0 0 180.9 180.9" style="enable-background:new 0 0 180.9 180.9;" xml:space="preserve">
<style type="text/css">
	.st0{fill:#333333;}
	.st1{fill:#E7C4C4;}
	.st2{fill:#335A97;}
	.st3{fill:#AD5926;}
	.st4{fill:#345B98;}
	.st5{fill:#325895;}
	.st6{fill:#315792;}
	.st7{fill:#355D9C;}
	.st8{fill:#305590;}
	.st9{fill:#30548E;}
	.st10{fill:#365E9D;}
	.st11{fill:#C79C7E;}
	.st12{fill:#C38574;}
	.st13{fill:#B97255;}
	.st14{fill:#D09973;}

		.st15{opacity:0.58;fill:none;stroke:#8F573F;stroke-width:3;stroke-linecap:round;stroke-linejoin:round;enable-background:new    ;}
	.st16{opacity:0.6;}
	.st17{filter:url(#Adobe_OpacityMaskFilter);}
	.st18{mask:url(#SVGID_1_);}
	.st19{fill:#CF1E4B;}
	.st20{filter:url(#Adobe_OpacityMaskFilter_1_);}
	.st21{mask:url(#SVGID_2_);}
	.st22{fill:#D0805F;}
	.st23{opacity:0.82;clip-path:url(#SVGID_4_);}
	.st24{filter:url(#Adobe_OpacityMaskFilter_2_);}
	.st25{mask:url(#SVGID_5_);}
	.st26{fill:#F4D39D;}
	.st27{fill:#F8DABB;}
	.st28{fill:#8F573F;}
	.st29{fill:#4A4036;}
	.st30{opacity:0.56;fill:#F8DABB;enable-background:new    ;}
	.st31{fill:#355E9D;}
	.st32{fill:#3760A1;}
	.st33{fill:#3761A3;}
	.st34{fill:#E6E7E8;}
	.st35{fill:#CDCFD0;}
	.st36{fill:#650202;}
	.st37{fill:#731012;}
	.st38{fill:#A11D22;}
	.st39{fill:#DBBABD;}



  #text{
   animation: rotation 20s infinite;
   transform-origin: center;
   }

   #eyebrowRight{
   transition: transform 0.5s ease-in-out;
   }

   #eyebrowLeft{
   transition: transform 0.5s ease-in-out;
   }

 #reading:hover #eyebrowLeft{
  transform: translateY(-5px);
  }
  #reading:hover #eyebrowRight{
   transform: translateY(-5px);
   }

   @keyframes rotation{
   from{
   transform: rotateZ(0deg);
   }
   to{
   transform: rotate(360deg);
   }
   }

   
</style>
<title>book</title>
<ellipse id="bg" transform="matrix(0.7071 -0.7071 0.7071 0.7071 -37.4698 90.4598)" class="st0" cx="90.5" cy="90.5" rx="90.4" ry="90.5"/>
<path id="text" class="st1" d="M51.3,33l-0.2,0.9c-0.2-0.1-0.3-0.3-0.4-0.5c-0.4-0.6-0.5-1.4-0.2-2.1c0.3-0.7,0.8-1.2,1.4-1.5
	l2.1-1.4c0.9-0.6,1.2-1.1,0.8-1.7c-0.1-0.2-0.3-0.3-0.5-0.4l0.2-0.7c0.2,0.1,0.4,0.3,0.5,0.5c0.3,0.5,0.3,1.1,0.1,1.6
	c-0.2,0.6-0.7,1.2-1.3,1.5l-1,0.6l1.3,2.6l0.2,0.4c0.2,0.3,0.2,0.6,0.2,0.9c0,0.3-0.2,0.6-0.3,0.8l1.1-0.6l-0.2,0.7l-1.8,1l0.2-0.8
	l0.4-0.2c0.2-0.5,0.1-1-0.2-1.5l-0.2-0.4l-1.3-2.7l-0.6,0.4c-1,0.6-1.3,1.3-0.9,2C50.9,32.7,51.1,32.9,51.3,33z M57.9,30.2
	c0-0.6,0.2-1.1,0.4-1.6c0.1-0.4,0.4-0.7,0.7-0.9c0.2-0.1,0.5,0,0.6,0.3c0.1,0.2,0.1,0.3,0.2,0.5l0.5,1.5c0.1,0.2,0.2,0.5,0.3,0.7
	c0.1,0.1,0.1,0.2,0.2,0.1s0.3-0.4,0.3-1c0.1,0,0.1,0,0.2,0.1c0.1,0.3,0,0.6-0.1,0.9c-0.1,0.3-0.2,0.6-0.5,0.8
	c-0.2,0.1-0.4,0-0.5-0.3c-0.1-0.3-0.3-0.6-0.4-0.9l-0.3-1c-0.1-0.3-0.2-0.6-0.3-0.8s-0.2-0.3-0.4-0.2c-0.4,0.3-0.6,0.7-0.6,1.2
	c-0.1,0.6,0,1.2,0.2,1.7l0.4,1l-0.5,0.5l0-0.1l-0.1-0.3L58,32.1l-1.4-3.5c-0.3-0.8-0.4-1.6-0.2-2.5c0.1-0.7,0.6-1.3,1.2-1.7
	c0.1-0.1,0.2-0.1,0.3-0.2L57.7,25c-0.2,0-0.3,0.1-0.4,0.2c-0.8,0.4-0.9,1.2-0.4,2.5L57.9,30.2z M63.8,28c-0.1,0.6-0.2,1.1-0.5,1.6
	c-0.1,0.4-0.4,0.7-0.7,0.9c-0.4,0.2-0.7,0-0.9-0.6c-0.4-0.8-0.4-1.6-0.1-2.4c0.2-0.7,0.7-1.3,1.4-1.7c0.2-0.1,0.5-0.2,0.7-0.2
	c0,0.1,0,0.1,0,0.1v0.2c0,0.1,0,0.2,0.1,0.3l0.6,1.8l0.1,0.3c0.1,0.3,0.1,0.4,0.2,0.5s0.1,0.2,0.2,0.1c0.2-0.1,0.3-0.4,0.3-1
	c0.1,0,0.1,0,0.2,0.1c0,0.2,0,0.5-0.1,0.7c-0.1,0.4-0.3,0.7-0.6,0.9c-0.2,0.1-0.3,0-0.5-0.3c0-0.1-0.1-0.2-0.1-0.3L64,28.7l-0.1-0.4
	L63.8,28z M63.3,26.4c-0.3,0-0.6,0-0.8,0.1c-0.4,0.2-0.6,0.6-0.6,1.1c0,0.6,0.1,1.3,0.4,1.8c0.2,0.3,0.3,0.5,0.5,0.4
	s0.4-0.4,0.6-0.9c0.2-0.7,0.3-1.4,0.1-2L63.3,26.4z M66.1,25.1l0.5,1.9c0.1,0.2,0.1,0.5,0.2,0.7c0.1,0.3,0.3,0.4,0.5,0.3
	s0.4-0.4,0.5-0.8c0,0,0.1,0.1,0.1,0.1c0.1,0.1,0,0.4-0.2,0.7c-0.1,0.2-0.3,0.4-0.6,0.6c-0.4,0.1-0.7,0-0.8-0.5
	c-0.1-0.2-0.2-0.5-0.3-0.9l-0.5-1.8l-0.8,0.3L65,25l0.4-0.2l-0.2-0.8l0.5-0.4l0.2,1l1.7-0.7l-0.3,0.6L66.1,25.1z M72.3,26.6L71.7,27
	v-0.1v-0.3l-0.1-0.3l-0.3-2v-0.2c0-0.1-0.1-0.3-0.1-0.4c0-0.2-0.1-0.2-0.2-0.2s-0.4,0.4-0.5,0.9c-0.1,0-0.1-0.1-0.1-0.1
	c0-0.3,0.1-0.6,0.3-0.8c0.2-0.4,0.4-0.6,0.6-0.6s0.4,0.1,0.5,0.4c0,0.1,0.1,0.2,0.1,0.3l0.1,0.3v0.3v0.3c0.2-0.5,0.4-1,0.7-1.4
	c0.2-0.3,0.5-0.6,0.9-0.8c0.3-0.1,0.4,0.1,0.6,0.5c0,0.2,0.1,0.3,0.1,0.5l0.2,1.6c0,0.3,0.1,0.5,0.1,0.8c0,0.1,0.1,0.2,0.2,0.2
	s0.4-0.4,0.5-1c0.1,0,0.1,0.1,0.1,0.1c0,0.3-0.1,0.6-0.3,0.8c-0.2,0.4-0.4,0.6-0.6,0.6S74,26.3,74,26c-0.1-0.3-0.1-0.7-0.2-1l-0.2-1
	c0-0.3-0.1-0.5-0.1-0.8c-0.1-0.2-0.2-0.3-0.3-0.3c-0.4,0.1-0.7,0.4-0.9,1c-0.2,0.5-0.3,1.1-0.2,1.7L72.3,26.6z M77.7,24.2
	c0.1,0,0.1,0.1,0.1,0.1c0,0.2-0.1,0.5-0.2,0.7c-0.2,0.5-0.5,0.7-0.8,0.8s-0.3-0.1-0.4-0.3c-0.1-0.4-0.1-0.7-0.1-1.1l-0.1-1.2v-0.3
	v-0.2c0-0.1,0-0.2,0-0.2s-0.1-0.2-0.2-0.2s-0.4,0.3-0.6,0.9c-0.1,0-0.1-0.1-0.1-0.1c0-0.2,0.1-0.4,0.3-0.8s0.5-0.5,0.7-0.6
	s0.3,0.1,0.4,0.4c0,0.1,0,0.2,0,0.4v0.3c0,0,0,0.1,0,0.4l0.1,1.2v0.3c0,0.2,0.1,0.4,0.1,0.6c0,0.1,0.1,0.2,0.2,0.2
	C77.3,25.1,77.5,24.8,77.7,24.2L77.7,24.2z M76.1,21l0.2-0.9c0.3-0.2,0.5-0.4,0.7-0.7c0,0,0.1,0.1,0.1,0.1
	C77.1,19.9,76.8,20.4,76.1,21L76.1,21z M81.2,20.8c0,0,0,0.1,0,0.1v0.2c0,0.2,0,0.3,0,0.3l0.1,1.6c0,0.3,0.1,0.7,0.1,1.4
	c0.1,0.6,0.1,1.2,0.1,1.9c0,0.4-0.2,0.8-0.4,1.1c-0.4,0.7-1.2,1.3-2,1.4c-0.3,0.1-0.7,0-1-0.2c-0.3-0.2-0.5-0.5-0.5-0.9
	c-0.1-0.9,0.3-1.9,1-2.5c-0.3-0.2-0.4-0.5-0.4-0.8c-0.1-0.8,0-1.7,0.5-2.4c0.4-0.7,1.1-1.1,1.8-1.3C80.7,20.8,81,20.8,81.2,20.8
	L81.2,20.8z M80.7,23.2c-0.6,1.3-1.2,2-1.8,2.1h-0.1c-0.5,0.5-0.7,1.2-0.7,1.9c0,0.3,0.2,0.6,0.5,0.8c0.3,0.2,0.7,0.3,1,0.2
	c0.6-0.1,1-0.5,1.2-1c0.2-0.9,0.2-1.9,0-2.8C80.8,23.9,80.7,23.5,80.7,23.2L80.7,23.2z M80.6,21.5c-0.3-0.1-0.5-0.1-0.8-0.1
	c-0.4,0.1-0.7,0.4-0.9,0.9c-0.2,0.6-0.2,1.2-0.1,1.9c0.1,0.4,0.2,0.5,0.4,0.5s0.5-0.3,0.8-0.7c0.4-0.6,0.6-1.3,0.6-2L80.6,21.5z
	 M83.2,22.2c0.3-0.5,0.6-1,1-1.4c0.3-0.3,0.6-0.5,1-0.6c0.3,0,0.4,0.1,0.5,0.5c0,0.2,0,0.4,0,0.5L85.6,23c0,0.3,0,0.5,0,0.8
	c0,0.1,0.1,0.2,0.1,0.2s0.4-0.3,0.7-0.9c0.1,0,0.1,0.1,0.1,0.1c-0.2,0.6-0.6,1.1-1.1,1.3c-0.2,0-0.3-0.1-0.4-0.4c0-0.3,0-0.7,0-1
	L85,22c0-0.3,0-0.5,0-0.8c0-0.2-0.1-0.3-0.3-0.3c-0.4,0.1-0.8,0.4-1,0.9c-0.3,0.5-0.5,1.1-0.5,1.7v1l-0.6,0.3V24v-3.8
	c0-0.8,0.3-1.7,0.8-2.4c0.4-0.6,1-1,1.8-1.1c0.1,0,0.3,0,0.4,0L85,17.4c-0.2,0-0.3,0-0.5,0c-0.8,0.1-1.3,0.8-1.3,2.1L83.2,22.2z
	 M88.1,20.7L88,22.6c0,0.3,0,0.5,0,0.8c0,0.3,0.1,0.5,0.3,0.5s0.5-0.2,0.7-0.6c0,0,0.1,0.1,0.1,0.1c0,0.2-0.1,0.4-0.4,0.6
	c-0.2,0.2-0.4,0.3-0.7,0.4c-0.4,0-0.6-0.2-0.6-0.8c0-0.3,0-0.6,0-0.9l0.1-1.9h-0.9l0.5-0.5h0.4l0.1-0.8l0.6-0.2l-0.1,1l1.8-0.1
	l-0.5,0.5L88.1,20.7z M92.7,24l0.6-0.5h0.1c0.2,0.1,0.3,0.1,0.5,0.1c0.2-0.1,0.4-0.3,0.5-0.5c0.1-0.4,0.2-0.7,0.3-1.1l0.5-3.2
	c-0.5,0-1,0.1-1.4,0.4c-0.3,0.2-0.6,0.6-0.6,1c0,0.3,0,0.5,0.2,0.7l-0.7,0.6c0-0.2,0-0.4,0-0.7c0-0.7,0.4-1.4,1-1.8
	c0.8-0.5,1.7-0.7,2.6-0.6c1.3,0.1,2,0.5,1.9,1.2s-0.5,1.1-1.5,1.5c0.9,0.4,1.3,0.9,1.3,1.6c0,0.6-0.4,1.1-0.9,1.3
	c-0.7,0.3-1.5,0.4-2.3,0.4C94,24.3,93.4,24.2,92.7,24L92.7,24z M95.5,21.4L95.4,22l-0.1,0.4c0,0.3-0.1,0.6-0.3,0.9
	c-0.2,0.2-0.5,0.4-0.8,0.5c0.5,0.1,1.1,0.2,1.7,0.2c0.9,0.1,1.4-0.3,1.4-1c0-0.3-0.1-0.7-0.3-0.9c-0.2-0.3-0.5-0.5-0.9-0.6h-0.5
	L95.5,21.4z M95.9,18.8L95.5,21l0.4,0h0.5c0.5-0.2,0.9-0.7,1-1.2C97.5,19.2,97,18.9,95.9,18.8L95.9,18.8z M100.7,23.6
	c0.1,0,0.1,0.1,0.1,0.1s-0.2,0.3-0.4,0.6c-0.2,0.3-0.6,0.5-1,0.5c-0.2,0-0.3-0.2-0.3-0.5c0-0.1,0.1-0.5,0.3-1l0.3-1.1l0.1-0.3
	l0.1-0.2c0-0.1,0-0.2,0.1-0.2c0-0.1,0-0.2-0.1-0.2s-0.5,0.2-0.8,0.6c0,0-0.1-0.1-0.1-0.2c0-0.2,0.2-0.4,0.6-0.6
	c0.2-0.2,0.5-0.3,0.8-0.3c0.2,0,0.3,0.2,0.3,0.5c0,0.1,0,0.2-0.1,0.3l-0.1,0.3l-0.1,0.3l-0.3,1.2l-0.1,0.3c-0.1,0.2-0.1,0.4-0.1,0.5
	c0,0.1,0,0.2,0.1,0.2C100.1,24.3,100.4,24.1,100.7,23.6L100.7,23.6z M100.3,20.1l0.5-0.8c0.3-0.1,0.6-0.2,0.8-0.4c0,0,0,0.1,0,0.1
	C101.6,19.3,101.1,19.7,100.3,20.1L100.3,20.1z M102.9,23.9c0.1,0,0.1,0.1,0.1,0.2c0,0.2-0.2,0.4-0.6,0.7c-0.2,0.2-0.5,0.3-0.8,0.3
	c-0.2,0-0.3-0.2-0.3-0.6c0-0.2,0.1-0.4,0.1-0.6l0.1-0.4l0.8-2.9c0.2-0.8,0.7-1.5,1.3-2.1c0.5-0.5,1.2-0.7,1.9-0.6
	c0.1,0,0.3,0.1,0.4,0.1l-0.7,0.5c-0.1-0.1-0.3-0.1-0.4-0.1c-0.4-0.1-0.7,0-1,0.3c-0.3,0.4-0.6,0.9-0.7,1.5l-1,3.5
	c-0.1,0.3-0.1,0.5-0.1,0.6s0,0.4,0.1,0.4c0.2,0,0.3-0.1,0.4-0.2C102.7,24.3,102.8,24.1,102.9,23.9L102.9,23.9z M104.8,23.2
	c0.4-0.4,0.8-0.8,1.3-1.1c0.3-0.2,0.7-0.3,1.1-0.3c0.4,0.1,0.5,0.5,0.4,1.1c-0.1,0.8-0.6,1.5-1.2,2c-0.6,0.5-1.4,0.7-2.1,0.5
	c-0.1,0-0.2,0-0.2-0.1l-0.3-0.1h-0.2c0.1-0.2,0.2-0.4,0.3-0.6l1.2-3.5c0.3-0.8,0.8-1.5,1.4-2c0.6-0.5,1.3-0.7,2-0.5
	c0.1,0,0.3,0.1,0.4,0.1l-0.8,0.5c-0.1-0.1-0.3-0.1-0.4-0.2c-0.8-0.2-1.5,0.4-1.9,1.6L104.8,23.2z M104.3,24.9
	c0.2,0.2,0.5,0.3,0.7,0.4c0.4,0.1,0.8-0.1,1.1-0.5c0.4-0.5,0.6-1.1,0.7-1.7c0.1-0.4,0-0.6-0.2-0.7c-0.4,0-0.7,0.1-1,0.4
	c-0.6,0.4-1,1-1.2,1.6L104.3,24.9z M108.2,26.5c-0.6-0.2-0.8-0.7-0.6-1.5c0.2-0.7,0.6-1.3,1.2-1.7c0.5-0.4,1.1-0.6,1.8-0.5
	c0.6,0.2,0.8,0.7,0.6,1.5c-0.2,0.7-0.6,1.3-1.2,1.7C109.5,26.4,108.9,26.6,108.2,26.5L108.2,26.5z M108.9,26.2
	c0.3,0.1,0.7-0.1,0.9-0.3c0.3-0.3,0.6-0.8,0.7-1.2c0.2-0.9,0.1-1.4-0.4-1.5c-0.3-0.1-0.7,0.1-0.9,0.3c-0.3,0.3-0.6,0.8-0.7,1.2
	C108.2,25.5,108.3,26,108.9,26.2L108.9,26.2z M116.3,28.9h-0.7v-0.1l0.2-0.3l0.1-0.3l0.9-1.7l0.1-0.2c0-0.1,0.1-0.2,0.1-0.3
	c0.1-0.3,0.1-0.4-0.1-0.5s-0.6,0-1.2,0.4c-0.5,0.3-0.9,0.7-1.1,1.2l-0.5,0.9h-0.7V28l0.2-0.3l0.2-0.3l0.9-1.8l0.1-0.2
	c0.1-0.1,0.1-0.3,0.2-0.4c0.1-0.2,0.1-0.3,0-0.3s-0.5,0.1-0.9,0.4c0-0.1-0.1-0.1,0-0.2s0.3-0.3,0.7-0.5c0.3-0.1,0.6-0.2,0.9-0.1
	c0.2,0.1,0.3,0.3,0.2,0.6c0,0.1-0.1,0.2-0.1,0.3l-0.2,0.3l-0.1,0.2l-0.1,0.3l0.2-0.1c1-0.7,1.7-1,2.2-0.8c0.2,0.1,0.3,0.3,0.2,0.7
	c0,0.1-0.1,0.2-0.2,0.4l-0.2,0.4l-0.2,0.5c0.4-0.4,0.9-0.7,1.4-0.9c0.3-0.2,0.7-0.2,1.1-0.1c0.3,0.1,0.3,0.3,0.2,0.7
	c-0.1,0.2-0.2,0.3-0.2,0.5l-0.8,1.4c-0.1,0.2-0.3,0.4-0.3,0.7c-0.1,0.1,0,0.2,0,0.3c0.1,0,0.3,0,0.4-0.1c0.2-0.1,0.4-0.2,0.5-0.4
	c0,0.1,0.1,0.1,0,0.2s-0.3,0.3-0.7,0.5c-0.3,0.1-0.6,0.2-0.9,0.1c-0.2-0.1-0.3-0.3-0.2-0.6c0.1-0.3,0.3-0.6,0.4-0.9l0.5-0.9l0.1-0.2
	c0,0,0.1-0.1,0.1-0.2c0-0.1,0.1-0.2,0.1-0.3c0.1-0.2,0.1-0.4-0.1-0.4s-0.6,0-1.2,0.4c-0.5,0.3-0.9,0.7-1.1,1.2L116.3,28.9z
	 M122.6,30c-0.5,0.3-1,0.5-1.5,0.7c-0.4,0.1-0.8,0.1-1.1,0c-0.3-0.2-0.4-0.5-0.1-1.1c0.4-0.8,1-1.3,1.8-1.6c0.7-0.3,1.5-0.3,2.2,0
	c0.2,0.1,0.4,0.3,0.6,0.4l-0.1,0.1l-0.2,0.2l-0.2,0.2l-1.1,1.6l-0.2,0.2c-0.1,0.1-0.2,0.3-0.3,0.5c0,0.1,0,0.2,0,0.2s0.6,0,1-0.4
	c0,0.1,0.1,0.1,0,0.2s-0.2,0.2-0.6,0.4c-0.3,0.2-0.7,0.3-1.1,0.1c-0.2-0.1-0.2-0.3-0.1-0.5c0.1-0.1,0.1-0.2,0.2-0.3l0.2-0.3l0.2-0.3
	L122.6,30z M123.6,28.6c-0.2-0.2-0.4-0.4-0.6-0.5c-0.4-0.2-0.9-0.1-1.2,0.2c-0.5,0.4-0.9,0.9-1.2,1.5c-0.2,0.3-0.2,0.5,0,0.6
	c0.4,0.1,0.8,0.1,1.1-0.1c0.7-0.2,1.2-0.7,1.6-1.3L123.6,28.6z M127.9,30.3l0.2-0.3c0.5-0.7,1.2-1.2,2-1.5c0.7-0.3,1.4-0.2,2,0.1
	c0.1,0.1,0.2,0.2,0.3,0.2l-0.8,0.2c-0.1-0.1-0.2-0.2-0.4-0.3c-0.3-0.2-0.7-0.2-1.1-0.1c-0.5,0.3-0.9,0.6-1.1,1.1l-2.1,2.9l-0.2,0.2
	c-0.1,0.1-0.2,0.3-0.3,0.4c-0.1,0.1-0.1,0.2,0,0.2s0.6,0,1-0.3c0,0.1,0.1,0.1,0,0.2c-0.2,0.2-0.4,0.3-0.6,0.3
	c-0.3,0.2-0.7,0.2-1.1,0.1c-0.2-0.1-0.2-0.3,0-0.6c0.1-0.2,0.2-0.4,0.4-0.5l0.2-0.3l0.2-0.2c-0.4,0.3-0.9,0.5-1.4,0.6
	c-0.4,0.1-0.8,0.1-1.2,0c-0.3-0.2-0.4-0.6,0-1.1c0.4-0.7,1.1-1.2,1.8-1.5C126.4,29.9,127.2,29.9,127.9,30.3
	C127.9,30.3,127.9,30.3,127.9,30.3L127.9,30.3z M127.5,30.8c-0.1-0.2-0.3-0.4-0.5-0.5c-0.4-0.2-0.9-0.2-1.3,0.1
	c-0.5,0.3-1,0.8-1.3,1.4c-0.2,0.3-0.2,0.5,0,0.6c0.3,0.1,0.7,0.1,1.1,0c0.7-0.2,1.2-0.6,1.6-1.2L127.5,30.8z M130.1,34.9
	c0,0.1,0,0.1,0,0.2c-0.1,0.1-0.2,0.2-0.5,0.2c-0.5,0.2-1.2,0.2-1.7-0.1c-0.2-0.2-0.4-0.4-0.4-0.7c0-0.3,0.1-0.6,0.2-0.9
	c0.4-0.6,1-1,1.7-1.2c0.6-0.3,1.2-0.3,1.8,0c0.2,0.1,0.3,0.4,0.2,0.6c0,0,0,0.1-0.1,0.1c-0.3,0.4-0.7,0.6-1.2,0.7
	c-0.6,0.1-1.2,0.1-1.7-0.1c-0.3,0.6-0.3,1,0.1,1.3C129.1,35.3,129.7,35.3,130.1,34.9L130.1,34.9z M128.8,33.3c0,0.1,0.1,0.1,0.2,0.2
	c0.3,0.2,0.6,0.3,0.9,0.2c0.3,0,0.6-0.2,0.8-0.4c0.2-0.2,0.1-0.5,0-0.6c0,0-0.1,0-0.1-0.1c-0.3-0.1-0.5-0.1-0.8,0
	C129.4,32.8,129,33,128.8,33.3L128.8,33.3z M135.2,38.4c-0.5,0.2-1.1,0.3-1.6,0.3c-0.4,0-0.8,0-1.1-0.2c-0.2-0.2-0.2-0.4,0-0.7
	c0.2-0.2,0.3-0.3,0.5-0.5l1-1l0.2-0.2l0.2-0.2l0.1-0.2c0.1-0.1,0.1-0.2,0-0.3s-0.5-0.1-1,0.1c0,0,0-0.1,0-0.2
	c0.1-0.1,0.4-0.2,0.8-0.3c0.3-0.1,0.6,0,0.9,0.1c0.2,0.2,0.2,0.3,0,0.6l-0.2,0.2l-0.2,0.2l-0.3,0.3l-0.9,0.9
	c-0.1,0.2-0.3,0.3-0.4,0.5s-0.1,0.3,0,0.4c0.4,0.2,0.9,0.2,1.4,0.1c0.6-0.1,1.1-0.4,1.6-0.8l0.8-0.7l0.7,0.2
	c-0.3,0.2-0.5,0.4-0.7,0.6l-1.3,1.3l-0.2,0.2l-0.2,0.2l-0.2,0.2c-0.1,0.1-0.1,0.2,0,0.2s0.6,0.1,1.1-0.2c0,0.1,0,0.1,0,0.2
	c-0.2,0.1-0.4,0.2-0.7,0.2c-0.4,0.1-0.8,0.1-1.1-0.1c-0.2-0.1-0.2-0.3,0-0.5c0.1-0.1,0.2-0.2,0.2-0.3l0.2-0.2
	c0.1-0.1,0.2-0.2,0.3-0.3L135.2,38.4z M136.2,41.5l-0.3,0.2c-0.6,0.6-1.4,0.9-2.2,1c-0.7,0.1-1.5-0.1-2-0.6
	c-0.1-0.1-0.2-0.2-0.3-0.3h0.9c0.1,0.1,0.2,0.3,0.3,0.4c0.6,0.6,1.4,0.4,2.4-0.5l3.3-3h-0.6c-0.2,0-0.4,0-0.6-0.1l0.2-0.2
	c0.7,0.1,1.3,0.2,2,0.2l-1.5,1.3c0.5-0.2,1.1-0.3,1.6-0.3c0.4,0,0.8,0.1,1.1,0.3c0.3,0.3,0.2,0.7-0.3,1.2c-0.5,0.6-1.3,1-2.1,1.1
	c-0.7,0.1-1.5-0.1-2-0.6L136.2,41.5z M136.6,41.1c0.1,0.3,0.2,0.5,0.4,0.7c0.3,0.3,0.8,0.3,1.2,0.2c0.6-0.2,1.1-0.6,1.5-1.1
	c0.3-0.3,0.4-0.5,0.2-0.7c-0.3-0.2-0.7-0.3-1.1-0.2c-0.7,0.1-1.3,0.3-1.8,0.8L136.6,41.1z M142.8,44.7c0.6-0.1,1.1-0.1,1.7,0
	c0.4,0,0.8,0.2,1.1,0.5c0.2,0.2,0.1,0.4-0.2,0.7c-0.1,0.1-0.3,0.2-0.4,0.3l-1.3,0.9c-0.2,0.1-0.4,0.3-0.6,0.5
	c-0.1,0.1-0.1,0.2-0.1,0.2s0.5,0.2,1.1,0c0,0.1,0,0.1,0,0.2c-0.3,0.2-0.6,0.2-0.9,0.1c-0.3,0-0.6-0.1-0.9-0.3
	c-0.1-0.2-0.1-0.4,0.1-0.6c0.2-0.2,0.5-0.4,0.8-0.6L144,46c0.2-0.1,0.4-0.3,0.6-0.5c0.2-0.2,0.2-0.3,0.1-0.4
	c-0.4-0.3-0.8-0.4-1.3-0.3c-0.6,0-1.1,0.2-1.6,0.6L141,46l-0.6-0.3l0.1-0.1l0.3-0.2l0.2-0.2l3-2.2c0.7-0.5,1.5-0.8,2.4-0.8
	c0.7,0,1.4,0.2,1.9,0.8c0.1,0.1,0.2,0.2,0.2,0.3l-0.9-0.1c-0.1-0.1-0.2-0.3-0.3-0.4c-0.6-0.6-1.4-0.6-2.5,0.2L142.8,44.7z
	 M145.6,49.8c0,0.1,0,0.1,0,0.2c-0.2,0.1-0.5,0.1-0.7,0.1c-0.4,0-0.8-0.1-1.1-0.3c-0.1-0.2-0.1-0.3,0.1-0.5s0.4-0.3,0.9-0.6l1-0.6
	l0.3-0.2l0.2-0.1l0.2-0.1c0.1-0.1,0.1-0.2,0.1-0.2s-0.5-0.2-1-0.1c0-0.1,0-0.1,0.1-0.2c0.3-0.1,0.6-0.1,0.9-0.1
	c0.3,0,0.6,0.1,0.8,0.3c0.1,0.2,0.1,0.3-0.1,0.5l-0.3,0.2l-0.2,0.2l-0.3,0.2l-1.1,0.6l-0.2,0.1l-0.5,0.3c-0.1,0.1-0.1,0.1-0.1,0.2
	S145,49.9,145.6,49.8L145.6,49.8z M147.7,47l0.9-0.3c0.3,0.2,0.6,0.3,0.9,0.3c0,0,0,0.1-0.1,0.1C149.1,47.3,148.6,47.3,147.7,47
	L147.7,47z M144.8,50.6l0.7,0.2c-0.1,0.3,0,0.6,0.2,0.9c0.1,0.3,0.4,0.4,0.7,0.3c0.1,0,0.1-0.1,0.2-0.1c0.2-0.3,0.4-0.6,0.4-1
	l0.1-0.3c0-0.4,0.2-0.7,0.4-1c0.3-0.2,0.6-0.3,0.9-0.2c0.4,0.1,0.7,0.3,0.9,0.7c0.1,0.2,0.3,0.4,0.3,0.7l-0.7-0.1
	c0-0.3-0.1-0.5-0.2-0.7c-0.2-0.3-0.4-0.3-0.6-0.2c-0.2,0.3-0.3,0.6-0.4,0.9l-0.1,0.4c0,0.4-0.2,0.8-0.4,1.1
	c-0.3,0.2-0.7,0.3-1.1,0.2c-0.4-0.1-0.8-0.4-1-0.7C145,51.2,144.9,51,144.8,50.6L144.8,50.6z M149.8,58.1l-0.6-0.4l0.1,0l0.3-0.1
	l0.3-0.1l1.8-0.8l0.2-0.1c0.1,0,0.2-0.1,0.3-0.2c0.2-0.1,0.3-0.3,0.2-0.4s-0.5-0.4-1.2-0.4c-0.6,0-1.1,0-1.6,0.2l-1,0.4l-0.5-0.4
	l0.1,0l0.3-0.1l0.3-0.1l1.8-0.8l0.2-0.1l0.4-0.2c0.2-0.1,0.2-0.2,0.2-0.3s-0.4-0.3-1-0.2c0-0.1,0-0.1,0.1-0.2c0.3-0.1,0.6-0.1,0.8,0
	c0.3,0.1,0.6,0.2,0.8,0.4c0.1,0.2,0.1,0.4-0.2,0.6c-0.1,0.1-0.2,0.1-0.3,0.1l-0.3,0.2l-0.3,0.1l-0.3,0.1h0.3c1.2,0,2,0.3,2.2,0.8
	c0.1,0.2,0,0.4-0.3,0.6l-0.4,0.2l-0.4,0.2l-0.5,0.2c0.6-0.1,1.1,0,1.7,0.1c0.4,0,0.8,0.3,1,0.6c0.1,0.2,0,0.5-0.3,0.6
	c-0.2,0.1-0.3,0.2-0.5,0.2l-1.5,0.6c-0.2,0.1-0.5,0.2-0.7,0.3c-0.1,0.1-0.2,0.2-0.1,0.2c0.1,0.1,0.2,0.2,0.4,0.2c0.2,0,0.4,0,0.6,0
	c0,0.1,0,0.2-0.1,0.2c-0.3,0.1-0.6,0.1-0.9,0c-0.3-0.1-0.6-0.2-0.8-0.4c-0.1-0.2,0-0.4,0.2-0.6c0.3-0.2,0.6-0.3,0.9-0.4l1-0.4
	l0.2-0.1l0.2-0.1c0.1,0,0.2-0.1,0.3-0.1c0.2-0.1,0.3-0.2,0.2-0.4s-0.5-0.4-1.2-0.4c-0.6-0.1-1.1,0-1.6,0.2L149.8,58.1z M153.4,62.6
	c0,0.1,0,0.2-0.1,0.2c-0.2,0-0.5,0-0.7-0.1c-0.4,0-0.8-0.2-1-0.6c-0.1-0.2,0-0.3,0.2-0.5c0.1,0,0.4-0.2,1-0.4L154,61l0.3-0.1
	l0.2-0.1l0.2-0.1c0.1-0.1,0.2-0.1,0.1-0.2s-0.4-0.3-1-0.3c0-0.1,0-0.2,0.1-0.2c0.3-0.1,0.6,0,0.9,0.1c0.3,0.1,0.5,0.3,0.7,0.5
	c0.1,0.2,0,0.4-0.3,0.5l-0.3,0.1l-0.3,0.1l-0.3,0.1l-1.2,0.4l-0.3,0.1c-0.2,0-0.3,0.1-0.5,0.2c-0.1,0.1-0.2,0.1-0.1,0.2
	C152.4,62.5,152.8,62.6,153.4,62.6L153.4,62.6z M156,60.3l1-0.1c0.2,0.2,0.5,0.4,0.8,0.5c0,0,0,0.1-0.1,0.1
	C157.4,61,156.8,60.8,156,60.3z M153,64.6l-0.5-0.5h0.1l0.3-0.1l0.3-0.1l1.9-0.6l0.2-0.1l0.4-0.1c0.2-0.1,0.2-0.2,0.2-0.2
	s-0.4-0.3-0.9-0.3c0-0.1,0-0.1,0.1-0.2c0.3,0,0.6,0,0.8,0.2c0.3,0.1,0.5,0.3,0.7,0.5c0.1,0.2,0,0.4-0.3,0.5l-0.3,0.1l-0.3,0.1
	l-0.3,0.1l-0.3,0.1c0.5,0.1,1.1,0.3,1.6,0.5c0.4,0.1,0.7,0.4,0.9,0.8c0.1,0.2,0,0.4-0.4,0.6c-0.2,0.1-0.3,0.1-0.5,0.2l-1.6,0.4
	c-0.2,0.1-0.5,0.1-0.7,0.2c-0.1,0-0.2,0.1-0.2,0.2s0.4,0.3,1,0.4c0,0.1,0,0.1-0.1,0.2c-0.3,0.1-0.6,0-0.9-0.2
	c-0.3-0.1-0.6-0.3-0.7-0.5c-0.1-0.2,0-0.4,0.3-0.5c0.3-0.1,0.6-0.2,0.9-0.3l1-0.3c0.3-0.1,0.5-0.1,0.8-0.2c0.2-0.1,0.3-0.2,0.2-0.3
	c-0.2-0.4-0.7-0.7-1.1-0.7c-0.6-0.2-1.2-0.2-1.7,0L153,64.6z M159,69.4l0.4-0.1c0.8-0.2,1.7-0.2,2.5,0.1c0.7,0.2,1.2,0.7,1.4,1.4
	c0,0.1,0.1,0.3,0.1,0.4l-0.8-0.4c0-0.2,0-0.3-0.1-0.5c-0.1-0.4-0.4-0.7-0.7-0.8c-0.5-0.1-1.1-0.1-1.6,0.1l-3.5,0.8l-0.3,0.1
	c-0.2,0-0.4,0.1-0.5,0.1s-0.2,0.1-0.2,0.2c0.1,0.2,0.4,0.4,1,0.4c0,0.1,0,0.1-0.1,0.2c-0.2,0-0.5,0-0.7-0.1
	c-0.5-0.2-0.8-0.4-0.9-0.7s0-0.4,0.3-0.5l0.6-0.2l0.4-0.1l0.3-0.1c-0.5-0.1-1-0.2-1.5-0.5c-0.4-0.2-0.7-0.5-0.9-0.8
	c-0.1-0.4,0.1-0.7,0.7-0.9c0.8-0.3,1.6-0.2,2.4,0.1c0.7,0.2,1.3,0.8,1.6,1.5C159,69.3,159,69.4,159,69.4L159,69.4z M158.4,69.6
	c0.1-0.2,0.1-0.5,0-0.7c-0.2-0.4-0.6-0.7-1-0.8c-0.6-0.1-1.3,0-1.9,0.2c-0.4,0.1-0.5,0.3-0.4,0.5s0.4,0.5,0.9,0.7
	c0.6,0.3,1.3,0.3,2,0.2L158.4,69.6z M155.6,72.7c0.2-0.2,0.4-0.4,0.4-0.7l0.8,0.4c-0.1,0.2-0.3,0.5-0.4,0.7L155.6,72.7z M160.2,76.4
	l-0.8-0.6c0.9-0.5,2-0.3,2.7,0.4c0.5,0.5,0.8,1.2,0.9,1.9l0.5,2.5c0.2,1,0.6,1.5,1.3,1.4c0.2,0,0.4-0.2,0.6-0.3l0.6,0.4
	c-0.2,0.2-0.4,0.3-0.6,0.3c-0.6,0.1-1.1-0.1-1.5-0.5c-0.5-0.5-0.8-1.1-0.9-1.7l-0.2-1.2l-2.9,0.2h-0.5c-0.6,0.1-1.3-0.1-1.6-0.7
	l0.2,1.2l-0.6-0.4l-0.3-2.1l0.6,0.4v0.5c0.4,0.3,0.9,0.5,1.4,0.4h0.4l3-0.2l-0.1-0.7c-0.2-1.2-0.7-1.7-1.5-1.5
	C160.6,76.1,160.4,76.2,160.2,76.4L160.2,76.4z M160.4,83.5c0.5,0.3,1,0.6,1.4,1c0.3,0.3,0.5,0.6,0.6,1c0,0.3-0.1,0.4-0.5,0.5
	c-0.2,0-0.4,0-0.5,0l-1.6-0.1c-0.3,0-0.5,0-0.8,0c-0.1,0-0.2,0.1-0.2,0.1s0.3,0.4,0.9,0.6c0,0.1-0.1,0.1-0.1,0.1
	c-0.3,0-0.6-0.2-0.8-0.4c-0.3-0.2-0.4-0.4-0.5-0.7c0-0.2,0.1-0.3,0.4-0.4c0.3,0,0.7,0,1,0h1c0.3,0,0.5,0,0.8,0
	c0.2,0,0.3-0.1,0.3-0.3c-0.1-0.4-0.4-0.8-0.9-1c-0.5-0.3-1.1-0.5-1.7-0.5h-1l-0.3-0.6h0.7h3.8c0.8,0,1.7,0.3,2.4,0.7
	c0.6,0.4,1,1,1.1,1.8c0,0.1,0,0.3,0,0.4l-0.7-0.6c0-0.2,0-0.3,0-0.5c-0.1-0.8-0.8-1.3-2.1-1.3L160.4,83.5z M159.8,89.8
	c0,0.1-0.1,0.1-0.2,0.1c-0.1,0-0.2-0.1-0.5-0.2c-0.5-0.3-0.8-0.8-0.9-1.4c0-0.3,0.1-0.6,0.3-0.7c0.2-0.2,0.6-0.3,0.9-0.3
	c0.7,0,1.4,0.2,2,0.7c0.6,0.3,1,0.8,1.1,1.4c0,0.3-0.2,0.5-0.5,0.6c-0.5,0-0.9-0.2-1.3-0.6c-0.4-0.4-0.7-0.9-0.9-1.4
	c-0.7,0.1-1,0.4-1,0.9C158.9,89.1,159.3,89.5,159.8,89.8L159.8,89.8z M160.4,87.8c0,0.1,0,0.2,0,0.2c0,0.3,0.1,0.7,0.4,0.9
	c0.2,0.2,0.5,0.4,0.8,0.4c0.2,0,0.5-0.2,0.5-0.4c0,0,0-0.1,0-0.1c0-0.3-0.2-0.5-0.5-0.6C161.2,87.9,160.8,87.8,160.4,87.8
	L160.4,87.8z M158.6,92.5l0.5,0.6c-0.2,0.2-0.4,0.5-0.4,0.8c-0.1,0.3,0.1,0.6,0.4,0.6c0.1,0,0.1,0,0.2,0c0.4-0.1,0.7-0.3,0.9-0.5
	l0.3-0.2c0.2-0.3,0.6-0.5,0.9-0.5c0.3,0,0.6,0.2,0.8,0.5c0.2,0.3,0.3,0.7,0.3,1.1c0,0.3-0.1,0.5-0.2,0.8l-0.5-0.5
	c0.2-0.2,0.3-0.5,0.3-0.7c0-0.3-0.1-0.5-0.4-0.5s-0.5,0.2-0.8,0.5l-0.3,0.3c-0.3,0.3-0.6,0.5-1,0.6c-0.4,0-0.7-0.2-0.9-0.6
	C158.3,94,158.2,93.2,158.6,92.5L158.6,92.5z M161,97.2c0.4,0.2,0.7,0.5,0.9,0.9c0.2,0.3,0.3,0.6,0.3,0.9c0,0.3-0.2,0.5-0.5,0.5
	c0,0-0.1,0-0.1,0c-0.4,0-0.7-0.2-0.9-0.5c-0.3-0.4-0.5-0.8-0.5-1.3c-1,0.5-1.5,0.8-1.6,1.1s0.1,0.4,0.4,0.6c0,0.1-0.1,0.1-0.1,0.1
	c-0.1,0-0.3-0.2-0.5-0.4c-0.2-0.2-0.3-0.4-0.3-0.7c0-0.3,0.6-0.7,1.9-1.3l0.2-0.1l-1.7-0.3l-0.2-0.7h0.1l0.3,0.1l0.3,0.1l3.7,0.7
	c0.8,0.1,1.6,0.6,2.2,1.2c0.6,0.5,0.8,1.2,0.8,2c0,0.1,0,0.3-0.1,0.4l-0.6-0.7c0.1-0.1,0.1-0.3,0.1-0.5c0.1-0.8-0.6-1.4-1.9-1.7
	L161,97.2z M160.3,97.1c0,0.4,0,0.8,0.2,1.2c0.1,0.3,0.4,0.5,0.7,0.5c0.3,0,0.5-0.1,0.5-0.3s-0.1-0.4-0.4-0.7
	C161.1,97.5,160.7,97.3,160.3,97.1L160.3,97.1z M159.3,103.2c-0.4-0.3-0.8-0.7-1.2-1.1c-0.2-0.2-0.4-0.5-0.4-0.8
	c0-0.3,0.4-0.4,0.9-0.3l0.6,0.1l1.2,0.1h0.4c0.5,0,0.7,0,0.7-0.2c0-0.2-0.1-0.5-0.5-0.7c0-0.1,0.1-0.1,0.2-0.1
	c0.1,0,0.3,0.2,0.5,0.5c0.2,0.2,0.3,0.5,0.3,0.7c0,0.2-0.1,0.3-0.3,0.3c-0.3,0-0.6,0-0.9,0l-1.5-0.1c-0.6-0.1-0.9,0-0.9,0.1
	s0.2,0.6,0.7,1c0.4,0.4,0.9,0.7,1.4,0.9l0.8,0.3l0.2,0.8c-0.4-0.2-0.7-0.3-1.1-0.5l-2.8-1c-0.9-0.3-1.7-0.7-2.3-1.4
	c-0.6-0.7-0.9-1.7-0.8-2.6c0-0.2,0.1-0.4,0.2-0.6l0.5,0.6c-0.2,0.2-0.3,0.5-0.3,0.8c-0.1,0.5,0,1,0.4,1.4c0.6,0.5,1.3,0.8,2,1
	L159.3,103.2z M156.5,107.6c0.6,0.2,1.2,0.3,1.9,0.3l0.9,0.1c0.5,0,0.8,0,0.9-0.2s-0.1-0.4-0.5-0.6c0-0.1,0.1-0.1,0.2-0.1
	c0.2,0.1,0.5,0.2,0.6,0.5c0.2,0.3,0.3,0.5,0.2,0.7s-0.3,0.4-0.8,0.4c-0.7,0-1.4,0-2.2-0.2h-0.3c0.7,0.6,1.4,1.2,2.2,1.7l0.3,0.6
	c-0.4-0.1-0.7-0.1-0.9-0.1l-0.7-0.1l-0.5-0.1l-1.1-0.1l0.1,0.1c0.5,0.6,1.1,1.1,1.8,1.5c0.2,0,0.4,0,0.5-0.1l0.3,0.6
	c-0.1,0.2-0.3,0.2-0.5,0.2c-0.4-0.2-0.7-0.4-1-0.8l-0.4-0.4l-0.5-0.4c-0.3-0.3-0.6-0.5-0.9-0.8l-0.4-0.6c0.5,0.1,1.1,0.2,1.6,0.2
	h0.4l1,0.1l-0.3-0.3c-0.5-0.5-1.1-1-1.8-1.4L156.5,107.6z M156.2,115c-0.4-0.4-0.7-0.9-0.9-1.4c-0.2-0.3-0.2-0.7-0.1-1.1
	c0.1-0.4,0.5-0.4,1.1-0.2c0.8,0.3,1.5,0.8,1.9,1.5c0.4,0.7,0.5,1.5,0.2,2.2c-0.1,0.2-0.2,0.5-0.4,0.7h-0.1l-0.2-0.1l-0.2-0.2
	l-1.7-0.9l-0.2-0.1c-0.2-0.1-0.3-0.2-0.5-0.2c-0.1,0-0.2,0-0.2,0c-0.1,0.2,0.1,0.5,0.5,1c0,0-0.1,0.1-0.2,0.1
	c-0.2-0.1-0.3-0.3-0.4-0.6c-0.3-0.3-0.4-0.7-0.3-1.1c0.1-0.2,0.2-0.2,0.5-0.2l0.3,0.1l0.3,0.2l0.3,0.2L156.2,115z M157.7,115.8
	c0.2-0.2,0.4-0.4,0.5-0.7c0.1-0.4,0-0.9-0.4-1.2c-0.4-0.5-1-0.8-1.6-1c-0.4-0.1-0.6-0.1-0.6,0.1c-0.1,0.4,0,0.8,0.2,1.1
	c0.3,0.6,0.8,1.1,1.5,1.4L157.7,115.8z M154.2,115.9l0.2,0.7c-0.3,0.1-0.5,0.3-0.6,0.7c-0.2,0.3-0.1,0.6,0.2,0.7c0,0,0.1,0,0.1,0.1
	c0.4,0.1,0.7,0,1.1-0.2l0.3-0.1c0.3-0.2,0.7-0.2,1.1-0.2c0.3,0.1,0.5,0.4,0.6,0.7c0.1,0.4,0.1,0.8-0.1,1.1c-0.1,0.2-0.2,0.5-0.4,0.7
	l-0.2-0.7c0.2-0.1,0.4-0.3,0.5-0.6c0.1-0.3,0.1-0.5-0.2-0.6c-0.3-0.1-0.7,0-1,0.2l-0.4,0.1c-0.4,0.2-0.8,0.3-1.1,0.2
	c-0.4-0.2-0.6-0.5-0.7-0.8C153.3,117.2,153.6,116.4,154.2,115.9L154.2,115.9z M153.4,123.1c0.3,0.5,0.5,1,0.7,1.5
	c0.1,0.4,0.1,0.8,0,1.1c-0.2,0.4-0.6,0.4-1.2,0.1c-0.7-0.4-1.3-1-1.6-1.7c-0.3-0.7-0.3-1.5,0.1-2.2c0-0.1,0.1-0.1,0.1-0.2l0.2-0.3
	c0-0.1,0-0.1,0.1-0.2c0.2,0.2,0.4,0.3,0.6,0.4l3.1,2.1c0.7,0.5,1.3,1.1,1.6,1.9c0.3,0.7,0.3,1.4,0,2.1c-0.1,0.1-0.1,0.2-0.2,0.3
	l-0.3-0.8c0.1-0.1,0.2-0.2,0.3-0.4c0.4-0.8,0-1.5-1.1-2.2L153.4,123.1z M151.9,122.2c-0.2,0.2-0.4,0.4-0.6,0.6
	c-0.2,0.4-0.1,0.8,0.2,1.2c0.4,0.5,0.9,0.9,1.4,1.1c0.4,0.2,0.6,0.2,0.7,0c0.1-0.4,0.1-0.7-0.1-1.1c-0.2-0.6-0.7-1.2-1.3-1.6
	L151.9,122.2z M150.1,126.9c-0.1,0-0.1,0-0.2,0c-0.2-0.2-0.4-0.5-0.4-0.8c-0.1-0.3-0.1-0.6,0-0.9c0.1-0.2,0.3-0.2,0.6,0
	c0.2,0.1,0.4,0.2,0.5,0.3l0.3,0.2l2.4,1.8c0.7,0.5,1.2,1.2,1.5,2c0.3,0.6,0.2,1.4-0.1,2c-0.1,0.1-0.1,0.2-0.2,0.4l-0.2-0.8
	c0.1-0.1,0.2-0.2,0.3-0.4c0.2-0.3,0.2-0.7,0.1-1.1c-0.3-0.5-0.6-0.9-1.1-1.1l-2.9-2.1c-0.2-0.1-0.3-0.2-0.5-0.3
	c-0.2-0.1-0.4-0.2-0.4-0.1c-0.1,0.1-0.1,0.3,0,0.4C149.8,126.6,150,126.8,150.1,126.9L150.1,126.9z M148.7,129.9
	c-0.2-0.5-0.4-1-0.5-1.6c-0.1-0.4,0-0.8,0.1-1.1c0.2-0.3,0.6-0.3,1.1,0c0.7,0.5,1.2,1.2,1.4,2c0.2,0.7,0.1,1.6-0.3,2.2
	c-0.1,0.2-0.3,0.4-0.5,0.6l-0.1-0.1l-0.2-0.2l-0.2-0.2l-1.4-1.3l-0.2-0.2c-0.1-0.1-0.3-0.2-0.4-0.3c-0.1-0.1-0.2-0.1-0.2,0
	s0,0.6,0.3,1.1c-0.1,0-0.1,0-0.2,0s-0.2-0.3-0.3-0.6c-0.2-0.4-0.2-0.8,0-1.1c0.1-0.2,0.3-0.2,0.5,0l0.3,0.2l0.3,0.2l0.3,0.3
	L148.7,129.9z M150,131.1c0.2-0.1,0.5-0.3,0.6-0.6c0.2-0.4,0.2-0.9-0.1-1.2c-0.3-0.5-0.8-1-1.3-1.3c-0.3-0.2-0.5-0.2-0.6,0
	c-0.1,0.3-0.1,0.7,0,1.1c0.2,0.7,0.5,1.3,1.1,1.8L150,131.1z M147.8,135.2l-0.2-0.7c0.2-0.1,0.4-0.3,0.5-0.4c0.2-0.3,0.3-0.7,0.1-1
	c-0.2-0.4-0.5-0.8-0.9-1c-0.3-0.2-0.6-0.3-0.9-0.4c-0.3,0-0.5,0.1-0.6,0.3c-0.2,0.4-0.2,0.9,0.1,1.3c-0.1,0-0.1,0-0.2,0
	c-0.2-0.2-0.3-0.6-0.3-0.9c0-0.4,0-0.8,0.2-1.1c0.2-0.2,0.4-0.4,0.7-0.4c0.3,0,0.7,0.1,0.9,0.3c0.6,0.4,1,1.1,1.2,1.8
	c0.2,0.6,0.1,1.3-0.2,1.9C148.1,135,148,135.1,147.8,135.2L147.8,135.2z M145.7,135.7c0.2,0.4,0.3,0.9,0.3,1.3c0,0.4-0.1,0.7-0.3,1
	c-0.1,0.2-0.4,0.3-0.7,0.2c0,0-0.1-0.1-0.1-0.1c-0.3-0.2-0.5-0.6-0.5-1c0-0.5,0.1-0.9,0.3-1.3c-1.1-0.2-1.7-0.2-1.9,0
	s-0.1,0.4,0,0.8c-0.1,0-0.1,0-0.2,0s-0.2-0.3-0.2-0.7c0-0.2,0-0.5,0.1-0.7c0.2-0.2,0.9-0.2,2.3,0h0.2l-1.2-1.3l0.2-0.7l0.1,0.1
	l0.2,0.2l0.2,0.2l2.7,2.7c0.6,0.6,1,1.4,1.1,2.2c0.2,0.7,0,1.5-0.5,2.1c-0.1,0.1-0.2,0.2-0.3,0.3l-0.1-0.9c0.1-0.1,0.2-0.2,0.3-0.3
	c0.5-0.7,0.3-1.5-0.6-2.4L145.7,135.7z M145.3,135.2c-0.3,0.3-0.4,0.7-0.5,1.1c-0.1,0.3,0.1,0.6,0.3,0.8c0.2,0.2,0.4,0.2,0.6,0
	c0.1-0.2,0.2-0.5,0.1-0.8C145.6,136,145.5,135.6,145.3,135.2L145.3,135.2z M139.6,141c-0.2-0.5-0.2-1.1-0.2-1.7
	c0-0.4,0.1-0.8,0.3-1.1c0.3-0.3,0.6-0.2,1.1,0.2c0.6,0.6,1,1.4,1,2.2c0.1,0.8-0.2,1.6-0.7,2.1c-0.2,0.2-0.4,0.3-0.6,0.5v-0.1
	l-0.1-0.2l-0.2-0.2l-1.2-1.5l-0.2-0.2c-0.2-0.2-0.3-0.4-0.3-0.4s-0.2-0.1-0.2,0s-0.1,0.5,0.1,1.1c-0.1,0-0.1,0-0.2,0
	c-0.1-0.2-0.2-0.5-0.2-0.7c-0.1-0.4,0-0.8,0.2-1.1c0.1-0.1,0.3-0.1,0.5,0.1c0.1,0.1,0.2,0.2,0.2,0.3l0.2,0.3l0.2,0.3L139.6,141z
	 M140.6,142.4c0.3-0.1,0.5-0.2,0.7-0.4c0.3-0.3,0.4-0.8,0.2-1.2c-0.2-0.6-0.5-1.1-1-1.6c-0.3-0.3-0.5-0.3-0.6-0.2
	c-0.2,0.3-0.3,0.7-0.2,1.1c0,0.7,0.3,1.4,0.7,1.9L140.6,142.4z M136.4,141.9l0.3-0.6l0.1,0.1l0.2,0.3l0.2,0.2l1.1,1.6l0.1,0.2
	c0.1,0.1,0.2,0.3,0.3,0.3s0.2,0.2,0.3,0.1s0.2-0.5,0-1c0.1,0,0.1,0,0.2,0c0.1,0.3,0.2,0.6,0.1,0.8c0,0.3-0.1,0.6-0.3,0.8
	c-0.2,0.2-0.4,0.1-0.6-0.1l-0.2-0.2l-0.2-0.3l-0.2-0.2l-0.2-0.2c0.1,0.6,0.1,1.1,0,1.7c0,0.4-0.2,0.8-0.4,1.1
	c-0.2,0.2-0.4,0.1-0.7-0.2c-0.1-0.1-0.2-0.3-0.3-0.4l-0.9-1.4c-0.1-0.2-0.3-0.4-0.4-0.6c-0.1-0.1-0.2-0.1-0.2-0.1s-0.2,0.5,0,1.1
	c-0.1,0-0.1,0-0.2,0c-0.1-0.3-0.2-0.6-0.1-0.9c0-0.3,0.1-0.6,0.3-0.9c0.2-0.1,0.4-0.1,0.6,0.1c0.2,0.2,0.4,0.5,0.6,0.8l0.6,0.9
	c0.1,0.2,0.3,0.4,0.5,0.6c0.1,0.2,0.3,0.2,0.4,0.1c0.3-0.4,0.4-0.8,0.3-1.3c0-0.6-0.2-1.2-0.6-1.6L136.4,141.9z M133.6,149.2
	l0.2,0.3c0.5,0.7,0.7,1.5,0.6,2.4c0,0.7-0.3,1.4-0.9,1.8c-0.1,0.1-0.2,0.2-0.4,0.2l0.1-0.9c0.1-0.1,0.3-0.1,0.4-0.2
	c0.3-0.2,0.5-0.6,0.5-0.9c-0.1-0.5-0.3-1-0.6-1.5l-1.9-3.1l-0.1-0.2c-0.1-0.2-0.2-0.4-0.3-0.4s-0.1-0.1-0.2-0.1s-0.2,0.5-0.1,1.1
	c-0.1,0-0.1,0-0.2,0c-0.1-0.2-0.1-0.5-0.1-0.7c0-0.4,0.1-0.7,0.3-1c0.2-0.1,0.4-0.1,0.5,0.2c0.1,0.1,0.2,0.3,0.4,0.6l0.2,0.3
	l0.2,0.3c-0.1-0.5-0.1-1,0-1.6c0-0.4,0.2-0.8,0.5-1.1c0.3-0.2,0.7-0.1,1.1,0.4c0.5,0.7,0.7,1.5,0.7,2.3c0,0.7-0.3,1.5-0.9,1.9
	L133.6,149.2z M133.3,148.7c0.2,0,0.4-0.1,0.6-0.2c0.4-0.3,0.5-0.8,0.4-1.2c-0.1-0.6-0.4-1.2-0.8-1.7c-0.2-0.3-0.4-0.4-0.6-0.2
	c-0.3,0.3-0.4,0.6-0.4,1c-0.1,0.7,0.1,1.4,0.5,2L133.3,148.7z M125.2,150.1l0.4-0.6v0.1l0.1,0.3l0.1,0.3l0.8,1.8l0.1,0.2l0.2,0.3
	c0.1,0.2,0.3,0.3,0.4,0.2s0.4-0.5,0.4-1.2c0-0.6,0-1.1-0.3-1.6L127,149l0.4-0.6v0.1l0.1,0.3l0.1,0.3l0.8,1.8l0.1,0.2
	c0.1,0.1,0.1,0.3,0.2,0.4c0.1,0.1,0.2,0.2,0.3,0.2s0.3-0.4,0.2-1c0.1,0,0.1,0,0.2,0.1c0.1,0.3,0.1,0.6-0.1,0.8
	c0,0.3-0.2,0.6-0.4,0.8c-0.2,0.1-0.4,0.1-0.6-0.2c-0.1-0.1-0.1-0.2-0.1-0.3l-0.1-0.3l-0.1-0.3l-0.1-0.3v0.2c0,1.2-0.3,2-0.8,2.2
	c-0.2,0.1-0.4,0-0.6-0.3l-0.2-0.4l-0.2-0.4l-0.2-0.5c0.1,0.6,0,1.1-0.1,1.7c0,0.4-0.2,0.8-0.6,1c-0.2,0.1-0.4,0.1-0.6-0.2
	c-0.1-0.1-0.2-0.3-0.2-0.5l-0.6-1.5c-0.1-0.2-0.2-0.5-0.3-0.7c-0.1-0.1-0.2-0.2-0.2-0.1s-0.2,0.2-0.2,0.4c0,0.2,0,0.4,0,0.7
	c-0.1,0-0.2,0-0.2-0.1c-0.1-0.3-0.1-0.6,0-0.9c0-0.3,0.2-0.6,0.4-0.8c0.2-0.1,0.4,0,0.6,0.2c0.2,0.3,0.3,0.6,0.4,0.9l0.4,1
	c0,0.1,0.1,0.2,0.1,0.2c0,0.1,0.1,0.1,0.1,0.2c0,0.1,0.1,0.2,0.1,0.2c0.1,0.2,0.2,0.3,0.4,0.2s0.4-0.5,0.4-1.2c0-0.6,0-1.1-0.3-1.6
	L125.2,150.1z M121.2,152c0.6-0.3,1,0,1.4,0.7c0.3,0.7,0.4,1.4,0.2,2.1c-0.1,0.6-0.4,1.2-1,1.6c-0.6,0.3-1.1,0-1.4-0.7
	c-0.3-0.7-0.4-1.4-0.2-2.1C120.3,152.9,120.7,152.3,121.2,152L121.2,152z M120.9,152.7c-0.3,0.2-0.5,0.5-0.5,0.9
	c0,0.5,0.1,0.9,0.3,1.4c0.4,0.8,0.8,1.1,1.3,0.8c0.3-0.2,0.5-0.5,0.5-0.9c0-0.5-0.1-1-0.3-1.4C121.9,152.7,121.5,152.4,120.9,152.7
	L120.9,152.7z M117.9,153.6c0.6-0.2,1.1,0,1.4,0.8c0.3,0.7,0.3,1.4,0.1,2.1c-0.1,0.6-0.5,1.2-1.1,1.5c-0.6,0.3-1.1,0-1.4-0.8
	c-0.3-0.7-0.3-1.4-0.1-2.1C116.9,154.4,117.3,153.8,117.9,153.6L117.9,153.6z M117.6,154.2c-0.3,0.2-0.5,0.5-0.5,0.8
	c-0.1,0.5,0,0.9,0.2,1.4c0.3,0.8,0.8,1.1,1.3,0.9c0.3-0.2,0.5-0.5,0.5-0.8c0.1-0.5,0-1-0.2-1.4C118.6,154.3,118.2,154,117.6,154.2
	L117.6,154.2z M114.4,155.2l0.5-0.5v0.1l0.1,0.3l0.1,0.3l0.4,2l0.1,0.2l0.1,0.4c0.1,0.2,0.1,0.2,0.2,0.2s0.3-0.4,0.4-0.9
	c0.1,0,0.1,0.1,0.1,0.1s0,0.4-0.2,0.8c-0.1,0.3-0.3,0.5-0.6,0.7c-0.2,0.1-0.4,0-0.5-0.3c0-0.1-0.1-0.2-0.1-0.3L115,158l-0.1-0.3
	l-0.1-0.3c-0.1,0.5-0.3,1.1-0.6,1.6c-0.2,0.3-0.5,0.6-0.8,0.8c-0.3,0.1-0.5,0-0.6-0.4c-0.1-0.2-0.1-0.3-0.1-0.5l-0.3-1.6
	c-0.1-0.3-0.1-0.6-0.2-0.7s-0.1-0.2-0.2-0.2s-0.3,0.4-0.4,1c-0.1,0-0.1,0-0.2-0.1c0-0.3,0-0.6,0.2-0.9c0.1-0.3,0.3-0.5,0.6-0.7
	c0.2-0.1,0.4,0,0.5,0.3c0.1,0.3,0.2,0.7,0.2,1l0.2,1c0,0.3,0.1,0.5,0.2,0.8c0.1,0.2,0.2,0.3,0.3,0.2c0.3-0.1,0.6-0.5,0.8-1.1
	c0.2-0.6,0.2-1.2,0.1-1.7L114.4,155.2z M109.6,158c-0.1,0-0.1,0-0.2-0.1c0-0.3,0-0.6,0.2-0.9c0.1-0.3,0.3-0.5,0.6-0.6
	c0.2-0.1,0.4,0.1,0.5,0.4c0.1,0.2,0.1,0.4,0.2,0.6l0.1,0.4l0.5,2.9c0.2,0.8,0.1,1.7-0.2,2.4c-0.3,0.7-0.8,1.2-1.5,1.4
	c-0.1,0-0.3,0.1-0.4,0.1l0.4-0.8c0.2,0,0.3,0,0.5-0.1c0.4-0.1,0.7-0.3,0.8-0.7c0.1-0.5,0.1-1.1,0-1.6l-0.6-3.6
	c0-0.2-0.1-0.4-0.1-0.6c-0.1-0.2-0.1-0.4-0.2-0.3c-0.1,0-0.2,0.1-0.3,0.3C109.6,157.6,109.6,157.8,109.6,158z M106.5,158.9
	c-0.1,0-0.1-0.1-0.1-0.1c0-0.2,0.1-0.4,0.2-0.5c0.2-0.6,0.6-1,1.2-1.2c0.3-0.1,0.6,0,0.8,0.2c0.2,0.2,0.4,0.5,0.5,0.8
	c0.2,0.7,0.1,1.4-0.2,2.1c-0.3,0.8-0.7,1.2-1.2,1.3c-0.2,0.1-0.5,0-0.6-0.3c0,0,0-0.1,0-0.1c-0.1-0.5,0-1,0.3-1.4
	c0.3-0.5,0.7-0.9,1.2-1.2c-0.2-0.7-0.6-0.9-1-0.8S106.6,158.2,106.5,158.9L106.5,158.9z M108.6,159c-0.1,0-0.2,0-0.2,0
	c-0.3,0.1-0.6,0.3-0.8,0.6c-0.2,0.2-0.3,0.5-0.2,0.8c0,0.2,0.2,0.4,0.5,0.4c0,0,0.1,0,0.1,0c0.3-0.1,0.5-0.3,0.5-0.6
	C108.6,159.8,108.6,159.4,108.6,159L108.6,159z M105.9,157.8l-0.5,0.6c-0.3-0.2-0.6-0.3-0.9-0.2c-0.3,0-0.5,0.3-0.5,0.6
	c0,0.1,0,0.1,0,0.1c0,0.2,0.3,0.5,0.7,0.8l0.3,0.2c0.4,0.3,0.7,0.6,0.7,0.8c0.1,0.3,0,0.7-0.3,0.9c-0.3,0.3-0.6,0.5-1,0.5
	c-0.3,0-0.5,0-0.8,0l0.4-0.6c0.2,0.1,0.5,0.2,0.8,0.1c0.3-0.1,0.4-0.2,0.4-0.5s-0.3-0.4-0.7-0.7l-0.3-0.2c-0.5-0.3-0.7-0.6-0.8-0.9
	c-0.1-0.4,0.1-0.7,0.3-1C104.3,157.8,105.1,157.6,105.9,157.8L105.9,157.8z M102.9,158.4l-0.5,0.6c-0.3-0.2-0.6-0.3-0.9-0.2
	c-0.3,0-0.5,0.2-0.5,0.5c0,0,0,0.1,0,0.1c0,0.2,0.3,0.5,0.7,0.8l0.3,0.2c0.3,0.2,0.5,0.5,0.7,0.8c0.1,0.3-0.1,0.7-0.3,0.9
	c-0.3,0.3-0.6,0.5-1,0.5c-0.3,0-0.5,0-0.8,0l0.4-0.6c0.2,0.1,0.5,0.2,0.8,0.1c0.3-0.1,0.4-0.2,0.4-0.5s-0.2-0.4-0.6-0.7l-0.3-0.2
	c-0.4-0.4-0.7-0.6-0.7-0.9c0-0.4,0.1-0.7,0.4-1c0.3-0.3,0.7-0.5,1.1-0.6C102.2,158.2,102.6,158.3,102.9,158.4L102.9,158.4z
	 M99.1,158.6c0.1,0.2,0.3,0.4,0.6,0.6l-0.6,0.7c-0.2-0.1-0.4-0.3-0.6-0.5L99.1,158.6z M94.6,162.5l0.7-0.7c0.1,0.3,0.2,0.6,0.2,0.9
	c0,0.7-0.3,1.4-0.9,1.7c-0.8,0.5-1.7,0.7-2.6,0.6h-0.6h-0.7h-0.3c0.3-0.7,0.4-1.4,0.3-2.1v-0.2v-0.5c0-0.6-0.1-1.2-0.3-1.8
	c0-0.2-0.1-0.3-0.2-0.4c-0.1-0.1-0.2-0.1-0.3-0.1c-0.2,0-0.3,0.1-0.5,0.1c0,0,0-0.1,0-0.1c0-0.1,0-0.1,0.2-0.2l0.2-0.1l1-0.5
	c0.3,0.7,0.4,1.5,0.5,2.3l0.3-0.2h1.4c0.2-0.6,0.5-1.1,1-1.5h-0.9l0.4-0.5h1.7l-0.6,0.5h-0.4c-0.2,0.2-0.4,0.4-0.5,0.6
	c-0.2,0.5-0.4,1-0.6,1.5l-0.1,0.4c-0.2,0.6-0.4,1.1-0.7,1.6c-0.3,0.4-0.6,0.6-1,0.8c0.5,0.1,0.9,0.1,1.4,0.1c1.3,0,1.9-0.5,1.9-1.3
	C94.8,163.1,94.8,162.8,94.6,162.5L94.6,162.5z M91.3,161.6c0.1,0.5,0.1,0.9,0.1,1.2v0.4v0.5c0,0.3,0,0.5-0.1,0.8
	c0.7-0.5,1.1-1.3,1.3-2.1c0.1-0.3,0.2-0.5,0.2-0.5l0.1-0.2L91.3,161.6z M89.5,159.4l-0.6,0.5c-0.2-0.2-0.5-0.4-0.8-0.4
	c-0.4,0-0.6,0.2-0.6,0.6c0.1,0.4,0.2,0.7,0.5,0.9l0.2,0.3c0.3,0.2,0.4,0.6,0.5,0.9c0,0.3-0.2,0.6-0.5,0.8c-0.3,0.2-0.7,0.3-1.1,0.3
	c-0.3,0-0.5-0.1-0.8-0.2l0.5-0.4c0.2,0.2,0.5,0.3,0.7,0.3c0.3,0,0.5-0.1,0.5-0.4c-0.1-0.3-0.2-0.6-0.5-0.8l-0.2-0.3
	c-0.3-0.3-0.5-0.6-0.6-1c0-0.4,0.2-0.7,0.6-0.9c0.3-0.3,0.8-0.4,1.2-0.4C88.9,159.1,89.3,159.2,89.5,159.4L89.5,159.4z M84.1,159
	l-0.6,0.4c-0.2-0.3-0.5-0.4-0.8-0.5c-0.3-0.1-0.6,0.1-0.7,0.4c0,0.1,0,0.1,0,0.2c0,0.4,0.2,0.7,0.4,1l0.2,0.3c0.3,0.3,0.4,0.6,0.4,1
	c0,0.3-0.2,0.6-0.5,0.8c-0.3,0.2-0.7,0.3-1.1,0.2c-0.3,0-0.5-0.1-0.7-0.2l0.6-0.4c0.2,0.2,0.4,0.3,0.7,0.3c0.3,0,0.5-0.1,0.5-0.3
	c0-0.3-0.2-0.6-0.4-0.9l-0.2-0.3c-0.3-0.3-0.4-0.7-0.5-1.1c0.1-0.4,0.3-0.7,0.7-0.9c0.4-0.2,0.8-0.3,1.2-0.3
	C83.5,158.8,83.8,158.8,84.1,159z M79.9,158.2c0.6,0.1,0.9,0.6,0.7,1.4c-0.1,0.7-0.5,1.4-1.1,1.8c-0.4,0.5-1.1,0.7-1.7,0.7
	c-0.6-0.1-0.9-0.6-0.7-1.4c0.1-0.7,0.5-1.4,1.1-1.8C78.6,158.4,79.2,158.2,79.9,158.2L79.9,158.2z M79.3,158.6
	c-0.4,0-0.7,0.1-0.9,0.4c-0.3,0.4-0.5,0.8-0.6,1.3c-0.2,0.9,0.1,1.4,0.6,1.5c0.3,0,0.7-0.1,0.9-0.4c0.3-0.4,0.5-0.8,0.6-1.3
	C80,159.2,79.8,158.7,79.3,158.6L79.3,158.6z M76.3,157.5c0.6,0.1,0.8,0.6,0.7,1.5c-0.2,0.7-0.6,1.3-1.2,1.8
	c-0.5,0.5-1.1,0.7-1.7,0.6c-0.6-0.1-0.9-0.6-0.7-1.5c0.2-0.7,0.6-1.3,1.2-1.8C75,157.6,75.6,157.4,76.3,157.5L76.3,157.5z
	 M75.7,157.8c-0.3-0.1-0.7,0.1-0.9,0.4c-0.3,0.4-0.5,0.8-0.6,1.3c-0.2,0.9,0,1.4,0.5,1.5c0.3,0.1,0.7-0.1,0.9-0.4
	c0.3-0.4,0.5-0.8,0.6-1.3C76.4,158.5,76.2,158,75.7,157.8L75.7,157.8z M72.5,156.8l0.7-0.1v0.1l-0.1,0.3l-0.1,0.3l-0.8,1.8l-0.1,0.2
	c-0.1,0.1-0.1,0.3-0.2,0.4c0,0.2,0,0.3,0,0.3s0.5-0.1,0.9-0.5c0,0,0.1,0.1,0.1,0.2c0,0.2-0.3,0.4-0.7,0.5c-0.2,0.2-0.5,0.2-0.8,0.2
	c-0.2-0.1-0.3-0.3-0.2-0.6c0-0.1,0.1-0.2,0.1-0.3l0.1-0.3l0.1-0.3l0.1-0.3c-0.4,0.4-0.9,0.7-1.4,0.9c-0.3,0.2-0.7,0.2-1.1,0.2
	c-0.3-0.1-0.3-0.3-0.2-0.7c0-0.2,0.1-0.3,0.2-0.5l0.7-1.5c0.1-0.2,0.2-0.5,0.3-0.7c0-0.1,0-0.2-0.1-0.2s-0.5,0.1-0.9,0.5
	c0,0-0.1-0.1-0.1-0.1c0-0.2,0.3-0.4,0.7-0.6c0.3-0.2,0.6-0.2,0.9-0.2c0.2,0.1,0.3,0.2,0.2,0.6c-0.1,0.3-0.2,0.6-0.4,0.9l-0.4,1
	c-0.1,0.3-0.2,0.6-0.3,0.7s0,0.4,0.1,0.4c0.5,0.1,0.9-0.1,1.3-0.4c0.5-0.3,0.9-0.8,1.1-1.3L72.5,156.8z M63.6,155.3
	c0.4-0.3,0.9-0.6,1.5-0.8c0.4-0.2,0.8-0.2,1.1-0.1c0.4,0.2,0.4,0.5,0.2,1.1c-0.3,0.8-0.9,1.4-1.7,1.8c-0.7,0.4-1.5,0.4-2.2,0.1
	c-0.2-0.1-0.5-0.2-0.7-0.4l0.1-0.1l0.1-0.2l0.2-0.2l1-1.6l0.2-0.2l0.3-0.5c0-0.1,0-0.2,0-0.2c-0.2-0.1-0.5,0.1-1,0.5
	c0-0.1-0.1-0.1,0-0.2s0.2-0.2,0.6-0.4c0.3-0.2,0.7-0.3,1.1-0.2c0.2,0.1,0.2,0.2,0.1,0.5c0,0.1-0.1,0.2-0.2,0.3l-0.2,0.3l-0.2,0.3
	L63.6,155.3z M62.7,156.8c0.2,0.2,0.4,0.4,0.6,0.5c0.4,0.1,0.9,0,1.2-0.3c0.5-0.4,0.8-0.9,1.1-1.5c0.1-0.3,0.1-0.6-0.1-0.6
	c-0.4-0.1-0.8,0-1.1,0.2c-0.6,0.3-1.2,0.8-1.5,1.4L62.7,156.8z M62.9,153.2l-0.7,0.2c-0.1-0.3-0.3-0.6-0.6-0.7
	c-0.2-0.2-0.6-0.1-0.7,0.1c0,0-0.1,0.1-0.1,0.1c-0.1,0.4,0,0.7,0.1,1.1l0.1,0.3c0.2,0.3,0.2,0.7,0.1,1.1c-0.1,0.3-0.4,0.5-0.8,0.6
	c-0.4,0.1-0.8,0-1.1-0.1c-0.2-0.1-0.4-0.3-0.6-0.4l0.7-0.2c0.1,0.2,0.3,0.4,0.5,0.5c0.3,0.1,0.5,0.1,0.6-0.1c0.1-0.3,0-0.7-0.1-1
	l-0.1-0.4c-0.2-0.4-0.2-0.8-0.1-1.1c0.2-0.3,0.5-0.6,0.9-0.6c0.4-0.1,0.9,0,1.2,0.1C62.4,152.8,62.7,153,62.9,153.2L62.9,153.2z
	 M54.4,153.9l-0.8,0.6c-0.3-0.1-0.7,0-1,0.1c0,0,0-0.1,0-0.1C52.9,154.2,53.5,154,54.4,153.9L54.4,153.9z M55.4,150.6
	c0-0.1,0-0.1,0-0.2c0.5-0.4,1.1-0.5,1.7-0.4c0.2,0.1,0.2,0.3,0.1,0.5s-0.3,0.4-0.7,0.9l-0.7,0.9l-0.2,0.2l-0.1,0.2
	c-0.1,0.1-0.1,0.1-0.2,0.2c-0.1,0.1-0.1,0.2,0,0.2c0.2,0.1,0.5,0,1-0.3c0,0.1,0,0.1,0,0.2c-0.1,0.1-0.3,0.3-0.8,0.4
	c-0.3,0.1-0.6,0.1-0.9,0c-0.2-0.1-0.2-0.3,0-0.6l0.2-0.3l0.2-0.2l0.2-0.3l0.8-1l0.2-0.2c0.1-0.1,0.2-0.3,0.3-0.4
	c0.1-0.1,0.1-0.2,0-0.2C56.2,150.1,55.9,150.2,55.4,150.6L55.4,150.6z M52.7,151.5l1.2-1.5c0.2-0.3,0.4-0.5,0.5-0.6s0.2-0.5,0-0.6
	s-0.5-0.1-0.9,0.1c0,0,0-0.1,0-0.1c0.1-0.1,0.3-0.2,0.7-0.3c0.3-0.1,0.5,0,0.8,0.1c0.3,0.2,0.4,0.6,0.1,1c-0.2,0.3-0.4,0.5-0.6,0.8
	l-1.2,1.5l0.8,0.5l-0.7,0.1l-0.4-0.2l-0.5,0.6l-0.7-0.2l0.6-0.8l-1.5-1l0.7-0.1L52.7,151.5z M50.5,145.6c-0.4,0.5-0.7,1-1,1.6
	L49,148c-0.3,0.4-0.3,0.8-0.2,0.9s0.4,0.1,0.8-0.2c0.1,0.1,0.1,0.2,0,0.2c-0.2,0.2-0.4,0.3-0.7,0.4c-0.2,0.1-0.5,0.1-0.7,0
	c-0.2-0.2-0.2-0.4-0.1-0.9c0.3-0.7,0.6-1.3,1-1.9l0.1-0.2c-0.9,0.4-1.7,0.8-2.5,1.3l-0.7,0.1c0.2-0.3,0.4-0.6,0.5-0.8l0.3-0.6
	l0.2-0.4l0.5-1l-0.2,0.1c-0.7,0.2-1.4,0.5-2.1,1c-0.1,0.1-0.1,0.3,0,0.5l-0.7,0.1c-0.1-0.2-0.1-0.4,0-0.6c0.3-0.3,0.7-0.5,1.1-0.6
	l0.5-0.2l0.6-0.2c0.4-0.1,0.8-0.3,1.1-0.6l0.7-0.1c-0.3,0.5-0.6,0.9-0.8,1.4l-0.2,0.4l-0.5,0.9l0.4-0.2c0.7-0.3,1.4-0.6,2-1.1
	L50.5,145.6z M43.8,142.3c0.5-0.2,1.1-0.3,1.7-0.2c0.4,0,0.8,0.1,1.1,0.3c0.3,0.3,0.2,0.6-0.2,1.1c-0.5,0.6-1.3,1-2.2,1.1
	c-0.8,0.1-1.6-0.1-2.2-0.7c-0.2-0.2-0.4-0.4-0.5-0.6l0.1-0.1l0.2-0.1l0.2-0.2l1.5-1.2l0.2-0.2l0.4-0.4c0.1-0.1,0.1-0.2,0-0.2
	s-0.5-0.1-1.1,0.1c0-0.1,0-0.1,0-0.2c0.2-0.1,0.4-0.2,0.7-0.2c0.4-0.1,0.8,0,1.1,0.2c0.2,0.1,0.1,0.3,0,0.5
	c-0.1,0.1-0.2,0.2-0.3,0.2l-0.3,0.2l-0.3,0.2L43.8,142.3z M42.5,143.4c0.1,0.3,0.2,0.5,0.4,0.7c0.4,0.3,0.8,0.3,1.2,0.1
	c0.6-0.2,1.1-0.6,1.5-1.1c0.2-0.3,0.3-0.5,0.1-0.6c-0.3-0.2-0.7-0.3-1.1-0.2c-0.7,0-1.4,0.3-1.9,0.8L42.5,143.4z M43.8,140.1
	l-0.8-0.1c0-0.3-0.1-0.6-0.3-0.9c-0.2-0.2-0.5-0.3-0.7-0.1c0,0-0.1,0.1-0.1,0.1c-0.2,0.3-0.3,0.7-0.2,1.1v0.4c0,0.4-0.1,0.7-0.3,1
	c-0.2,0.2-0.6,0.3-0.9,0.3c-0.4-0.1-0.7-0.2-1-0.5c-0.2-0.2-0.3-0.4-0.4-0.6h0.7c0,0.3,0.1,0.5,0.3,0.7c0.2,0.2,0.4,0.2,0.6,0.1
	c0.2-0.3,0.2-0.6,0.2-0.9v-0.4c0-0.4,0.1-0.8,0.3-1.1c0.3-0.2,0.6-0.4,1-0.3c0.4,0,0.8,0.2,1.1,0.6
	C43.5,139.5,43.7,139.8,43.8,140.1L43.8,140.1z M36.4,137.1l2.9-2c0.5-0.4,1-0.7,1.6-0.9c0.4-0.1,0.9-0.2,1.4-0.1
	c0.7,0.1,1.3,0.4,1.7,0.9c0.1,0.1,0.2,0.3,0.2,0.4l-0.8-0.1c-0.1-0.2-0.2-0.4-0.3-0.6c-0.5-0.6-1.3-0.6-2.4,0.1l-0.9,0.6l-3,2.1
	l0.5,0.6l-0.7-0.1l-0.2-0.3l-0.2,0.1c-0.7,0.5-1.6,0.9-2.5,0.9c-0.8,0-1.5-0.3-1.9-0.9c-0.1-0.1-0.2-0.3-0.3-0.4l0.8,0.1
	c0.1,0.2,0.2,0.4,0.3,0.6c0.2,0.3,0.7,0.5,1.1,0.5c0.7-0.2,1.3-0.5,1.8-0.9l0.5-0.4l-1.1-1.3l0.7,0.1L36.4,137.1z M35,132.4
	c0.6,0,1.1,0,1.7,0.1c0.4,0.1,0.7,0.2,1,0.5c0.2,0.2,0.1,0.5-0.2,0.7c-0.2,0.1-0.4,0.3-0.6,0.4l-1.2,0.7l-0.2,0.1l-0.2,0.1l-0.2,0.1
	c-0.1,0.1-0.2,0.2-0.1,0.3s0.5,0.2,1,0.1c0,0.1,0,0.1-0.1,0.1c-0.3,0.1-0.6,0.1-0.9,0c-0.3,0-0.6-0.1-0.8-0.3
	c-0.1-0.2-0.1-0.4,0.2-0.6l0.2-0.1l0.3-0.2l0.3-0.2l1.1-0.6c0.2-0.1,0.4-0.2,0.5-0.4c0.2-0.1,0.2-0.2,0.1-0.4s-0.6-0.4-1.3-0.4
	c-0.6,0-1.1,0.1-1.6,0.4l-0.9,0.5l-0.6-0.4c0.3-0.1,0.6-0.2,0.8-0.4l1.6-0.9l0.2-0.1l0.2-0.1l0.3-0.2c0.1-0.1,0.1-0.1,0.1-0.2
	s-0.5-0.2-1.1-0.1c0-0.1,0-0.1,0-0.2c0.2-0.1,0.5-0.1,0.7-0.1c0.4,0,0.8,0.1,1.1,0.4c0.1,0.2,0.1,0.3-0.2,0.5
	c-0.1,0.1-0.2,0.1-0.3,0.2l-0.3,0.2l-0.3,0.2L35,132.4z M33.3,129.3c0-0.1,0-0.1,0.1-0.2c0.3-0.1,0.6-0.1,0.9,0
	c0.3,0,0.6,0.2,0.8,0.4c0.1,0.2,0.1,0.4-0.2,0.6c-0.2,0.1-0.4,0.2-0.5,0.3l-0.3,0.2l-2.7,1.4c-0.7,0.4-1.6,0.6-2.4,0.5
	c-0.7,0-1.4-0.4-1.8-1c-0.1-0.1-0.2-0.2-0.2-0.4l0.9,0.1c0,0.2,0.1,0.3,0.2,0.4c0.2,0.3,0.5,0.5,0.9,0.6c0.5,0,1.1-0.2,1.5-0.5
	l3.2-1.7c0.2-0.1,0.4-0.2,0.5-0.3c0.2-0.1,0.3-0.2,0.2-0.3s-0.2-0.1-0.4-0.2C33.8,129.2,33.5,129.2,33.3,129.3L33.3,129.3z
	 M32.1,127.3c0-0.1,0-0.2,0.1-0.2c0.3-0.1,0.6-0.1,0.9,0c0.3,0,0.6,0.2,0.8,0.4c0.1,0.2,0,0.4-0.2,0.6c-0.2,0.1-0.4,0.2-0.6,0.3
	l-0.3,0.2l-2.7,1.3c-0.8,0.4-1.6,0.5-2.4,0.4c-0.7-0.1-1.3-0.4-1.7-1c-0.1-0.1-0.1-0.2-0.2-0.4l0.9,0.2c0,0.2,0.1,0.3,0.2,0.4
	c0.2,0.3,0.5,0.5,0.9,0.6c0.5,0,1.1-0.2,1.5-0.4l3.2-1.6l0.5-0.3c0.2-0.1,0.3-0.2,0.2-0.3s-0.2-0.2-0.4-0.2
	C32.5,127.2,32.3,127.2,32.1,127.3L32.1,127.3z M26.8,123.4l-0.4,0.1c-0.8,0.3-1.6,0.4-2.5,0.2c-0.7-0.1-1.3-0.6-1.6-1.2
	c-0.1-0.1-0.1-0.3-0.2-0.4l0.8,0.3c0,0.2,0.1,0.3,0.2,0.4c0.2,0.3,0.5,0.6,0.8,0.7c0.5,0,1.1-0.1,1.6-0.3l3.4-1.2l0.2-0.1
	c0.2-0.1,0.3-0.1,0.5-0.2c0.1-0.1,0.2-0.1,0.1-0.2s-0.5-0.3-1-0.3c0-0.1,0-0.1,0.1-0.2c0.2-0.1,0.5-0.1,0.7,0c0.4,0,0.8,0.2,1,0.5
	c0.1,0.2,0,0.4-0.3,0.5c-0.2,0.1-0.4,0.2-0.6,0.3l-0.4,0.1l-0.3,0.1c0.5,0,1,0.1,1.5,0.3c0.4,0.1,0.8,0.4,1,0.7c0.2,0.4,0,0.7-0.6,1
	c-0.7,0.4-1.6,0.5-2.4,0.3c-0.7-0.1-1.4-0.6-1.7-1.2L26.8,123.4z M27.4,123.1c0,0.2,0,0.5,0.1,0.7c0.2,0.4,0.7,0.6,1.1,0.6
	c0.6,0,1.3-0.2,1.8-0.5c0.3-0.2,0.4-0.3,0.4-0.6c-0.2-0.3-0.6-0.5-1-0.6c-0.7-0.2-1.4-0.1-2,0.1L27.4,123.1z M27.1,118.4
	c0.6,0.1,1.1,0.2,1.6,0.5c0.4,0.1,0.7,0.4,0.9,0.7c0.2,0.4-0.1,0.7-0.6,0.9c-0.8,0.3-1.6,0.4-2.4,0.1c-0.8-0.2-1.4-0.8-1.7-1.5
	c-0.1-0.2-0.2-0.5-0.2-0.8h0.1H25l0.3-0.1l1.9-0.5l0.3-0.1c0.3-0.1,0.4-0.1,0.5-0.2s0.1-0.1,0.1-0.2s-0.4-0.3-1-0.4
	c0-0.1,0-0.1,0.1-0.2c0.2,0,0.5,0,0.7,0.1c0.5,0.2,0.8,0.3,0.9,0.6s0,0.3-0.3,0.5l-0.3,0.1l-0.3,0.1l-0.4,0.1L27.1,118.4z
	 M25.4,118.8c0,0.3,0,0.6,0.1,0.8c0.2,0.4,0.6,0.6,1.1,0.6c0.6,0,1.3-0.1,1.8-0.3c0.3-0.2,0.5-0.3,0.4-0.5c-0.2-0.3-0.5-0.5-0.9-0.6
	c-0.6-0.2-1.3-0.3-2-0.1L25.4,118.8z M25.3,115.5c-1.4-0.2-2.1-0.6-2.3-1.2c-0.1-0.2-0.1-0.3-0.1-0.5l0.8,0.3c0,0.1,0,0.2,0,0.3
	c0.1,0.3,0.4,0.5,1,0.6c0.5,0.1,1.1,0.1,1.6,0l1-0.2l0.4,0.5h-0.1l-0.3,0.1l-0.3,0.1l-2,0.5h-0.2l-0.4,0.1c-0.2,0.1-0.2,0.1-0.2,0.2
	s0.4,0.3,0.9,0.4c0,0.1,0,0.1-0.1,0.2c-0.3,0-0.6,0-0.8-0.2c-0.3-0.1-0.5-0.3-0.7-0.5c-0.1-0.2,0-0.4,0.3-0.5l0.3-0.1l0.3-0.1
	l0.4-0.1L25.3,115.5z M23.9,112.4c-0.4-0.1-0.8-0.2-1.2-0.5c-0.3-0.2-0.5-0.4-0.6-0.7c-0.1-0.3,0-0.5,0.3-0.7c0,0,0.1,0,0.1,0
	c0.4-0.1,0.8-0.1,1.1,0.2c0.4,0.2,0.8,0.6,1,1c0.8-0.8,1.1-1.3,1-1.6s-0.3-0.3-0.6-0.4c0-0.1,0.1-0.1,0.1-0.1c0.2,0,0.5,0.1,0.6,0.2
	c0.2,0.1,0.4,0.3,0.5,0.5c0.1,0.3-0.4,0.9-1.3,1.9l-0.1,0.2l1.7-0.3l0.4,0.5h-0.1l-0.3,0.1l-0.3,0.1l-3.7,0.7
	c-0.8,0.2-1.7,0.1-2.5-0.3c-0.7-0.3-1.2-0.8-1.4-1.5c0-0.1-0.1-0.3-0.1-0.4l0.8,0.4c0,0.2,0,0.3,0.1,0.5c0.2,0.8,1,1.1,2.3,0.8
	L23.9,112.4z M24.5,112.3c-0.1-0.4-0.3-0.7-0.6-1c-0.2-0.2-0.6-0.3-0.9-0.2c-0.3,0.1-0.4,0.2-0.4,0.4s0.3,0.4,0.6,0.5
	C23.7,112.2,24.1,112.3,24.5,112.3L24.5,112.3z M27.2,108.6l-0.1,0.1c-0.3-0.3-0.7-0.5-1.2-0.4c-0.3,0.1-0.6,0.4-0.7,0.7l-0.7-0.4
	c0.1-0.4,0.4-0.6,0.8-0.7C26,107.8,26.7,108.1,27.2,108.6L27.2,108.6z M22.2,104.1c-0.5-0.2-1-0.5-1.4-0.9c-0.3-0.2-0.5-0.6-0.6-0.9
	c0-0.3,0.1-0.4,0.5-0.5c0.2,0,0.3,0,0.5,0h1.6c0.3,0,0.5,0,0.8-0.1c0.1,0,0.2-0.1,0.2-0.2s-0.3-0.4-0.9-0.6c0-0.1,0.1-0.1,0.1-0.1
	c0.3,0,0.6,0.1,0.8,0.3c0.4,0.3,0.5,0.5,0.6,0.7s-0.1,0.3-0.4,0.4c-0.3,0-0.7,0.1-1,0.1h-1c-0.3,0-0.5,0-0.8,0.1
	c-0.2,0-0.3,0.1-0.3,0.3c0.1,0.4,0.4,0.7,0.9,1c0.5,0.3,1.1,0.4,1.7,0.4l1-0.1l0.4,0.6h-0.1h-0.3H24l-3.8,0.2
	c-0.8,0.1-1.7-0.1-2.4-0.6c-0.6-0.3-1.1-1-1.2-1.7c0-0.1,0-0.3,0-0.4l0.7,0.5c0,0.2,0,0.3,0,0.5c0.1,0.8,0.9,1.2,2.2,1.1L22.2,104.1
	z M22.4,97.9c0-0.1,0.1-0.1,0.1-0.1c0.2,0,0.4,0.1,0.5,0.2c0.5,0.3,0.9,0.8,1,1.3c0,0.3-0.1,0.6-0.3,0.8c-0.2,0.2-0.5,0.4-0.9,0.4
	c-0.7,0.1-1.4-0.1-2-0.5c-0.7-0.4-1.1-0.9-1.1-1.3s0.1-0.5,0.5-0.6c0.5,0,0.9,0.2,1.3,0.5c0.5,0.4,0.8,0.8,1,1.4
	c0.7-0.1,1-0.4,0.9-0.9S23,98.2,22.4,97.9L22.4,97.9z M22,100c0-0.1,0-0.2,0-0.2c0-0.3-0.2-0.7-0.4-0.9c-0.2-0.2-0.5-0.3-0.8-0.3
	c-0.2,0-0.5,0.2-0.5,0.4c0,0,0,0.1,0,0.1c0,0.3,0.2,0.5,0.5,0.6C21.2,99.9,21.6,100,22,100z M23.6,93.9c-0.6,0-1.3,0.1-1.9,0.2
	l-0.9,0.2c-0.5,0.1-0.8,0.2-0.8,0.4s0.2,0.4,0.6,0.4c0,0.1-0.1,0.1-0.2,0.1c-0.3,0-0.5-0.1-0.7-0.3c-0.2-0.2-0.4-0.4-0.4-0.6
	s0.2-0.4,0.6-0.6c0.7-0.2,1.4-0.3,2.1-0.4h0.3c-0.8-0.4-1.7-0.8-2.5-1.1l-0.5-0.5l0.9-0.1l0.7-0.1l0.5-0.1l1.1-0.2l-0.2-0.1
	c-0.6-0.5-1.3-0.8-2.1-1c-0.2,0-0.3,0.1-0.4,0.3l-0.5-0.5c0.1-0.2,0.3-0.3,0.5-0.3c0.4,0.1,0.8,0.2,1.2,0.5l0.4,0.3l0.6,0.3
	c0.3,0.2,0.7,0.4,1.1,0.5l0.5,0.5c-0.5,0.1-1.1,0.1-1.6,0.2L21.6,92l-1,0.2l0.4,0.2c0.7,0.3,1.4,0.6,2.1,0.9L23.6,93.9z M22.3,86.8
	c0-0.1,0.1-0.1,0.2-0.1c0.1,0,0.2,0.1,0.4,0.3c0.5,0.4,0.8,0.9,0.8,1.5c0,0.3-0.2,0.5-0.4,0.7c-0.3,0.2-0.6,0.3-0.9,0.2
	c-0.7-0.1-1.4-0.4-1.9-0.8c-0.6-0.3-0.9-0.9-1-1.6c0-0.3,0.2-0.5,0.6-0.5c0.5,0,0.9,0.3,1.2,0.7c0.4,0.4,0.6,1,0.8,1.5
	c0.7,0,1-0.3,1.1-0.8C23.1,87.4,22.8,86.9,22.3,86.8L22.3,86.8z M21.6,88.7c0-0.1,0.1-0.2,0.1-0.2c0-0.3-0.1-0.7-0.3-0.9
	c-0.2-0.3-0.4-0.4-0.7-0.4c-0.3,0-0.5,0.2-0.5,0.5c0,0.3,0.2,0.5,0.4,0.7C20.8,88.5,21.2,88.6,21.6,88.7L21.6,88.7z M23.7,85.1
	l0.2,0.7h-0.1l-0.3-0.1l-0.3-0.1l-2-0.4h-0.2c-0.1-0.1-0.3-0.2-0.4-0.2c-0.2,0-0.3,0-0.3,0.1s0.2,0.5,0.6,0.8c0,0-0.1,0.1-0.1,0.1
	c-0.2,0-0.4-0.2-0.6-0.5c-0.2-0.2-0.3-0.5-0.4-0.8c0-0.2,0.2-0.3,0.5-0.3l0.3,0.1l0.3,0.1l0.3,0.1l0.3,0.1c-0.4-0.4-0.8-0.8-1.1-1.2
	C20.1,83,20,82.6,20,82.3c0-0.3,0.2-0.4,0.6-0.3c0.1,0,0.3,0,0.5,0.1l1.6,0.4c0.2,0.1,0.5,0.1,0.7,0.2c0.1,0,0.2,0,0.2-0.1
	S23.5,82,23,81.7c0,0,0.1-0.1,0.1-0.1c0.2,0,0.4,0.2,0.7,0.6c0.2,0.2,0.3,0.5,0.4,0.8c0,0.2-0.2,0.3-0.5,0.3c-0.3,0-0.7-0.1-1-0.2
	l-1-0.3c-0.3-0.1-0.5-0.1-0.8-0.2c-0.2,0-0.3,0-0.4,0.2c0,0.5,0.2,0.9,0.6,1.2c0.4,0.4,0.9,0.7,1.5,0.8L23.7,85.1z M21,79.5l1.8,0.5
	c0.2,0.1,0.5,0.1,0.7,0.2c0.3,0.1,0.5,0,0.5-0.2s-0.1-0.5-0.5-0.8c0,0,0.1,0,0.1,0c0.2,0,0.3,0.2,0.5,0.5c0.1,0.2,0.2,0.5,0.2,0.8
	c-0.1,0.4-0.4,0.6-0.9,0.5c-0.2,0-0.5-0.1-0.9-0.2l-1.8-0.5L20.7,81l-0.4-0.6l0.1-0.4l-0.8-0.2l-0.1-0.7l1,0.3l0.3-1.8l0.4,0.6
	L21,79.5z M22.2,73.9l1.8,0.7c0.2,0.1,0.5,0.2,0.7,0.2c0.3,0.1,0.5,0,0.5-0.2s-0.1-0.5-0.4-0.9c0.1,0,0.1,0,0.2,0
	c0.2,0,0.3,0.2,0.5,0.6c0.1,0.2,0.2,0.5,0.1,0.8c-0.1,0.4-0.4,0.5-0.9,0.4c-0.3-0.1-0.6-0.2-0.9-0.3l-1.8-0.7l-0.2,0.9l-0.4-0.6
	l0.1-0.4l-0.7-0.3l0-0.7l0.9,0.3l0.5-1.7l0.4,0.6L22.2,73.9z M26.4,72.3c-0.2,0.6-0.7,0.8-1.5,0.5c-0.7-0.2-1.3-0.7-1.7-1.3
	c-0.4-0.5-0.6-1.1-0.5-1.8c0.2-0.6,0.7-0.8,1.5-0.6c0.7,0.2,1.3,0.7,1.7,1.3C26.4,71,26.6,71.7,26.4,72.3L26.4,72.3z M26.1,71.7
	c0.1-0.4,0-0.7-0.3-1c-0.3-0.3-0.7-0.6-1.2-0.7c-0.9-0.3-1.4-0.1-1.5,0.4c-0.1,0.4,0,0.7,0.3,1c0.3,0.3,0.7,0.6,1.2,0.7
	C25.4,72.3,25.9,72.2,26.1,71.7L26.1,71.7z M27.4,64.3c0.3,0.4,0.6,0.9,0.8,1.5c0.2,0.4,0.2,0.8,0.1,1.2c-0.1,0.4-0.5,0.4-1.1,0.2
	c-0.8-0.3-1.4-0.9-1.8-1.7C25,64.8,25,64,25.3,63.3c0.1-0.2,0.2-0.5,0.4-0.7l0.1,0.1l0.2,0.1l0.2,0.2l1.6,1l0.2,0.1l0.5,0.3
	c0.1,0,0.2,0,0.2,0c0.1-0.2-0.1-0.5-0.5-1c0.1,0,0.1-0.1,0.2,0c0.2,0.2,0.3,0.4,0.4,0.6c0.2,0.3,0.3,0.7,0.2,1.1
	c-0.1,0.2-0.2,0.2-0.5,0.1L28.3,65L28,64.7l-0.3-0.2L27.4,64.3z M25.9,63.5c-0.2,0.2-0.4,0.4-0.5,0.6c-0.1,0.4,0,0.9,0.3,1.2
	c0.4,0.5,0.9,0.8,1.5,1.1c0.3,0.1,0.6,0.1,0.6-0.1c0.1-0.4,0-0.8-0.2-1.1c-0.3-0.6-0.8-1.2-1.4-1.5L25.9,63.5z M28.6,56.7l0.3,0.7
	c-0.2,0.1-0.3,0.3-0.4,0.5c-0.2,0.3-0.2,0.7,0,1c0.2,0.4,0.6,0.7,1,0.9c0.3,0.2,0.6,0.2,0.9,0.2c0.3,0,0.5-0.2,0.6-0.4
	c0.2-0.4,0.1-1-0.3-1.3c0.1,0,0.1,0,0.2,0c0.2,0.1,0.4,0.4,0.4,0.9c0.1,0.4,0.1,0.8-0.1,1.1c-0.1,0.3-0.4,0.4-0.7,0.5
	c-0.3,0.1-0.7,0-1-0.2c-0.7-0.3-1.2-0.9-1.4-1.6c-0.3-0.6-0.3-1.3,0-1.9C28.3,57,28.4,56.9,28.6,56.7L28.6,56.7z M32.8,57.6
	c-0.3,0.6-0.9,0.6-1.6,0.2c-0.6-0.4-1.1-1-1.3-1.7c-0.3-0.6-0.3-1.3,0-1.8c0.3-0.6,0.9-0.6,1.6-0.2c0.6,0.4,1.1,1,1.3,1.7
	C33.1,56.3,33.1,57,32.8,57.6L32.8,57.6z M32.7,56.9c0.2-0.3,0.2-0.7,0-1c-0.2-0.4-0.6-0.8-1-1c-0.8-0.5-1.3-0.5-1.6,0
	c-0.2,0.3-0.1,0.7,0,1c0.2,0.4,0.6,0.8,1,1C31.9,57.4,32.4,57.4,32.7,56.9L32.7,56.9z M33,52.8c-0.7-1.2-0.8-2-0.5-2.6
	c0.1-0.1,0.2-0.2,0.4-0.3l0.2,0.9c-0.1,0.1-0.2,0.1-0.3,0.2c-0.2,0.2-0.1,0.6,0.1,1.2c0.2,0.5,0.5,1,0.9,1.3l0.8,0.7l-0.2,0.7
	l-0.1-0.1l-0.2-0.2L34,54.4L32.4,53l-0.2-0.2c-0.1-0.1-0.2-0.2-0.3-0.2c-0.1-0.1-0.2-0.1-0.3,0c-0.1,0.2,0,0.5,0.2,1
	c-0.1,0-0.1,0-0.2,0c-0.2-0.2-0.3-0.5-0.3-0.8c-0.1-0.3-0.1-0.6,0-0.8c0.1-0.2,0.3-0.2,0.6,0c0.1,0.1,0.2,0.1,0.2,0.2l0.2,0.2
	l0.3,0.2L33,52.8z M36.7,51.2l-0.2,0.7l-0.1-0.1l-0.2-0.2L36,51.4L34.6,50l-0.2-0.2c-0.1-0.1-0.2-0.2-0.3-0.3
	c-0.1-0.1-0.2-0.1-0.3,0s-0.1,0.5,0.2,1c-0.1,0-0.1,0-0.2,0s-0.2-0.4-0.3-0.8c-0.1-0.3,0-0.6,0.1-0.9c0.1-0.2,0.3-0.2,0.6,0l0.2,0.2
	l0.2,0.2l0.2,0.2l0.2,0.2c-0.2-0.5-0.3-1.1-0.3-1.6c0-0.4,0-0.8,0.2-1.1c0.2-0.2,0.4-0.2,0.7,0c0.1,0.1,0.2,0.2,0.4,0.3l1.1,1.2
	c0.2,0.2,0.4,0.4,0.6,0.5c0.1,0.1,0.2,0.1,0.2,0s0.1-0.5-0.2-1.1c0.1,0,0.1,0,0.2,0c0.2,0.2,0.3,0.5,0.3,0.8c0.1,0.3,0,0.6-0.1,0.9
	c-0.1,0.2-0.3,0.2-0.6,0c-0.2-0.2-0.5-0.4-0.7-0.7l-0.7-0.8c-0.2-0.2-0.4-0.4-0.6-0.5c-0.2-0.1-0.3-0.1-0.4,0
	C35,48.1,35,48.6,35.1,49c0.1,0.6,0.4,1.1,0.9,1.5L36.7,51.2z M39.8,45.5c0.1,0,0.1,0,0.2,0c0.1,0.1,0.2,0.3,0.2,0.5
	c0.1,0.6,0,1.2-0.3,1.7c-0.2,0.2-0.5,0.3-0.7,0.3c-0.3,0-0.6-0.2-0.9-0.4c-0.5-0.5-0.9-1.1-1-1.9c-0.2-0.6-0.1-1.2,0.2-1.8
	c0.2-0.2,0.5-0.3,0.7-0.1c0,0,0.1,0.1,0.1,0.1c0.3,0.3,0.5,0.8,0.5,1.3c0,0.6-0.1,1.2-0.3,1.7c0.6,0.4,1,0.4,1.3,0.1
	C40.1,46.6,40.1,46,39.8,45.5L39.8,45.5z M38,46.6c0.1,0,0.1-0.1,0.2-0.2c0.2-0.3,0.4-0.6,0.4-0.9c0-0.3-0.1-0.6-0.3-0.8
	c-0.2-0.2-0.4-0.2-0.6-0.1c0,0-0.1,0-0.1,0.1c-0.2,0.2-0.2,0.5-0.1,0.8C37.5,46,37.8,46.3,38,46.6L38,46.6z M40.5,43.4
	c-0.4-1.3-0.4-2.2,0-2.6c0.1-0.1,0.3-0.2,0.4-0.3l0.1,0.9c-0.1,0-0.2,0.1-0.3,0.2c-0.2,0.2-0.2,0.6-0.1,1.2c0.1,0.5,0.3,1,0.7,1.5
	l0.7,0.8l-0.3,0.6l-0.1-0.1l-0.2-0.2l-0.2-0.2l-1.3-1.6l-0.1-0.2c-0.1-0.1-0.2-0.2-0.3-0.3C39.3,43,39.2,43,39.2,43s-0.1,0.5,0.1,1
	c-0.1,0-0.1,0-0.2,0c-0.2-0.2-0.2-0.5-0.2-0.8c0-0.3,0-0.6,0.2-0.8c0.2-0.2,0.4-0.2,0.6,0.1l0.2,0.2l0.2,0.2l0.2,0.3L40.5,43.4z
	 M46.2,41.3c-0.5,0.4-1,0.3-1.6-0.3c-0.5-0.6-0.7-1.3-0.7-2c-0.1-0.6,0.1-1.3,0.5-1.8c0.5-0.4,1-0.3,1.6,0.3c0.5,0.6,0.7,1.3,0.7,2
	C46.9,40.1,46.7,40.8,46.2,41.3L46.2,41.3z M46.3,40.5c0.2-0.2,0.3-0.6,0.3-1c-0.1-0.5-0.3-0.9-0.6-1.2c-0.6-0.7-1.1-0.8-1.5-0.5
	c-0.3,0.3-0.4,0.6-0.3,1c0.1,0.5,0.3,0.9,0.7,1.2C45.4,40.8,45.9,40.9,46.3,40.5L46.3,40.5z M47.1,35.8l1.9,2.9
	c0.3,0.5,0.6,1.1,0.8,1.6c0.2,0.4,0.2,0.9,0.1,1.4c-0.1,0.7-0.5,1.3-1,1.7c-0.1,0.1-0.3,0.2-0.5,0.2l0.1-0.8
	c0.2-0.1,0.4-0.2,0.6-0.3c0.7-0.5,0.7-1.3,0-2.4l-0.6-0.9l-2-3l-0.6,0.5l0.1-0.7l0.3-0.2l-0.1-0.2c-0.5-0.7-0.8-1.6-0.8-2.5
	c0-0.8,0.4-1.5,1-1.9c0.1-0.1,0.3-0.2,0.4-0.3l-0.1,0.8c-0.2,0.1-0.4,0.2-0.6,0.3c-0.3,0.2-0.5,0.6-0.5,1c0.2,0.7,0.5,1.3,0.9,1.8
	l0.3,0.5l1.4-1.1L48.2,35L47.1,35.8z"/>
<g id="hairBack">
	<circle class="st2" cx="57.8" cy="130.8" r="15.1"/>
	<circle class="st3" cx="75.2" cy="144.1" r="15.1"/>
	<circle class="st3" cx="107.4" cy="143.8" r="15.1"/>
	<circle class="st4" cx="124.7" cy="128.7" r="15.1"/>
	<circle class="st5" cx="132.4" cy="110.8" r="15.1"/>
	<circle class="st2" cx="130.7" cy="95.8" r="15.1"/>
	<circle class="st6" cx="48.4" cy="113.3" r="15"/>
	<circle class="st5" cx="50.2" cy="97.8" r="15.1"/>
	<circle class="st7" cx="53.3" cy="82.5" r="15.1"/>
	<circle class="st8" cx="75.2" cy="63.3" r="15.1"/>
	<circle class="st6" cx="61.2" cy="70.4" r="15.1"/>
	<circle class="st5" cx="87.8" cy="61.3" r="15.1"/>
	<circle class="st9" cx="102.3" cy="62.8" r="15.1"/>
	<circle class="st5" cx="117.3" cy="71.2" r="15.1"/>
	<circle class="st10" cx="126" cy="83.6" r="15.1"/>
</g>
<g id="face">
	<g id="earRight">
		<path class="st11" d="M126.8,122.5L126.8,122.5c-3.7-0.7-6.1-4.8-5.3-9.2l1.7-9.3c0.8-4.4,4.4-7.5,8.2-6.8l0,0
			c5.9,1,9.6,7.6,8.4,14.6l0,0C138.5,118.7,132.7,123.5,126.8,122.5z"/>
		<path class="st12" d="M129,115.4L129,115.4c-1.9-0.3-3.2-2.2-2.9-4.1c0,0,0,0,0,0l0.7-4c0.3-1.9,2.2-3.2,4.1-2.9l0,0
			c3.1,0.5,5.1,3.4,4.6,6.5l0,0C134.9,114,132,116,129,115.4z"/>
		<path class="st13" d="M128,115.1L128,115.1c-1.3-0.2-2.1-1.4-1.9-2.7l0.5-2.7c0.2-1.3,1.5-2.1,2.7-1.9l0,0c2,0.4,3.4,2.3,3,4.3
			l0,0C131.9,114,130,115.4,128,115.1z"/>
	</g>
	<g id="earLeft">
		<path class="st11" d="M53.6,123.2L53.6,123.2c3.6-1,5.6-5.4,4.4-9.7l-2.6-9.1c-1.2-4.3-5.2-7-8.8-6l0,0c-5.7,1.6-8.8,8.5-6.9,15.4
			l0,0C41.6,120.6,47.8,124.8,53.6,123.2z"/>
		<path class="st12" d="M50.7,116.4L50.7,116.4c1.9-0.5,3-2.5,2.5-4.4c0,0,0,0,0,0l-1.1-4c-0.5-1.9-2.5-3-4.4-2.4l0,0
			c-3,0.8-4.7,3.9-3.9,6.9c0,0,0,0,0,0l0,0C44.6,115.5,47.7,117.2,50.7,116.4C50.7,116.4,50.7,116.4,50.7,116.4z"/>
		<path class="st13" d="M51.7,115.9L51.7,115.9c1.3-0.4,2-1.7,1.6-2.9l-0.8-2.6c-0.4-1.2-1.6-2-2.9-1.6c0,0,0,0,0,0l0,0
			c-2,0.5-3.1,2.6-2.6,4.6c0,0,0,0,0,0l0,0C47.6,115.3,49.7,116.5,51.7,115.9z"/>
	</g>
	<path id="skin-2" class="st14" d="M89.2,66.2h0.7c21.5,0,38.9,17.4,38.9,39v0.7c0,21.5-17.4,38.9-38.9,38.9h-0.7
		c-21.5,0-39-17.4-39-38.9v-0.7C50.2,83.6,67.7,66.2,89.2,66.2z"/>
	<path id="eyebrowLeft" class="st15" d="M79,88.5c-2-1.1-4.3-1.5-6.5-0.9c-3,0.6-5.7,2.4-7.3,5"/>
	<path id="eyebrowRight" class="st15" d="M114.1,93c-0.8-2.1-2.4-3.8-4.5-4.8c-2.7-1.5-5.9-1.7-8.9-0.7"/>
	<g id="blushLeft" class="st16">
		<defs>
			<filter id="Adobe_OpacityMaskFilter" filterUnits="userSpaceOnUse" x="61.1" y="112.8" width="15.6" height="12.3">
				<feFlood  style="flood-color:white;flood-opacity:1" result="back"/>
				<feBlend  in="SourceGraphic" in2="back" mode="normal"/>
			</filter>
		</defs>
		<mask maskUnits="userSpaceOnUse" x="61.1" y="112.8" width="15.6" height="12.3" id="SVGID_1_">
			<g class="st17">

					<image style="overflow:visible;" width="20" height="18" xlink:href="DE9FB759C8CC3C2A.jpg"  transform="matrix(1 0 0 1 59 109.92)">
				</image>
			</g>
		</mask>
		<g class="st18">
			<g>
				<g>
					<ellipse class="st19" cx="68.9" cy="119" rx="7.8" ry="6.2"/>
				</g>
			</g>
		</g>
	</g>
	<g id="blushRight" class="st16">
		<defs>
			<filter id="Adobe_OpacityMaskFilter_1_" filterUnits="userSpaceOnUse" x="103.5" y="112.8" width="15.6" height="12.3">
				<feFlood  style="flood-color:white;flood-opacity:1" result="back"/>
				<feBlend  in="SourceGraphic" in2="back" mode="normal"/>
			</filter>
		</defs>
		<mask maskUnits="userSpaceOnUse" x="103.5" y="112.8" width="15.6" height="12.3" id="SVGID_2_">
			<g class="st20">

					<image style="overflow:visible;" width="21" height="18" xlink:href="DE9FB759C8CC3C2E.jpg"  transform="matrix(1 0 0 1 101 109.92)">
				</image>
			</g>
		</mask>
		<g class="st21">
			<g>
				<g>
					<ellipse class="st19" cx="111.3" cy="119" rx="7.8" ry="6.2"/>
				</g>
			</g>
		</g>
	</g>
	<path id="nose" class="st22" d="M86.1,111.8L86.1,111.8c-1.4,2-0.9,4.6,1,5.9c0.7,0.5,1.5,0.7,2.4,0.7h0.1c2.3,0,4.2-1.8,4.2-4.1
		c0-0.9-0.2-1.7-0.7-2.4l-0.1-0.1c-1.3-1.9-3.9-2.4-5.8-1.1C86.7,111,86.3,111.3,86.1,111.8z"/>
	<g>
		<defs>
			<path id="SVGID_3_" d="M89.2,66.2h0.7c21.5,0,38.9,17.4,38.9,39v0.7c0,21.5-17.4,38.9-38.9,38.9h-0.7c-21.5,0-39-17.4-39-38.9
				v-0.7C50.2,83.6,67.7,66.2,89.2,66.2z"/>
		</defs>
		<clipPath id="SVGID_4_">
			<use xlink:href="#SVGID_3_"  style="overflow:visible;"/>
		</clipPath>
		<g class="st23">
			<defs>
				<filter id="Adobe_OpacityMaskFilter_2_" filterUnits="userSpaceOnUse" x="26.4" y="75.4" width="123.6" height="113.9">
					<feFlood  style="flood-color:white;flood-opacity:1" result="back"/>
					<feBlend  in="SourceGraphic" in2="back" mode="normal"/>
				</filter>
			</defs>
			<mask maskUnits="userSpaceOnUse" x="26.4" y="75.4" width="123.6" height="113.9" id="SVGID_5_">
				<g class="st24">

						<image style="overflow:visible;" width="129" height="119" xlink:href="DE9FB759C8CC3C29.jpg"  transform="matrix(1 0 0 1 24 72.92)">
					</image>
				</g>
			</mask>
			<g class="st25">
				<g>
					<g id="light_9_">
						<g>
							<ellipse class="st26" cx="88.2" cy="132.4" rx="61.8" ry="56.9"/>
						</g>
					</g>
				</g>
			</g>
		</g>
	</g>
</g>
<g id="eyeLeft">
	<path class="st27" d="M71.4,94.6L71.4,94.6c5.6,0,10.2,4.5,10.2,10.2l0,0c0,5.6-4.5,10.2-10.2,10.2l0,0c-5.6,0-10.2-4.5-10.2-10.2
		l0,0C61.2,99.2,65.7,94.6,71.4,94.6z"/>
	<path class="st28" d="M71.3,98.8L71.3,98.8c3.3,0,6,2.7,6,6l0,0c0,3.3-2.7,6-6,6l0,0c-3.3,0-6-2.7-6-6l0,0
		C65.3,101.4,68,98.8,71.3,98.8z"/>
	<g id="pupilLeft">
		<path class="st29" d="M71.4,104.7L71.4,104.7c1.7,0,3,1.3,3,3l0,0c0,1.7-1.3,3-3,3l0,0c-1.7,0-3-1.3-3-3l0,0
			C68.4,106.1,69.7,104.7,71.4,104.7z"/>
		<path class="st30" d="M72.9,103.6L72.9,103.6c0.9,0,1.6,0.7,1.6,1.6c0,0,0,0,0,0l0,0c0,0.9-0.7,1.6-1.6,1.6c0,0,0,0,0,0l0,0
			c-0.9,0-1.6-0.7-1.6-1.6c0,0,0,0,0,0l0,0C71.4,104.3,72.1,103.6,72.9,103.6z"/>
		<path class="st27" d="M74.5,106.6L74.5,106.6c0.4,0,0.7,0.3,0.7,0.7c0,0,0,0,0,0l0,0c0,0.4-0.3,0.7-0.7,0.7c0,0,0,0,0,0l0,0
			c-0.4,0-0.7-0.3-0.7-0.7c0,0,0,0,0,0l0,0C73.8,106.9,74.1,106.6,74.5,106.6z"/>
	</g>
</g>
<g id="eyeRight">
	<path class="st27" d="M108.5,94.6L108.5,94.6c5.6,0,10.2,4.5,10.2,10.2l0,0c0,5.6-4.5,10.2-10.2,10.2l0,0
		c-5.6,0-10.2-4.5-10.2-10.2l0,0C98.3,99.2,102.9,94.6,108.5,94.6z"/>
	<path class="st28" d="M108.5,98.8L108.5,98.8c3.3,0,6,2.7,6,6l0,0c0,3.3-2.7,6-6,6h0c-3.3,0-6-2.7-6-6l0,0
		C102.5,101.4,105.2,98.8,108.5,98.8z"/>
	<g id="pupilRight">
		<path class="st29" d="M108.5,104.7L108.5,104.7c1.7,0,3,1.3,3,3l0,0c0,1.7-1.3,3-3,3l0,0c-1.7,0-3-1.3-3-3l0,0
			C105.5,106.1,106.8,104.7,108.5,104.7z"/>
		<path class="st30" d="M110.1,103.6L110.1,103.6c0.9,0,1.6,0.7,1.6,1.6c0,0,0,0,0,0l0,0c0,0.9-0.7,1.6-1.6,1.6c0,0,0,0,0,0l0,0
			c-0.9,0-1.6-0.7-1.6-1.6c0,0,0,0,0,0l0,0C108.5,104.3,109.2,103.6,110.1,103.6C110.1,103.6,110.1,103.6,110.1,103.6z"/>
		<path class="st27" d="M111.7,106.6L111.7,106.6c0.4,0,0.7,0.3,0.7,0.7v0c0,0.4-0.3,0.7-0.7,0.7l0,0c-0.4,0-0.7-0.3-0.7-0.7v0
			C110.9,106.9,111.3,106.6,111.7,106.6z"/>
	</g>
</g>
<g id="hairFront">
	<circle class="st31" cx="66.4" cy="69.1" r="13.1"/>
	<circle class="st32" cx="81.1" cy="64.5" r="13.5"/>
	<circle class="st10" cx="99.2" cy="65.3" r="10.1"/>
	<circle class="st32" cx="110.1" cy="71.2" r="10.1"/>
	<circle class="st4" cx="125" cy="82.4" r="10.1"/>
	<circle class="st10" cx="57.7" cy="73.3" r="10.1"/>
	<circle class="st7" cx="57.7" cy="78.5" r="10.1"/>
	<circle class="st33" cx="50.2" cy="94.1" r="4.6"/>
	<circle class="st10" cx="53.3" cy="89.5" r="4.6"/>
	<circle class="st33" cx="128.8" cy="94.1" r="4.6"/>
	<circle class="st10" cx="51.3" cy="99.1" r="3.4"/>
	<circle class="st10" cx="129.3" cy="98.8" r="3.5"/>
	<circle class="st10" cx="130.9" cy="94.9" r="3.4"/>
	<circle class="st10" cx="51.3" cy="103.6" r="2.3"/>
	<circle class="st33" cx="127.9" cy="102.8" r="2.3"/>
	<circle class="st5" cx="52.3" cy="108.5" r="1.4"/>
	<circle class="st33" cx="125.7" cy="107.6" r="1.4"/>
	<circle class="st10" cx="51.3" cy="94.9" r="2.3"/>
</g>
<g id="book">
	<path class="st34" d="M78.9,165.8L62.7,158c-1.7-0.9-2.9-2.5-3.3-4.5l-6-25.8c-1.2-5.4,3.2-10.2,7.5-8l22.2,11.1
		c2.2,1.3,3.5,3.7,3.5,6.2v22.5C86.5,164.3,82.5,167.5,78.9,165.8z"/>
	<path class="st35" d="M78,167.1l-18.1-7.7c-1.9-0.8-3.2-2.5-3.7-4.5L49.6,129c-1.4-5.4,3.6-10.2,8.4-8l24.7,11.1
		c2.4,1.1,3.9,3.6,3.8,6.2v22.5C86.5,165.5,82.1,168.8,78,167.1z"/>
	<path class="st36" d="M79.8,170.3c-0.7,0-1.3-0.1-1.9-0.4l-19.5-8.1c-1.6-0.7-2.7-2-3.1-3.7L48,131.1c-0.5-1.7-0.1-3.6,1-5
		c0.9-1.3,2.4-2,4-2.1c0.7,0,1.4,0.2,2,0.4L81.8,136c2,0.9,3.3,2.9,3.2,5.2v23.6C85.1,167.7,82.8,170.2,79.8,170.3z"/>
	<path class="st37" d="M53,125.5L53,125.5c0.5,0,1,0.1,1.4,0.3l26.7,11.6c1.5,0.7,2.4,2.2,2.3,3.8v23.6c0.1,2.2-1.6,4-3.7,4.1
		c-0.5,0-0.9-0.1-1.3-0.3l-19.5-8.1c-1.1-0.5-2-1.5-2.3-2.7l-7.2-27.1c-0.4-1.3-0.1-2.6,0.7-3.7C50.9,126.1,51.9,125.5,53,125.5
		 M53,122.5c-3.9,0.1-6.9,3.4-6.7,7.2c0,0.6,0.1,1.2,0.3,1.8l7.2,27.1c0.5,2.1,2,3.8,4,4.7l19.5,8.1c0.8,0.3,1.6,0.5,2.5,0.5
		c3.8-0.1,6.8-3.3,6.7-7.1v-23.6c0-2.8-1.6-5.4-4.2-6.5L55.7,123C54.8,122.6,53.9,122.4,53,122.5L53,122.5z"/>
	<path class="st34" d="M101.1,165.1l16.2-7.7c1.7-0.9,2.9-2.5,3.3-4.5l6-25.8c1.2-5.4-3.2-10.2-7.5-8l-22.2,11.1
		c-2.2,1.3-3.5,3.7-3.4,6.2v22.5C93.4,163.6,97.4,166.9,101.1,165.1z"/>
	<path class="st35" d="M102,166.4l18-7.7c1.9-0.8,3.2-2.5,3.7-4.5l6.6-25.8c1.4-5.4-3.6-10.2-8.4-8l-24.7,11.1
		c-2.4,1.1-3.9,3.6-3.8,6.2v22.5C93.4,164.9,97.9,168.2,102,166.4z"/>
	<path class="st36" d="M99.2,170.3c-3-0.1-5.3-2.6-5.2-5.6v-23.6c0-2.2,1.2-4.3,3.3-5.2l26.7-11.6c0.6-0.3,1.3-0.4,2-0.4
		c1.6,0,3.1,0.8,4,2.1c1.1,1.4,1.5,3.3,1,5l-7.2,27.1c-0.4,1.6-1.6,3-3.1,3.7l-19.5,8.1C100.6,170.2,99.9,170.3,99.2,170.3
		L99.2,170.3z"/>
	<path class="st37" d="M126,125.5c1.1,0,2.2,0.6,2.9,1.5c0.8,1.1,1.1,2.4,0.7,3.7l-7.2,27.1c-0.3,1.2-1.1,2.2-2.2,2.7l-19.5,8.1
		c-0.4,0.2-0.9,0.3-1.3,0.3c-2.1-0.1-3.8-1.9-3.7-4.1v-23.6c0-1.6,0.9-3.1,2.3-3.8l26.7-11.6C125,125.6,125.5,125.5,126,125.5
		 M126,122.5c-0.9,0-1.8,0.2-2.6,0.6l-26.7,11.6c-2.6,1.2-4.2,3.7-4.2,6.5v23.6c-0.1,3.8,2.9,7,6.7,7.1c0.9,0,1.7-0.2,2.5-0.5
		l19.5-8.1c2-0.8,3.5-2.6,4-4.7l7.2-27.1c1.1-3.7-1-7.6-4.7-8.7C127.2,122.6,126.6,122.5,126,122.5L126,122.5z"/>
	<path class="st38" d="M89,170.7c-1.2,0.1-2.3-0.8-2.4-2c0-0.2,0-0.3,0-0.5l-0.9-29.6c2.5,0.9,5.1,0.9,7.6,0.2l-0.9,29.5
		c0.1,1.2-0.7,2.3-1.9,2.4c-0.2,0-0.3,0-0.5,0H89z"/>
	<path class="st37" d="M87.3,140.6c0.8,0.1,1.6,0.2,2.5,0.2c0.7,0,1.3-0.1,2-0.1l-0.9,27.6c0,0.9-0.3,1-0.9,1h-1
		c-0.6,0-0.8-0.1-0.9-1L87.3,140.6 M84.2,136.2c0,0.2,0,0.5,0,0.8l1,31.4c-0.1,2,1.4,3.7,3.4,3.9c0.1,0,0.3,0,0.4,0h1
		c2,0.1,3.8-1.4,3.9-3.4c0-0.1,0-0.3,0-0.4l1-31.4v-0.5c-1.6,0.9-3.3,1.4-5.1,1.4C87.8,137.8,85.8,137.3,84.2,136.2L84.2,136.2z"/>
	<path class="st39" d="M89.7,137.1c-1.3,0-2.6-0.2-3.8-0.6c0.4-0.7,1.2-1.2,2-1.2h3c0.9,0,1.7,0.5,2.1,1.4
		C92,137,90.8,137.1,89.7,137.1z"/>
	<path class="st37" d="M91,133.8h-3c-2,0-3.7,1.6-3.8,3.5c1.7,0.9,3.6,1.3,5.6,1.3c1.8,0,3.5-0.4,5.1-1.1
		C94.8,135.4,93.1,133.8,91,133.8z"/>
</g>
</svg>
