<?xml version="1.0" encoding="utf-8"?>
<!-- Generator: Adobe Illustrator 22.1.0, SVG Export Plug-In . SVG Version: 6.00 Build 0)  -->
<svg version="1.1" id="fox" xmlns="http://www.w3.org/2000/svg" xmlns:xlink="http://www.w3.org/1999/xlink" x="0px" y="0px"
	 viewBox="0 0 180.9 180.9" style="enable-background:new 0 0 180.9 180.9;" xml:space="preserve">
<style type="text/css">
	.st0{fill:#333333;}
	.st1{fill:url(#coat_1_);}
	.st2{fill:#9A4625;}
	.st3{opacity:0.42;fill:url(#coloring_1_);enable-background:new    ;}
	.st4{fill:url(#coat_top_1_);}
	.st5{fill:#663E37;}
	.st6{fill:#475B45;}
	.st7{fill:#B08761;}
	.st8{opacity:0.34;fill:#140000;enable-background:new    ;}
	.st9{fill:#CE8748;}
	.st10{fill:#72111F;}
	.st11{opacity:0.24;fill:#18000B;enable-background:new    ;}
	.st12{opacity:0.35;fill:#432700;enable-background:new    ;}
	.st13{opacity:0.3;}
	.st14{fill:#EDCFBA;}
	.st15{opacity:0.42;fill:#2B1F16;enable-background:new    ;}
	.st16{fill:#883E1E;}
	.st17{fill:#685040;}
	.st18{opacity:0.71;}
	.st19{filter:url(#Adobe_OpacityMaskFilter);}
	.st20{mask:url(#SVGID_1_);}
	.st21{fill:#E58325;}
	.st22{opacity:0.68;}
	.st23{fill:#C6BA96;}
	.st24{fill:#553131;}
	.st25{fill:#313131;}
	.st26{opacity:0.57;fill:#BAC8CA;enable-background:new    ;}
	.st27{opacity:0.78;fill:#C1CFCF;enable-background:new    ;}

	#face{
	animation: headMove 3s infinite;
	transform-origin: center;
	}

	@keyframes headMove{
	0{
	transform: rotateZ(0deg);
	}
	50%{
	transform: rotate(-10deg);
	}
	100%{
	transform: rotateZ(0deg);
	}
	}

	#fox:hover #smoke{
	animation: smokeFading 3s infinite;
	}

	#mitten, #coffee{
	transform-origin: center;
	}

	#fox:hover #coffee{
	animation: handMove 3s infinite;
	}


	#fox:hover #mitten{
	animation: handMove 3s infinite;
	}


	@keyframes smokeFading{
	from{ transform: translateY(0);}
	to{ transform:translate(5px, -10px); opacity: 0;)}
	}

	@keyframes handMove{
	0% {transform: rotate(0deg);}
	50% {transform: rotate(5deg);}
	100% {transform: rotate(0deg);}
	}


</style>
<title>fox</title>
<ellipse id="bg" transform="matrix(0.7071 -0.7071 0.7071 0.7071 -37.4698 90.4598)" class="st0" cx="90.5" cy="90.5" rx="90.4" ry="90.5"/>
<g id="body">

		<radialGradient id="coat_1_" cx="89.8102" cy="63.0587" r="50.14" fx="139.2728" fy="71.273" gradientTransform="matrix(1.01 0 0 -1.01 1.82 185.21)" gradientUnits="userSpaceOnUse">
		<stop  offset="0" style="stop-color:#93291E"/>
		<stop  offset="1" style="stop-color:#2E0B08"/>
	</radialGradient>
	<path id="coat" class="st1" d="M91.1,72.2c-5,0.2-8.8,3.1-10.9,4.8c-8.6,7.2-46.8,42.7-37.8,62c1.5,3.2,3.6,7.6,7.9,9.1
		c3.7,1.3,7.8-0.1,11.1,2.9c0.7,0.7,1.4,1.4,2,2.2c2.6,3.1,2.6,4,4,4.9c1.8,1.1,2.4,0.1,4.9,1c3,1.1,2.9,2.9,5.8,4.6
		c2.5,1.4,4.9,1.5,7.3,1.5c4.1,0.1,4.6-1.1,8.9-1c2.7,0,2.5,0.4,6.2,0.7c3,0.3,6,0.2,9-0.3c3.3-0.7,3.6-0.4,7.7-3.1
		c5.9-4,8.9-1.8,11.3-3.9c0.8-0.7,1.5-2,2-6.9c0.6-5.8,1.5-10.5-0.3-15c-4.2-10.5-11.6-9.4-15.5-18.7c-3.1-7.4,0.3-10-3.4-24.1
		c-2.3-8.8-4.8-12-5.4-12.8C105,79.1,99.2,72,91.1,72.2z"/>
	<path id="skin" class="st2" d="M134.2,110.3c0.6,3.9,2.9,19.9-7.4,32.1C112,160,84.2,153.8,79.1,152.6c-8-1.8-27.2-6.2-35.2-24.1
		c-7.1-15.9-0.5-31.5,0.9-34.6c4.9,6,11.7,10,19.3,11.4c4.7-6.5,8.8-12,12.2-16.2c3.1-3.9,5.1-6.4,8.5-8.9c3-2.2,6.3-4.1,9.8-5.3
		c3.8-1.4,7.8-2.2,11.8-2.5C109.2,73.9,130.7,86,134.2,110.3z"/>

		<linearGradient id="coloring_1_" gradientUnits="userSpaceOnUse" x1="87.3275" y1="107.25" x2="88.0275" y2="23.12" gradientTransform="matrix(1 0 0 -1 0 182)">
		<stop  offset="0" style="stop-color:#771C10"/>
		<stop  offset="0.15" style="stop-color:#6F1A0F"/>
		<stop  offset="0.37" style="stop-color:#5B150D"/>
		<stop  offset="0.63" style="stop-color:#390D09"/>
		<stop  offset="0.71" style="stop-color:#2E0B08"/>
	</linearGradient>
	<path id="coloring" class="st3" d="M134.2,110.3c0.6,3.9,2.9,19.9-7.4,32.1C112,160,84.2,153.8,79.1,152.6
		c-8-1.8-27.2-6.2-35.2-24.1c-7.1-15.9-0.5-31.5,0.9-34.6c4.9,6,11.7,10,19.3,11.4c4.7-6.5,8.8-12,12.2-16.2
		c3.1-3.9,5.1-6.4,8.5-8.9c3-2.2,6.3-4.1,9.8-5.3c3.8-1.4,7.8-2.2,11.8-2.5C109.2,73.9,130.7,86,134.2,110.3z"/>

		<linearGradient id="coat_top_1_" gradientUnits="userSpaceOnUse" x1="87.8646" y1="85.0207" x2="158.6646" y2="112.6207" gradientTransform="matrix(1 1.000000e-02 -1.000000e-02 -1.11 3.39 220.64)">
		<stop  offset="0" style="stop-color:#2E0B08"/>
		<stop  offset="1" style="stop-color:#93291E"/>
	</linearGradient>
	<path id="coat_top" class="st4" d="M108.4,72.7c-3,1.1-4.3,4.4-4.7,5.3c-5,12.2,11,25.4,19.5,49c3.5,9.9,5.3,20.3,5.4,30.8
		c3.8-5.8,14.7-24.2,11-47.1c-0.6-3.8-3.4-18.9-15.3-30.3C121.6,77.7,114.1,70.5,108.4,72.7z"/>
</g>
<g id="coffee">
	<path class="st5" d="M66.6,77.4L66.6,77.4l-0.8-2.5c0.1,0.5,0,0.9-0.2,1.4c-0.9,1.9-4.2,3.7-8.3,4.4s-7.8,0.1-9.3-1.4
		c-0.4-0.3-0.6-0.7-0.7-1.2l0.2,2.6l0,0v0.5c0,0.2,0.1,0.3,0.1,0.5c0.9,2.1,5.3,3.1,10.2,2.2s8.8-3.3,8.9-5.6c0-0.1,0-0.3,0-0.4
		c0,0,0-0.1,0-0.1L66.6,77.4z M55.8,72.3c-5.1,0.9-9,3.5-8.5,5.8c0.1,0.5,0.3,0.9,0.7,1.2c1.5,1.5,5.2,2.1,9.3,1.4s7.4-2.5,8.3-4.4
		c0.2-0.4,0.3-0.9,0.2-1.4C65.4,72.6,60.9,71.4,55.8,72.3z M66.6,77.4l0.1,0.4C66.7,77.7,66.6,77.5,66.6,77.4z M47.4,81.2v-0.5
		C47.4,80.9,47.4,81.1,47.4,81.2z M66.7,78.3v-0.4v-0.1 M47.6,81.7l-0.1-0.5"/>
	<path class="st0" d="M54.2,84.6c-3.5,0-6.3-1-7-2.8c-0.1-0.2-0.1-0.4-0.2-0.6l0,0l0,0c0-0.2,0-0.3,0-0.5l0,0l0,0l-0.1-2.5
		c-0.4-2.6,3.5-5.3,8.9-6.2l0,0c5.4-0.9,10,0.3,10.5,2.9l0.7,2.5c0.1,0.2,0.1,0.3,0.2,0.5l0,0l0,0l0,0l0,0l0,0l0,0
		c0,0.1,0,0.3,0,0.4c-0.1,2.5-4.1,5.1-9.2,6C56.7,84.5,55.5,84.6,54.2,84.6z M47.9,81.5c0.8,1.9,5.1,2.8,9.8,2s8.4-3.1,8.6-5.2V78
		l-0.4-1.4c-1.1,2-4.5,3.8-8.5,4.5s-7.9,0.2-9.6-1.4l0.1,1.1l0,0v0.3L47.9,81.5z M48.1,79L48.1,79c1.5,1.5,5.2,2,9.1,1.3
		s7.1-2.4,8-4.2c0.1-0.3,0.2-0.6,0.2-0.9c0-0.1,0-0.2,0-0.3c-0.4-2-4.7-3.1-9.5-2.2S47.3,76,47.7,78l0,0
		C47.7,78.3,47.9,78.7,48.1,79L48.1,79z"/>
	<path class="st6" d="M67,83.2l0.6,9.9c-1.2,1.7-4.2,3.3-7.5,3.9s-6.6,0-8.3-1.1L49,86.3c1.7,1.3,5.6,1.9,9.5,1.2
		C62.1,86.8,65.5,85,67,83.2z"/>
	<path class="st0" d="M57.5,97.6c-2.1,0.1-4.1-0.4-5.9-1.4l-0.1-0.1l-3.2-10.9l1,0.8c1.4,1.1,5,1.8,9.2,1.1c3.7-0.7,7-2.6,8.3-4.1
		l0.7-0.8l0.6,11l-0.1,0.1c-1.3,1.8-4.5,3.5-7.7,4.1C59.3,97.5,58.4,97.6,57.5,97.6z M52.1,95.6c1.8,1.1,5,1.5,7.9,1s5.8-2,7.1-3.6
		l-0.5-8.8c-2.3,1.9-5.1,3.2-8.1,3.7c-3.4,0.6-6.8,0.3-8.9-0.7L52.1,95.6z"/>
	<path class="st7" d="M67.6,93.1l0.1,2.5c0.3,1.9-2.8,4-7,4.8s-7.9-0.2-8.2-2.1l-0.7-2.4c1.7,1.1,5.1,1.7,8.3,1.1
		S66.3,94.7,67.6,93.1z"/>
	<path class="st0" d="M57.9,101c-3.1,0-5.5-1-5.8-2.7l-1-3.4l0.9,0.6c1.7,1.1,5,1.6,8,1s6-2.1,7.2-3.7l0.7-0.9l0.2,3.6
		c0.3,2.1-2.9,4.4-7.3,5.2C59.8,100.9,58.9,101,57.9,101z M52.4,96.7l0.4,1.5c0.3,1.5,3.4,2.5,7.7,1.8s6.9-2.8,6.7-4.3l0,0l-0.1-1.5
		c-2,1.7-4.4,2.9-7,3.3C57.6,97.9,54.9,97.6,52.4,96.7L52.4,96.7z"/>
	<path class="st7" d="M66.7,78.3l0.3,4.9c-1.5,1.8-4.9,3.6-8.5,4.3c-4,0.7-7.8,0.1-9.5-1.2l-1.4-4.6c0.9,2.1,5.3,3.1,10.2,2.2
		S66.6,80.6,66.7,78.3z"/>
	<path class="st0" d="M55,88.2c-2.7,0-5-0.6-6.3-1.6l-0.1-0.1l-1.4-4.7l0.8-0.3c0.8,1.9,5.1,2.8,9.8,2s8.5-3.1,8.6-5.2h0.8l0.3,5
		l-0.1,0.1c-1.7,2-5.3,3.8-8.8,4.4C57.3,88,56.2,88.1,55,88.2z M49.3,86c1.5,1,5,1.7,9.1,1c3.1-0.5,5.9-1.9,8.2-4l-0.2-3
		c-1.4,1.8-4.6,3.5-8.5,4.2s-7.5,0.3-9.4-1L49.3,86z"/>
	<path class="st8" d="M52.2,96.5c2.1,1.1,4.5-0.3,4.8-0.4c1.8-1,2.9-2.9,3-5c0-2.1-1.4-3.6-2.8-5c-1.2-1.2-2.4-2.6-4.4-3
		c-0.9-0.2-2.6-0.6-3.7,0.3c-1.2,1.1-0.7,3.5,0,6.6C50,93.6,50.4,95.6,52.2,96.5z"/>
</g>
<g id="mitten">
	<path id="bottom" class="st9" d="M54.8,94.1c0,0.2,0.9,4.3-2.3,6.3c-2.6,1.7-5.7,0.4-6,0.3c-1.4-0.7-2.6-1.8-3.4-3.2
		c-0.8-1.2-1.8-2.8-1.3-4.8c0.3-1.1,1-2.1,1.9-2.8c0.8-0.8,1.9-1.3,3-1.5c1.2-0.1,2.3,0.1,3.3,0.7C51,89.4,54.1,90.8,54.8,94.1z"/>
	<g id="mitten_body">
		<path class="st10" d="M45.6,89.4c1.5-2.8,3.1-5.2,6.3-5.3c3.2,0,5.8,2.6,5.9,5.8c0,0,0,0,0,0c0,3.2-3.7,7.7-6.9,7.7
			S43.9,92.6,45.6,89.4z"/>
	</g>
	<path id="shadow_top" class="st11" d="M57.8,89.9c0,1.1-0.3,2.1-0.8,3c-0.6-2.3-1.7-4.3-3.3-6c-1.1-1-2.3-1.8-3.7-2.4
		c0.6-0.3,1.3-0.4,2-0.4C55.1,84.1,57.7,86.7,57.8,89.9z"/>
	<path id="shadow_back" class="st12" d="M52.6,100.4c-1.6,0.9-3.6,1.1-5.4,0.5c-1.7-0.6-3.2-1.9-4.1-3.5c-0.8-1.2-1.8-2.8-1.3-4.8
		c0.3-1.1,1-2.1,1.9-2.8c0.7-0.6,1.5-1.1,2.4-1.3l0,0c-0.4,0.2-0.9,0.5-1.2,0.9c-0.9,0.7-1.6,1.7-1.9,2.8c-0.5,2,0.6,3.7,1.3,4.8
		c0.7,1.4,1.9,2.5,3.3,3.2C49.2,100.7,50.9,100.8,52.6,100.4z"/>
</g>
<g id="smoke">
	<g class="st13">
		<path class="st14" d="M45.7,70.7c-3.5-3.3-4-6.9-0.9-10.8c0.8-0.9,1.5-1.9,2-2.9c1-2.6-0.3-3.2-1.2-5.3c-3.8-8.8,1.7-6.1,4-11.7
			c0.5-1.5,0.6-3.1,0.4-4.7c0-0.7-0.5-2.5-0.1-3.1l2.1-1c0,0.9-0.1,1.9-0.3,2.8c-0.2,1.1-0.4,2.3-0.3,3.5c0,0.5,0.8,0.7,0.8,1.1
			c0.4,3.9-1.2,2.8-2.7,4.6c-0.5,0.7-1.1,1.2-0.8,2.2c0.3,1,1.3,1.7,2.3,1.6c1.5,0,1.3-1,2.6-1.4l1.1-1.2c1.8,0.6,2.2,1.2,1.2,1.9
			c0.1-0.4-2.1,2.9-1.3,1.8c-0.2,0.3-0.1,0.7,0.2,0.8c0,0,0,0,0,0c1.2,0.6,2.5,0.8,3.8,0.5c0.5-0.1,1-0.6,1.3-0.6l0.9-0.7
			c-0.5,2.9-2.8,4.2-6.6,3.8c-0.3-0.1-0.7,0.1-0.8,0.4s0.1,0.7,0.4,0.8c3.2,0.8,5.7-0.5,7.8-3c1-1.3,1.8-2.4,0.7-3.7
			c-0.2-0.2-0.4-0.2-0.6-0.2c0.8-0.2-1.1,0.4-1.1,0.4c-0.8,1.2-1.9,1.2-3.3,0.2c0.4-0.3,0.7-0.7,1-1.1c0.5-2.1,1.5-2.1,0.6-4.3
			c-0.1-0.3-0.4-0.6-0.8-0.4c-1.7,0.7-2.8,1.9-4.3,2.6c-0.7,1.5-1.2,1.6-1.5,0.3c-0.7-0.8-0.5-1.3,0.8-1.5c0.2-0.3,0.6-0.5,0.8-0.8
			c1.3-1.8,0.4-2.4-0.3-3.9c-1.2-2.6-0.2-3.7-0.4-6.5c-0.1-0.7,0-1.6-0.7-2.2c-1.6-1.3-3.2,0.3-3.8,1.7s0.1,3.7,0,5.3
			c-0.2,5-2.2,5.2-4.8,7.9c-2,2.2-2.4,4.4-0.7,7c0.4,0.6,1.1,1,1.4,1.6c1.8,2.9,0.5,4.9-1.2,6.9c-1,1-1.8,2.1-2.4,3.3
			c-1.4,3.6,1.3,6.4,3.7,8.7C45.4,72.2,46.3,71.3,45.7,70.7L45.7,70.7z"/>
	</g>
	<g class="st13">
		<path class="st14" d="M51,51.5c-0.7,1-1.4,2-1.2,3.3c0.1,0.4,0.3,0.7,0.5,1.1c0.5,1.5-0.4,2.6-0.4,3.9c-0.1,1.9,1.5,2.8,3.3,2.7
			c2.8-0.2,5-2.5,6.6-4.6c0.5-0.8,1.1-1.6,1.8-2.2c0.3-0.7,1.2-1,1.9-0.7l-1,2.4c-0.7,0.8-1.4,0.9-1.8,2.1c-0.1,0.3,0.1,0.7,0.4,0.8
			c1.5,0.3,2.5,1.4,3.8,0.3c0.6-0.5-0.3-1.4-0.9-0.9l-2.6-0.6l0.4,0.8c0.3-1.2,1.7-1.4,2.4-2.3c0.6-0.8,0.7-1.9,0.4-2.8
			c-0.4-1.4-1.2-2-2.6-1.2c-2.9,1.8-4.4,7.4-8.3,7.7c-4.1,0.3-1.7-2.4-1.8-4c-0.1-1.8-1.3-3.2,0-5C52.6,51.5,51.5,50.8,51,51.5
			L51,51.5z"/>
	</g>
	<g class="st13">
		<path class="st14" d="M68.7,60.6c-0.2,2.1-0.5,4.3-3.8,3.4c-0.7-0.2-0.3-0.7-1.3-0.8c-0.9,0-1.9,0.3-2.6,0.9
			c-0.7,0.5-1.1,1.3-1,2.2c0,0,0.6,1.4,0.6,1.2c-0.1,0.5-2.3,2.7-2.8,1.7c-0.2-0.3-0.6-0.4-0.9-0.2c-0.1,0.1-0.2,0.2-0.3,0.3
			L56.2,71c-0.2,0.8,1,1.1,1.2,0.3l0.4-1.8l-1.1,0.2c1.5,2.7,4.4-0.4,5.2-2.1c0.1-0.2,0.1-0.6-0.1-0.8c-0.6-0.4-0.4-0.8,0.4-1.3
			c0.4-1.3,1.1-1.4,2-0.2c0.2,0.2,0.4,0.5,0.7,0.6c0.7,0.3,1.4,0.3,2.1,0.1c2.4-0.6,2.7-3.2,2.9-5.4C70,59.8,68.8,59.8,68.7,60.6
			L68.7,60.6z"/>
	</g>
	<g class="st13">
		<path class="st14" d="M45.7,66c-0.5,3.7,1.5,7.3,5,8.8c0.7,0.3,1.1-0.9,0.3-1.2c-2.8-1.2-4.5-4.2-4.1-7.2
			C47,65.5,45.8,65.2,45.7,66L45.7,66z"/>
	</g>
	<g class="st13">
		<path class="st14" d="M49.1,69.1c0.4,1.6,1.2,3.1,2.2,4.4c1.1,1.1,2.6,1.8,4.2,1.9c0.8,0.1,1.1-1.1,0.3-1.2
			c-1.4-0.1-2.6-0.7-3.7-1.6c-0.9-1.1-1.6-2.4-1.9-3.8C50,68,48.8,68.3,49.1,69.1z"/>
	</g>
	<g class="st13">
		<path class="st14" d="M52.7,69.2c1.1,3.2,3.9,5.4,7.3,5.6c0.8,0,0.8-1.2,0-1.2c-2.8-0.2-5.1-2.1-6-4.7
			C53.8,68.1,52.5,68.4,52.7,69.2L52.7,69.2z"/>
	</g>
	<g class="st13">
		<path class="st14" d="M60.6,38.7c-0.1,1.7,0.7,2.9,2.6,2.6c3-0.5,2.8-4,3.6-6.1c2-5.4,4.7-2.6,8.5-4.3c2.5-1.1,4.9-1.1,7.6-1.2
			c1.6-0.1,2.8-0.1,4-1.2s2.3-3.2,1.3-4.7s-2.2-0.4-3.6-1.2c-2-1.2,0.3-1.4,1.6-2.1c3.3-1.6,4-2,8.5,0.6c0.8,0.5,1.2,1.2,2.1,1.5
			c2.4,0.9,5.1,0.2,6.7-1.8c0.5-0.6-0.3-1.5-0.9-0.9c-4.2,4.6-7-2-10.9-2.4c-2.6-0.3-5.4,1.5-7.5,2.6c-1.7,0.9-5.9,2.9-2.6,4.8
			c1.1,0.6,1.6,0,2.7,0.2c0.4-0.1,0.8-0.3,1.2-0.5c-1.1,3-2.6,4-4.6,3.1c-1.9,0.5-3.6,1.1-5.5,1.7c-2.5,0.8-5.6-0.8-7.8,1
			c-0.6,0.6-1.1,1.3-1.4,2.1c-0.3,0.7-0.4,1.5-0.6,2.2c0,2.1-1.2,3.3-3.7,3.8C61.9,37.9,60.7,37.9,60.6,38.7L60.6,38.7z"/>
	</g>
	<g class="st13">
		<path class="st14" d="M102.2,13c-1.2-0.7-2.8-0.2-3.5,1c-0.4,0.7-0.4,1.5-0.1,2.2l0.4-0.8c-1.2,0.4-2.5,0.1-3.6-0.6
			c-0.7-0.5-1.3,0.6-0.6,1.1c1.3,1,3,1.2,4.5,0.7c0.3-0.1,0.5-0.4,0.4-0.8c-0.5-1.2,0.5-2.4,1.8-1.8C102.3,14.4,102.9,13.3,102.2,13
			z"/>
	</g>
	<g class="st13">
		<path class="st14" d="M87.5,12.2c-2,1.7-3.3,2.4-5.8,2c-0.8-0.2-1.5-0.2-2.3-0.3c-1.6,0-3.8,0.2-4.7,1.7c-0.5,0.9-0.5,2,0.2,2.7
			c0.8,1.1,1.4,2.4,1.8,3.7c0.2,0.4,0.3,0.8,0.4,1.2c0.1,2.1-4.7-0.7-4.8-0.9c-0.4-0.7-1.5,0-1.1,0.6c1.7,2.6,4.6,3.2,7.1,1.2
			c0.3-0.2,0.4-0.6,0.2-0.9c-0.7-1.5-0.7-3.2-1.5-4.6c0.2,0.4-1.1-1.5-1.1-1.2c-0.8-3.7,5.2-2.3,6-2.1c1.2,0.3,1.2,0.7,2.5,0.2
			c1.5-0.7,2.8-1.6,4-2.8C89,12.5,88.1,11.6,87.5,12.2L87.5,12.2z"/>
	</g>
	<g class="st13">
		<path class="st14" d="M62.5,24.6c-0.1,0.3,0,0.7,0.1,0.9c0.3,0.6,1.2,0.4,1.5,0.8s-0.2,0.7-0.4,1.2c-0.2,0.8-0.3,1.7-0.2,2.6
			c0.1,1.3,0.3,2.9-0.6,4s-2.2,0.6-3.6,0.7s-1.8,1-2.2,2.2c-0.1,0.3,0.1,0.7,0.4,0.8c0.3,0.1,0.7-0.1,0.8-0.4c0.1-0.3,1.3-1,1.5-1
			s0.7,0.2,0.9,0.1c0.8-0.1,1.6-0.4,2.2-0.9c1.3-0.9,2-2.4,1.8-4c-0.1-1-0.2-2-0.2-2.9c0.1-0.7,1-1.4,1-2c0-1.2-2-1.6-1.9-2
			C63.8,23.7,62.5,23.7,62.5,24.6L62.5,24.6z"/>
	</g>
	<g class="st13">
		<path class="st14" d="M65.8,42.8c-1.8,1.5-2.2,2.7-1,4.6c0.5,0.8,1.4,1.4,1.5,2.6s-0.3,2.4-0.2,3.5c0.1,0.9,0.3,1.4,1.2,1.7
			c2.2,0.8,4.8-1.8,5.7-3.5c0.4-1.2,0.8-2.4,1-3.7c1-3.5,3.3-4.1,6.2-5.7c0.7-0.4,0.1-1.5-0.6-1.1c-1.9,1.1-4.9,2-6.3,3.8
			c-1.2,1.5-0.3,3.5-1,5.2c-0.4,1-1.3,2.8-2.5,3.2l-2.3-0.3l0.1-1.1c-0.2-1.2,0.3-2.5,0-3.7c-0.1-0.5-0.3-1-0.6-1.4
			c-0.1-0.3-0.5-0.3-0.6-0.5c-0.5-1-0.3-2.2,0.5-2.9C67.3,43.1,66.4,42.2,65.8,42.8L65.8,42.8z"/>
	</g>
	<g class="st13">
		<path class="st14" d="M74.9,38.7c-0.2,1.9-2.2,2.9-3.2,4.3c-0.4,0.6-0.7,1.2-1,1.8c-0.1,0.4-0.3,0.8-0.4,1.2
			c-0.7,1.3-0.9,0-1.1-0.8s-1.4-0.5-1.2,0.3c0.2,0.8,0.5,1.6,0.9,2.4c0.1,0.2,0.3,0.3,0.5,0.3c2.3-0.1,2.2-3.1,3.3-4.5
			c1.3-1.7,3.1-2.7,3.4-5C76.2,37.9,75,37.9,74.9,38.7L74.9,38.7z"/>
	</g>
</g>
<g id="face">
	<path class="st15" d="M84.9,73.2c-0.6,2,4.1,5.1,6.1,6.4c2.9,1.9,6.2,3.2,9.7,3.7c10.2,1.6,21.5-2.6,21.5-5.8
		c0-0.2-0.1-0.4-0.2-0.6c-0.6-1.2-2.8-2.4-12.1-3.6C90.4,70.7,85.5,71.3,84.9,73.2z"/>
	<path class="st16" d="M109,39.1c-5.4-0.8-10.9,0-15.9,2.4c-2.5-0.6-5-0.8-7.6-0.8c-1.9,0-3.8,0.2-5.6,0.6l-1.1,0.2
		c-0.4,2-0.6,4-0.4,6c0.2,2.4,0.7,4.7,1.4,7c1.4,5.5,0.3,8.1,0.7,11.1c1.2,8.1,12.4,14.1,20.6,16"/>
	<path class="st0" d="M101.1,81.9c-7.4-1.7-19.5-7.6-20.8-16.2c-0.1-1.2-0.2-2.3-0.1-3.5c0.2-2.6,0-5.1-0.6-7.6
		c-0.1-0.5-0.3-1-0.4-1.4c-0.6-1.8-0.9-3.7-1-5.6c-0.1-2,0-4.1,0.5-6.1v-0.2h0.2l1-0.2h0.1c1.9-0.4,3.8-0.5,5.7-0.6
		c2.5,0,5.1,0.2,7.6,0.8c4.9-2.3,10.4-3.2,15.8-2.4l-0.1,0.5c-7.1-1.3-14.2,1.5-15.7,2.3h-0.1H93c-4.3-1-8.7-1-13-0.2h-0.1l-0.8,0.2
		c-0.4,1.9-0.5,3.9-0.4,5.8c0.1,1.9,0.5,3.7,1,5.5c0.1,0.5,0.3,1,0.4,1.5c0.7,2.5,0.9,5.2,0.7,7.8c-0.1,1.1-0.1,2.2,0,3.4
		c0.7,4.5,4.5,8,7.6,10.2c3.9,2.6,8.3,4.6,12.8,5.7L101.1,81.9z"/>
	<path class="st16" d="M100.3,81.6h0.4c8.3,1,20.6-0.7,24.5-7.7c1.5-2.7,1.4-5.5,4.6-10.2c1.5-1.9,2.8-3.9,3.8-6
		c0.8-1.9,1.4-3.8,1.7-5.8l-0.4-0.2l-0.6-0.3c-1.4-0.8-2.8-1.6-4.3-2.2l-0.4-0.2l-0.1,0l-0.3-0.1c-0.1-0.1-0.2-0.1-0.4-0.2l0,0
		c-2.3-0.9-4.6-1.5-7-1.8c-3.7-3.8-8.4-6.5-13.5-7.8l-0.4-0.1"/>
	<path class="st0" d="M107.5,82.1c-2.3,0.1-4.6,0-6.8-0.2l-0.4-0.1l0.1-0.5h0.4c9.1,1.1,20.7-1.1,24.3-7.6c0.5-1,0.9-2,1.2-3.1
		c0.7-2.5,1.9-4.9,3.4-7c0.3-0.4,0.6-0.8,0.9-1.2c1.2-1.5,2.1-3.1,2.9-4.8c0.8-1.8,1.4-3.6,1.7-5.6l-0.2-0.2l-0.6-0.3
		c-1.4-0.8-2.8-1.6-4.2-2.2l-0.2-0.1l-0.3-0.1l-0.3-0.1l-0.4-0.1h-0.1c-2.2-0.9-4.6-1.5-6.9-1.9h-0.1l-0.1-0.1
		c-3.6-3.8-8.3-6.5-13.4-7.7l-0.4-0.1l0.1-0.5l0.5,0.1c5.2,1.3,9.9,4,13.6,7.8c2.4,0.3,4.7,0.9,6.9,1.8h0.1l0.4,0.1l0.3,0.1l0.3,0.1
		l0.2,0.1c1.5,0.6,2.9,1.4,4.3,2.2l0.6,0.4l0.4,0.2l0.1,0.1v0.2c-0.3,2-0.9,4-1.7,5.9c-0.8,1.7-1.8,3.4-3,4.9
		c-0.3,0.4-0.6,0.8-0.9,1.2c-1.5,2.1-2.6,4.4-3.3,6.9c-0.3,1.1-0.7,2.2-1.2,3.3c-2.3,4.1-7.1,6-10.8,7
		C112.3,81.6,109.9,81.9,107.5,82.1z"/>
	<path class="st17" d="M134.4,51.7c-1.3-0.8-2.7-1.5-4.1-2.2l-0.5-0.2l-0.2-0.1L129,49l-0.5-0.2c-2.1-0.8-4.3-1.3-6.5-1.6
		c-3.7-3.8-8.3-6.5-13.4-7.8c-5.3-0.7-10.7,0.1-15.6,2.4c-2.3-0.5-4.7-0.8-7.1-0.8H85c-0.1,0-0.2,0-0.3,0h-0.2
		c-1.6,0.1-3.1,0.3-4.7,0.5l-0.6,0.1c0.5,0.1,0.9,0.3,1.4,0.4l0,0l0.9,0.3c0.4,0.1,0.8,0.3,1.2,0.5c2.1,1.1,3.4,1.9,4.6,3.8
		c-0.8,2.2-1.1,4.5-0.9,6.8c0.1,0.9,0.4,1.7,0.7,2.5c0.3,0.7,0.7,1.4,1.2,1.9l0.3,0.3c1,1,2.2,1.8,3.7,3.2l0.5,0.4l0,0
		c0.2,0.2,0.4,0.3,0.5,0.5l0,0c0.6,0.6,1.2,1.3,1.7,1.9l0.2,0.3l0.2,0.3c0.1,0.1,0.1,0.1,0.1,0.2c0.3,0.5,0.6,1,1,1.6l0.2,0.3
		c0.1,0.2,0.2,0.5,0.4,0.8s0.2,0.4,0.3,0.7c0,0.1,0.1,0.2,0.1,0.2s0.2,0.4,0.2,0.6c0.2,0.5,0.4,1,0.6,1.6c0.1,0.3,0.3,0.7,0.5,1
		c0.3,0.2,0.7,0.4,1,0.5c0,0,0-0.1,0-0.1c0.2-1.3,1.3-1.1,2.7-0.8s2.5,0.4,2.2,1.7c0,0,0,0.1,0,0.1c0.4,0,0.7-0.1,1.1-0.2
		c0.3-0.2,0.6-0.5,0.8-0.8c0.2-0.3,0.5-0.5,0.7-0.8s0.2-0.3,0.3-0.4L108,71V71c0.2-0.2,0.4-0.4,0.5-0.5c0.3-0.3,0.7-0.7,1-1
		s0.6-0.5,0.8-0.7c0.5-0.4,1-0.7,1.4-1l0.4-0.2c0.4-0.2,0.7-0.4,1.1-0.6l0.4-0.2l0.7-0.3l0,0c0.2-0.1,0.4-0.2,0.7-0.3l0.6-0.3
		c1.1-0.5,2-0.8,2.9-1c0.7-0.2,1.4-0.5,2-0.8c0.4-0.2,0.8-0.4,1.1-0.7l0.4-0.3l0.4-0.3c0.6-0.6,1.1-1.3,1.5-2
		c0.1-0.2,0.2-0.4,0.3-0.5c0.1-0.2,0.2-0.4,0.2-0.5l0.1-0.3c0.2-0.5,0.3-0.9,0.4-1.4c0.1-0.3,0.2-0.7,0.2-1c0.2-0.9,0.3-1.9,0.3-2.9
		l0,0c0.5-0.4,1-0.7,1.6-1c0.2-0.1,0.4-0.2,0.6-0.3c0.6-0.2,1.2-0.4,1.7-0.5l0.8-0.1l0.9-0.1h0.2c0.7-0.1,1.5-0.1,2.2,0
		c0.4,0,0.8,0.1,1.2,0.1L134.4,51.7z M88.3,41.2c0.8,0.1,1.5,0.2,2.2,0.3C89.9,41.3,89.1,41.2,88.3,41.2z"/>
	<path class="st0" d="M104,74.1l0.3-0.7c0.1-0.4,0-0.6,0-0.6c-0.2-0.3-0.9-0.4-1.6-0.5l-0.4-0.1c-0.7-0.1-1.4-0.3-1.7,0
		c0,0-0.2,0.1-0.3,0.5v0.1v0.7L99.6,73c-0.3-0.2-0.7-0.3-1-0.6h-0.1l-0.1-0.1c-0.2-0.4-0.4-0.7-0.6-1.1c-0.2-0.6-0.4-1.1-0.6-1.6
		c-0.1-0.2-0.2-0.4-0.2-0.6L97,68.9v-0.1c-0.1-0.2-0.2-0.5-0.3-0.7s-0.2-0.5-0.4-0.7l-0.2-0.3c-0.3-0.5-0.6-1-0.9-1.5L95,65.3
		l-0.1-0.2l-0.3-0.4c-0.5-0.6-1-1.2-1.6-1.8l-0.1-0.1v-0.1c-0.1-0.1-0.2-0.2-0.3-0.3l0,0l-0.1-0.1l-0.1-0.1l0,0L92,61.9
		c-0.7-0.7-1.3-1.2-2-1.7c-0.6-0.5-1.2-1-1.7-1.5L88,58.4c-0.5-0.6-1-1.3-1.3-2c-0.4-0.8-0.6-1.7-0.8-2.7c-0.2-2.3,0-4.6,0.8-6.8
		c-1-1.6-2.2-2.4-4.3-3.5c-0.4-0.2-0.7-0.3-1.1-0.5l-0.8-0.3h-0.1l-0.1-0.1c-0.4-0.1-0.8-0.2-1.3-0.4l-1.9-0.5l1.9-0.4l0.6-0.1
		c1.6-0.3,3.2-0.5,4.8-0.5h1.4c2.4,0,4.7,0.3,7.1,0.8c4.9-2.3,10.3-3.1,15.6-2.4c5.2,1.3,9.9,4,13.6,7.8c2.2,0.3,4.3,0.9,6.4,1.6
		l0.4,0.1l0.2,0.1l0.5,0.2l0.1,0l0.2,0.1l0.2,0.1l0.3,0.1c1.5,0.6,2.9,1.4,4.2,2.2l0,0l0.3,0.2l1.9,1.2l-1.9-0.2l-1.2-0.1
		c-0.7-0.1-1.4-0.1-2.1,0h-0.2l-0.8,0.1l-0.8,0.1c-0.6,0.1-1.1,0.2-1.7,0.4c-0.2,0.1-0.4,0.2-0.6,0.2c-0.5,0.2-0.9,0.5-1.3,0.8
		c0,0.9-0.2,1.8-0.3,2.7c-0.1,0.3-0.2,0.7-0.2,1.1c-0.2,0.5-0.3,1-0.5,1.5l-0.1,0.3c-0.1,0.2-0.2,0.4-0.3,0.6l-0.3,0.6
		c-0.4,0.8-1,1.5-1.6,2.1l-0.4,0.4c-0.1,0.1-0.2,0.2-0.4,0.3c-0.4,0.3-0.8,0.6-1.2,0.8c-0.7,0.3-1.4,0.6-2.1,0.9l-0.4,0.1
		c-0.8,0.3-1.6,0.5-2.4,0.9l-0.2,0.1l-0.4,0.2h-0.1c-0.2,0.1-0.4,0.1-0.5,0.2l0,0l-0.2,0.1l-0.6,0.3l-0.2,0.1l-0.1,0.1
		c-0.3,0.2-0.7,0.4-1.1,0.6l-0.3,0.2c-0.5,0.3-1,0.6-1.4,1c-0.3,0.2-0.5,0.4-0.8,0.7s-0.7,0.7-1,0.9l-0.5,0.5c0,0-0.1,0.1-0.1,0.1
		l-0.3,0.3c-0.1,0.1-0.2,0.2-0.3,0.4s-0.4,0.5-0.7,0.8c-0.3,0.3-0.6,0.6-0.9,0.9H106h-0.1c-0.4,0.1-0.8,0.1-1.2,0.2L104,74.1z
		 M100.9,71c0.5,0,1,0.1,1.5,0.2l0.4,0.1c0.8,0,1.6,0.3,2.2,0.9c0.2,0.2,0.2,0.5,0.2,0.8l0.4-0.1c0.2-0.2,0.5-0.4,0.7-0.6
		c0.2-0.3,0.5-0.6,0.7-0.8s0.2-0.3,0.3-0.4s0.2-0.2,0.3-0.3v-0.1l0.6-0.6c0.3-0.3,0.6-0.6,1-1s0.6-0.5,0.9-0.7c0.5-0.4,1-0.7,1.5-1
		c0.1-0.1,0.2-0.2,0.4-0.2c0.4-0.2,0.8-0.5,1.1-0.7l0.1-0.1l0.2-0.1l0.6-0.3l0.1-0.1h0.1c0.2-0.1,0.4-0.2,0.7-0.3l0.4-0.2l0.2-0.1
		c0.9-0.4,1.8-0.7,2.5-0.9l0.4-0.2c0.7-0.2,1.4-0.5,2-0.8c0.4-0.2,0.7-0.4,1-0.7c0.1-0.1,0.2-0.2,0.3-0.3l0.3-0.3
		c0.6-0.6,1-1.2,1.4-1.9c0.1-0.2,0.2-0.3,0.3-0.5c0.1-0.2,0.2-0.4,0.2-0.5l0.1-0.3c0.2-0.4,0.3-0.9,0.4-1.4c0.1-0.3,0.2-0.7,0.2-1
		c0.2-0.9,0.3-1.9,0.3-2.8v-0.2l0.2-0.1c0.5-0.4,1.1-0.8,1.7-1.1c0.2-0.1,0.4-0.2,0.7-0.3c0.6-0.2,1.2-0.4,1.8-0.5l0.8-0.1l0.9-0.1
		c0.1,0,0.2,0,0.3,0c0.5,0,1,0,1.5,0c-1-0.5-2-1-3-1.5l-0.3-0.1l-0.2-0.1l-0.2-0.1h-0.1c-0.2-0.1-0.3-0.1-0.5-0.2l-0.2-0.1l-0.4-0.1
		c-2.1-0.8-4.2-1.3-6.4-1.6h-0.2l-0.1-0.1c-3.6-3.7-8.2-6.4-13.2-7.6c-5.2-0.7-10.4,0.2-15.2,2.4L93,42.5h-0.2
		c-0.8-0.2-1.6-0.3-2.4-0.5l0,0l0,0c-0.7-0.1-1.4-0.2-2.2-0.3l0,0c-0.8-0.1-1.6-0.1-2.4-0.1h-1.2c-1.1,0-2.3,0.1-3.4,0.3l0.4,0.2
		c0.4,0.1,0.8,0.3,1.2,0.5c2.1,1.1,3.6,2,4.8,4l0.1,0.2l-0.1,0.2c-0.8,2.1-1.1,4.3-0.8,6.5c0.1,0.8,0.3,1.6,0.7,2.4
		c0.3,0.7,0.7,1.3,1.2,1.8l0.3,0.3c0.5,0.5,1.1,1,1.6,1.5c0.6,0.5,1.3,1,2,1.7l0.3,0.3l0.2,0.1l0.1,0.1c0.2,0.1,0.3,0.3,0.4,0.5
		c0.6,0.6,1.2,1.3,1.7,2l0.3,0.4l0.1,0.2l0.1,0.2c0.3,0.5,0.7,1,1,1.6l0.2,0.4c0.1,0.2,0.2,0.5,0.4,0.8s0.2,0.5,0.3,0.7l0,0
		c0,0.1,0.1,0.1,0.1,0.2c0.1,0.2,0.2,0.4,0.3,0.6c0.2,0.5,0.4,1,0.6,1.6c0.1,0.3,0.2,0.6,0.4,0.8l0.3,0.2c0.1-0.3,0.3-0.5,0.5-0.7
		C100.3,71.2,100.6,71,100.9,71z"/>
	<path class="st0" d="M102.5,72c-1.3-0.2-2.4-0.5-2.7,0.8c0,0,0,0.1,0,0.1c0.1,1.3,0.9,2.4,2,2.9c1.3-0.1,2.4-0.8,2.9-2v-0.1
		C105,72.4,103.9,72.2,102.5,72z"/>
	<g id="light" class="st18">
		<defs>
			<filter id="Adobe_OpacityMaskFilter" filterUnits="userSpaceOnUse" x="80.7" y="47.3" width="43.8" height="34.8">
				<feFlood  style="flood-color:white;flood-opacity:1" result="back"/>
				<feBlend  in="SourceGraphic" in2="back" mode="normal"/>
			</filter>
		</defs>
		<mask maskUnits="userSpaceOnUse" x="80.7" y="47.3" width="43.8" height="34.8" id="SVGID_1_">
			<g class="st19">

					<image style="overflow:visible;" width="49" height="40" xlink:href="54B135A31BD3FC64.jpg"  transform="matrix(1 0 0 1 78 44.92)">
				</image>
			</g>
		</mask>
		<g class="st20">
			<g>
				<g>
					<path class="st21" d="M103.2,47.3c11.8,0,21.4,9.6,21.4,21.4s-9.5,13.4-21.3,13.4s-15.6-1.9-21.4-13.4
						C76.5,58.1,91.4,47.3,103.2,47.3z"/>
				</g>
			</g>
		</g>
	</g>
	<path class="st0" d="M77.4,65.4c2.9-0.4,5.8-0.2,8.7,0.5l0.1-0.6c-2.8-0.5-5.7-0.5-8.5-0.2c-0.4,0-0.3,0.6,0,0.6
		c2.8-0.3,5.6-0.3,8.3,0.2c0.2,0,0.3-0.1,0.3-0.3c0-0.1-0.1-0.2-0.2-0.3c-2.9-0.7-5.9-0.9-8.8-0.5C77,64.8,77,65.5,77.4,65.4
		L77.4,65.4z"/>
	<path class="st0" d="M80.3,67.9c1.9-0.4,3.9-0.6,5.8-0.6L86,66.7c-2,0.4-4.1,1.1-6,1.8l0.2,0.6c1.2-0.5,2.4-1,3.6-1.4
		c0.4-0.1,0.2-0.6-0.2-0.6C82.5,67.4,81.4,67.6,80.3,67.9l0.2,0.5c0.9-0.3,1.8-0.6,2.7-0.8c0.3-0.1,0.2-0.6-0.1-0.6
		c-1,0.2-2.1,0.4-3.1,0.7l0.2,0.6l1.8-0.6l-0.2-0.6c-0.5,0.2-1.1,0.3-1.6,0.4c-0.4,0.1-0.3,0.6,0,0.6c0.6-0.1,1.2-0.2,1.8-0.4
		c0.1-0.1,0.2-0.3,0.1-0.4c-0.1-0.1-0.2-0.2-0.3-0.2L80,67.8c-0.1,0.1-0.2,0.3-0.1,0.4c0.1,0.1,0.2,0.2,0.3,0.2
		c1-0.3,1.9-0.5,2.9-0.7L83,67.1C82.1,67.3,81.2,67.5,80.3,67.9c-0.1,0-0.2,0.2-0.1,0.4c0.1,0.1,0.2,0.2,0.3,0.2
		c1.1-0.3,2.2-0.5,3.3-0.7l-0.2-0.6c-1.2,0.4-2.4,0.9-3.6,1.4c-0.3,0.2-0.2,0.7,0.2,0.6c1.9-0.8,4-1.4,6-1.8
		c0.3-0.1,0.2-0.6-0.1-0.6c-1.9,0-3.9,0.2-5.8,0.6C79.9,67.4,79.9,68,80.3,67.9z"/>
	<path class="st0" d="M86.3,63.9c-2.3-0.8-4.7-1.3-7.1-1.6c-0.4,0-0.5,0.5-0.1,0.6c2.4,0.3,4.8,0.9,7.1,1.6
		C86.6,64.6,86.7,64,86.3,63.9z"/>
	<path class="st0" d="M80.3,63.7c2-0.1,4.1,0.1,6,0.8c0.4,0.1,0.5-0.5,0.1-0.6c-2-0.7-4.1-1-6.1-0.8C79.9,63.1,79.9,63.7,80.3,63.7
		L80.3,63.7z"/>
	<g class="st22">
		<path class="st23" d="M91.2,48.1c-0.4,1.5-0.4,3,0.1,4.4c0.1,0.4,0.7,0.2,0.6-0.2c-0.4-1.3-0.4-2.8,0-4.1c0-0.2-0.1-0.3-0.3-0.3
			C91.4,47.9,91.3,48,91.2,48.1L91.2,48.1z"/>
		<path class="st23" d="M93.7,57.8c0.3,0.4,0.6,0.7,1,1c0.4,0.5,0.7,1,0.8,1.6c0.1,0.4,0.7,0.2,0.6-0.2c-0.2-0.5-0.4-1-0.7-1.5
			c-0.3-0.5-0.8-0.8-1.2-1.2S93.5,57.5,93.7,57.8L93.7,57.8z"/>
		<path class="st23" d="M104.8,45.8c-0.1,1-0.2,2.1-0.3,3.1c0,0.4,0.5,0.5,0.6,0.1c0.1-1.1,0.3-2.2,0.3-3.2
			C105.4,45.4,104.8,45.4,104.8,45.8L104.8,45.8z"/>
		<path class="st23" d="M104.4,53.2c0,0.6,0,1.2-0.1,1.7c-0.1,0.4,0.5,0.5,0.6,0.1c0.1-0.6,0.2-1.2,0.2-1.9
			C105,52.8,104.4,52.9,104.4,53.2L104.4,53.2z"/>
		<path class="st23" d="M103.9,59.3c-0.3,1.7-0.5,3.3-0.6,5c0,0.4,0.6,0.3,0.6,0c0.1-1.6,0.3-3.2,0.6-4.8
			C104.5,59,103.9,58.9,103.9,59.3L103.9,59.3z"/>
		<path class="st23" d="M102.9,67.2c0,0.4,0,0.7,0,1.1c0,0.4,0.5,0.5,0.6,0.1c0-0.4,0-0.8,0-1.3C103.5,66.8,102.8,66.8,102.9,67.2
			L102.9,67.2z"/>
		<path class="st23" d="M101.4,49.2c0,1.6,0,3.3,0.2,4.9c0,0.4,0.6,0.3,0.6,0c-0.2-1.6-0.2-3.3-0.2-4.9
			C102,48.8,101.4,48.8,101.4,49.2z"/>
		<path class="st23" d="M94.7,51c0,1.8,0.4,3.6,1.3,5.2c0.2,0.3,0.7,0,0.5-0.3c-0.8-1.5-1.2-3.2-1.2-4.8
			C95.3,50.6,94.8,50.7,94.7,51z"/>
		<path class="st23" d="M98.8,54.2c0.4,1.8,0.8,3.7,1.1,5.5c0.1,0.4,0.7,0.3,0.6,0c-0.3-1.9-0.6-3.8-1.1-5.7
			C99.3,53.7,98.7,53.9,98.8,54.2L98.8,54.2z"/>
		<path class="st23" d="M98.7,61c0.5,0.8,0.8,1.6,1,2.5c0.1,0.4,0.7,0.2,0.6-0.2c-0.2-0.9-0.6-1.8-1.1-2.7
			C99,60.3,98.5,60.7,98.7,61L98.7,61z"/>
		<path class="st23" d="M102,57.7v1.9c0,0.4,0.6,0.3,0.6,0v-1.9C102.6,57.3,102,57.3,102,57.7L102,57.7z"/>
		<path class="st23" d="M103.1,41.2c-1,1.6-1.5,3.5-1.6,5.4c0,0.4,0.6,0.3,0.6,0c0.1-1.8,0.6-3.5,1.5-5.1
			C103.8,41.2,103.3,40.9,103.1,41.2L103.1,41.2z"/>
		<path class="st23" d="M95.6,43.2c-0.9,1-1.3,2.3-1.1,3.6c0,0.4,0.6,0.3,0.6,0c-0.1-1.2,0.2-2.3,1-3.2C96.4,43.3,96,42.9,95.6,43.2
			L95.6,43.2z"/>
		<path class="st23" d="M98.8,44.8c-0.6,2.1-0.7,4.3-0.4,6.4c0.1,0.4,0.7,0.3,0.6,0c-0.3-2.1-0.2-4.2,0.4-6.3
			C99.4,44.6,98.9,44.4,98.8,44.8L98.8,44.8z"/>
		<path class="st23" d="M120,52.3c0,1.4-0.5,2.8-1.2,3.9c-0.2,0.3,0.3,0.6,0.5,0.3c0.8-1.3,1.2-2.7,1.3-4.2
			C120.6,51.9,120,52,120,52.3L120,52.3z"/>
		<path class="st23" d="M115.2,60.5c-0.5,0.3-1,0.5-1.5,0.9c-0.4,0.4-0.8,0.8-1.1,1.2c-0.2,0.3,0.2,0.7,0.4,0.4
			c0.3-0.5,0.6-0.9,1.1-1.2c0.4-0.3,1-0.5,1.4-0.8S115.5,60.2,115.2,60.5z"/>
		<path class="st23" d="M110,50.3c-0.4,1.6-0.9,3.1-1.5,4.6c-0.1,0.3,0.4,0.6,0.5,0.3c0.6-1.5,1.2-3.1,1.6-4.7
			C110.7,50.1,110.1,50,110,50.3z"/>
		<path class="st23" d="M115.8,54c-0.5,1.6-1.3,3.1-2.4,4.4c-0.3,0.3,0.2,0.7,0.4,0.4c1.2-1.3,2.1-2.9,2.6-4.6
			C116.5,53.8,115.9,53.6,115.8,54z"/>
		<path class="st23" d="M111.1,55.8c-0.9,1.6-1.8,3.3-2.6,5.1c-0.2,0.3,0.4,0.6,0.5,0.3c0.8-1.7,1.6-3.4,2.6-5.1
			C111.8,55.7,111.3,55.5,111.1,55.8z"/>
		<path class="st23" d="M109.4,62.2c-0.7,0.6-1.3,1.4-1.8,2.2c-0.2,0.3,0.3,0.6,0.5,0.3c0.4-0.8,1-1.5,1.7-2.1
			C110.1,62.3,109.7,61.9,109.4,62.2z"/>
		<path class="st23" d="M107,58.3l-0.5,1.8c-0.1,0.4,0.5,0.5,0.6,0.1l0.5-1.8C107.7,58.1,107.1,57.9,107,58.3z"/>
		<path class="st23" d="M110.5,42.5c0.4,1.7,0.4,3.6,0,5.3c0,0.2,0.1,0.3,0.2,0.4c0.2,0,0.3-0.1,0.4-0.2c0.4-1.9,0.4-3.8,0-5.6
			C111,42,110.5,42.1,110.5,42.5L110.5,42.5z"/>
		<path class="st23" d="M117.2,46.6c0.5,1.1,0.5,2.3,0,3.3c-0.1,0.4,0.5,0.5,0.6,0.1c0.5-1.2,0.5-2.6-0.1-3.8
			C117.5,46,117,46.3,117.2,46.6L117.2,46.6z"/>
		<path class="st23" d="M113.7,47c0,2.1-0.5,4.1-1.3,6c-0.2,0.3,0.4,0.6,0.5,0.3c0.9-2,1.4-4.1,1.4-6.3
			C114.3,46.6,113.7,46.7,113.7,47z"/>
		<path class="st23" d="M107.5,45.9l-0.6,3c-0.1,0.4,0.5,0.5,0.6,0.1l0.6-3c0-0.2-0.1-0.3-0.2-0.4C107.7,45.6,107.5,45.7,107.5,45.9
			L107.5,45.9z"/>
		<path class="st23" d="M106.4,53.8l-0.3,0.8c-0.1,0.4,0.4,0.6,0.5,0.3l0.3-0.8C107.1,53.7,106.6,53.4,106.4,53.8z"/>
		<path class="st23" d="M107.3,44.3c0.3-1.3,0.5-2.7,0.6-4c0-0.4-0.6-0.3-0.6,0c-0.1,1.3-0.3,2.6-0.6,3.9
			C106.6,44.6,107.2,44.7,107.3,44.3L107.3,44.3z"/>
	</g>
	<path class="st0" d="M123.3,70.1c3.4-0.9,7-0.9,10.5-0.2c0.2,0,0.3-0.1,0.3-0.3c0-0.1-0.1-0.3-0.2-0.3c-3.6-0.8-7.3-0.7-10.8,0.2
		C122.8,69.6,123,70.2,123.3,70.1L123.3,70.1z"/>
	<path class="st0" d="M123.5,70.1c1.8,0,3.7,0.2,5.4,0.6c0.2,0,0.3-0.1,0.3-0.3c0-0.1-0.1-0.2-0.2-0.3c-1.8-0.4-3.7-0.6-5.6-0.6
		C123.1,69.5,123.1,70.1,123.5,70.1L123.5,70.1z"/>
	<path class="st0" d="M125.4,69.9c0.6,0.1,1.3,0.1,1.9,0c0.2,0,0.3-0.2,0.2-0.3c0-0.1-0.1-0.2-0.2-0.2h-1.9
		C125,69.3,125.1,69.9,125.4,69.9l1.9,0v-0.6c-0.6,0.1-1.1,0.1-1.7,0C125.2,69.3,125,69.9,125.4,69.9L125.4,69.9z"/>
	<path class="st0" d="M126.9,72.1c-1.1-0.7-2.3-1.1-3.6-1.4c-0.4-0.1-0.5,0.5-0.1,0.6c1.2,0.2,2.4,0.7,3.4,1.3
		C127,72.9,127.3,72.3,126.9,72.1z"/>
	<g id="left_eye-2">
		<circle class="st24" cx="92.3" cy="66.3" r="2.8"/>
		<circle class="st25" cx="92.3" cy="66.3" r="1.8"/>
		<circle class="st26" cx="91.5" cy="65.6" r="0.9"/>
		<circle class="st27" cx="90.5" cy="66.8" r="0.3"/>
	</g>
	<g id="left_eye-2-2">
		<circle class="st24" cx="114.5" cy="69.7" r="2.8"/>
		<circle class="st25" cx="114.5" cy="69.7" r="1.8"/>
		<circle class="st26" cx="113.7" cy="68.9" r="0.9"/>
		<circle class="st27" cx="112.7" cy="70.2" r="0.3"/>
	</g>
</g>
</svg>
