<?xml version="1.0" encoding="utf-8"?>
<!-- Generator: Adobe Illustrator 22.1.0, SVG Export Plug-In . SVG Version: 6.00 Build 0)  -->
<svg version="1.1" id="mittens" xmlns="http://www.w3.org/2000/svg" xmlns:xlink="http://www.w3.org/1999/xlink" x="0px" y="0px"
	 viewBox="0 0 180.9 180.9" style="enable-background:new 0 0 180.9 180.9;" xml:space="preserve">
<style type="text/css">
	.st0{fill:#333333;}
	.st1{fill:#9B9A94;}
	.st2{fill:#9A9994;}
	.st3{fill:#2C3981;}
	.st4{opacity:0.76;}
	.st5{fill:#DA7D27;}
	.st6{opacity:0.59;}
	.st7{fill:#868D73;}
	.st8{opacity:0.61;}
	.st9{clip-path:url(#SVGID_2_);}
	.st10{opacity:0.54;}
	.st11{filter:url(#Adobe_OpacityMaskFilter);}
	.st12{mask:url(#SVGID_3_);}
	.st13{fill:#DE384D;}
	.st14{fill:#2A3A81;}
	.st15{clip-path:url(#SVGID_5_);}
	.st16{filter:url(#Adobe_OpacityMaskFilter_1_);}
	.st17{mask:url(#SVGID_6_);}
	.st18{clip-path:url(#SVGID_8_);}
	.st19{filter:url(#Adobe_OpacityMaskFilter_2_);}
	.st20{mask:url(#SVGID_9_);}
	.st21{clip-path:url(#SVGID_11_);}
	.st22{filter:url(#Adobe_OpacityMaskFilter_3_);}
	.st23{mask:url(#SVGID_12_);}


#window{
opacity: 0;
}
 #mittenRight{
	animation: mittenRmove 3s infinite;

	}

#mittenLeft{
	animation: mittenLmove 3s infinite;

	}


	#mittens:hover #window{
	animation: windowChange 3s infinite;

	}

	@keyframes windowChange{
	0%{
	opacity: 0;
	}
	50%{
	opacity: 1;
	}
	100%{
	opacity: 0;
	}
	}


	@keyframes mittenRmove{
  0:{
  transform: rotate(0deg);
  }
  50%{
  transform: rotate(-3deg);
  }
  100%{
  transform: rotate(0deg);
  }
  }

	@keyframes mittenLmove{
	0:{
	transform: rotate(0deg);
	}
	50%{
	transform: rotate(3deg);
	}
	100%{
	transform: rotate(0deg);
	}
	}



</style>
<title>mittena</title>
<ellipse transform="matrix(0.7071 -0.7071 0.7071 0.7071 -37.4698 90.4598)" class="st0" cx="90.5" cy="90.5" rx="90.4" ry="90.5"/>
<g id="window">
	<path class="st1" d="M95.6,33.9H97c0.4,0,0.7-0.1,1-0.3l0.5-0.3l2.5-1.7c2.3-1.5,4.9-2.5,7.6-2.7c2.3-0.3,4.6,0.2,6.5,1.5
		c1.6,1.2,2.2,3.3,1.5,5.2c-0.2,0.5,0.1,0.9,0.7,1.1c1.3,0.4,2.5,0.9,3.8,1.4c0.6,0.2,1.2,0.2,1.8-0.2l6.1-4.1
		c2.3-1.5,4.9-2.4,7.6-2.7c2.3-0.3,4.6,0.2,6.5,1.5c3.2,2.5,2,7.1-2.6,10.2l-2.5,1.7l-3.6,2.5c-0.4,0.2-0.6,0.7-0.4,1.1
		c0,0,0,0.1,0.1,0.1c0.6,0.6,1.5,0.7,2.2,0.2l0.6-0.4c1.2-0.8,2.5-1.4,3.9-1.9c1.2-0.4,2.5-0.7,3.8-0.8c2.3-0.3,4.6,0.2,6.5,1.5
		c2.7,2.1,2.3,5.8-0.8,8.8c-0.5,0.5-1.1,1-1.8,1.4l-5.2,3.5c-0.3,0.3-0.3,0.7,0,1c0.1,0.1,0.2,0.2,0.4,0.2c0.5,0.2,1.1,0.2,1.6-0.2
		l5.5-3.7l0.5-0.3c4.1-2.5,9.6-2.9,12.4-0.7c1.4,1,2,2.8,1.5,4.4c-0.6,2-2,3.7-3.8,4.8l-5.5,3.7c-0.4,0.2-0.6,0.7-0.4,1.1
		c0,0,0,0.1,0,0.1c0.6,0.8,1.1,1.7,1.6,2.6c0.3,0.4,0.8,0.6,1.3,0.5c2.2-0.3,4.5,0.1,6.4,1.4c1.4,1,2,2.8,1.5,4.4
		c-0.6,2-2,3.8-3.8,4.9l-2.7,1.9c0,0-0.1,0-0.1,0.1c-0.2,0.1-0.3,0.3-0.4,0.6c0,0.3-0.1,0.6-0.1,0.9c0,0.2,0,0.5,0.2,0.6
		c0.2,0.2,0.4,0.3,0.6,0.3c0.3,0.1,0.5,0.1,0.8,0c1-0.1,2-0.1,3,0.1c3.3,0.4,5.6,2.5,5.5,4.9c-0.3,7.8-3.1,24.1-20.7,35.4
		c-24.1,15.5-60.3,11.7-63.5,7.9c-2.4-2.8-1.5-4.4-1.5-4.4c0.4-1,0.9-2,1.5-2.9c0.4-0.5,0.1-1.2-0.7-1.3c-1.1-0.2-2.2-0.5-3.3-0.8
		c-0.5-0.1-1,0-1.4,0.2l-7.4,5c-4.2,2.8-10,3.3-12.9,1c-1.4-1-2-2.8-1.5-4.4c0.6-2,2-3.7,3.8-4.8l4.6-3.1c0.5-0.3,0.6-0.9,0.2-1.3
		l-0.5-0.5c-0.6-0.4-1.3-0.4-1.9,0l-1.2,0.8c-4.2,2.8-10,3.3-12.9,1l-0.3-0.3c-1.5-1.4-4.1-1.9-6.6-1.6c-0.2,0-0.5,0.1-0.7,0.1
		c-2.3,0.3-4.6-0.2-6.5-1.5c-3.2-2.5-2-7.1,2.6-10.2l1.3-0.9c0.6-0.4,0.7-1.1,0.1-1.5l-0.7-0.4c-0.6-0.4-1.3-0.3-1.9,0.1l-5.1,3.4
		c-2.3,1.5-4.9,2.4-7.6,2.7c-2.3,0.3-4.6-0.2-6.6-1.5c-3.2-2.5-2-7.1,2.6-10.2l8.1-5.5c0.4-0.2,0.6-0.7,0.5-1.1
		c-0.3-0.9-0.6-1.8-0.9-2.7c-0.1-0.6-1.1-0.9-1.9-0.6c-1.4,0.5-2.9,0.9-4.4,1c-2.3,0.3-4.6-0.2-6.5-1.5c-3.2-2.5-2-7.1,2.6-10.2
		l13.1-8.9c0.2-0.1,0.3-0.3,0.4-0.4l0.1-0.3c-0.3-1.2-0.5-2.5-0.6-3.8c-1-23.3,43-41.5,56-41.7c1.4,0,5-0.1,6.5,1.5s1.4,5.8,0.8,6.8
		c-0.1,0.1-0.1,0.2-0.1,0.3C94.1,33.5,94.7,34,95.6,33.9z"/>
	<path class="st2" d="M105.6,141.1c-11,0.1-19.3-1.7-20.9-3.5c-2.5-2.9-1.6-4.7-1.6-4.8c0.1-0.3,0.3-0.5,0.4-0.8
		c0.3-0.8,0.7-1.5,1.2-2.1c0.1-0.1,0.1-0.3,0.1-0.4c-0.1-0.2-0.3-0.3-0.6-0.4c-1.2-0.2-2.3-0.5-3.3-0.8c-0.4-0.1-0.8,0-1.1,0.2
		l-7.4,5c-4.3,2.9-10.2,3.4-13.3,1c-1.5-1.1-2.1-3-1.6-4.8c0.7-2.1,2.1-3.9,3.9-5l4.6-3.1c0.2-0.1,0.3-0.3,0.3-0.4
		c0-0.1-0.1-0.2-0.1-0.3l-0.3-0.2l-0.3-0.2c-0.4-0.3-1-0.3-1.4,0l-1.2,0.8c-4.3,2.9-10.2,3.4-13.3,1l-0.3-0.3
		c-1.8-1.4-4.1-1.9-6.3-1.5c-0.2,0-0.5,0.1-0.8,0.1c-2.4,0.3-4.8-0.2-6.8-1.6c-1.3-0.9-2-2.4-1.9-4c0.1-2.3,1.8-4.9,4.5-6.8l1.3-0.9
		c0.2-0.1,0.3-0.3,0.4-0.5c0-0.2-0.1-0.3-0.2-0.4l-0.7-0.5c-0.5-0.3-1.1-0.2-1.5,0.1l-5.1,3.4c-2.3,1.6-5,2.5-7.8,2.7
		c-2.4,0.3-4.8-0.2-6.8-1.6c-1.3-0.9-2-2.4-1.9-4c0.1-2.3,1.8-4.9,4.5-6.7l8.1-5.5c0.3-0.2,0.4-0.5,0.3-0.7
		c-0.4-0.9-0.7-1.8-0.9-2.8c0-0.2-0.2-0.3-0.3-0.3c-0.4-0.2-0.8-0.2-1.2,0c-1.4,0.6-3,0.9-4.5,1c-2.4,0.3-4.8-0.2-6.8-1.6
		c-1.3-0.9-2-2.4-1.9-4c0.1-2.4,1.8-4.9,4.5-6.8L31,70.3c0.1-0.1,0.2-0.2,0.3-0.3v-0.1c-0.3-1.2-0.5-2.5-0.6-3.8
		c-0.3-6.1,2.5-12.3,8.2-18.4C52.3,33.4,78,24.1,87,24c1.5,0,5.1-0.1,6.8,1.6s1.5,6.1,0.8,7.2c0,0.1-0.1,0.1-0.1,0.2
		c0,0.1,0,0.3,0.1,0.3c0.2,0.2,0.6,0.3,0.9,0.3l0,0h1.2H97c0.3,0,0.6-0.1,0.8-0.2l3-2c2.3-1.6,5-2.5,7.8-2.8
		c2.4-0.3,4.8,0.2,6.8,1.6c1.7,1.3,2.4,3.5,1.7,5.5c-0.1,0.3,0.2,0.5,0.5,0.6c1.3,0.4,2.6,0.9,3.8,1.5c0.5,0.2,1,0.1,1.4-0.1
		l6.1-4.1c2.3-1.6,5-2.5,7.8-2.7c2.4-0.3,4.8,0.2,6.8,1.6c1.3,0.9,2,2.4,1.9,4c-0.1,2.4-1.8,4.9-4.5,6.8l-6.1,4.1
		c-0.2,0.1-0.3,0.3-0.4,0.5c0,0.1,0,0.2,0.1,0.3c0.5,0.4,1.2,0.5,1.7,0.1l0.6-0.4c1.2-0.8,2.6-1.5,4-1.9c1.2-0.4,2.5-0.7,3.8-0.8
		c2.4-0.3,4.8,0.2,6.8,1.6c1.1,0.8,1.8,2.1,1.9,3.5c0,2.2-1,4.3-2.7,5.7c-0.6,0.5-1.2,1-1.8,1.5l-5.2,3.5c-0.1,0.1-0.1,0.2-0.1,0.3
		c0,0.2,0.2,0.3,0.3,0.3c0.4,0.2,0.9,0.1,1.2-0.1l5.5-3.7c0.1-0.1,0.3-0.2,0.5-0.3c4.2-2.6,9.9-2.9,12.8-0.7c1.5,1.1,2.1,3,1.6,4.8
		c-0.7,2.1-2.1,3.9-3.9,5l-5.5,3.8c-0.1,0.1-0.3,0.2-0.3,0.4c0,0.1,0,0.2,0.1,0.3c0.6,0.8,1.1,1.7,1.6,2.6c0.2,0.3,0.6,0.4,0.9,0.3
		c2.3-0.4,4.7,0.2,6.6,1.4c1.5,1.1,2.1,3,1.6,4.8c-0.7,2.1-2.1,3.9-4,5.1l-2.7,1.9l-0.1,0.1c-0.1,0.1-0.2,0.2-0.2,0.4
		c0,0.3-0.1,0.6-0.1,0.9c0,0.1,0,0.2,0.1,0.3c0.1,0.1,0.3,0.2,0.4,0.2c0.2,0,0.4,0,0.6,0c1-0.1,2.1-0.1,3.1,0.1
		c3.5,0.4,5.9,2.6,5.8,5.2c-0.3,8.5-3.5,24.5-20.8,35.7C135.5,138.3,118.7,141,105.6,141.1z M80.6,127.7c0.2,0,0.4,0,0.5,0.1
		c1.1,0.3,2.1,0.5,3.3,0.7c0.5,0.1,0.9,0.4,1.1,0.8c0.1,0.4,0,0.8-0.2,1.1c-0.5,0.6-0.8,1.2-1.1,1.9c-0.1,0.3-0.2,0.6-0.4,0.9
		c0,0-0.7,1.5,1.5,4c2.7,3.2,38.3,8,63-7.9c17.1-11,20.2-26.7,20.5-35.1c0.1-2.2-2.1-4.2-5.2-4.6c-0.9-0.2-1.9-0.2-2.9-0.1
		c-0.3,0.1-0.6,0.1-0.9,0c-0.3-0.1-0.6-0.2-0.8-0.4c-0.2-0.3-0.3-0.6-0.3-0.9c0.1-0.3,0.1-0.6,0.1-0.9c0.1-0.3,0.2-0.6,0.5-0.8
		l0.1-0.1l2.7-1.8c1.7-1.1,3.1-2.7,3.7-4.7c0.4-1.5-0.1-3.1-1.4-4.1c-1.8-1.2-4-1.6-6.1-1.3c-0.6,0.1-1.3-0.2-1.6-0.7
		c-0.5-0.9-1-1.7-1.6-2.5c-0.2-0.2-0.2-0.5-0.2-0.8c0.1-0.3,0.3-0.6,0.6-0.8l5.5-3.7c1.7-1.1,3-2.7,3.6-4.7c0.4-1.5-0.1-3.1-1.4-4.1
		c-2.7-2.1-8-1.8-12,0.7l-0.5,0.3l-5.5,3.7c-0.6,0.4-1.3,0.4-1.9,0.2c-0.4-0.1-0.6-0.5-0.7-0.8c-0.1-0.4,0-0.7,0.3-1l0.1,0l5.2-3.5
		c0.6-0.4,1.2-0.8,1.7-1.3c1.5-1.3,2.5-3.2,2.5-5.2c-0.1-1.2-0.7-2.3-1.6-3c-1.9-1.2-4.1-1.8-6.3-1.5c-1.2,0.1-2.5,0.4-3.7,0.8
		c-1.3,0.4-2.6,1.1-3.8,1.9l-0.6,0.4c-0.8,0.6-2,0.5-2.7-0.3c-0.2-0.2-0.2-0.5-0.2-0.8c0.1-0.4,0.3-0.7,0.6-0.9l6.1-4.1
		c2.6-1.8,4.2-4.1,4.2-6.2c0.1-1.4-0.6-2.6-1.7-3.4c-1.8-1.2-4.1-1.8-6.3-1.4c-2.7,0.2-5.2,1.1-7.4,2.6l-6.1,4.1
		c-0.6,0.4-1.4,0.5-2.1,0.2c-1.2-0.5-2.5-1-3.7-1.4c-0.6-0.1-1.1-0.8-0.9-1.4c0,0,0,0,0,0c0.7-1.7,0.1-3.7-1.4-4.8
		c-1.9-1.2-4.1-1.8-6.3-1.5c-2.7,0.2-5.2,1.1-7.4,2.6l-3,2c-0.4,0.2-0.8,0.4-1.2,0.4h-0.2h-1.2c-0.5,0.1-1.1-0.1-1.5-0.5
		c-0.2-0.2-0.3-0.6-0.2-0.9c0-0.1,0.1-0.3,0.2-0.4c0.5-0.9,0.8-4.8-0.8-6.4s-5-1.4-6.3-1.4c-8.9,0.1-34.3,9.4-47.6,23.5
		c-5.6,5.9-8.3,12-8,17.9c0,1.3,0.2,2.5,0.5,3.8c0,0.1,0,0.1,0,0.2l-0.1,0.3c-0.1,0.3-0.3,0.5-0.5,0.6l-13.1,8.9
		c-2.6,1.8-4.2,4.1-4.2,6.2c-0.1,1.4,0.6,2.6,1.7,3.4c1.8,1.2,4.1,1.7,6.3,1.5c1.5-0.1,2.9-0.5,4.3-1c0.6-0.2,1.2-0.2,1.7,0.1
		c0.3,0.2,0.6,0.4,0.6,0.8c0.2,0.9,0.5,1.8,0.8,2.7c0.2,0.6,0,1.2-0.5,1.5l-8.1,5.5c-2.6,1.8-4.2,4.1-4.2,6.2
		c-0.1,1.3,0.6,2.6,1.6,3.4c1.8,1.2,4.1,1.8,6.3,1.4c2.7-0.2,5.2-1.1,7.5-2.6l5.1-3.4c0.7-0.5,1.6-0.5,2.3-0.1l0.7,0.4
		c0.3,0.2,0.5,0.6,0.6,0.9c0,0.5-0.3,0.9-0.7,1.1l-1.3,0.9c-2.6,1.8-4.2,4.1-4.2,6.2c-0.1,1.3,0.5,2.6,1.6,3.4
		c1.8,1.2,4.1,1.8,6.3,1.4c0.2,0,0.5,0,0.7-0.1c2.4-0.4,4.9,0.2,6.8,1.7c0.1,0.1,0.2,0.2,0.3,0.2c2.8,2.2,8.4,1.7,12.5-1l1.2-0.8
		c0.7-0.5,1.6-0.5,2.3,0.1c0.1,0.1,0.2,0.2,0.3,0.2l0.3,0.2c0.3,0.2,0.4,0.5,0.4,0.8c0,0.4-0.3,0.8-0.6,1l-4.6,3.1
		c-1.7,1.1-3,2.7-3.7,4.6c-0.4,1.5,0.1,3.2,1.4,4.1c2.8,2.2,8.4,1.7,12.5-1l7.4-5C79.8,127.8,80.2,127.7,80.6,127.7z"/>
</g>
<g id="mittenLeft">
	<path class="st3" d="M64.5,130.6c-1.5,6.4-2.5,10.8-6.3,15.2l-0.2,0.2l-0.2,0.3c-5.3,5.9-12.2,7.6-16.5,8.7
		c-3.5,0.9-7.2,1.3-10.8,1.2c-1.9,0-3.7-0.4-5.5-1.1c-0.6-0.2-1.3-0.5-1.9-0.9c-1.8-1-3.3-2.3-4.6-3.8C12,142.2,1,125.2,6.2,107.5
		c0.1-0.3,0.2-0.7,0.3-1.2c1.4-4.6,5.5-15.6,15.8-18.7c11.1-3.4,21.3,5,22.5,6c1.7,1.5,3.3,3.1,4.6,5c0.2,0.3,0.5,0.7,0.7,1
		c1.5,2.4,2.7,5,3.4,7.7c0.3,1.2,0.6,2.3,0.7,3.5c0.3-0.4,3.5-4.3,6.5-3.6c2.8,0.7,3.7,4.8,4.3,8C65.7,118,66.3,123,64.5,130.6z"/>
	<path class="st3" d="M31.8,157.9h-1.3c-2.8-0.1-5.6-0.8-8.1-2.2c-2-1.1-3.7-2.5-5.1-4.3c-7.1-8.8-18.1-26.2-12.8-44.5l0.1-0.2
		c0.1-0.3,0.2-0.6,0.3-1c2.3-7.4,7.1-16.8,17-19.8c12-3.6,22.9,5.3,24.1,6.3c1.8,1.5,3.5,3.3,4.9,5.3c0.2,0.3,0.5,0.7,0.7,1.1
		c1.6,2.5,2.8,5.3,3.6,8.2c0,0.2,0.1,0.4,0.1,0.5c1.5-1.2,3.7-2.3,5.9-1.8c3.8,0.9,4.8,5.7,5.6,9.2c1,5.4,0.8,10.9-0.6,16.2
		l-1.7-0.4l1.6,0.4c-1.5,6.5-2.7,11.2-6.6,15.9l-0.2,0.2l-0.2,0.3c-5.6,6.3-13,8.1-17.3,9.2C38.5,157.4,35.2,157.9,31.8,157.9z
		 M27.6,88.5c-1.6,0-3.2,0.3-4.8,0.7c-8.4,2.6-12.6,11-14.7,17.6c-0.1,0.3-0.2,0.6-0.3,0.9l-0.1,0.3c-4.9,16.8,5.5,33.1,12.1,41.4
		c1.1,1.4,2.5,2.6,4.1,3.4c0.5,0.3,1.1,0.5,1.6,0.8c1.6,0.6,3.2,1,4.9,1c3.5,0.1,7-0.3,10.4-1.2c4.2-1.1,10.7-2.7,15.6-8.2
		c0.1-0.1,0.1-0.1,0.2-0.2l0.2-0.2c3.4-4,4.4-8.2,5.9-14.4l0,0c1.3-4.8,1.5-9.8,0.6-14.7c-0.5-2.5-1.4-6.3-3.1-6.7
		c-1.5-0.4-3.7,1.6-4.8,3l-2.5,3.1l-0.5-4c-0.2-1.1-0.4-2.2-0.7-3.3c-0.7-2.6-1.8-5-3.2-7.2c-0.2-0.3-0.4-0.6-0.6-0.9
		c-1.2-1.7-2.7-3.3-4.3-4.7C42.8,94.1,35.9,88.4,27.6,88.5z M66.2,131.1l-1.7-0.4L66.2,131.1z"/>
	<g id="pattern">
		<g class="st4">
			<path class="st5" d="M35.8,155.9c-7.4-8.1-12.9-17.8-16-28.4c-3.5-11.8-4.4-24.3-2.6-36.5l1,0.1c-1.8,12.1-0.9,24.4,2.6,36.1
				c3.1,10.4,8.5,20,15.8,28L35.8,155.9z"/>
			<ellipse transform="matrix(0.5259 -0.8505 0.8505 0.5259 -71.3371 61.5959)" class="st5" cx="19.6" cy="94.8" rx="3.4" ry="2"/>
			<ellipse transform="matrix(0.5259 -0.8505 0.8505 0.5259 -81.5826 67.4185)" class="st5" cx="19.7" cy="106.9" rx="3.4" ry="2"/>

				<ellipse transform="matrix(0.3693 -0.9293 0.9293 0.3693 -97.0095 94.4227)" class="st5" cx="21.1" cy="118.7" rx="3.5" ry="1.9"/>

				<ellipse transform="matrix(0.3693 -0.9293 0.9293 0.3693 -107.6095 107.4482)" class="st5" cx="25.4" cy="133" rx="3.5" ry="1.9"/>
			<ellipse transform="matrix(0.3693 -0.9293 0.9293 0.3693 -114.5371 121.2216)" class="st5" cx="32" cy="145" rx="3.5" ry="1.9"/>
			<ellipse transform="matrix(0.9233 -0.3841 0.3841 0.9233 -37.7259 13.377)" class="st5" cx="14.6" cy="101.1" rx="2" ry="3.4"/>
			<ellipse transform="matrix(0.8336 -0.5524 0.5524 0.8336 -60.4045 27.1754)" class="st5" cx="14.9" cy="113.8" rx="2" ry="3.3"/>
			<ellipse transform="matrix(0.8527 -0.5223 0.5223 0.8527 -63.9208 28.3608)" class="st5" cx="18.3" cy="127.5" rx="2" ry="3.3"/>

				<ellipse transform="matrix(0.7905 -0.6125 0.6125 0.7905 -82.619 45.2592)" class="st5" cx="24.8" cy="143.4" rx="2.1" ry="3.2"/>

				<ellipse transform="matrix(0.688 -0.7257 0.7257 0.688 -101.4879 71.0011)" class="st5" cx="31.8" cy="153.5" rx="2.2" ry="3.1"/>
		</g>
		<g class="st4">
			<path class="st5" d="M44.4,154.4l-1-0.3c3.4-10.3,4.5-21.2,3.1-32c-1.6-12.1-5.7-23.7-12.2-34l0.9-0.5
				c6.6,10.5,10.8,22.2,12.4,34.5C48.9,132.8,47.9,143.9,44.4,154.4z"/>
			<ellipse transform="matrix(0.5651 -0.825 0.825 0.5651 -60.7576 68.4375)" class="st5" cx="34.5" cy="91.8" rx="2" ry="3.4"/>
			<ellipse transform="matrix(0.5651 -0.825 0.825 0.5651 -67.8255 77.2344)" class="st5" cx="39.3" cy="103" rx="2" ry="3.4"/>

				<ellipse transform="matrix(0.7005 -0.7136 0.7136 0.7005 -68.7191 64.8069)" class="st5" cx="42.9" cy="114.3" rx="1.9" ry="3.5"/>

				<ellipse transform="matrix(0.7005 -0.7136 0.7136 0.7005 -78.7574 70.583)" class="st5" cx="44.7" cy="129.1" rx="1.9" ry="3.5"/>

				<ellipse transform="matrix(0.7005 -0.7136 0.7136 0.7005 -88.8889 73.7708)" class="st5" cx="43.5" cy="142.8" rx="1.9" ry="3.5"/>

				<ellipse transform="matrix(0.9998 -2.216387e-02 2.216387e-02 0.9998 -2.1098 0.9464)" class="st5" cx="41.6" cy="95.7" rx="2" ry="3.4"/>

				<ellipse transform="matrix(0.1709 -0.9853 0.9853 0.1709 -67.9747 134.7273)" class="st5" cx="46.1" cy="107.8" rx="3.3" ry="2.1"/>
			<ellipse transform="matrix(0.1326 -0.9912 0.9912 0.1326 -77.757 153.7215)" class="st5" cx="48.9" cy="121.3" rx="3.3" ry="2"/>

				<ellipse transform="matrix(0.2404 -0.9707 0.9707 0.2404 -96.8404 153.074)" class="st5" cx="49.4" cy="138.4" rx="3.2" ry="2.1"/>

				<ellipse transform="matrix(0.3853 -0.9228 0.9228 0.3853 -109.9235 135.9943)" class="st5" cx="47.1" cy="150.5" rx="3.1" ry="2.1"/>
		</g>
		<g class="st6">
			<path class="st7" d="M22.4,87.6c0.9,5.5,2.9,10.6,4.9,15.9c2.2,5.8,3.6,12,4.1,18.2c0.9,11.4,2.3,22,6.9,32.6
				c0.9,2,3.8,0.2,2.9-1.7c-2.4-5.4-4.1-11-5.1-16.8c-1-5.9-1-12-1.7-18c-1.3-10.9-7-20.4-8.8-31.1C25.3,84.5,22.1,85.4,22.4,87.6
				L22.4,87.6z"/>
		</g>
		<g class="st6">
			<path class="st7" d="M57.7,109c1.4,13.4-0.1,26.9-4.3,39.7c-0.7,2.1,2.6,2.9,3.3,0.9c4.3-13.1,5.8-26.9,4.4-40.6
				C60.9,106.8,57.5,106.8,57.7,109L57.7,109z"/>
		</g>
		<g class="st6">
			<path class="st7" d="M6.7,102.8c0.1,8.4,1.1,16.7,3.1,24.9c2.6,10.1,7.9,19,13.8,27.5c1.2,1.8,4.2,0.1,2.9-1.7
				c-5.7-8.3-10.9-16.9-13.4-26.7c-2-7.9-3-15.9-3-24c0-0.9-0.8-1.7-1.7-1.7S6.7,101.8,6.7,102.8L6.7,102.8z"/>
		</g>
	</g>
	<g class="st8">
		<g>
			<defs>
				<path id="SVGID_1_" d="M64.5,130.6c-1.5,6.4-2.5,10.8-6.3,15.2l-0.2,0.2l-0.2,0.3c-5.3,5.9-12.2,7.6-16.5,8.7
					c-3.5,0.9-7.2,1.3-10.8,1.2c-1.9,0-3.7-0.4-5.5-1.1c-0.6-0.2-1.3-0.5-1.9-0.9c-1.8-1-3.3-2.3-4.6-3.8
					C12,142.2,1,125.2,6.2,107.5c0.1-0.3,0.2-0.7,0.3-1.2c1.4-4.6,5.5-15.6,15.8-18.7c11.1-3.4,21.3,5,22.5,6c1.7,1.5,3.3,3.1,4.6,5
					c0.2,0.3,0.5,0.7,0.7,1c1.5,2.4,2.7,5,3.4,7.7c0.3,1.2,0.6,2.3,0.7,3.5c0.3-0.4,3.5-4.3,6.5-3.6c2.8,0.7,3.7,4.8,4.3,8
					C65.7,118,66.3,123,64.5,130.6z"/>
			</defs>
			<clipPath id="SVGID_2_">
				<use xlink:href="#SVGID_1_"  style="overflow:visible;"/>
			</clipPath>
			<g class="st9">
				<g class="st10">
					<g>
						<g>
							<g>
								<defs>
									<filter id="Adobe_OpacityMaskFilter" filterUnits="userSpaceOnUse" x="-13" y="78.3" width="86" height="90.9">
										<feFlood  style="flood-color:white;flood-opacity:1" result="back"/>
										<feBlend  in="SourceGraphic" in2="back" mode="normal"/>
									</filter>
								</defs>
								<mask maskUnits="userSpaceOnUse" x="-13" y="78.3" width="86" height="90.9" id="SVGID_3_">
									<g class="st11">

											<image style="overflow:visible;" width="92" height="96" xlink:href="CAF22D7651060D62.jpg"  transform="matrix(1 0 0 1 -16 75.92)">
										</image>
									</g>
								</mask>
								<g class="st12">
									<path class="st13" d="M72.3,116.2c4.9,31.8-18.6,50.9-41,52.8s-41.8-17-44.1-44.4S2.7,80.4,25.1,78.5S68.1,89,72.3,116.2z"
										/>
								</g>
							</g>
						</g>
					</g>
				</g>
			</g>
		</g>
	</g>
	<g id="stroke">
		<path class="st0" d="M31.8,157.9h-1.3c-2.8-0.1-5.6-0.8-8.1-2.2c-2-1.1-3.7-2.5-5.1-4.3c-7.1-8.8-18.1-26.2-12.8-44.5l0.1-0.2
			c0.1-0.3,0.2-0.6,0.3-1c2.3-7.4,7.1-16.8,17-19.8c12-3.6,22.9,5.3,24.1,6.3c1.8,1.5,3.5,3.3,4.9,5.3c0.2,0.3,0.5,0.7,0.7,1.1
			c1.6,2.5,2.8,5.3,3.6,8.2c0,0.2,0.1,0.4,0.1,0.5c1.5-1.2,3.7-2.3,5.9-1.8c3.8,0.9,4.8,5.7,5.6,9.2c1,5.4,0.8,10.9-0.6,16.2
			l-1.7-0.4l1.6,0.4c-1.5,6.5-2.7,11.2-6.6,15.9l-0.2,0.2l-0.2,0.3c-5.6,6.3-13,8.1-17.3,9.2C38.5,157.4,35.2,157.9,31.8,157.9z
			 M27.6,88.5c-1.6,0-3.2,0.3-4.8,0.7c-8.4,2.6-12.6,11-14.7,17.6c-0.1,0.3-0.2,0.6-0.3,0.9l-0.1,0.3c-4.9,16.8,5.5,33.1,12.1,41.4
			c1.1,1.4,2.5,2.6,4.1,3.4c0.5,0.3,1.1,0.5,1.6,0.8c1.6,0.6,3.2,1,4.9,1c3.5,0.1,7-0.3,10.4-1.2c4.2-1.1,10.7-2.7,15.6-8.2
			c0.1-0.1,0.1-0.1,0.2-0.2l0.2-0.2c3.4-4,4.4-8.2,5.9-14.4l0,0c1.3-4.8,1.5-9.8,0.6-14.7c-0.5-2.5-1.4-6.3-3.1-6.7
			c-1.5-0.4-3.7,1.6-4.8,3l-2.5,3.1l-0.5-4c-0.2-1.1-0.4-2.2-0.7-3.3c-0.7-2.6-1.8-5-3.2-7.2c-0.2-0.3-0.4-0.6-0.6-0.9
			c-1.2-1.7-2.7-3.3-4.3-4.7C42.8,94.1,35.9,88.4,27.6,88.5z M66.2,131.1l-1.7-0.4L66.2,131.1z"/>
		<path class="st0" d="M43.2,177.9c-5.7,0-11.3-3.1-13.5-8.1c-0.5-1-1-2-1.5-3.1l-4.6-8.9c-0.1-0.3-0.2-0.6-0.2-0.8l-0.7-3.2l3,1.2
			c1.6,0.6,3.2,1,4.9,1c3.5,0.1,7-0.3,10.5-1.2c4.2-1.1,10.7-2.7,15.6-8.2l0.2-0.2l0.1-0.1l2.3-2.9l2.1,11.1l1,4.7
			c1.4,6.8-3.1,14.6-9.6,16.8h-0.1l-4.9,1.3C46.3,177.6,44.8,177.8,43.2,177.9z M28.2,159l3.1,6c0.6,1.2,1.2,2.2,1.6,3.4
			c2,4.7,8.5,7.3,13.8,5.6h0.1l4.9-1.3c4.9-1.7,8.4-7.8,7.3-12.9l-1-4.7l-0.8-4.2c-5.3,4.7-11.5,6.3-15.4,7.3
			c-3.7,0.9-7.5,1.3-11.3,1.3C29.7,159.2,28.9,159.1,28.2,159z"/>
	</g>
	<path class="st14" d="M52.2,174.2l-5,1.3c-6,2-13.4-0.9-15.9-6.5c-0.5-1.1-1-2.2-1.6-3.2l-4.5-8.7c-0.1-0.2-0.1-0.5-0.2-0.7
		c1.7,0.7,3.6,1.1,5.5,1.1c3.7,0.1,7.3-0.3,10.8-1.2c4.3-1.1,11.2-2.8,16.5-8.7l0.2-0.3l0.2-0.2l1.4,7.4l1,4.8
		C61.9,165.3,58,172.3,52.2,174.2z"/>
	<g>
		<defs>
			<path id="SVGID_4_" d="M52.2,174.2l-5,1.3c-6,2-13.4-0.9-15.9-6.5c-0.5-1.1-1-2.2-1.6-3.2l-4.5-8.7c-0.1-0.2-0.1-0.5-0.2-0.7
				c1.7,0.7,3.6,1.1,5.5,1.1c3.7,0.1,7.3-0.3,10.8-1.2c4.3-1.1,11.2-2.8,16.5-8.7l0.2-0.3l0.2-0.2l1.4,7.4l1,4.8
				C61.9,165.3,58,172.3,52.2,174.2z"/>
		</defs>
		<clipPath id="SVGID_5_">
			<use xlink:href="#SVGID_4_"  style="overflow:visible;"/>
		</clipPath>
		<g class="st15">
			<defs>
				<filter id="Adobe_OpacityMaskFilter_1_" filterUnits="userSpaceOnUse" x="21.4" y="138.4" width="50.8" height="53.7">
					<feFlood  style="flood-color:white;flood-opacity:1" result="back"/>
					<feBlend  in="SourceGraphic" in2="back" mode="normal"/>
				</filter>
			</defs>
			<mask maskUnits="userSpaceOnUse" x="21.4" y="138.4" width="50.8" height="53.7" id="SVGID_6_">
				<g class="st16">

						<image style="overflow:visible;" width="56" height="59" xlink:href="CAF22D7651060D66.jpg"  transform="matrix(1 0 0 1 19 135.92)">
					</image>
				</g>
			</mask>
			<g class="st17">
				<g>
					<g class="st10">
						<g>
							<g>
								<path class="st13" d="M71.8,160.9c2.9,18.8-11,30-24.2,31.2s-24.7-10-26.1-26.2s9.1-26.1,22.4-27.3S69.3,144.8,71.8,160.9z"
									/>
							</g>
						</g>
					</g>
				</g>
			</g>
		</g>
	</g>
</g>
<g id="mittenRight">
	<path class="st3" d="M116.7,129.1c1.6,6.3,2.7,10.8,6.5,15.1l0.2,0.2l0.2,0.3c5.4,5.8,12.3,7.4,16.6,8.4c3.6,0.8,7.2,1.2,10.9,1
		c4.6-0.2,9-2.3,11.8-6c6.5-8.3,17.3-25.5,11.8-43.1c-0.1-0.3-0.2-0.7-0.4-1.2c-1.5-4.6-5.7-15.5-16.1-18.5
		c-11.2-3.1-21.2,5.3-22.4,6.4c-1.7,1.5-3.2,3.2-4.5,5.1c-0.2,0.3-0.4,0.7-0.6,1c-1.5,2.4-2.6,5-3.3,7.8c-0.3,1.2-0.5,2.3-0.7,3.5
		c-0.3-0.4-3.6-4.2-6.6-3.5c-2.8,0.7-3.6,4.8-4.2,8C115.3,116.4,114.7,121.4,116.7,129.1z"/>
	<path class="st0" d="M149.8,155.8c-3.4,0-6.7-0.3-10-1.1c-4.4-1-11.7-2.8-17.5-9l-0.2-0.3l-0.1-0.2c-4.1-4.6-5.3-9.3-6.9-15.8
		l1.6-0.5l-1.7,0.4c-1.5-5.3-1.8-10.8-0.8-16.2c0.7-3.5,1.7-8.4,5.5-9.3c2.2-0.6,4.3,0.5,5.9,1.7c0-0.2,0.1-0.3,0.1-0.5
		c0.8-2.9,1.9-5.7,3.5-8.2c0.2-0.4,0.5-0.7,0.7-1.1c1.4-2,3-3.8,4.8-5.4c1.2-1,11.9-10.1,24-6.7c9.9,2.8,14.9,12.2,17.2,19.6
		c0.1,0.4,0.2,0.7,0.3,1l0.1,0.2c5.6,18.2-5.2,35.8-12.1,44.7c-1.4,1.8-3.1,3.2-5,4.3c-0.6,0.4-1.3,0.7-2,1c-1.9,0.8-3.9,1.2-6,1.3
		L149.8,155.8z M120.9,107.2c-0.1,0-0.3,0-0.4,0c-1.7,0.4-2.5,4.2-3,6.7c-0.9,4.9-0.6,9.9,0.8,14.7l0,0c1.6,6.2,2.6,10.4,6.1,14.4
		l0.2,0.2c0.1,0.1,0.1,0.1,0.2,0.2c5,5.4,11.5,7,15.8,8c3.4,0.8,6.9,1.1,10.4,1c1.7,0,3.3-0.4,4.9-1c0.6-0.2,1.1-0.5,1.6-0.8
		c1.6-0.9,2.9-2.1,4.1-3.5c6.5-8.3,16.7-24.8,11.5-41.5l-0.1-0.2c-0.1-0.3-0.2-0.6-0.3-0.9c-2.1-6.6-6.5-15-15-17.4
		c-10.3-2.9-19.8,5-20.8,6c-1.6,1.4-3,3-4.2,4.8c-0.2,0.3-0.4,0.6-0.6,1c-1.4,2.3-2.4,4.7-3,7.2c-0.3,1.1-0.5,2.2-0.6,3.3l-0.5,3.9
		l-2.5-3.1C124.3,108.9,122.3,107.2,120.9,107.2z"/>
	<g id="pattern-2">
		<g class="st4">
			<path class="st5" d="M145.7,153.9l-0.8-0.7c7.2-8.1,12.4-17.8,15.4-28.2c3.3-11.8,4-24.1,2-36.2l1-0.2c2,12.2,1.3,24.7-2.1,36.6
				C158.2,135.9,152.9,145.7,145.7,153.9z"/>
			<ellipse transform="matrix(0.8428 -0.5382 0.5382 0.8428 -24.493 101.217)" class="st5" cx="161" cy="92.5" rx="2" ry="3.4"/>
			<ellipse transform="matrix(0.8412 -0.5408 0.5408 0.8412 -30.7121 103.5123)" class="st5" cx="160.9" cy="104" rx="2" ry="3.4"/>

				<ellipse transform="matrix(0.9239 -0.3827 0.3827 0.9239 -32.3881 70.0633)" class="st5" cx="159.9" cy="116.4" rx="1.9" ry="3.5"/>

				<ellipse transform="matrix(0.9239 -0.3827 0.3827 0.9239 -38.2023 69.5944)" class="st5" cx="155.8" cy="130.8" rx="1.9" ry="3.5"/>

				<ellipse transform="matrix(0.9239 -0.3827 0.3827 0.9239 -43.3226 68.0276)" class="st5" cx="149.3" cy="142.9" rx="1.9" ry="3.5"/>
			<ellipse transform="matrix(0.3707 -0.9287 0.9287 0.3707 12.7652 216.4451)" class="st5" cx="166.1" cy="98.8" rx="3.4" ry="2"/>

				<ellipse transform="matrix(0.5427 -0.8399 0.8399 0.5427 -18.1536 190.0192)" class="st5" cx="165.4" cy="111.7" rx="3.3" ry="2.1"/>

				<ellipse transform="matrix(0.5098 -0.8603 0.8603 0.5098 -27.964 201.4519)" class="st5" cx="162.8" cy="125.3" rx="3.3" ry="2"/>

				<ellipse transform="matrix(0.601 -0.7993 0.7993 0.601 -50.4145 181.4308)" class="st5" cx="156.5" cy="141.2" rx="3.2" ry="2.1"/>

				<ellipse transform="matrix(0.7156 -0.6985 0.6985 0.7156 -63.2015 147.6179)" class="st5" cx="149.7" cy="151.4" rx="3.1" ry="2.1"/>
		</g>
		<g class="st4">
			<path class="st5" d="M137.1,152.5c-3.6-10.4-4.9-21.5-3.6-32.4c1.4-12.3,5.5-24.1,11.9-34.7l0.9,0.5
				c-6.4,10.4-10.4,22.1-11.8,34.2c-1.2,10.8,0,21.7,3.6,31.9L137.1,152.5z"/>

				<ellipse transform="matrix(0.8166 -0.5771 0.5771 0.8166 -25.0447 100.7579)" class="st5" cx="146.1" cy="89.8" rx="3.4" ry="2"/>
			<ellipse transform="matrix(0.8166 -0.5771 0.5771 0.8166 -32.3408 100.1323)" class="st5" cx="141.4" cy="101" rx="3.4" ry="2"/>

				<ellipse transform="matrix(0.7034 -0.7108 0.7108 0.7034 -38.9275 131.4729)" class="st5" cx="138.1" cy="112.4" rx="3.5" ry="1.9"/>

				<ellipse transform="matrix(0.7034 -0.7108 0.7108 0.7034 -49.9797 134.7034)" class="st5" cx="136.4" cy="127.2" rx="3.5" ry="1.9"/>

				<ellipse transform="matrix(0.7034 -0.7108 0.7108 0.7034 -59.2518 139.7904)" class="st5" cx="137.9" cy="140.9" rx="3.5" ry="1.9"/>
			<ellipse transform="matrix(7.679416e-03 -1 1 7.679416e-03 44.2462 232.0148)" class="st5" cx="139" cy="93.7" rx="3.4" ry="2"/>

				<ellipse transform="matrix(0.9827 -0.1852 0.1852 0.9827 -17.2769 26.7827)" class="st5" cx="134.8" cy="105.9" rx="2.1" ry="3.3"/>

				<ellipse transform="matrix(0.9891 -0.1471 0.1471 0.9891 -16.1389 20.7313)" class="st5" cx="132.1" cy="119.5" rx="2" ry="3.3"/>

				<ellipse transform="matrix(0.967 -0.2546 0.2546 0.967 -30.4267 38.0828)" class="st5" cx="131.9" cy="136.6" rx="2.1" ry="3.2"/>

				<ellipse transform="matrix(0.9171 -0.3987 0.3987 0.9171 -48.1306 65.9013)" class="st5" cx="134.4" cy="148.6" rx="2.1" ry="3.1"/>
		</g>
		<g class="st6">
			<path class="st7" d="M154.8,84.5c-1.6,10.8-7.2,20.3-8.3,31.2c-0.6,6-0.5,12-1.5,18c-0.9,5.8-2.6,11.5-4.9,16.9
				c-0.8,2,2.1,3.7,2.9,1.7c4.5-10.7,5.7-21.3,6.5-32.7c0.4-6,1.6-12,3.7-17.7c1.9-5.4,4-10.8,4.8-16.5
				C158.4,83.2,155.1,82.4,154.8,84.5z"/>
		</g>
		<g class="st6">
			<path class="st7" d="M119.7,107.3c-1.2,13.7,0.5,27.5,5,40.5c0.7,2.1,4,1.1,3.3-0.9c-4.4-12.7-6-26.2-4.9-39.6
				C123.3,105.1,119.9,105.1,119.7,107.3L119.7,107.3z"/>
		</g>
		<g class="st6">
			<path class="st7" d="M170.7,100.3c0.1,8.1-0.8,16.1-2.7,24c-2.4,9.9-7.4,18.6-13,26.9c-1.2,1.8,1.7,3.5,2.9,1.7
				c5.8-8.6,10.9-17.6,13.4-27.8c1.9-8.2,2.9-16.5,2.8-24.9c0-0.9-0.8-1.7-1.7-1.7C171.5,98.6,170.7,99.3,170.7,100.3L170.7,100.3z"
				/>
		</g>
	</g>
	<g class="st8">
		<g>
			<defs>
				<path id="SVGID_7_" d="M116.7,129.1c1.6,6.3,2.7,10.8,6.5,15.1l0.2,0.2l0.2,0.3c5.4,5.8,12.3,7.4,16.6,8.4
					c3.6,0.8,7.2,1.2,10.9,1c4.6-0.2,9-2.3,11.8-6c6.5-8.3,17.3-25.5,11.8-43.1c-0.1-0.3-0.2-0.7-0.4-1.2
					c-1.5-4.6-5.7-15.5-16.1-18.5c-11.2-3.1-21.2,5.3-22.4,6.4c-1.7,1.5-3.2,3.2-4.5,5.1c-0.2,0.3-0.4,0.7-0.6,1
					c-1.5,2.4-2.6,5-3.3,7.8c-0.3,1.2-0.5,2.3-0.7,3.5c-0.3-0.4-3.6-4.2-6.6-3.5c-2.8,0.7-3.6,4.8-4.2,8
					C115.3,116.4,114.7,121.4,116.7,129.1z"/>
			</defs>
			<clipPath id="SVGID_8_">
				<use xlink:href="#SVGID_7_"  style="overflow:visible;"/>
			</clipPath>
			<g class="st18">
				<g class="st10">
					<g>
						<g>
							<g>
								<defs>
									<filter id="Adobe_OpacityMaskFilter_2_" filterUnits="userSpaceOnUse" x="106.4" y="75.9" width="86" height="90.9">
										<feFlood  style="flood-color:white;flood-opacity:1" result="back"/>
										<feBlend  in="SourceGraphic" in2="back" mode="normal"/>
									</filter>
								</defs>
								<mask maskUnits="userSpaceOnUse" x="106.4" y="75.9" width="86" height="90.9" id="SVGID_9_">
									<g class="st19">

											<image style="overflow:visible;" width="91" height="96" xlink:href="CAF22D7651060D61.jpg"  transform="matrix(1 0 0 1 104.3018 73.6377)">
										</image>
									</g>
								</mask>
								<g class="st20">
									<path class="st13" d="M106.9,114.4c-4.5,31.9,19.3,50.6,41.8,52.2s41.5-17.6,43.5-45.1s-16.1-44-38.6-45.6
										S110.7,87.2,106.9,114.4z"/>
								</g>
							</g>
						</g>
					</g>
				</g>
			</g>
		</g>
	</g>
	<g id="stroke-2">
		<path class="st0" d="M149.8,155.8c-3.4,0-6.7-0.3-10-1.1c-4.4-1-11.7-2.8-17.5-9l-0.2-0.3l-0.1-0.2c-4.1-4.6-5.3-9.3-6.9-15.8
			l1.6-0.5l-1.7,0.4c-1.5-5.3-1.8-10.8-0.8-16.2c0.7-3.5,1.7-8.4,5.5-9.3c2.2-0.6,4.3,0.5,5.9,1.7c0-0.2,0.1-0.3,0.1-0.5
			c0.8-2.9,1.9-5.7,3.5-8.2c0.2-0.4,0.5-0.7,0.7-1.1c1.4-2,3-3.8,4.8-5.4c1.2-1,11.9-10.1,24-6.7c9.9,2.8,14.9,12.2,17.2,19.6
			c0.1,0.4,0.2,0.7,0.3,1l0.1,0.2c5.6,18.2-5.2,35.8-12.1,44.7c-1.4,1.8-3.1,3.2-5,4.3c-0.6,0.4-1.3,0.7-2,1c-1.9,0.8-3.9,1.2-6,1.3
			L149.8,155.8z M120.9,107.2c-0.1,0-0.3,0-0.4,0c-1.7,0.4-2.5,4.2-3,6.7c-0.9,4.9-0.6,9.9,0.8,14.7l0,0c1.6,6.2,2.6,10.4,6.1,14.4
			l0.2,0.2c0.1,0.1,0.1,0.1,0.2,0.2c5,5.4,11.5,7,15.8,8c3.4,0.8,6.9,1.1,10.4,1c1.7,0,3.3-0.4,4.9-1c0.6-0.2,1.1-0.5,1.6-0.8
			c1.6-0.9,2.9-2.1,4.1-3.5c6.5-8.3,16.7-24.8,11.5-41.5l-0.1-0.2c-0.1-0.3-0.2-0.6-0.3-0.9c-2.1-6.6-6.5-15-15-17.4
			c-10.3-2.9-19.8,5-20.8,6c-1.6,1.4-3,3-4.2,4.8c-0.2,0.3-0.4,0.6-0.6,1c-1.4,2.3-2.4,4.7-3,7.2c-0.3,1.1-0.5,2.2-0.6,3.3l-0.5,3.9
			l-2.5-3.1C124.3,108.9,122.3,107.2,120.9,107.2z"/>
		<path class="st0" d="M138.6,175.9c-1.5,0-3-0.2-4.4-0.6l-5-1.2c-6.6-2.1-11.2-9.9-9.8-16.7l0.9-4.8l2-11.1l2.7,3.2
			c5,5.4,11.5,7,15.8,8c3.4,0.8,6.9,1.1,10.4,1c1.7-0.1,3.3-0.4,4.9-1.1l3-1.2l-0.7,3.2c-0.1,0.3-0.1,0.6-0.2,0.8l-0.1,0.2l-4.4,8.7
			c-0.6,1.1-1.1,2.1-1.5,3.2C149.9,172.6,144.3,175.9,138.6,175.9z M130.1,170.8l5,1.2c5.3,1.7,11.7-1,13.7-5.8
			c0.5-1.1,1-2.2,1.6-3.4l3-6c-0.8,0.1-1.6,0.2-2.3,0.2c-3.8,0.1-7.6-0.2-11.3-1.1c-3.9-0.9-10.1-2.4-15.5-7l-0.7,4.2l-0.9,4.8
			C121.6,163.1,125.2,169.2,130.1,170.8z"/>
	</g>
	<path class="st14" d="M129.6,172.4l5,1.2c6,1.9,13.4-1,15.8-6.7c0.5-1.1,1-2.2,1.5-3.3l4.4-8.7c0.1-0.2,0.1-0.4,0.2-0.7
		c-1.7,0.7-3.6,1.1-5.5,1.2c-3.6,0.2-7.3-0.2-10.9-1c-4.3-1-11.2-2.6-16.6-8.4l-0.2-0.3l-0.2-0.2l-1.3,7.4l-0.9,4.8
		C119.8,163.6,123.8,170.6,129.6,172.4z"/>
	<g>
		<defs>
			<path id="SVGID_10_" d="M129.6,172.4l5,1.2c6,1.9,13.4-1,15.8-6.7c0.5-1.1,1-2.2,1.5-3.3l4.4-8.7c0.1-0.2,0.1-0.4,0.2-0.7
				c-1.7,0.7-3.6,1.1-5.5,1.2c-3.6,0.2-7.3-0.2-10.9-1c-4.3-1-11.2-2.6-16.6-8.4l-0.2-0.3l-0.2-0.2l-1.3,7.4l-0.9,4.8
				C119.8,163.6,123.8,170.6,129.6,172.4z"/>
		</defs>
		<clipPath id="SVGID_11_">
			<use xlink:href="#SVGID_10_"  style="overflow:visible;"/>
		</clipPath>
		<g class="st21">
			<defs>
				<filter id="Adobe_OpacityMaskFilter_3_" filterUnits="userSpaceOnUse" x="109.5" y="136.6" width="50.8" height="53.7">
					<feFlood  style="flood-color:white;flood-opacity:1" result="back"/>
					<feBlend  in="SourceGraphic" in2="back" mode="normal"/>
				</filter>
			</defs>
			<mask maskUnits="userSpaceOnUse" x="109.5" y="136.6" width="50.8" height="53.7" id="SVGID_12_">
				<g class="st22">

						<image style="overflow:visible;" width="56" height="59" xlink:href="CAF22D7651060D63.jpg"  transform="matrix(1 0 0 1 107 133.92)">
					</image>
				</g>
			</mask>
			<g class="st23">
				<g>
					<g class="st10">
						<g>
							<g>
								<path class="st13" d="M109.8,159.4c-2.6,18.8,11.4,29.9,24.7,30.8s24.5-10.4,25.7-26.6s-9.5-26-22.8-26.9
									S112.1,143.2,109.8,159.4z"/>
							</g>
						</g>
					</g>
				</g>
			</g>
		</g>
	</g>
</g>
</svg>
