<?xml version="1.0" encoding="utf-8"?>
<!-- Generator: Adobe Illustrator 22.1.0, SVG Export Plug-In . SVG Version: 6.00 Build 0)  -->
<svg version="1.1" id="mouse" xmlns="http://www.w3.org/2000/svg" xmlns:xlink="http://www.w3.org/1999/xlink" x="0px" y="0px"
	 viewBox="0 0 180.9 191.8" style="enable-background:new 0 0 180.9 191.8;" xml:space="preserve">
<style type="text/css">
	.st0{fill:#333333;}
	.st1{clip-path:url(#SVGID_2_);}
	.st2{opacity:0.48;}
	.st3{opacity:0.88;}
	.st4{fill:#5F2731;}
	.st5{fill:#7A8487;}
	.st6{fill:#B84826;}
	.st7{fill:#FCB247;}
	.st8{fill:#A11C4E;}
	.st9{fill:#34A551;}
	.st10{opacity:0.34;}
	.st11{fill:#FFFFFF;}
	.st12{opacity:0.11;}
	.st13{opacity:0.29;}
	.st14{opacity:0.24;}
	.st15{opacity:0.3;}
	.st16{fill:#515656;}
	.st17{fill:#C7846F;}
	.st18{fill:#606768;}
	.st19{opacity:0.45;}
	.st20{clip-path:url(#SVGID_4_);}
	.st21{opacity:0.68;}
	.st22{fill:#C6817E;}
	.st23{opacity:0.71;}
	.st24{filter:url(#Adobe_OpacityMaskFilter);}
	.st25{mask:url(#SVGID_5_);}
	.st26{fill:#AC7669;}
	.st27{fill:#4C4B4B;}
	.st28{fill:#313131;}
	.st29{opacity:0.57;}
	.st30{fill:#BAC8CA;}
	.st31{opacity:0.78;}
	.st32{fill:#C1CFD0;}
	.st33{fill:#695462;}
	.st34{opacity:0.52;}
	.st35{fill:#574551;}
	.st36{opacity:0.25;}
	.st37{clip-path:url(#SVGID_7_);}
	.st38{filter:url(#Adobe_OpacityMaskFilter_1_);}
	.st39{mask:url(#SVGID_8_);}
	.st40{fill:#E17B2C;}
	.st41{opacity:0.66;}
	.st42{filter:url(#Adobe_OpacityMaskFilter_2_);}
	.st43{mask:url(#SVGID_9_);}
	.st44{fill:#F47A63;}
	.st45{filter:url(#Adobe_OpacityMaskFilter_3_);}
	.st46{mask:url(#SVGID_10_);}
	.st47{fill:#E41E25;}
	.st48{filter:url(#Adobe_OpacityMaskFilter_4_);}
	.st49{mask:url(#SVGID_11_);}
	.st50{fill:#0C8C44;}
	.st51{filter:url(#Adobe_OpacityMaskFilter_5_);}
	.st52{mask:url(#SVGID_12_);}
	.st53{filter:url(#Adobe_OpacityMaskFilter_6_);}
	.st54{mask:url(#SVGID_13_);}
	.st55{filter:url(#Adobe_OpacityMaskFilter_7_);}
	.st56{mask:url(#SVGID_14_);}
	.st57{filter:url(#Adobe_OpacityMaskFilter_8_);}
	.st58{mask:url(#SVGID_15_);}
	.st59{filter:url(#Adobe_OpacityMaskFilter_9_);}
	.st60{mask:url(#SVGID_16_);}
	.st61{filter:url(#Adobe_OpacityMaskFilter_10_);}
	.st62{mask:url(#SVGID_17_);}
	.st63{filter:url(#Adobe_OpacityMaskFilter_11_);}
	.st64{mask:url(#SVGID_18_);}
	.st65{filter:url(#Adobe_OpacityMaskFilter_12_);}
	.st66{mask:url(#SVGID_19_);}
	.st67{filter:url(#Adobe_OpacityMaskFilter_13_);}
	.st68{mask:url(#SVGID_20_);}
	.st69{filter:url(#Adobe_OpacityMaskFilter_14_);}
	.st70{mask:url(#SVGID_21_);}

  #lightOne, #lightTwo, #lightThree, #lightFour, #lightFive, #lightSix, #lightSeven, #lightEight, #lightNine, #lightTen, #lightEleven, #lightTwelve, #lightThirteen{
  opacity: 0;
  transition: opacity 0.5s ease-in-out;

  }
  #mouse:hover #lightOne{
  opacity: 1;
  }
  #mouse:hover #lightTwo{
  transition-delay: 0.2s;
  opacity: 1;
  }
  #mouse:hover #lightThree{
  transition-delay: 0.4s;
  opacity: 1;
  }
  #mouse:hover #lightFour{
  transition-delay: 0.6s;
  opacity: 1;
  }
  #mouse:hover #lightFive{
  transition-delay: 0.8s;
  opacity: 1;
  }
  #mouse:hover #lightSix{
  transition-delay: 1s;
  opacity: 1;
  }
  #mouse:hover #lightSeven{
  transition-delay: 1.2s;
  opacity: 1;
  }
  #mouse:hover #lightEight{
  transition-delay: 1.4s;
  opacity: 1;
  }
  #mouse:hover #lightNine{
  transition-delay: 1.6s;
  opacity: 1;
  }
  #mouse:hover #lightTen{
  transition-delay: 1.8s;
  opacity: 1;
  }
  #mouse:hover #lightEleven{
  transition-delay: 2s;
  opacity: 1;
  }
  #mouse:hover #lightTwelve{
  transition-delay: 2.2s;
  opacity: 1;
  }
  #mouse:hover #lightThirteen{
  transition-delay: 2.4s;
  opacity: 1;
  }

  #face, #hat{
  animation: headMove 3s infinite;
  transform-origin: center;
  }

  @keyframes headMove{
  0:{
  transform: rotateZ(0deg);
  }
  50%{
  transform: rotate(10deg);
  }
  100%{
  transform: rotateZ(0deg);
  }
  }
  
</style>
<title>mouse</title>
<g id="bg">

		<ellipse transform="matrix(0.7071 -0.7071 0.7071 0.7071 -37.4698 90.4598)" class="st0" cx="90.5" cy="90.5" rx="90.4" ry="90.5"/>
</g>
<g id="body">
	<g id="t-shirt">
		<g>
			<defs>
				<path id="SVGID_1_" d="M45.4,96c-1.3-0.3-2.6-0.8-3.8-1.5c-1.5-0.9-2.9-1.9-4.1-3.1c-0.8-0.8-2-0.8-2.8-0.1
					c-0.1,0.1-0.1,0.1-0.2,0.2l-2.8,3.2c-0.2,1.7-1.7,15.1,7.8,24.7c3.4,3.4,7.7,5.9,12.4,7.1c0.9,0.3,1.3,1.2,1.1,2
					c0,0.1-0.1,0.2-0.1,0.2c-2.8,6.1-4.5,12.5-5,19.2c-0.3,3.6,1.3,7.2,4.3,9.3c8,5.8,25.5,15.9,47.9,12.2
					c12.7-2.2,24.4-8.2,33.6-17.2c4-3.9,5.6-9.6,4.3-15c-1.8-7.4-4.7-14.5-8.8-21c-0.6-1-0.3-2.3,0.7-2.9c0.1-0.1,0.3-0.2,0.5-0.2
					c3.1-1,6.1-2.5,8.8-4.4c9.8-7,12.7-17.5,13.5-20.8c-1.8-1.8-3-4.1-3.5-6.6c-0.3-1.3-0.4-2.7-0.2-4.1c-6.7,1.1-13.1,3.8-18.6,7.8
					c-2.3,1.7-5.2,2.1-7.9,1.2l-9.7-3.4c-11.4,3.4-23.1,6.1-34.9,8c-0.8,0.1-4-0.7-6.9,0.3c-1.6,0.5-3.7,3.1-6,5.8
					c-1.9,2.2-2.8,3.3-3.8,3.5c-2.6,0.5-3.3-1.5-7.6-2.6C50.5,97.4,49.5,97,45.4,96z"/>
			</defs>
			<clipPath id="SVGID_2_">
				<use xlink:href="#SVGID_1_"  style="overflow:visible;"/>
			</clipPath>
			<g class="st1">

					<image style="overflow:visible;enable-background:new    ;" width="512" height="388" xlink:href="16C7B5DDF74A4BAD.png"  transform="matrix(0.24 0 0 0.24 29.92 77.4)">
				</image>
			</g>
		</g>
		<g id="pattern" class="st2">
			<g class="st3">
				<path class="st4" d="M117.7,88.4c0.9,0.6,1.9,1,3,1.2c0.7,0.2,1-0.9,0.3-1c-1-0.2-1.9-0.6-2.7-1.1c-0.3-0.2-0.6-0.1-0.7,0.2
					S117.5,88.3,117.7,88.4L117.7,88.4z"/>
			</g>
			<g class="st3">
				<path class="st4" d="M124.4,90.2c1.5,0.3,3,0.3,4.4,0c0.7-0.2,0.4-1.2-0.3-1c-1.3,0.3-2.6,0.3-3.9,0
					C124,89.1,123.7,90.1,124.4,90.2L124.4,90.2z"/>
			</g>
			<g class="st3">
				<path class="st4" d="M131.8,88.6c1.2-0.5,2.3-1.2,3.4-2.1c0.5-0.4-0.2-1.2-0.8-0.8c-1,0.8-2,1.4-3.1,1.9
					C130.6,88,131.1,88.9,131.8,88.6L131.8,88.6z"/>
			</g>
			<g class="st3">
				<path class="st4" d="M138.1,84.4l2.6-1.7c0.6-0.4,0-1.3-0.6-1l-2.6,1.7C137,83.8,137.6,84.8,138.1,84.4L138.1,84.4z"/>
			</g>
			<g class="st3">
				<path class="st4" d="M141,84.7c-0.1,1.4,0.4,2.7,1.4,3.7c0.5,0.5,1.3-0.3,0.8-0.8c-0.8-0.8-1.1-1.8-1.1-2.9
					C142.1,84,141,84,141,84.7L141,84.7z"/>
			</g>
			<g class="st3">
				<path class="st4" d="M144.7,90.2c1.2,0.9,2.7,1.2,4.2,1c0.7-0.1,0.4-1.2-0.3-1c-1.2,0.2-2.4-0.2-3.3-0.9
					C144.7,88.9,144.2,89.8,144.7,90.2L144.7,90.2z"/>
			</g>
			<g class="st3">
				<path class="st4" d="M147.3,92.7c-0.6,1.4-1.4,2.7-2.4,3.8c-0.5,0.5,0.3,1.3,0.8,0.8c1.1-1.2,2-2.5,2.6-4
					C148.5,92.6,147.5,92,147.3,92.7L147.3,92.7z"/>
			</g>
			<g class="st3">
				<path class="st4" d="M142,99.7l-1.9,1.8c-0.2,0.2-0.2,0.6,0,0.8c0.2,0.2,0.6,0.2,0.8,0l0,0l1.9-1.8
					C143.3,100,142.5,99.2,142,99.7L142,99.7z"/>
			</g>
			<g class="st3">
				<path class="st4" d="M137,104.6c-1.1,0.8-2.2,1.5-3.4,2.1c-0.6,0.3-0.1,1.2,0.6,0.9c1.3-0.6,2.5-1.4,3.6-2.2
					C138.3,104.9,137.6,104.2,137,104.6L137,104.6z"/>
			</g>
			<g class="st3">
				<path class="st4" d="M129.5,109.3l-3.1,1.5c-0.6,0.3-0.1,1.2,0.6,0.9l3.1-1.5C130.7,110,130.1,109.1,129.5,109.3L129.5,109.3z"
					/>
			</g>
			<g class="st3">
				<path class="st4" d="M125.5,113.4c-1,1.1-1.1,2.7-0.2,3.9c0.4,0.6,1.2-0.2,0.8-0.8c-0.5-0.7-0.5-1.7,0.2-2.3
					C126.7,113.6,126,112.9,125.5,113.4z"/>
			</g>
			<g class="st3">
				<path class="st4" d="M127.6,120.7l1.3,2.2c0.2,0.3,0.5,0.3,0.8,0.2c0.2-0.2,0.3-0.5,0.2-0.7l-1.3-2.2c-0.2-0.3-0.5-0.4-0.8-0.2
					S127.4,120.5,127.6,120.7L127.6,120.7L127.6,120.7z"/>
			</g>
			<g class="st3">
				<path class="st4" d="M130.5,125.7l1.6,3.9c0.2,0.6,1.3,0.4,1.1-0.3l-1.6-3.9C131.3,124.7,130.3,125,130.5,125.7z"/>
			</g>
			<g class="st3">
				<path class="st4" d="M133.8,134.4l0.7,2.4c0.1,0.3,0.4,0.4,0.7,0.4c0.3-0.1,0.4-0.4,0.4-0.6l-0.7-2.4c-0.2-0.3-0.5-0.3-0.7-0.2
					C134,134,133.9,134.2,133.8,134.4L133.8,134.4z"/>
			</g>
			<g class="st3">
				<path class="st4" d="M135,139.5c0.1,1,0.1,2-0.1,2.9c-0.1,0.7,0.9,1,1.1,0.3c0.2-1.1,0.3-2.1,0.2-3.2
					C136,138.8,134.9,138.8,135,139.5z"/>
			</g>
			<g class="st3">
				<path class="st4" d="M133.6,146.1c-0.3,1.1-1,2.1-1.9,2.8c-0.6,0.4,0,1.3,0.6,1c1.2-0.8,2.1-2,2.4-3.4c0.1-0.3-0.1-0.6-0.4-0.7
					C134,145.8,133.7,145.9,133.6,146.1L133.6,146.1z"/>
			</g>
			<g class="st3">
				<path class="st4" d="M127.8,153.1l-3.1,2.6c-0.5,0.4,0.2,1.2,0.8,0.8l3.1-2.6C129.1,153.4,128.4,152.7,127.8,153.1L127.8,153.1z
					"/>
			</g>
			<g class="st3">
				<path class="st4" d="M33.7,97.5c-0.1,0.7,0,1.4,0.2,2.1c0.2,0.7,1.3,0.4,1-0.3c-0.2-0.6-0.3-1.2-0.2-1.8c0-0.3-0.3-0.5-0.6-0.5
					C33.9,97.1,33.7,97.3,33.7,97.5L33.7,97.5z"/>
			</g>
			<g class="st3">
				<path class="st4" d="M34.3,102.5c0.1,1,0.4,2,0.7,3c0.2,0.7,1.3,0.4,1-0.3c-0.3-1-0.6-2-0.7-3.1
					C35.3,101.5,34.2,101.8,34.3,102.5L34.3,102.5z"/>
			</g>
			<g class="st3">
				<path class="st4" d="M36.2,108.8l1.3,2.6c0.3,0.6,1.3,0.1,0.9-0.6l-1.3-2.6C36.8,107.6,35.8,108.1,36.2,108.8z"/>
			</g>
			<g class="st3">
				<path class="st4" d="M39.1,114.3l1.9,2.4c0.4,0.6,1.2-0.2,0.8-0.8l-1.9-2.4C39.4,113,38.6,113.8,39.1,114.3L39.1,114.3z"/>
			</g>
			<g class="st3">
				<path class="st4" d="M43.8,119.4c0.8,0.3,1.6,0.8,2.3,1.3c0.5,0.4,1.3-0.3,0.8-0.8c-0.8-0.7-1.8-1.2-2.8-1.6
					C43.4,118,43.1,119.1,43.8,119.4z"/>
			</g>
			<g class="st3">
				<path class="st4" d="M48.9,122.7c0.9,0.4,1.9,0.7,2.9,0.8c0.7,0.1,1-1,0.3-1c-1-0.1-2-0.4-2.9-0.8
					C48.5,121.4,48.3,122.5,48.9,122.7L48.9,122.7z"/>
			</g>
			<g class="st3">
				<path class="st4" d="M54.8,124.9c0.6,0.5,1,1.1,1.1,1.9c0.1,0.3,0.4,0.5,0.7,0.4c0,0,0,0,0,0c0.3-0.1,0.5-0.4,0.4-0.7
					c-0.2-1-0.7-1.9-1.6-2.6C54.7,123.5,54.2,124.4,54.8,124.9L54.8,124.9z"/>
			</g>
			<g class="st3">
				<path class="st4" d="M55.3,129.7c-0.8,1-1.4,2.1-1.9,3.3c-0.2,0.7,0.8,0.9,1.1,0.3c0.4-1,0.9-2,1.5-2.8
					C56.4,130,55.7,129.2,55.3,129.7L55.3,129.7z"/>
			</g>
			<g class="st3">
				<path class="st4" d="M52.7,136.5l-1,2.9c-0.2,0.7,0.8,1,1,0.3l1-2.9C54,136.1,52.9,135.8,52.7,136.5z"/>
			</g>
			<g class="st3">
				<path class="st4" d="M51.2,142.9l-0.5,2.6c-0.1,0.7,0.9,1,1.1,0.3l0.4-2.6C52.4,142.5,51.4,142.2,51.2,142.9L51.2,142.9z"/>
			</g>
			<g class="st3">
				<path class="st4" d="M50.7,148.5v2.4c0,0.3,0.3,0.5,0.6,0.5c0.2,0,0.4-0.2,0.5-0.5v-2.4c0-0.3-0.3-0.5-0.6-0.5
					C51,148,50.8,148.2,50.7,148.5z"/>
			</g>
			<g class="st3">
				<path class="st4" d="M52.5,153.8l1.8,1.3c0.3,0.2,0.6,0.1,0.8-0.2c0.1-0.3,0.1-0.6-0.2-0.7l-1.8-1.3c-0.3-0.2-0.6-0.1-0.7,0.2
					c0,0,0,0,0,0C52.2,153.3,52.3,153.6,52.5,153.8z"/>
			</g>
			<g class="st3">
				<path class="st4" d="M35.2,96.1c0.6-0.1,1.1-0.5,1.5-1.1c0.4-0.6-0.6-1.2-0.9-0.6c-0.2,0.3-0.5,0.5-0.8,0.6
					c-0.3,0.1-0.4,0.4-0.4,0.7C34.7,96,35,96.1,35.2,96.1L35.2,96.1z"/>
			</g>
			<g class="st3">
				<path class="st4" d="M38.2,96.2c0.7,0.7,1.4,1.3,2.3,1.8c0.3,0.2,0.6,0.1,0.7-0.2c0.2-0.3,0.1-0.6-0.2-0.7
					c-0.8-0.4-1.5-1-2.1-1.6C38.5,94.9,37.7,95.7,38.2,96.2z"/>
			</g>
			<g class="st3">
				<path class="st4" d="M44.2,99.3l3.3,0.5c0.7,0.1,1-1,0.3-1.1l-3.3-0.5C43.8,98.2,43.5,99.2,44.2,99.3L44.2,99.3z"/>
			</g>
			<g class="st3">
				<path class="st4" d="M51.4,101.1c1.3,0.3,2.6,0.7,3.8,1.4c0.6,0.3,1.2-0.6,0.5-0.9c-1.2-0.7-2.6-1.2-4-1.5
					C51,99.9,50.7,100.9,51.4,101.1L51.4,101.1z"/>
			</g>
			<g class="st3">
				<path class="st4" d="M57.6,103.8c1.7,1,3.9,0.7,5.3-0.7c0.5-0.5-0.3-1.3-0.8-0.8c-1.1,1-2.7,1.3-4,0.6
					C57.6,102.5,57,103.5,57.6,103.8L57.6,103.8z"/>
			</g>
			<g class="st3">
				<path class="st4" d="M68.5,96.8l-2.4,3.3c-0.4,0.6,0.5,1.1,1,0.6l2.4-3.3C69.9,96.8,68.9,96.2,68.5,96.8z"/>
			</g>
			<g class="st3">
				<path class="st4" d="M56.8,156.9l3.8,2.7c0.6,0.4,1.1-0.5,0.5-0.9l-3.8-2.7C56.8,155.5,56.2,156.4,56.8,156.9z"/>
			</g>
			<g class="st3">
				<path class="st4" d="M65.9,161.6l4.1,1.4c0.7,0.2,0.9-0.8,0.3-1.1l-4.1-1.4C65.5,160.3,65.2,161.4,65.9,161.6L65.9,161.6z"/>
			</g>
			<g class="st3">
				<path class="st4" d="M74.8,165.1c1.9,0.5,3.9,0.7,5.9,0.7c0.3,0,0.5-0.3,0.5-0.6c0-0.2-0.2-0.4-0.5-0.5c-1.9,0-3.8-0.3-5.7-0.7
					C74.4,163.9,74.1,165,74.8,165.1z"/>
			</g>
			<g class="st3">
				<path class="st4" d="M116.6,161.2c1.5-0.3,3-0.9,4.2-1.7c0.6-0.4,0-1.3-0.6-0.9c-1.2,0.8-2.6,1.3-4,1.6
					C115.6,160.3,115.9,161.4,116.6,161.2L116.6,161.2z"/>
			</g>
			<g class="st3">
				<path class="st4" d="M109.1,164.8l4.3-1.6c0.7-0.2,0.4-1.3-0.3-1l-4.3,1.6C108.1,164,108.4,165,109.1,164.8L109.1,164.8z"/>
			</g>
			<g class="st3">
				<path class="st4" d="M101.6,166.3c1,0.1,2-0.2,2.9-0.7c0.3-0.2,0.3-0.5,0.2-0.7c-0.2-0.3-0.5-0.3-0.7-0.2
					c-0.7,0.4-1.5,0.6-2.3,0.5C100.9,165.2,100.9,166.2,101.6,166.3L101.6,166.3z"/>
			</g>
			<g class="st3">
				<path class="st4" d="M93.9,167.4h2.9c0.3,0,0.6-0.2,0.6-0.6s-0.2-0.6-0.6-0.6h-2.9c-0.3,0-0.6,0.2-0.6,0.6
					S93.6,167.4,93.9,167.4L93.9,167.4z"/>
			</g>
			<g class="st3">
				<path class="st4" d="M85,167.2c1.4,0.3,2.8,0.4,4.2,0.2c0.7-0.1,0.7-1.2,0-1.1c-1.3,0.2-2.6,0.1-3.9-0.2
					C84.6,166,84.3,167.1,85,167.2L85,167.2z"/>
			</g>
		</g>
	</g>
	<path class="st5" d="M33.7,93.2c-3,2.6-7.9,1.8-11.1-1.8s-3.3-8.6-0.3-11.2c0.3-0.3,0.6-0.5,0.9-0.7c0.7-0.4,1.5-0.7,2.3-0.8
		c-0.4-1.9-0.2-3.7,1.1-3.9c0.9-0.2,2.5-0.2,4.4,2.8c0.7,1.2,1.3,2.4,1.8,3.7c0.2,0.2,0.4,0.4,0.6,0.7
		C36.5,85.6,36.7,90.6,33.7,93.2z"/>
	<path class="st0" d="M29.5,95.8c-3-0.1-5.8-1.4-7.7-3.7c-3.5-4-3.6-9.8-0.2-12.8c0.3-0.3,0.7-0.6,1.1-0.8c0.5-0.3,1-0.5,1.6-0.7
		c-0.2-1.1,0-2.1,0.5-3.1c0.4-0.6,0.9-0.9,1.6-1.1c2-0.4,3.8,0.7,5.5,3.3c0.7,1.2,1.3,2.4,1.8,3.6c0.2,0.2,0.3,0.3,0.5,0.6
		c1.7,1.8,2.6,4.2,2.7,6.7c0.1,2.3-0.8,4.5-2.5,6.1l0,0C33,95.3,31.3,95.9,29.5,95.8z M27.2,75.8c-0.1,0-0.2,0-0.4,0
		c0,0-0.1,0-0.2,0.1c-0.3,0.8-0.3,1.7-0.1,2.5l0.3,1.2l-1.2,0.2c-0.7,0.1-1.3,0.3-1.9,0.6c-0.3,0.2-0.5,0.3-0.8,0.6
		c-2.5,2.2-2.3,6.5,0.4,9.7s7,3.9,9.5,1.7l0,0c1.2-1.1,1.9-2.7,1.8-4.3c-0.1-2-0.9-3.8-2.2-5.3c-0.2-0.2-0.4-0.4-0.6-0.6L31.8,82
		l-0.1-0.2c-0.5-1.2-1-2.4-1.7-3.5C28.7,76.2,27.7,75.9,27.2,75.8L27.2,75.8z"/>
	<path class="st5" d="M156.7,85.9c-3.8,2.9-8.8,2.7-11.2-0.5s-1.2-8,2.6-10.9c0.2-0.2,0.5-0.4,0.8-0.5c0.7-1.1,1.6-2.2,2.5-3.2
		c2.5-2.6,4-2.3,4.8-1.9c1.2,0.5,1.1,2.3,0.3,4.1c0.8,0.3,1.5,0.7,2.1,1.2c0.3,0.3,0.6,0.5,0.8,0.8C161.6,78.1,160.5,83,156.7,85.9z
		"/>
	<path class="st0" d="M150.9,89c-4.1,0.2-7.6-2.9-7.8-7c0-0.8,0-1.6,0.3-2.4c0.6-2.4,2-4.5,4-6l0.6-0.4c0.7-1.1,1.6-2.2,2.5-3.2
		c2.2-2.3,4.1-3,6-2.2c0.6,0.3,1.1,0.7,1.3,1.4c0.3,1,0.3,2.1-0.1,3.1c0.5,0.3,1,0.6,1.4,1c0.3,0.3,0.7,0.6,0.9,1
		c2.7,3.6,1.5,9.2-2.8,12.4l0,0C155.5,88.2,153.2,89,150.9,89z M155,69.7c-0.6,0-1.5,0.3-3,1.8c-0.9,0.9-1.7,2-2.3,3.1l-0.1,0.2
		l-0.2,0.1c-0.2,0.2-0.5,0.3-0.7,0.5c-1.6,1.2-2.7,2.8-3.2,4.7c-0.4,1.6-0.1,3.3,0.9,4.7c2,2.7,6.4,2.8,9.7,0.3s4.4-6.7,2.3-9.4
		c-0.2-0.3-0.4-0.5-0.6-0.7c-0.5-0.4-1.1-0.8-1.7-1l-1.1-0.4l0.5-1.1c0.4-0.8,0.6-1.6,0.4-2.5c-0.1-0.1-0.1-0.1-0.1-0.2
		C155.5,69.8,155.2,69.7,155,69.7z"/>
</g>
<g id="lights">
	<g id="wire">
		<path class="st6" d="M90.5,179.4c-38.8,0-70.3-31.5-70.4-70.4c0-13.7,7.2-25.4,13.6-35.8c0.3-0.5,1-0.7,1.5-0.4c0,0,0,0,0,0
			c0.5,0.3,0.7,1,0.4,1.5C29.4,84.4,22.3,95.9,22.3,109c0,37.6,30.5,68.2,68.2,68.2s68.2-30.5,68.2-68.2c0-13.4-4.8-25.6-15.7-39.7
			c-0.4-0.5-0.3-1.2,0.2-1.5c0.5-0.4,1.2-0.3,1.5,0.2c7.5,9.8,16.1,23.2,16.1,41C160.8,147.8,129.3,179.3,90.5,179.4z"/>
		<path class="st6" d="M18.8,102.2l0.2-0.9c0.1-0.4,0.5-0.7,1-0.6l0.9,0.2c0.4,0.1,0.7,0.5,0.6,1l-0.2,0.9c-0.1,0.4-0.5,0.7-1,0.6
			l-0.9-0.2C19,103,18.8,102.6,18.8,102.2z"/>
		<path class="st6" d="M19.6,116.7l0.9-0.1c0.4,0,0.8,0.3,0.9,0.7l0.1,0.9c0,0.4-0.3,0.8-0.7,0.9l-0.9,0.1c-0.4,0-0.8-0.3-0.9-0.7
			l-0.1-0.9C18.9,117.1,19.2,116.7,19.6,116.7z"/>
		<path class="st6" d="M23.8,135.2l0.8-0.3c0.4-0.2,0.9,0,1.1,0.5l0.3,0.8c0.2,0.4,0,0.9-0.5,1.1l-0.8,0.3c-0.4,0.2-0.9,0-1.1-0.5
			l-0.3-0.8C23.2,135.8,23.4,135.4,23.8,135.2z"/>
		<path class="st6" d="M34.4,153.2l0.7-0.5c0.4-0.3,0.9-0.2,1.1,0.2l0.5,0.7c0.3,0.4,0.2,0.9-0.2,1.1l-0.7,0.5
			c-0.4,0.3-0.9,0.2-1.1-0.2l-0.5-0.7C34,154,34.1,153.5,34.4,153.2z"/>
		<path class="st6" d="M50.2,167.4l0.5-0.8c0.2-0.4,0.7-0.5,1.1-0.3l0.8,0.5c0.4,0.2,0.5,0.7,0.3,1.1l-0.5,0.8
			c-0.2,0.4-0.7,0.5-1.1,0.3l-0.8-0.5C50.1,168.3,50,167.8,50.2,167.4z"/>
		<path class="st6" d="M72.6,177.8l0.3-0.9c0.1-0.4,0.6-0.7,1-0.5l0.9,0.3c0.4,0.1,0.7,0.6,0.5,1l-0.3,0.9c-0.1,0.4-0.6,0.7-1,0.5
			l-0.9-0.3C72.7,178.7,72.5,178.2,72.6,177.8z"/>
		<path class="st6" d="M96.2,178.2l0.9-0.1c0.4-0.1,0.8,0.3,0.9,0.7l0.1,0.9c0.1,0.4-0.3,0.8-0.7,0.9l-0.9,0.1
			c-0.4,0.1-0.8-0.3-0.9-0.7l-0.1-0.9C95.5,178.7,95.8,178.3,96.2,178.2z"/>
		<path class="st6" d="M118.1,172.8l0.8-0.4c0.4-0.2,0.9,0,1.1,0.4l0.4,0.8c0.2,0.4,0,0.9-0.4,1.1l-0.8,0.4c-0.4,0.2-0.9,0-1.1-0.4
			l-0.4-0.8C117.5,173.4,117.7,173,118.1,172.8z"/>
		<path class="st6" d="M133.4,163.9l0.7-0.5c0.4-0.3,0.9-0.2,1.1,0.2l0.5,0.7c0.3,0.4,0.2,0.9-0.2,1.1l-0.7,0.5
			c-0.4,0.3-0.9,0.2-1.1-0.2l-0.5-0.7C132.9,164.7,133,164.2,133.4,163.9z"/>
		<path class="st6" d="M144.8,152.6l0.6-0.7c0.3-0.4,0.8-0.4,1.1-0.1l0.7,0.6c0.4,0.3,0.4,0.8,0.1,1.1l-0.6,0.7
			c-0.3,0.4-0.8,0.4-1.1,0.1l-0.7-0.6C144.6,153.5,144.5,153,144.8,152.6z"/>
		<path class="st6" d="M154.4,136.1l0.3-0.8c0.2-0.4,0.6-0.6,1.1-0.4l0.8,0.3c0.4,0.2,0.6,0.6,0.4,1.1l-0.3,0.8
			c-0.2,0.4-0.6,0.6-1.1,0.4l-0.8-0.3C154.4,136.9,154.3,136.5,154.4,136.1z"/>
		<path class="st6" d="M159.2,118.3l0-0.9c0-0.4,0.4-0.8,0.8-0.8l0.9,0c0.4,0,0.8,0.4,0.8,0.8l0,0.9c0,0.4-0.4,0.8-0.8,0.8l-0.9,0
			C159.6,119.2,159.2,118.8,159.2,118.3z"/>
		<path class="st6" d="M160.1,99.6l0.9-0.2c0.4-0.1,0.9,0.1,1,0.6l0.2,0.9c0.1,0.4-0.1,0.9-0.6,1l-0.9,0.2c-0.4,0.1-0.9-0.1-1-0.6
			l-0.2-0.9C159.5,100.2,159.7,99.7,160.1,99.6z"/>
	</g>
	<circle class="st7" cx="15.7" cy="101.3" r="4"/>
	<circle class="st8" cx="15.7" cy="117.9" r="4"/>
	<circle class="st9" cx="20.8" cy="137.8" r="4"/>
	<circle class="st8" cx="31.9" cy="156.4" r="4"/>
	<circle class="st7" cx="49" cy="171.6" r="4"/>
	<circle class="st8" cx="72.7" cy="181.9" r="4"/>
	<circle class="st9" cx="97.6" cy="183.6" r="4"/>
	<circle class="st8" cx="120.6" cy="177.8" r="4"/>
	<circle class="st7" cx="137" cy="167.9" r="4"/>
	<circle class="st8" cx="149.7" cy="155.9" r="4"/>
	<circle class="st9" cx="160.1" cy="137.9" r="4"/>
	<circle class="st8" cx="165" cy="118.3" r="4"/>
	<circle class="st7" cx="165" cy="100.1" r="4"/>
	<g id="highlights">
		<g class="st10">
			<circle class="st11" cx="15.7" cy="102.1" r="2.7"/>
		</g>
		<g class="st12">
			<circle class="st11" cx="15.7" cy="118.8" r="2.7"/>
		</g>
		<g class="st13">
			<circle class="st11" cx="21.2" cy="139.1" r="2.7"/>
		</g>
		<g class="st12">
			<circle class="st11" cx="31.9" cy="156.8" r="2.7"/>
		</g>
		<g class="st14">
			<circle class="st11" cx="48.9" cy="171.9" r="2.7"/>
		</g>
		<g class="st12">
			<circle class="st11" cx="72.7" cy="181.9" r="2.7"/>
		</g>
		<g class="st12">
			<circle class="st11" cx="97.6" cy="183.6" r="2.7"/>
		</g>
		<g class="st12">
			<circle class="st11" cx="120.8" cy="177.8" r="2.7"/>
		</g>
		<g class="st15">
			<circle class="st11" cx="137.8" cy="167.7" r="2.7"/>
		</g>
		<g class="st12">
			<circle class="st11" cx="149.7" cy="154.6" r="2.7"/>
		</g>
		<g class="st12">
			<circle class="st11" cx="161" cy="136.6" r="2.7"/>
		</g>
		<g class="st12">
			<circle class="st11" cx="165" cy="116.9" r="2.7"/>
		</g>
		<g class="st10">
			<circle class="st11" cx="165" cy="98.8" r="2.7"/>
		</g>
	</g>
</g>
<g id="face">
	<g id="left_ear">
		<circle class="st16" cx="56" cy="56.9" r="17.6"/>
		<circle class="st17" cx="57.7" cy="57.3" r="8.2"/>
	</g>
	<g id="right_ear">
		<circle class="st16" cx="117.3" cy="46.4" r="16.2"/>
		<circle class="st17" cx="114.7" cy="47.4" r="8.2"/>
	</g>
	<g id="face-skin">
		<path class="st16" d="M114.7,54.8c10.2,29.5-9.6,51.4-18.2,53.8c-9.4,2.6-32.5-6.6-38.5-38.8c-2.6-14.1,7-24.7,24.2-27.7
			C99.9,39.1,110.1,41.6,114.7,54.8z"/>
	</g>
	<g id="face-skin-2">
		<path class="st18" d="M116,53.5c10.2,29.5-9.6,51.4-18.2,53.8c-9.4,2.6-32.6-6.6-38.5-38.8c-2.6-14.1,7-24.7,24.2-27.7
			C101.3,37.8,111.4,40.3,116,53.5z"/>
	</g>
	<g id="face-skin-3" class="st19">
		<g>
			<defs>
				<path id="SVGID_3_" d="M116,53.5c10.2,29.5-9.6,51.4-18.2,53.8c-9.4,2.6-32.6-6.6-38.5-38.8c-2.6-14.1,7-24.7,24.2-27.7
					C101.3,37.8,111.4,40.3,116,53.5z"/>
			</defs>
			<clipPath id="SVGID_4_">
				<use xlink:href="#SVGID_3_"  style="overflow:visible;"/>
			</clipPath>
			<g class="st20">

					<image style="overflow:visible;enable-background:new    ;" width="260" height="309" xlink:href="16C7B5DDF74A4BB3.png"  transform="matrix(0.24 0 0 0.24 58 38.76)">
				</image>
			</g>
		</g>
	</g>
	<g class="st21">

			<ellipse transform="matrix(0.9972 -7.497873e-02 7.497873e-02 0.9972 -5.5564 8.5585)" class="st22" cx="111.2" cy="78.3" rx="3.7" ry="2.9"/>
	</g>
	<g class="st21">

			<ellipse transform="matrix(0.9972 -7.497873e-02 7.497873e-02 0.9972 -5.9643 5.6175)" class="st22" cx="71.8" cy="82.2" rx="3.7" ry="2.9"/>
	</g>
	<g id="nose">
		<ellipse transform="matrix(0.9916 -0.129 0.129 0.9916 -12.9643 13.1705)" class="st0" cx="95.2" cy="106.7" rx="4.8" ry="4.1"/>
	</g>
	<g class="st23">
		<defs>
			<filter id="Adobe_OpacityMaskFilter" filterUnits="userSpaceOnUse" x="88.9" y="102.7" width="12.7" height="10.1">
				<feFlood  style="flood-color:white;flood-opacity:1" result="back"/>
				<feBlend  in="SourceGraphic" in2="back" mode="normal"/>
			</filter>
		</defs>
		<mask maskUnits="userSpaceOnUse" x="88.9" y="102.7" width="12.7" height="10.1" id="SVGID_5_">
			<g class="st24">

					<image style="overflow:visible;" width="18" height="16" xlink:href="16C7B5DDF74A4BB4.jpg"  transform="matrix(1 0 0 1 86 99.79)">
				</image>
			</g>
		</mask>
		<g class="st25">
			<g>
				<g>
					<ellipse class="st26" cx="95.2" cy="107.8" rx="6.3" ry="5.1"/>
				</g>
			</g>
		</g>
	</g>
	<g id="left_eye">
		<circle class="st27" cx="77.1" cy="74.3" r="4.5"/>
		<circle class="st28" cx="77.1" cy="74.3" r="2.9"/>
		<g class="st29">
			<circle class="st30" cx="78.5" cy="73" r="1.5"/>
		</g>
		<g class="st31">
			<circle class="st32" cx="79.4" cy="75" r="0.6"/>
		</g>
	</g>
	<g id="left_eye-2">
		<circle class="st27" cx="104.3" cy="71.5" r="4.5"/>
		<circle class="st28" cx="104.3" cy="71.5" r="2.9"/>
		<g class="st29">
			<circle class="st30" cx="105.7" cy="70.2" r="1.5"/>
		</g>
		<g class="st31">
			<circle class="st32" cx="106.6" cy="72.1" r="0.6"/>
		</g>
	</g>
	<g id="eyebrows">
		<g id="eyebrow_left">
			<path class="st0" d="M71.4,62.4c0.9,1.4,1.7,2.8,2.4,4.3c0.3,0.6,1.3,0.1,1-0.6c-0.7-1.5-1.5-2.9-2.4-4.3
				C71.9,61.3,71,61.9,71.4,62.4L71.4,62.4z"/>
			<path class="st0" d="M74.7,62.8l1.8,3.9c0.3,0.6,1.2,0.1,1-0.6l-1.8-3.9C75.3,61.7,74.4,62.2,74.7,62.8z"/>
			<path class="st0" d="M78.2,63.6l1.2,3.5c0.2,0.7,1.3,0.4,1-0.3l-1.2-3.5C79,62.6,77.9,62.9,78.2,63.6L78.2,63.6z"/>
		</g>
		<g id="eyebrow_right">
			<path class="st0" d="M100.8,62.1v2.6c0,0.3,0.2,0.5,0.6,0.5c0.3,0,0.5-0.2,0.5-0.5v-2.6c0-0.3-0.2-0.5-0.6-0.5
				C101,61.6,100.8,61.8,100.8,62.1z"/>
			<path class="st0" d="M103.8,61.1l-0.8,3.1c-0.1,0.3,0.1,0.6,0.4,0.7c0.3,0.1,0.6-0.1,0.6-0.4l0.8-3.1
				C105,60.7,103.9,60.4,103.8,61.1L103.8,61.1z"/>
			<path class="st0" d="M106.6,60.5l-1.3,3c-0.3,0.6,0.7,1.2,0.9,0.6l1.3-3C107.8,60.5,106.8,59.9,106.6,60.5z"/>
		</g>
	</g>
	<g id="whiskers">
		<g id="left">
			<path class="st0" d="M78.6,102l-4,6.2c-0.4,0.6,0.6,1.1,1,0.6l4-6.2C80,102,79.1,101.4,78.6,102L78.6,102z"/>
			<path class="st0" d="M80.8,102.8l-3.5,5.8c-0.2,0.3-0.1,0.6,0.2,0.7s0.6,0.1,0.7-0.2l3.5-5.8c0.1-0.3,0-0.6-0.3-0.7
				C81.2,102.6,81,102.6,80.8,102.8z"/>
			<path class="st0" d="M83.3,104.1l-3,6.7c-0.3,0.6,0.7,1.2,0.9,0.6l3-6.7C84.5,104,83.6,103.4,83.3,104.1z"/>
		</g>
		<g id="right">
			<path class="st0" d="M105.7,101.9l5.2,5.1c0.5,0.5,1.3-0.3,0.8-0.8l-5.1-5.1C105.9,100.7,105.2,101.5,105.7,101.9z"/>
			<path class="st0" d="M107.6,99.8c1.7,1.5,3.3,3.2,4.7,5.1c0.4,0.6,1.4,0,1-0.6c-1.4-1.9-3.1-3.7-4.9-5.3
				C107.8,98.5,107,99.3,107.6,99.8L107.6,99.8z"/>
			<path class="st0" d="M110.1,98.4l4,4.1c0.5,0.5,1.3-0.3,0.8-0.8l-4-4.1C110.4,97.2,109.6,97.9,110.1,98.4L110.1,98.4z"/>
		</g>
	</g>
</g>
<g id="hat">
	<path class="st33" d="M104.6,47.2L104.6,47.2c-1.2,5.5-7.7,9.3-15.7,9.3c-5.3,0-10.1-1.9-13-4.8c-1-1-1.8-2.2-2.4-3.5
		c-0.1-0.3-0.2-0.5-0.3-0.8l0,0c-0.2-0.6-0.2-1.2-0.2-1.8l0,0c0.1-0.5,0.2-1,0.3-1.5l0.7-1.9l0.3-0.8l0.9-2.4l0.1-0.2l0.3-0.8
		l1.7-4.7l0.3-0.8l0.9-2.5l0.7-1.9l1.3-3.7l0.7-1.9l0.6-1.7l1-2.6l1.1-3.2l1-2.8L87.1,7c0.3-0.7,1-1,1.7-0.8
		c0.4,0.1,0.6,0.4,0.8,0.8l1.3,3.3l0.9,2.3l1.2,3.2l0.9,2.3l0.2,0.5l0,0l0.6,1.5l1.6,4l0.6,1.5l0.3,0.9l0.2,0.6l1.9,5l0,0l0.2,0.7
		l1,2.5l0.2,0.6l0.8,2.1l1.2,2.8l0.2,0.6l0.7,1.7l0.6,1.4C104.7,45.4,104.8,46.4,104.6,47.2z"/>
	<g class="st34">
		<path class="st35" d="M78,51.8c-1-1-1.8-2.2-2.4-3.5c-0.1-0.3-0.2-0.5-0.3-0.8l0,0c-0.2-0.6-0.2-1.2-0.2-1.8l0,0
			c0.1-0.5,0.2-1,0.3-1.5l0.7-1.9l0.3-0.8l0.9-2.4l0.1-0.2l0.3-0.8l1.7-4.7l0.3-0.8l0.9-2.5l0.7-1.9l1.3-3.7l0.7-1.9l0.6-1.7l1-2.6
			l1.1-3.2l1-2.8L89.1,7c0.1-0.2,0.2-0.3,0.3-0.4C88.8,6,88,6,87.4,6.5c-0.2,0.1-0.3,0.3-0.4,0.5l-1.9,5.2l-1,2.8L83,18.2l-1,2.6
			l-0.6,1.7l-0.7,1.9l-1.3,3.7L78.7,30l-0.9,2.5l-0.3,0.8L75.7,38l-0.3,0.8L75.3,39l-0.9,2.4l-0.3,0.8l-0.7,1.9
			c-0.2,0.5-0.3,1-0.3,1.5l0,0c-0.1,0.6,0,1.2,0.2,1.8l0,0c0.1,0.3,0.2,0.5,0.3,0.8c0.6,1.3,1.4,2.6,2.4,3.6c2.9,2.9,7.6,4.8,13,4.8
			c0.4,0,0.8,0,1.2,0C85.7,56.6,81.3,54.8,78,51.8z"/>
	</g>
	<g class="st36">
		<g>
			<defs>
				<path id="SVGID_6_" d="M104.6,47.2L104.6,47.2c-1.2,5.5-7.7,9.3-15.7,9.3c-5.3,0-10.1-1.9-13-4.8c-1-1-1.8-2.2-2.4-3.5
					c-0.1-0.3-0.2-0.5-0.3-0.8l0,0c-0.2-0.6-0.2-1.2-0.2-1.8l0,0c0.1-0.5,0.2-1,0.3-1.5l0.7-1.9l0.3-0.8l0.9-2.4l0.1-0.2l0.3-0.8
					l1.7-4.7l0.3-0.8l0.9-2.5l0.7-1.9l1.3-3.7l0.7-1.9l0.6-1.7l1-2.6l1.1-3.2l1-2.8l3.1-8.5l2.6,6.7l0.9,2.3l1.3,3.2l0.9,2.3
					l0.2,0.5l0,0l0.6,1.5l1.6,4l0.6,1.5l0.3,0.9l0.2,0.6l1.9,5l0,0l0.2,0.7l1,2.5l0.2,0.6l0.8,2.1l1.2,2.8l0.2,0.6l0.7,1.7l0.6,1.4
					C104.7,45.4,104.8,46.4,104.6,47.2z"/>
			</defs>
			<clipPath id="SVGID_7_">
				<use xlink:href="#SVGID_6_"  style="overflow:visible;"/>
			</clipPath>
			<g class="st37">
				<defs>
					<filter id="Adobe_OpacityMaskFilter_1_" filterUnits="userSpaceOnUse" x="60.4" y="12.4" width="68" height="68">
						<feFlood  style="flood-color:white;flood-opacity:1" result="back"/>
						<feBlend  in="SourceGraphic" in2="back" mode="normal"/>
					</filter>
				</defs>
				<mask maskUnits="userSpaceOnUse" x="60.4" y="12.4" width="68" height="68" id="SVGID_8_">
					<g class="st38">

							<image style="overflow:visible;" width="73" height="73" xlink:href="16C7B5DDF74A4BB7.jpg"  transform="matrix(1 0 0 1 58 9.79)">
						</image>
					</g>
				</mask>
				<g class="st39">
					<g>
						<g>
							<g>
								<circle class="st40" cx="94.4" cy="46.4" r="34"/>
							</g>
						</g>
					</g>
				</g>
			</g>
		</g>
	</g>
</g>
<g id="lightThirteen" class="st41">
	<defs>
		<filter id="Adobe_OpacityMaskFilter_2_" filterUnits="userSpaceOnUse" x="156.9" y="91.4" width="16.3" height="16.3">
			<feFlood  style="flood-color:white;flood-opacity:1" result="back"/>
			<feBlend  in="SourceGraphic" in2="back" mode="normal"/>
		</filter>
	</defs>
	<mask maskUnits="userSpaceOnUse" x="156.9" y="91.4" width="16.3" height="16.3" id="SVGID_9_">
		<g class="st42">

				<image style="overflow:visible;" width="22" height="21" xlink:href="16C7B5DDF74A4BBB.jpg"  transform="matrix(1 0 0 1 154 88.79)">
			</image>
		</g>
	</mask>
	<g class="st43">
		<g>
			<g>
				<circle class="st44" cx="165" cy="99.5" r="8.2"/>
			</g>
		</g>
	</g>
</g>
<g id="lightTwelve" class="st41">
	<defs>
		<filter id="Adobe_OpacityMaskFilter_3_" filterUnits="userSpaceOnUse" x="156.9" y="110.2" width="16.3" height="16.3">
			<feFlood  style="flood-color:white;flood-opacity:1" result="back"/>
			<feBlend  in="SourceGraphic" in2="back" mode="normal"/>
		</filter>
	</defs>
	<mask maskUnits="userSpaceOnUse" x="156.9" y="110.2" width="16.3" height="16.3" id="SVGID_10_">
		<g class="st45">

				<image style="overflow:visible;" width="22" height="21" xlink:href="16C7B5DDF74A4BBF.jpg"  transform="matrix(1 0 0 1 154 107.79)">
			</image>
		</g>
	</mask>
	<g class="st46">
		<g>
			<g>
				<circle class="st47" cx="165" cy="118.3" r="8.2"/>
			</g>
		</g>
	</g>
</g>
<g id="lightEleven" class="st41">
	<defs>
		<filter id="Adobe_OpacityMaskFilter_4_" filterUnits="userSpaceOnUse" x="151.9" y="129.9" width="16.3" height="16.3">
			<feFlood  style="flood-color:white;flood-opacity:1" result="back"/>
			<feBlend  in="SourceGraphic" in2="back" mode="normal"/>
		</filter>
	</defs>
	<mask maskUnits="userSpaceOnUse" x="151.9" y="129.9" width="16.3" height="16.3" id="SVGID_11_">
		<g class="st48">

				<image style="overflow:visible;" width="22" height="21" xlink:href="16C7B5DDF74A4BB9.jpg"  transform="matrix(1 0 0 1 149 127.79)">
			</image>
		</g>
	</mask>
	<g class="st49">
		<g>
			<g>
				<circle class="st50" cx="160.1" cy="138.1" r="8.2"/>
			</g>
		</g>
	</g>
</g>
<g id="lightTen" class="st41">
	<defs>
		<filter id="Adobe_OpacityMaskFilter_5_" filterUnits="userSpaceOnUse" x="141.5" y="147.7" width="16.3" height="16.3">
			<feFlood  style="flood-color:white;flood-opacity:1" result="back"/>
			<feBlend  in="SourceGraphic" in2="back" mode="normal"/>
		</filter>
	</defs>
	<mask maskUnits="userSpaceOnUse" x="141.5" y="147.7" width="16.3" height="16.3" id="SVGID_12_">
		<g class="st51">

				<image style="overflow:visible;" width="21" height="22" xlink:href="16C7B5DDF74A4BBA.jpg"  transform="matrix(1 0 0 1 139 144.79)">
			</image>
		</g>
	</mask>
	<g class="st52">
		<g>
			<g>
				<circle class="st47" cx="149.7" cy="155.9" r="8.2"/>
			</g>
		</g>
	</g>
</g>
<g id="lightNine" class="st41">
	<defs>
		<filter id="Adobe_OpacityMaskFilter_6_" filterUnits="userSpaceOnUse" x="129.2" y="160.3" width="16.3" height="16.3">
			<feFlood  style="flood-color:white;flood-opacity:1" result="back"/>
			<feBlend  in="SourceGraphic" in2="back" mode="normal"/>
		</filter>
	</defs>
	<mask maskUnits="userSpaceOnUse" x="129.2" y="160.3" width="16.3" height="16.3" id="SVGID_13_">
		<g class="st53">

				<image style="overflow:visible;" width="21" height="21" xlink:href="16C7B5DDF74A4BB8.jpg"  transform="matrix(1 0 0 1 127 157.79)">
			</image>
		</g>
	</mask>
	<g class="st54">
		<g>
			<g>
				<circle class="st44" cx="137.4" cy="168.4" r="8.2"/>
			</g>
		</g>
	</g>
</g>
<g id="lightEight" class="st41">
	<defs>
		<filter id="Adobe_OpacityMaskFilter_7_" filterUnits="userSpaceOnUse" x="112.7" y="169.8" width="16.3" height="16.3">
			<feFlood  style="flood-color:white;flood-opacity:1" result="back"/>
			<feBlend  in="SourceGraphic" in2="back" mode="normal"/>
		</filter>
	</defs>
	<mask maskUnits="userSpaceOnUse" x="112.7" y="169.8" width="16.3" height="16.3" id="SVGID_14_">
		<g class="st55">

				<image style="overflow:visible;" width="22" height="21" xlink:href="4ADD4914BDBCF076.jpg"  transform="matrix(1 0 0 1 110 167.79)">
			</image>
		</g>
	</mask>
	<g class="st56">
		<g>
			<g>
				<circle class="st47" cx="120.9" cy="178" r="8.2"/>
			</g>
		</g>
	</g>
</g>
<g id="lightSeven" class="st41">
	<defs>
		<filter id="Adobe_OpacityMaskFilter_8_" filterUnits="userSpaceOnUse" x="89.4" y="175.5" width="16.3" height="16.3">
			<feFlood  style="flood-color:white;flood-opacity:1" result="back"/>
			<feBlend  in="SourceGraphic" in2="back" mode="normal"/>
		</filter>
	</defs>
	<mask maskUnits="userSpaceOnUse" x="89.4" y="175.5" width="16.3" height="16.3" id="SVGID_15_">
		<g class="st57">

				<image style="overflow:visible;" width="21" height="21" xlink:href="4ADD4914BDBCF072.jpg"  transform="matrix(1 0 0 1 87 172.79)">
			</image>
		</g>
	</mask>
	<g class="st58">
		<g>
			<g>
				<circle class="st50" cx="97.6" cy="183.6" r="8.2"/>
			</g>
		</g>
	</g>
</g>
<g id="lightSix" class="st41">
	<defs>
		<filter id="Adobe_OpacityMaskFilter_9_" filterUnits="userSpaceOnUse" x="64.9" y="173.8" width="16.3" height="16.3">
			<feFlood  style="flood-color:white;flood-opacity:1" result="back"/>
			<feBlend  in="SourceGraphic" in2="back" mode="normal"/>
		</filter>
	</defs>
	<mask maskUnits="userSpaceOnUse" x="64.9" y="173.8" width="16.3" height="16.3" id="SVGID_16_">
		<g class="st59">

				<image style="overflow:visible;" width="22" height="21" xlink:href="4ADD4914BDBCF06D.jpg"  transform="matrix(1 0 0 1 62 171.79)">
			</image>
		</g>
	</mask>
	<g class="st60">
		<g>
			<g>
				<circle class="st47" cx="73" cy="181.9" r="8.2"/>
			</g>
		</g>
	</g>
</g>
<g id="lightFive" class="st41">
	<defs>
		<filter id="Adobe_OpacityMaskFilter_10_" filterUnits="userSpaceOnUse" x="40.7" y="163.8" width="16.3" height="16.3">
			<feFlood  style="flood-color:white;flood-opacity:1" result="back"/>
			<feBlend  in="SourceGraphic" in2="back" mode="normal"/>
		</filter>
	</defs>
	<mask maskUnits="userSpaceOnUse" x="40.7" y="163.8" width="16.3" height="16.3" id="SVGID_17_">
		<g class="st61">

				<image style="overflow:visible;" width="22" height="22" xlink:href="4ADD4914BDBCF06E.jpg"  transform="matrix(1 0 0 1 38 160.79)">
			</image>
		</g>
	</mask>
	<g class="st62">
		<g>
			<g>
				<circle class="st44" cx="48.9" cy="171.9" r="8.2"/>
			</g>
		</g>
	</g>
</g>
<g id="lightFour" class="st41">
	<defs>
		<filter id="Adobe_OpacityMaskFilter_11_" filterUnits="userSpaceOnUse" x="23.3" y="148.2" width="16.3" height="16.3">
			<feFlood  style="flood-color:white;flood-opacity:1" result="back"/>
			<feBlend  in="SourceGraphic" in2="back" mode="normal"/>
		</filter>
	</defs>
	<mask maskUnits="userSpaceOnUse" x="23.3" y="148.2" width="16.3" height="16.3" id="SVGID_18_">
		<g class="st63">

				<image style="overflow:visible;" width="21" height="21" xlink:href="4ADD4914BDBCF06C.jpg"  transform="matrix(1 0 0 1 21 145.79)">
			</image>
		</g>
	</mask>
	<g class="st64">
		<g>
			<g>
				<circle class="st47" cx="31.5" cy="156.4" r="8.2"/>
			</g>
		</g>
	</g>
</g>
<g id="lightThree" class="st41">
	<defs>
		<filter id="Adobe_OpacityMaskFilter_12_" filterUnits="userSpaceOnUse" x="13" y="129.9" width="16.3" height="16.3">
			<feFlood  style="flood-color:white;flood-opacity:1" result="back"/>
			<feBlend  in="SourceGraphic" in2="back" mode="normal"/>
		</filter>
	</defs>
	<mask maskUnits="userSpaceOnUse" x="13" y="129.9" width="16.3" height="16.3" id="SVGID_19_">
		<g class="st65">

				<image style="overflow:visible;" width="21" height="21" xlink:href="4ADD4914BDBCF090.jpg"  transform="matrix(1 0 0 1 11 127.79)">
			</image>
		</g>
	</mask>
	<g class="st66">
		<g>
			<g>
				<circle class="st50" cx="21.2" cy="138.1" r="8.2"/>
			</g>
		</g>
	</g>
</g>
<g id="lightTwo" class="st41">
	<defs>
		<filter id="Adobe_OpacityMaskFilter_13_" filterUnits="userSpaceOnUse" x="7.6" y="110.7" width="16.3" height="16.3">
			<feFlood  style="flood-color:white;flood-opacity:1" result="back"/>
			<feBlend  in="SourceGraphic" in2="back" mode="normal"/>
		</filter>
	</defs>
	<mask maskUnits="userSpaceOnUse" x="7.6" y="110.7" width="16.3" height="16.3" id="SVGID_20_">
		<g class="st67">

				<image style="overflow:visible;" width="21" height="22" xlink:href="4ADD4914BDBCF093.jpg"  transform="matrix(1 0 0 1 5 107.79)">
			</image>
		</g>
	</mask>
	<g class="st68">
		<g>
			<g>
				<circle class="st47" cx="15.7" cy="118.8" r="8.2"/>
			</g>
		</g>
	</g>
</g>
<g id="lightOne" class="st41">
	<defs>
		<filter id="Adobe_OpacityMaskFilter_14_" filterUnits="userSpaceOnUse" x="7.6" y="93.1" width="16.3" height="16.3">
			<feFlood  style="flood-color:white;flood-opacity:1" result="back"/>
			<feBlend  in="SourceGraphic" in2="back" mode="normal"/>
		</filter>
	</defs>
	<mask maskUnits="userSpaceOnUse" x="7.6" y="93.1" width="16.3" height="16.3" id="SVGID_21_">
		<g class="st69">

				<image style="overflow:visible;" width="21" height="21" xlink:href="4ADD4914BDBCF096.jpg"  transform="matrix(1 0 0 1 5 90.79)">
			</image>
		</g>
	</mask>
	<g class="st70">
		<g>
			<g>
				<circle class="st44" cx="15.7" cy="101.3" r="8.2"/>
			</g>
		</g>
	</g>
</g>
</svg>
