<?xml version="1.0" encoding="utf-8"?>
<!-- Generator: Adobe Illustrator 22.1.0, SVG Export Plug-In . SVG Version: 6.00 Build 0)  -->
<svg version="1.1" id="Layer_1" xmlns="http://www.w3.org/2000/svg" xmlns:xlink="http://www.w3.org/1999/xlink" x="0px" y="0px"
	 viewBox="0 0 180.9 180.9" style="enable-background:new 0 0 180.9 180.9;" xml:space="preserve">
<style type="text/css">
	.st0{fill:#333333;}
	.st1{fill:#C2B59B;}
	.st2{clip-path:url(#SVGID_2_);}
	.st3{opacity:0.19;fill:#231F20;enable-background:new    ;}
	.st4{filter:url(#Adobe_OpacityMaskFilter);}
	.st5{mask:url(#SVGID_3_);}
	.st6{fill:#7E7766;}
	.st7{opacity:0.43;}
	.st8{filter:url(#Adobe_OpacityMaskFilter_1_);}
	.st9{mask:url(#SVGID_4_);}
	.st10{fill:#B28B71;}
	.st11{fill:#DCAC8A;}
	.st12{fill:#EDB893;}
	.st13{opacity:0.74;clip-path:url(#SVGID_6_);}
	.st14{filter:url(#Adobe_OpacityMaskFilter_2_);}
	.st15{mask:url(#SVGID_7_);}
	.st16{fill:#EAD3A6;}
	.st17{opacity:0.84;}
	.st18{opacity:0.81;}
	.st19{fill:#B46F6C;}
	.st20{fill:#F78E1E;}

	#face{

	-webkit-transition: transform 0.5s ease-in-out;
	-moz-transition: transform 0.5s ease-in-out;
	-ms-transition: transform 0.5s ease-in-out;
	-o-transition: transform 0.5s ease-in-out;
	transition: transform 0.5s ease-in-out;
	}
	#Layer_1:hover #face{
	transform: translateY(3px);
	}
	#hairBack{
	transition: transform 0.5s ease-in-out;
	transform-origin: center;
	}
	#Layer_1:hover #hairBack{
	transform: rotate(5deg);
	}

	#starOne{
	animation: starMove 3s infinite;
	}

	#starTwo{
	animation: starMove 3s infinite;
	}

	#starThree{
	animation: starMove 3s infinite;
	}

	#musicOne{
	animation: musicMove 3s infinite;
	}

	#musicTwo{
	animation: musicMove 3s infinite;
	}

	#noteOne{
	animation: noteMoveOne 3s infinite;
	}
	#noteTwo{
	animation: noteMoveTwo 3s infinite;
	}


	@keyframes starMove{
	0%: {fill: #F9E0B4;}
	50% {fill: #F9E0B4; transform: translateY(10px);}
	100% {fill: #B5436F; transform: translateY(0px);}
	}

	@keyframes musicMove{
	0%: {fill: #F9E0B4;}
	50% {fill: #F9E0B4; transform: translateY(-10px);}
	100% {fill: #B5436F; transform: translateY(0px);}
	}

	@keyframes noteMoveOne{
	0%: {fill: #F9E0B4;}
	50% {fill: #F9E0B4; transform: translate(-10px, -10px);}
	100% {fill: #B5436F; transform: translate(0px, 0px);}
	}

	@keyframes noteMoveTwo{
	0%: {fill: #F9E0B4;}
	50% {fill: #F9E0B4; transform: translate(10px, 10px);}
	100% {fill: #B5436F; transform: translate(0px, 0px);}
	}

</style>
<title>music</title>
<ellipse id="bg" transform="matrix(0.7071 -0.7071 0.7071 0.7071 -37.4698 90.4598)" class="st0" cx="90.5" cy="90.5" rx="90.4" ry="90.5"/>
<g id="girl">
	<path id="hairBack" class="st1" d="M64.1,92.1c-3.2,6.7,3,14.8-1.1,18.2c-3.5,2.9-9.3-2.1-18.1-1.1c-7.7,0.9-13.5,5.9-17.1,9.9
		l6.3,13.7c0.6-2.2,2-4.1,3.9-5.4c1.5-1,3.4-1.5,5.2-1.4c-0.6,0.4-4.5,3.3-4.3,7.3c0.1,1.6,0.8,3.9,5,6.9c8.5,6.1,19.8,6.6,23.8,6.6
		h1c14.8-0.3,30.6-0.5,42.9-8.6c3.8-2.5,11.3-7.4,14.1-16.8c3.3-11.1-2.1-22.8-8.6-29.4C101.2,76,69.5,80.7,64.1,92.1z"/>
	<g id="light">
		<g>
			<defs>
				<path id="SVGID_1_" d="M64.1,92.1c-3.2,6.7,3,14.8-1.1,18.2c-3.5,2.9-9.3-2.1-18.1-1.1c-7.7,0.9-13.5,5.9-17.1,9.9l6.3,13.7
					c0.6-2.2,2-4.1,3.9-5.4c1.5-1,3.4-1.5,5.2-1.4c-0.6,0.4-4.5,3.3-4.3,7.3c0.1,1.6,0.8,3.9,5,6.9c8.5,6.1,19.8,6.6,23.8,6.6h1
					c14.8-0.3,30.6-0.5,42.9-8.6c3.8-2.5,11.3-7.4,14.1-16.8c3.3-11.1-2.1-22.8-8.6-29.4C101.2,76,69.5,80.7,64.1,92.1z"/>
			</defs>
			<clipPath id="SVGID_2_">
				<use xlink:href="#SVGID_1_"  style="overflow:visible;"/>
			</clipPath>
			<g class="st2">
				<path class="st3" d="M98.3,139.8l-0.1-0.7c4.3-0.5,8.3-2.4,11.3-5.4c3.9-3.9,6.5-8.8,7.6-14.2c1-4.2,0.3-10.6-2-18.9
					c-0.2-0.9-0.3-1.1,0-1.2l0.3-0.1l0.2,0.3l-0.2,0.1h0.3c0,0.1,0.1,0.4,0.2,0.7c2.3,8.4,3,14.9,2,19.2c-1.1,5.5-3.8,10.6-7.8,14.6
					C106.9,137.3,102.8,139.3,98.3,139.8z M115.3,99.7l-0.3,0.2L115.3,99.7z"/>
				<path class="st3" d="M44.7,143.1l-0.7-0.2c1.8-6.7,6.5-12.3,12.8-15.4c2.3-1,4.8-1.9,7.3-2.5c3-0.9,5.6-1.6,8.2-3.6
					c5-3.7,4.8-10.7,4.3-17l0.7-0.1c1,11.8-1.6,15.4-4.6,17.6c-2.8,2.1-5.4,2.8-8.5,3.7c-2.5,0.6-4.9,1.5-7.2,2.5
					C50.9,131.1,46.4,136.6,44.7,143.1z"/>
				<path class="st3" d="M62.2,151.1l-0.7-0.1c0.4-3.1,1.2-6.1,2.4-9c2.1-4.7,5.2-7.4,8.2-10c2.3-1.8,4.4-3.9,6.1-6.2
					c2.2-3.2,3.6-8.3,4.5-17.1l0.7,0.1c-1,8.9-2.3,14.1-4.7,17.4c-1.8,2.4-3.9,4.5-6.2,6.4c-3.1,2.6-6,5.2-8,9.7
					C63.3,145,62.5,148,62.2,151.1z"/>
				<path class="st3" d="M28.8,129.8l-0.6-0.4c2.9-4.2,6.4-7,10.4-8.3c2.2-0.7,4.6-0.9,6.9-0.6c2.5,0.2,5,0.2,7.5,0
					c4-0.4,9.6-0.8,14.6-4c2.2-1.4,6.3-7.4,6.3-16h0.7c0,8.9-4.3,15.2-6.7,16.7c-5.2,3.2-10.8,3.7-14.9,4.1c-2.6,0.2-5.1,0.2-7.7,0
					c-2.2-0.3-4.5-0.1-6.7,0.5C35,123,31.6,125.7,28.8,129.8z"/>
				<path class="st3" d="M85.5,149.6l-0.6-0.5c0.9-1,2.4-2.8,4.2-4.9c2.8-3.2,5.1-5.8,6.9-7.9c6-6.9,7.9-9,8.9-12.5
					c1.2-4.2,0.7-8.8-1.3-14l0.7-0.3c2,5.3,2.5,10.1,1.3,14.4c-1,3.8-2.9,5.9-9,12.8c-1.8,2.1-4.1,4.7-6.9,7.9
					C87.8,146.8,86.3,148.5,85.5,149.6z"/>
				<g>
					<defs>
						<filter id="Adobe_OpacityMaskFilter" filterUnits="userSpaceOnUse" x="-15.4" y="71.3" width="129.4" height="126">
							<feFlood  style="flood-color:white;flood-opacity:1" result="back"/>
							<feBlend  in="SourceGraphic" in2="back" mode="normal"/>
						</filter>
					</defs>
					<mask maskUnits="userSpaceOnUse" x="-15.4" y="71.3" width="129.4" height="126" id="SVGID_3_">
						<g class="st4">

								<image style="overflow:visible;" width="134" height="131" xlink:href="CF40EB36ADD2D133.jpg"  transform="matrix(1 0 0 1 -18 68.92)">
							</image>
						</g>
					</mask>
					<g class="st5">
						<g>
							<g>
								<path class="st6" d="M104.3,126.3c30.4-5.2-17.6,60.8-48.3,69s-62.1-9.6-70.1-39.6S10,49.6,26.1,77.2
									C43,106.3,65.3,133,104.3,126.3z"/>
							</g>
						</g>
					</g>
				</g>
				<g class="st7">
					<defs>
						<filter id="Adobe_OpacityMaskFilter_1_" filterUnits="userSpaceOnUse" x="36.8" y="88.5" width="121.5" height="114.6">
							<feFlood  style="flood-color:white;flood-opacity:1" result="back"/>
							<feBlend  in="SourceGraphic" in2="back" mode="normal"/>
						</filter>
					</defs>
					<mask maskUnits="userSpaceOnUse" x="36.8" y="88.5" width="121.5" height="114.6" id="SVGID_4_">
						<g class="st8">

								<image style="overflow:visible;" width="127" height="120" xlink:href="CF40EB36ADD2D131.jpg"  transform="matrix(1 0 0 1 34 85.92)">
							</image>
						</g>
					</mask>
					<g class="st9">
						<g>
							<g>
								<g>
									<path class="st6" d="M127.2,94.1c11.9-26,38.8,45.7,29,73.4c-9.9,27.8-40.4,42.4-68.2,32.5c-28-9.8-71.1-74.7-40.8-72.3
										C79,130.2,111.9,127.3,127.2,94.1z"/>
								</g>
							</g>
						</g>
					</g>
				</g>
			</g>
		</g>
	</g>
	<path class="st10" d="M60.8,150.6c21.8,6,44.8,5.9,66.5-0.3c-6.5-18.3-26.7-27.9-45-21.4C72.2,132.5,64.3,140.5,60.8,150.6z"/>
	<path class="st10" d="M93.5,109.9L93.5,109.9c4,0,7.2,3.2,7.2,7.2v9.3c0,4-3.2,7.2-7.2,7.2l0,0c-4,0-7.2-3.2-7.2-7.2V117
		C86.3,113.1,89.6,109.9,93.5,109.9z"/>
	<path class="st3" d="M97.9,111.9h-8.8c-1.5,0-2.7,1.2-2.8,2.7v3.5c1.4,0.2,2.9,0.3,4.3,0.3h5.7c1.4,0,2.9-0.1,4.3-0.3v-3.5
		C100.7,113.1,99.4,111.9,97.9,111.9z"/>
	<g id="face">
		<path id="skinShadow" class="st11" d="M93,54.9L93,54.9c17.1,0,31,13.9,31,31v0c0,17.1-13.9,31-30.9,31h0c-17.1,0-31-13.9-31-31v0
			C62,68.8,75.9,54.9,93,54.9z"/>
		<path id="skin" class="st12" d="M93,52.9L93,52.9c17.1,0,31,13.9,31,31v0c0,17.1-13.9,31-30.9,31h0c-17.1,0-31-13.9-31-31v0
			C62,66.8,75.9,52.9,93,52.9z"/>
		<g id="light-2">
			<g>
				<defs>
					<path id="SVGID_5_" d="M93,52.9L93,52.9c17.1,0,31,13.9,31,31v0c0,17.1-13.9,31-30.9,31h0c-17.1,0-31-13.9-31-31v0
						C62,66.8,75.9,52.9,93,52.9z"/>
				</defs>
				<clipPath id="SVGID_6_">
					<use xlink:href="#SVGID_5_"  style="overflow:visible;"/>
				</clipPath>
				<g class="st13">
					<defs>
						<filter id="Adobe_OpacityMaskFilter_2_" filterUnits="userSpaceOnUse" x="62.9" y="67.3" width="63.8" height="63.8">
							<feFlood  style="flood-color:white;flood-opacity:1" result="back"/>
							<feBlend  in="SourceGraphic" in2="back" mode="normal"/>
						</filter>
					</defs>
					<mask maskUnits="userSpaceOnUse" x="62.9" y="67.3" width="63.8" height="63.8" id="SVGID_7_">
						<g class="st14">

								<image style="overflow:visible;" width="69" height="69" xlink:href="CF40EB36ADD2D137.jpg"  transform="matrix(1 0 0 1 60 64.92)">
							</image>
						</g>
					</mask>
					<g class="st15">
						<g>
							<g>
								<circle class="st16" cx="94.7" cy="99.2" r="31.9"/>
							</g>
						</g>
					</g>
				</g>
			</g>
		</g>
		<g id="eyeRight" class="st17">
			<path class="st11" d="M115.5,87.9c0.3-1.7-0.9-3.1-1.5-3.8c-1-1.1-2.2-1.9-3.7-2.2c-4.2-0.9-10.1,4.3-8.9,7.1
				c0.7,1.6,2.5,1.8,3.5,2.3c2.6,1.1,5.6,0.8,8.1-0.6C113.9,90.1,115.2,89.3,115.5,87.9z"/>
			<path class="st0" d="M101.1,89.4c0.2-0.5,5.2,3.2,10.1,1c2.7-1.2,4-3.7,4.4-3.4c0.3,0.4,0.5,0.9,0.5,1.4c0,0.3-0.1,0.7-0.2,1
				c-0.6,1.5-2.7,2.3-3.8,2.7c-1.4,0.5-2.9,0.7-4.4,0.5C103.9,92.1,101,89.8,101.1,89.4z"/>
			<path class="st0" d="M115.4,88.4c0.2-0.3,0.4-0.5,0.7-0.7c0.3-0.1,0.5-0.3,0.8-0.4c0.5-0.2,1.1-0.4,1.7-0.6c0,0,0.1,0,0.1,0.1
				c0,0,0,0,0,0.1c-0.5,0.4-0.9,0.7-1.5,1c-0.3,0.2-0.5,0.3-0.8,0.4C116.2,88.5,115.8,88.6,115.4,88.4
				C115.5,88.5,115.4,88.5,115.4,88.4C115.4,88.4,115.4,88.4,115.4,88.4C115.4,88.4,115.4,88.4,115.4,88.4z"/>
			<path class="st0" d="M114.6,88.4c0.3-0.2,0.6-0.3,0.9-0.3c0.3,0,0.6,0,0.9,0c0.6,0,1.3,0.1,1.9,0.2c0,0,0.1,0,0.1,0.1
				c0,0,0,0.1-0.1,0.1c-0.6,0.2-1.2,0.3-1.8,0.3c-0.3,0-0.6,0-0.9,0.1c-0.3,0-0.7-0.1-0.9-0.2C114.6,88.5,114.6,88.5,114.6,88.4
				C114.6,88.4,114.6,88.4,114.6,88.4C114.6,88.4,114.6,88.4,114.6,88.4z"/>
		</g>
		<path id="eyebrowRight" class="st0" d="M100.4,83.9c-0.1-0.1,1.6-4.9,5.8-6.1c0.1,0,0.3-0.1,0.6-0.2c4-0.8,7.7,1.8,7.5,2.3
			c-0.1,0.3-1.4-0.2-5.5-0.3c-2.2-0.1-3.4-0.1-4.4,0.3C101.6,81,100.5,84,100.4,83.9z"/>
		<ellipse id="nose" transform="matrix(0.866 -0.5 0.5 0.866 -35.0988 59.2693)" class="st3" cx="93" cy="95.1" rx="1.8" ry="2.7"/>
		<g id="lips" class="st18">
			<path class="st19" d="M99.6,106.2c-1.9,0.5-3.8,0.8-5.8,0.8c-1.9,0-3.9-0.2-5.8-0.6c0.3-3.2,3.2-5.5,6.4-5.2
				C97.1,101.6,99.2,103.6,99.6,106.2z"/>
			<path class="st19" d="M104.5,103.5c-0.6,0.8-1.3,1.5-2.2,2.1c-0.8,0.5-1.7,1-2.6,1.4c-0.5,0.2-0.9,0.4-1.4,0.5
				c-0.5,0.2-1,0.3-1.4,0.4c-1,0.2-2,0.3-3,0.3c-2,0-4-0.4-5.8-1.1c-0.9-0.3-1.8-0.8-2.7-1.2c-0.9-0.5-1.6-1.1-2.2-1.9
				c-0.1-0.2-0.1-0.4,0.1-0.6c0.1-0.1,0.3-0.1,0.4,0l0,0c0.8,0.4,1.6,0.8,2.5,1.1c0.8,0.4,1.7,0.7,2.5,0.9c0.8,0.2,1.7,0.4,2.6,0.6
				c0.9,0.1,1.7,0.1,2.6,0.1c0.9,0,1.7-0.2,2.6-0.3c0.9-0.2,1.7-0.4,2.5-0.8c1.7-0.6,3.3-1.3,5-2l0,0c0.2-0.1,0.5,0,0.6,0.2
				C104.5,103.2,104.5,103.4,104.5,103.5z"/>
			<path class="st19" d="M88.7,109.4c0.9,0.3,1.8,0.5,2.7,0.6c0.9,0.1,1.8,0.2,2.6,0.2c0.9,0,1.8-0.1,2.6-0.3
				c0.9-0.2,1.8-0.4,2.6-0.7l0.2,0.3c-0.7,0.6-1.6,1.1-2.5,1.4c-0.5,0.2-0.9,0.3-1.4,0.4c-0.5,0.1-1,0.1-1.5,0.2c-1,0-2-0.1-2.9-0.4
				c-0.9-0.3-1.8-0.7-2.6-1.3L88.7,109.4z"/>
		</g>
		<g id="eyeLeft" class="st17">
			<path class="st11" d="M71.3,88.1c-0.3-1.7,0.9-3.1,1.5-3.8c1-1.1,2.2-1.9,3.7-2.2c4.2-0.9,10.1,4.3,8.9,7.1
				c-0.7,1.6-2.5,1.8-3.5,2.3c-2.6,1-5.6,0.8-8.1-0.6C72.9,90.3,71.6,89.6,71.3,88.1z"/>
			<path class="st0" d="M85.7,89.6c-0.2-0.5-5.2,3.2-10.1,1c-2.7-1.2-4-3.8-4.4-3.4c-0.3,0.4-0.5,0.9-0.5,1.4c0,0.3,0.1,0.7,0.2,1
				c0.6,1.5,2.7,2.3,3.8,2.7c1.4,0.5,2.9,0.7,4.4,0.5C83,92.3,85.9,90,85.7,89.6z"/>
			<path class="st0" d="M71.3,88.8c-0.3,0-0.6,0-0.9-0.2l-0.8-0.4c-0.5-0.3-1-0.6-1.5-1c0,0,0-0.1,0-0.1c0,0,0,0,0.1,0
				c0.6,0.1,1.2,0.3,1.7,0.6c0.3,0.1,0.5,0.2,0.8,0.4C71,88.2,71.3,88.4,71.3,88.8C71.4,88.8,71.4,88.8,71.3,88.8L71.3,88.8z"/>
			<path class="st0" d="M72.2,88.8c-0.3,0.2-0.6,0.3-0.9,0.3c-0.3,0-0.6,0-0.9-0.1c-0.6,0-1.2-0.2-1.8-0.3c0,0-0.1,0-0.1-0.1
				c0,0,0,0,0,0c0,0,0,0,0.1-0.1c0.6-0.1,1.2-0.2,1.9-0.2c0.3,0,0.6,0,0.9,0c0.3,0,0.7,0.1,0.9,0.3C72.3,88.6,72.3,88.7,72.2,88.8
				C72.2,88.7,72.2,88.7,72.2,88.8L72.2,88.8z"/>
		</g>
		<path id="eyebrowLeft" class="st0" d="M85.4,83.9c0.1-0.1-1.7-4.9-5.8-6.1c-0.1,0-0.3-0.1-0.6-0.2c-4-0.8-7.7,1.8-7.5,2.3
			c0.1,0.3,1.4-0.2,5.5-0.3c2.3-0.1,3.4-0.1,4.4,0.3C84.3,81,85.3,84,85.4,83.9z"/>
	</g>
	<g id="hairFront">
		<g id="hair">
			<path class="st1" d="M127.8,81.6c-6.9,2.6-18.1,0.6-28.6-5.7c-13.5-8.2-21.2-20.6-17.7-28.5c0.3-0.1,0.6-0.2,0.9-0.3
				c2.5-0.8,5.1-1.3,7.7-1.5c0.9-0.1,1.8-0.1,2.8-0.1c15.2,0,28.7,9.5,33.9,23.8c0.4,1.7,0.7,3.4,0.9,5.1
				C128,76.8,128,79.2,127.8,81.6z"/>
			<path class="st1" d="M89.6,60.4c-1.4,6.2-11,4.6-17.5,14c-5.4,7.9-2.6,14.8-5.8,15.9c-2.1,0.7-5.7-1.6-9-5.3
				c-0.1-1.1-0.2-2.3-0.2-3.4c0-15.8,10.3-29.7,25.4-34.4C87.2,50.6,90.5,56.2,89.6,60.4z"/>
		</g>
		<g id="pattern">
			<path class="st3" d="M124,86.5c-3.7-6.5-8.2-10.9-13.4-13.1c-1.9-0.7-3.9-1.3-5.9-1.6c-2.5-0.3-4.9-1.1-7.2-2.2
				c-4.4-2.3-8-6.2-10.7-11.6l0.7-0.3c2.6,5.2,6.1,9,10.4,11.2c2.2,1.1,4.6,1.8,7,2.2c2.1,0.3,4.1,0.8,6,1.6
				c5.4,2.2,10.1,6.7,13.8,13.4L124,86.5z"/>
			<path class="st3" d="M123.4,82c-7.1-11.2-13.2-17-18.1-17.3H105c-2.7-0.1-5.3-0.7-7.6-2c-1.9-1.1-3.5-2.5-4.8-4.2l0.6-0.5
				c1.3,1.6,2.8,3,4.6,4c2.2,1.2,4.7,1.9,7.3,2h0.3c5.2,0.3,11.5,6.3,18.7,17.7L123.4,82z"/>
			<path class="st3" d="M66.3,83.4h-0.7c0.2-6,1.8-10.4,4.9-13.1c1-0.9,2.2-1.6,3.4-2.3c1.9-1,3.6-2.3,5.3-3.7
				c1.8-1.6,3.4-3.3,4.8-5.3l0.6,0.4c-1.4,2-3.1,3.8-4.9,5.4c-1.7,1.4-3.5,2.7-5.4,3.8c-1.2,0.6-2.2,1.3-3.2,2.2
				C68,73.4,66.5,77.6,66.3,83.4z"/>
		</g>
	</g>
	<g id="earphones">
		<path class="st0" d="M63.2,87.2C63.2,71.6,74.8,59,90.6,59h5.8c14.5-0.1,26.7,10.8,28.3,25.2l1.1-3.2c0-15.5-13.9-28.1-29.6-28.1
			h-5.8C74.8,52.8,62,65.4,61.9,81c0,0,0,0,0,0l-1.1,5.7c0,1,1.2,2,1.3,2.9L63.2,87.2z"/>
		<path class="st0" d="M53.7,91c0.4,5.6,4.6,9.9,9.3,9.6l0,0c3-0.2,5.2-3.2,5-6.8l-0.5-7.5c-0.2-3.5-2.9-6.2-5.9-6l0,0
			C56.8,80.7,53.3,85.4,53.7,91"/>
		<path class="st0" d="M123.8,100.2L123.8,100.2c-3-0.2-5.3-3.2-5-6.8l0.5-7.5c0.2-3.5,2.9-6.2,5.9-6.1l0,0
			c4.8,0.3,8.3,5.1,7.9,10.7l0,0C132.7,96.2,128.6,100.5,123.8,100.2z"/>
	</g>
</g>
<g id="stars">
	<path id="noteTwo" class="st20" d="M35.8,71.2l-1.7-4.2c-0.1,0.1-0.2,0.1-0.3,0.2c-1.1,0.9-2.2,1.8-3.4,2.7
		c-0.2,0.1-0.3,0.4-0.2,0.6c0,0,0,0,0,0c0.9,2,1.7,4.1,2.5,6.1c0.4,0.9,0.2,1.9-0.5,2.5c-0.6,0.7-1.6,0.9-2.5,0.7
		c-1-0.3-1.7-1.2-1.7-2.2c-0.1-1,0.5-2,1.5-2.3l0.4-0.2c0-0.2-0.1-0.3-0.1-0.4c-0.6-1.4-1.1-2.8-1.7-4.2c-0.3-0.8-0.2-1.1,0.4-1.6
		l5.3-4.3c0.3-0.4,1-0.5,1.4-0.2c0.2,0.1,0.3,0.3,0.4,0.6c1.1,2.5,2.1,5.1,3.2,7.6c0.5,1.1,0,2.5-1.1,3.1c-1.2,0.7-2.6,0.3-3.3-0.9
		c-0.7-1.2-0.3-2.6,0.9-3.3c0.1-0.1,0.2-0.1,0.3-0.1L35.8,71.2z"/>
	<path id="noteOne" class="st20" d="M128.5,38.5l1.1-4.4h-0.4c-1.4,0.1-2.9,0.2-4.3,0.2c-0.3,0-0.4,0.1-0.5,0.4
		c-0.5,2.1-1,4.3-1.6,6.4c-0.2,0.9-1,1.6-1.9,1.7c-0.9,0.2-1.8-0.2-2.4-0.9c-0.6-0.8-0.6-1.9-0.1-2.8c0.6-0.8,1.6-1.2,2.6-1l0.4,0.1
		c0.1-0.2,0.1-0.3,0.1-0.4c0.4-1.5,0.7-2.9,1.1-4.4c0.2-0.8,0.4-1,1.2-1.1c2.3-0.1,4.6-0.2,6.9-0.4c0.5-0.1,1.1,0.2,1.2,0.7
		c0.1,0.2,0,0.4,0,0.7c-0.6,2.7-1.3,5.4-2,8c-0.3,1.2-1.4,2-2.7,1.8c-1.3-0.2-2.3-1.4-2.1-2.7c0.2-1.3,1.4-2.3,2.7-2.1
		c0.1,0,0.2,0,0.3,0L128.5,38.5z"/>
	<path id="musicTwo" class="st20" d="M66.4,29.4l1.1,5.9c0.1,0.3,0.1,0.6,0.2,0.9c0.3,1.3-0.4,2.7-1.8,3.2c-0.7,0.3-1.5,0.4-2.3,0.1
		c-1-0.3-1.6-1.4-1.3-2.4c0.1-0.2,0.1-0.3,0.2-0.5c0.9-1.4,2.6-1.9,4.1-1.3l0.3,0.1L66.9,35c-0.7-3.5-1.3-7.1-2-10.6
		c0-0.1,0-0.2,0-0.3c0-0.1,0.1-0.3,0.2-0.4c0.1,0.1,0.3,0.1,0.3,0.2c0.3,0.5,0.7,1,1,1.5c0.3,0.6,0.8,1.2,1.3,1.6
		c1.9,1.4,2.3,4,1.1,6c-0.1,0.1-0.3,0.2-0.4,0.3c-0.1-0.1-0.2-0.3-0.2-0.5c0-0.6-0.1-1.2-0.2-1.8C67.8,30.2,67.2,29.6,66.4,29.4z"/>
	<path id="musicOne" class="st20" d="M147.9,94.1l-1.7,5.8c-0.1,0.3-0.2,0.6-0.2,0.8c-0.3,1.3-1.6,2.2-3,2c-0.8,0-1.5-0.4-2.1-0.9
		c-0.8-0.7-0.8-2-0.1-2.7c0.1-0.1,0.3-0.2,0.4-0.3c1.4-0.9,3.2-0.5,4.2,0.8l0.2,0.2l0.1-0.4l3.1-10.4c0-0.1,0-0.2,0.1-0.3
		c0.1-0.1,0.2-0.2,0.3-0.3c0.1,0.1,0.2,0.2,0.2,0.3c0.1,0.6,0.1,1.2,0.2,1.8c0.1,0.7,0.2,1.4,0.6,2.1c1,2.1,0.2,4.6-1.7,5.8
		c-0.2,0.1-0.3,0.1-0.5,0.1c0-0.2,0-0.3,0-0.5c0.3-0.5,0.5-1.1,0.7-1.7C148.8,95.4,148.5,94.6,147.9,94.1z"/>
	<path id="starThree" class="st20" d="M156.4,56.6c0.2,1,0.3,2,0.6,2.9c0.2,0.5,0.4,1,0.7,1.4c0.6,0.7,1.3,1.3,2,2.1
		c-1.1,0.2-2.1,0.5-3,0.7c-0.4,0.1-0.7,0.3-1,0.6c-0.7,0.7-1.4,1.4-2.2,2.2c-0.2-0.9-0.4-1.7-0.5-2.5c-0.1-0.8-0.5-1.5-1.1-2
		c-0.6-0.5-1.1-1.2-1.7-1.8c1.1-0.3,2.1-0.5,3-0.7c0.4-0.1,0.7-0.3,1-0.6C154.9,58.2,155.6,57.4,156.4,56.6z"/>
	<path id="starTwo" class="st20" d="M96.8,16.6c0.3,0.9,0.6,1.8,0.9,2.6c0.2,0.5,0.5,0.9,0.9,1.2c0.6,0.6,1.3,1.1,2.1,1.7
		c-1,0.4-1.8,0.6-2.7,1c-0.3,0.1-0.6,0.4-0.9,0.7c-0.6,0.7-1.2,1.5-1.8,2.3c-0.3-0.8-0.6-1.5-0.8-2.3c-0.2-0.7-0.6-1.3-1.2-1.7
		c-0.6-0.4-1.2-0.9-1.8-1.4c1-0.4,1.8-0.7,2.7-1c0.3-0.2,0.6-0.4,0.9-0.7C95.7,18.2,96.2,17.4,96.8,16.6z"/>
	<path id="starOne" class="st20" d="M38.8,37.6c0.6,1,1.2,2,1.8,2.8c0.3,0.5,0.8,0.9,1.3,1.2c0.8,0.5,1.7,0.8,2.6,1.3
		c-0.8,0.8-1.5,1.5-2.2,2.2c-0.3,0.3-0.5,0.7-0.6,1.1c-0.3,1.1-0.5,2.3-0.8,3.5c-0.6-0.9-1.1-1.7-1.6-2.5c-0.4-0.8-1-1.4-1.8-1.7
		c-0.7-0.3-1.5-0.7-2.3-1.1c0.8-0.8,1.5-1.5,2.2-2.2c0.3-0.3,0.5-0.7,0.6-1.1C38.3,40,38.5,38.9,38.8,37.6z"/>
</g>
</svg>
