<?xml version="1.0" encoding="utf-8"?>
<!-- Generator: Adobe Illustrator 22.1.0, SVG Export Plug-In . SVG Version: 6.00 Build 0)  -->
<svg version="1.1" id="pinq" xmlns="http://www.w3.org/2000/svg" xmlns:xlink="http://www.w3.org/1999/xlink" x="0px" y="0px"
	 viewBox="0 0 180.9 180.9" style="enable-background:new 0 0 180.9 180.9;" xml:space="preserve">
<style type="text/css">
	.st0{fill:#333333;}
	.st1{fill:url(#SVGID_1_);}
	.st2{opacity:0.23;fill:#500000;enable-background:new    ;}
	.st3{fill:url(#SVGID_2_);}
	.st4{opacity:0.23;fill:#5A2F10;enable-background:new    ;}
	.st5{opacity:0.4;fill:#500000;enable-background:new    ;}
	.st6{fill:#141313;}
	.st7{fill:#EFD2A3;}
	.st8{fill:#EB8943;}
	.st9{fill:#DE6858;}
	.st10{fill:#5F6062;}
	.st11{fill:#313131;}
	.st12{opacity:0.57;fill:#BAC8CA;enable-background:new    ;}
	.st13{opacity:0.78;fill:#C1CFCF;enable-background:new    ;}
	.st14{fill:#1D1D1D;}

	#face_left{
	animation: handMoveL 3s infinite;
	}
  #face_right{
	animation: handMoveR 3s infinite;
	}

	@keyframes handMoveR{
	0% {transform: rotate(0deg);}
	50% {transform: rotate(2deg);}
	100% {transform: rotate(0deg);}
	}

	@keyframes handMoveL{
	0% {transform: rotate(0deg);}
	50% {transform: rotate(-2deg);}
	100% {transform: rotate(0deg);}
	}

</style>
<title>pinq</title>
<ellipse id="bg" transform="matrix(0.7071 -0.7071 0.7071 0.7071 -37.4534 90.499)" class="st0" cx="90.5" cy="90.5" rx="90.4" ry="90.5"/>
<g id="body_right">

		<radialGradient id="SVGID_1_" cx="92.03" cy="526.24" r="83.84" gradientTransform="matrix(1 0 0 1 0 -430)" gradientUnits="userSpaceOnUse">
		<stop  offset="1.000000e-02" style="stop-color:#91080A"/>
		<stop  offset="0.28" style="stop-color:#8D0709"/>
		<stop  offset="0.55" style="stop-color:#810608"/>
		<stop  offset="0.82" style="stop-color:#6C0305"/>
		<stop  offset="1" style="stop-color:#5A0002"/>
	</radialGradient>
	<path class="st1" d="M147.2,105.5c0.1,23.5-15.4,44.2-38,50.7c-1.2,0.3-2.3,0.6-3.5,0.9c-3.5,0.7-7.1,1.1-10.6,1.1
		c-28.8,0-52.2-23.6-52.2-52.6c0-7.3,1.5-14.5,4.4-21.1c-0.4-0.4-0.8-0.8-1.2-1.2c-1.9-2-7.5-7.8-6.3-15.4c0.3-2.1,1.1-4.1,2.2-5.9
		c1.7-2.5,4.6-3.9,7.6-3.7l0,0c2.4,3.8,5.8,6.9,9.9,9c4.8,2.6,10.2,3.7,15.7,3.4c0.5,0,1,0,1.5-0.2l1-0.2l0.4-0.1
		c0.3-0.1,0.6-0.1,0.9-0.2l0.3-0.1l0.5-0.1c0.2,0,0.3-0.1,0.4-0.1l0.7-0.2l0.3-0.1l0.3-0.1l0.4-0.1l0.3-0.1l0.7-0.3l0.6-0.2l0.2-0.1
		l0,0l0.6-0.2l0.8-0.4l0,0l0.5-0.2c0.1-0.1,0.3-0.1,0.4-0.2s0.3-0.1,0.4-0.2s0.3-0.2,0.5-0.3l0.3-0.2l0.3-0.2l0.3-0.2l0.5-0.3l0,0
		l0.6-0.4c0.1-0.1,0.2-0.2,0.3-0.2s0.4-0.3,0.6-0.4l0.4-0.3l0.5-0.4l0,0c3,2.6,5.4,3.7,9.5,4.9c3.3,1,6.8,1.4,10.3,1.2
		c0.5,0,1-0.1,1.5-0.2c5.3-0.7,10.2-2.9,14.3-6.3c0.1-0.1,0.2-0.2,0.3-0.3c0.9,0.7,1.9,1.6,2.9,2.5c1.8,1.6,3.5,3.2,5.1,5
		C142.6,80.6,147.2,92.8,147.2,105.5z"/>
	<path class="st2" d="M147.2,105.5c0.1,23.5-15.4,44.2-38,50.7c-1.2,0.3-2.3,0.6-3.5,0.9c-0.4-0.4-0.7-0.7-1-1
		c8.2-2,15.7-6.1,22-11.7c15.2-13.8,20-36,15-54.6c-2.7-9.9-8.1-18.8-15.5-25.9c0.1-0.1,0.2-0.2,0.3-0.3c0.9,0.7,1.9,1.6,2.9,2.5
		c1.8,1.6,3.5,3.2,5.1,5C142.8,80.6,147.3,92.8,147.2,105.5z"/>
	<path class="st2" d="M94.3,151.2c0.3-0.4-6.9-4-12.7-12.7c-3-4.5-4.1-8-4.2-11.4c-0.1-2.2-0.2-5.7,2.1-7.9s4.7-0.8,10.7-2.5
		c3.8-1.1,7.3-3,10.3-5.6c2.6-2.1,4.6-4.9,5.7-8.1c1.7-5.2,1-12.3-2.4-13.8c-1.9-0.8-4.2,0.4-5.3,1c-23.4,13-35.3,19.5-35.7,26.5
		c-0.5,8,5,14.3,10,20C82.2,147.6,94,151.7,94.3,151.2z"/>
</g>
<g id="body_left">

		<radialGradient id="SVGID_2_" cx="98.57" cy="521.66" r="95.54" gradientTransform="matrix(1 0 0 1 0 -430)" gradientUnits="userSpaceOnUse">
		<stop  offset="1.000000e-02" style="stop-color:#F89835"/>
		<stop  offset="0.2" style="stop-color:#EA9032"/>
		<stop  offset="0.55" style="stop-color:#C57B29"/>
		<stop  offset="1" style="stop-color:#8E5C1D"/>
	</radialGradient>
	<path class="st3" d="M108.6,155.6c-0.5,2.6-12.5,2.5-13.9,2.4c-14.8-0.3-28.9-6.1-39.5-16.3c-8.7-10.2-13.5-23.2-13.6-36.7
		c0.1-4.1,0.6-8.2,1.5-12.2c0.8-3.1,1.9-6.1,3.2-9c0.3-0.1,0.5-0.2,0.8-0.2c7.2-1.5,19.5,12.4,32.5,8c5.9-2,8-6.4,14-6.2
		c4.9,0.2,10.2,3.1,12,7.6c2.8,6.7-2.9,14.8-8.3,18.7c-8.3,6.1-15.7,1.6-19.5,6.8s-1.4,17,5.2,22.6c5.9,4.9,17,6.7,24.2,12.3
		l0.3,0.2C108,154.2,108.7,155,108.6,155.6z"/>
	<path class="st4" d="M108.6,155.6c-0.5,2.6-12.5,2.5-13.9,2.4c-14.8-0.3-28.9-6.1-39.5-16.3c-8.7-10.2-13.5-23.2-13.6-36.7
		c0.1-4.1,0.6-8.2,1.5-12.2c0.8-3.1,1.9-6.1,3.2-9c0.3-0.1,0.5-0.2,0.8-0.2c-2.8,7.9-8.2,28.8,3.7,48.3c2.8,4.6,13,19.5,32.6,23.4
		c8.1,1.5,16.4,1,24.2-1.5C108,154.2,108.7,155,108.6,155.6z"/>
</g>
<g id="face_right">
	<path class="st5" d="M126.3,62.2c4.5,4.8-5.8,10.4-16.8,11.7c-16.2,2-30.7-7.7-30.2-11.3S95,60.8,103,60.5
		C107.7,60.3,123.3,59,126.3,62.2z"/>
	<polygon class="st6" points="117.1,64.5 116.5,64.7 116.7,64.6 	"/>
	<path class="st6" d="M118,70.2h0.2l0,0l0.4-0.2L118,70.2z"/>
	<path class="st6" d="M131.5,47.2c-0.2-1.5-0.6-3-1.2-4.4c-0.5-1.3-1.2-2.6-2-3.8c-1.5-2.2-3.4-4.2-5.6-5.8c-8.1-6-19-6.5-27.7-1.3
		c-4.3,2.5-8,6.1-10.6,10.4c-1.4,2.3-2.4,4.7-3,7.3c-0.7,2.7-0.7,5.6,0,8.3s2,5.1,3.9,7.1c1.7,1.8,3.8,3.3,6,4.4
		c2.1,1.1,4.4,1.9,6.7,2.5c2.3,0.6,4.6,0.9,6.9,1c2.4,0.1,4.7-0.2,7-0.7c2.2-0.5,4.3-1.2,6.3-2.1H118l0.6-0.2
		c0.9-0.4,1.8-0.9,2.7-1.4c0.4-0.3,0.9-0.6,1.3-0.8s0.9-0.6,1.3-0.9c3.9-2.9,6.6-7.3,7.3-12.2C131.8,52.2,131.8,49.7,131.5,47.2z
		 M117.1,64.5l-0.6,0.2l0.2-0.1L117.1,64.5z"/>
	<path class="st7" d="M102.6,68.8c10.2,0.1,20.6-8,20.3-15c-0.1-3.2-2.4-7.1-5.7-7.9c-2.9-0.7-6,1.2-7.5,2.8c-1.2,1.5-2.2,3.1-3,4.9
		c-0.9,1.9-1.1,3.1-2.4,4c-0.8,0.6-1.8,0.9-2.9,0.8c-2.7-0.2-4.7-3.5-5.4-5.8c-0.8-2.7,0.2-3.5-0.8-5c-1.3-2-4.5-2.8-7-2.2
		c-3.3,0.9-5.6,4.4-5.8,7.4C81.8,59.7,92.1,68.7,102.6,68.8z"/>
	<path class="st8" d="M104.7,56.6c0.4,1-1.2,3.5-3.6,3.3c-2.1-0.2-3.4-2.4-3-3.4C98.7,55,104.1,55.1,104.7,56.6z"/>
	<circle id="Rblush" class="st9" cx="117.1" cy="59" r="2"/>
	<g id="left_eye-2">
		<circle class="st10" cx="114.9" cy="54.1" r="2.9"/>
		<circle class="st11" cx="114.9" cy="54.1" r="1.8"/>
		<circle class="st12" cx="114.1" cy="53.3" r="0.9"/>
		<circle class="st13" cx="113.1" cy="54.6" r="0.4"/>
	</g>
</g>
<g id="face_left">
	<path class="st5" d="M46.5,58.2c-1.2,1.4,2.3,7.2,6.4,11.1c1.6,1.5,10.1,9.6,22.3,7.8c8.8-1.3,18.2-7.7,17.4-11.7
		c-0.8-3.7-13.2-4.9-38-7.4c-1.2-0.1-2.5-0.1-5.1-0.1S46.7,58,46.5,58.2z"/>
	<path class="st14" d="M99.6,50.1l-0.1-0.6v-0.3V49l0,0v-0.2c-0.1-0.8-0.3-1.6-0.5-2.4l-0.2-0.6l-0.2-0.6L98.1,44l0,0
		c-1.2-2.9-3-5.5-5.3-7.6c-4.2-4-9.5-6.6-15.2-7.4c-2.8-0.4-5.6-0.3-8.4,0.3c-5.8,1.1-11.1,4-15.1,8.4c-2.3,2.4-3.9,5.3-4.9,8.5
		c-1,3.4-1.1,7.1-0.2,10.6c0.8,3.2,2.4,6.2,4.6,8.8c1.9,2.3,4.3,4.3,6.9,5.8c2.5,1.5,5.1,2.6,7.9,3.2c2.7,0.7,5.6,0.9,8.4,0.7
		c2.8-0.3,5.6-1,8.2-2.2c2.7-1.2,5.1-2.8,7.3-4.7c2.3-2,4.2-4.5,5.5-7.3c0.7-1.5,1.2-3,1.6-4.6c0.3-1.6,0.5-3.3,0.4-5
		C99.7,51,99.7,50.5,99.6,50.1z M93.3,45.2L93.3,45.2l0.2,1.2L93.3,45.2z"/>
	<path class="st7" d="M94.1,63.1c-2.4,3.5-5.9,6.1-9.9,7.6c-1.5,0.6-3.1,1-4.7,1.3c-3.7,0.7-7.6,0.3-11.1-1.3
		C64.4,68.8,58.3,64,59,58c0.4-3.5,2.8-6.4,6.1-7.6c0.3-0.1,4-1.2,6.4,0.8c2,1.7,0.9,3.8,3.2,6.9c0.5,0.7,2.7,3.6,5.1,3.2
		c1.1-0.3,2.1-1,2.7-2c0.3-0.4,0.6-0.9,0.8-1.3c2.1-4.1-0.1-6.7,1.8-9.2c1.6-1.7,4-2.4,6.3-1.8c4.2,1,5.3,6.3,5.4,6.7
		C97.7,57.7,95.5,61.1,94.1,63.1z"/>
	<path class="st8" d="M82.9,58.4c0.5,1-0.7,3.7-3,3.8c-2.1,0.2-3.7-1.8-3.5-2.9C76.8,57.7,82.1,57,82.9,58.4z"/>
	<g id="eyeL">
		<circle class="st10" cx="67" cy="58.6" r="2.9"/>
		<circle class="st11" cx="67" cy="58.6" r="1.8"/>
		<circle class="st12" cx="66" cy="58.1" r="0.9"/>
		<circle class="st13" cx="65.3" cy="59.6" r="0.4"/>
	</g>
	<g id="eyeR">
		<circle class="st10" cx="90.7" cy="56" r="2.9"/>
		<circle class="st11" cx="90.7" cy="56" r="1.8"/>
		<circle class="st12" cx="89.8" cy="55.2" r="0.9"/>
		<circle class="st13" cx="88.8" cy="56.5" r="0.4"/>
	</g>
	<circle id="LblushL" class="st9" cx="66.2" cy="64.3" r="2"/>
	<circle id="LblushR" class="st9" cx="91.7" cy="61.2" r="2"/>
</g>
</svg>
