<?xml version="1.0" encoding="utf-8"?>
<!-- Generator: Adobe Illustrator 22.1.0, SVG Export Plug-In . SVG Version: 6.00 Build 0)  -->
<svg version="1.1" id="sheep" xmlns="http://www.w3.org/2000/svg" xmlns:xlink="http://www.w3.org/1999/xlink" x="0px" y="0px"
	 viewBox="0 0 180.9 189.1" style="enable-background:new 0 0 180.9 189.1;" xml:space="preserve">
<style type="text/css">
	.st0{fill:#333333;}
	.st1{fill:#A33423;}
	.st2{fill:#C74E54;}
	.st3{fill:#64617D;}
	.st4{fill:#AD6378;}
	.st5{clip-path:url(#SVGID_2_);}
	.st6{filter:url(#Adobe_OpacityMaskFilter);}
	.st7{mask:url(#SVGID_3_);}
	.st8{opacity:0.35;}
	.st9{fill:#4F282B;}
	.st10{fill:#64617D;stroke:#333333;stroke-width:2;stroke-miterlimit:10;}
	.st11{fill:#AD6378;stroke:#333333;stroke-width:2;stroke-miterlimit:10;}
	.st12{clip-path:url(#SVGID_5_);}
	.st13{filter:url(#Adobe_OpacityMaskFilter_1_);}
	.st14{mask:url(#SVGID_6_);}
	.st15{fill:#CEB08D;stroke:#333333;stroke-width:6;stroke-linecap:round;stroke-linejoin:round;}
	.st16{opacity:0.82;}
	.st17{filter:url(#Adobe_OpacityMaskFilter_2_);}
	.st18{mask:url(#SVGID_7_);}
	.st19{clip-path:url(#SVGID_11_);}
	.st20{fill:#EFD1A6;}
	.st21{fill:#EFA29F;}
	.st22{fill:#EAA05A;}
	.st23{fill:#CEB08D;}
	.st24{fill:#CB8B89;}
	.st25{fill:#4C4B4B;}
	.st26{fill:#313131;}
	.st27{opacity:0.57;fill:#BAC8CA;enable-background:new    ;}
	.st28{opacity:0.78;fill:#C1CFD0;enable-background:new    ;}
	.st29{fill:#A23322;}
	.st30{filter:url(#Adobe_OpacityMaskFilter_3_);}
	.st31{mask:url(#SVGID_14_);}
	.st32{clip-path:url(#SVGID_18_);}
	.st33{opacity:0.18;}
	.st34{fill:#F7DFC7;}
	.st35{opacity:0.19;}
	.st36{fill:#A11D21;}
	.st37{fill:#D99A87;}
	.st38{clip-path:url(#SVGID_22_);}
	.st39{opacity:0.46;}
	.st40{filter:url(#Adobe_OpacityMaskFilter_4_);}
	.st41{mask:url(#SVGID_23_);}
	.st42{fill:#EEDAC4;}
	.st43{filter:url(#Adobe_OpacityMaskFilter_5_);}
	.st44{mask:url(#SVGID_24_);}
	.st45{opacity:0.39;}
	.st46{filter:url(#Adobe_OpacityMaskFilter_6_);}
	.st47{mask:url(#SVGID_25_);}



    #hair, #face{
    -webkit-transition: transform 1s ease-in-out;
    -moz-transition: transform 1s ease-in-out;
    -ms-transition: transform 1s ease-in-out;
    -o-transition: transform 1s ease-in-out;
    transition: transform 1s ease-in-out;
    }

  #sheep:hover #face{
  transform: translateY(5px);
  }
  #sheep:hover #hair{
  transform: translateY(5px);
  }

  #scarfLeft{
  animation: scarfMoveLeft 3s infinite;
  transform-origin: center;

  }
   #scarfRight{
  animation: scarfMoveRight 3s infinite;
  transform-origin: center;
  }
  @keyframes scarfMoveLeft{
  0% {transform: rotate(0deg);}
  50% {transform: rotate(5deg);}
  100% {transform: rotate(0deg);}
  }
  @keyframes scarfMoveRight{
  0% {transform: rotate(0deg);}
  50% {transform: rotate(-5deg);}
  100% {transform: rotate(0deg);}
  }


</style>
<title>sheep</title>
<ellipse id="bg" transform="matrix(0.7071 -0.7071 0.7071 0.7071 -37.4698 90.4598)" class="st0" cx="90.5" cy="90.5" rx="90.4" ry="90.5"/>
<g id="scarfRight">
	<path class="st1" d="M152.3,172.7c-2.6,1.1-5.5,1.4-8.3,0.7c-3-0.8-5.7-2.5-7.6-4.9c-1.2-1.4-2.2-2.9-3.1-4.5l-0.4-0.6
		c-0.6-1.2-1.2-2.4-1.8-3.7s-1.2-2.8-1.8-4.3c-0.7-1.8-1.4-3.6-2.1-5.4l-0.7-2c-0.4-1.1-0.8-2.2-1.2-3.3c-0.3-0.8-0.5-1.6-0.8-2.4
		c-0.1-0.3-0.2-0.6-0.3-0.9s-0.1-0.4-0.2-0.6c-0.5-1.9-1-3.8-1.4-6l-0.4-1.9c-0.2-1.1-0.5-2.3-0.8-3.6c0-0.1,0-0.2,0-0.3
		c-0.1-0.2-0.1-0.5-0.2-0.7c-0.2-0.9-0.4-1.8-0.6-2.7c-0.7-3.5-1.3-6.6-1.8-9.3c-1-6.2-1-10.2,0.9-12.2c0.4-0.5,2-2,5.9-1.1
		c3.3,0.8,6.2,2.6,8.3,5.2l2.7,3.1c2.4,2.8,4.6,5.4,6.6,7.9l0.9,1l0.3,0.4l1.1,1.3c0.9,1,1.7,2.1,2.4,3.1c1.6,1.9,3,3.8,4.3,5.6
		l0.8,1.1c0.3,0.4,0.5,0.7,0.8,1.1l0.1,0.2c1.1,1.5,2.1,3,3,4.4c0.6,0.9,1.2,1.9,1.7,2.8s1.1,2,1.6,2.9l0,0c0.6,1.2,1.2,2.4,1.7,3.6
		c0.6,1.5,1.1,3,1.6,4.5c0.4,1.3,0.6,2.6,0.8,3.9c0.1,0.6,0.1,1.1,0.2,1.6C165.2,165.3,160.5,169,152.3,172.7z"/>
	<path class="st0" d="M152.8,173.7c-1.5,0.7-3.1,1.1-4.8,1.2c-1.6,0.1-3.3,0-4.9-0.4c-1.6-0.4-3.1-1.1-4.5-2.1
		c-1.3-1-2.5-2.1-3.6-3.3c-1-1.2-1.9-2.5-2.7-3.9c-0.2-0.4-0.4-0.7-0.6-1l-0.5-1l-1-2.1c-1.3-2.8-2.4-5.7-3.5-8.5
		c-0.5-1.4-1.1-2.9-1.6-4.3s-1-2.9-1.4-4.4s-0.8-3-1.2-4.5l-1-4.5l-0.9-4.5l-0.9-4.5l-1.6-9c-0.2-1.5-0.4-3-0.5-4.6
		c-0.1-1.6-0.1-3.2,0.1-4.7c0.1-0.8,0.4-1.6,0.7-2.4c0.3-0.8,0.9-1.6,1.6-2.2c0.7-0.5,1.6-0.8,2.5-0.9c0.8-0.1,1.7-0.1,2.5,0.1
		c3.1,0.6,6,2.1,8.3,4.3c0.6,0.5,1.1,1.1,1.6,1.7l1.5,1.8l2.9,3.5l5.8,7.1c1.9,2.4,3.8,4.8,5.6,7.2c0.9,1.2,1.9,2.4,2.8,3.6
		s1.7,2.5,2.6,3.8l1.3,1.9c0.4,0.6,0.8,1.3,1.2,1.9c0.8,1.3,1.5,2.6,2.3,4l-0.1-0.1c0.1,0.1,0.1,0.2,0.1,0.3l-0.1-0.2
		c0.7,1.4,1.4,2.7,2,4.1c0.6,1.4,1.1,2.9,1.5,4.3c0.4,1.5,0.7,3,0.9,4.5c0.1,0.8,0.2,1.6,0.2,2.3c0,0.8,0,1.6-0.1,2.4
		c-0.2,1.6-0.7,3.2-1.5,4.6c-0.8,1.4-1.8,2.7-3.1,3.7C158.3,170.8,155.6,172.4,152.8,173.7z M151.9,171.7c2.7-1.1,5.3-2.6,7.6-4.3
		c1.1-0.9,2.1-1.9,2.8-3.1c0.7-1.2,1.2-2.6,1.4-4c0.1-0.7,0.2-1.4,0.2-2.1c0-0.7,0-1.5-0.1-2.2c-0.1-1.5-0.4-2.9-0.7-4.4
		c-0.4-1.4-0.8-2.9-1.3-4.3c-0.6-1.4-1.2-2.7-1.8-4.1V143c0,0.1,0,0.2,0.1,0.3l-0.1-0.1c-1.4-2.7-2.9-5.3-4.6-7.8
		c-1.6-2.6-3.5-5-5.3-7.4s-3.7-4.8-5.7-7.1s-3.9-4.6-5.9-6.9l-3-3.4l-1.5-1.7c-0.5-0.6-1-1.1-1.5-1.6c-2.1-2-4.8-3.3-7.7-3.7
		c-1.3-0.3-2.7,0-3.8,0.7c-0.5,0.4-0.9,0.9-1.1,1.5c-0.3,0.6-0.4,1.3-0.5,2c-0.2,1.4-0.2,2.9,0,4.3c0.2,1.5,0.4,3,0.7,4.4l1.9,8.9
		l2,8.9l1.1,4.4c0.4,1.5,0.7,2.9,1.2,4.3s1,2.8,1.5,4.2c0.5,1.4,1.1,2.8,1.6,4.2c1.1,2.8,2.2,5.6,3.4,8.3l1,2l0.5,1l0.5,1
		c0.7,1.3,1.5,2.5,2.4,3.6c1.6,2.3,4,4,6.6,4.9C146.4,172.9,149.3,172.8,151.9,171.7L151.9,171.7z"/>
	<g id="scarfBottomRight">
		<path class="st2" d="M145,175.7c0.8,0.9,1.5,1.9,2.2,2.9c0.7,1,1.3,2,1.9,3s1.2,2.1,1.7,3.1c0.3,0.5,0.5,1.1,0.8,1.6
			s0.4,1.1-0.5,2.2c-0.3,0.3-0.7,0.5-1.1,0.5c-1.3,0-1.8-0.5-2-1s-0.5-1.1-0.7-1.6c-0.5-1.1-0.9-2.2-1.4-3.3s-0.8-2.2-1.1-3.4
			c-0.4-1.2-0.6-2.3-0.9-3.5c-0.1-0.3,0.2-0.6,0.5-0.7C144.6,175.4,144.9,175.5,145,175.7L145,175.7z"/>
		<path class="st2" d="M152.4,174.5c0.8,0.9,1.5,1.9,2.2,2.9c0.7,1,1.3,2,1.9,3s1.2,2.1,1.7,3.1c0.3,0.5,0.5,1.1,0.8,1.6
			s0.4,1.1-0.5,2.2c-0.3,0.3-0.6,0.5-1.1,0.5c-1.4,0-1.8-0.5-2-1s-0.5-1.1-0.7-1.6c-0.5-1.1-0.9-2.2-1.4-3.3s-0.8-2.2-1.1-3.4
			c-0.4-1.2-0.6-2.3-0.9-3.5c-0.1-0.3,0.2-0.6,0.5-0.7C152.1,174.2,152.3,174.3,152.4,174.5L152.4,174.5z"/>
		<path class="st2" d="M158.2,171.9c0.8,0.9,1.5,1.9,2.2,2.9c0.7,1,1.3,2,1.9,3s1.2,2.1,1.7,3.1c0.3,0.5,0.5,1.1,0.8,1.6
			s0.4,1.1-0.5,2.2c-0.3,0.3-0.6,0.5-1.1,0.5c-1.4,0-1.8-0.5-2-1s-0.5-1.1-0.7-1.6c-0.5-1.1-0.9-2.2-1.4-3.3s-0.8-2.2-1.1-3.4
			c-0.4-1.2-0.6-2.3-0.9-3.5c-0.1-0.3,0.2-0.6,0.5-0.7C157.9,171.6,158.1,171.7,158.2,171.9L158.2,171.9z"/>
		<path class="st2" d="M163.3,168.3c0.8,0.9,1.5,1.9,2.2,2.9c0.7,1,1.3,2,1.9,3s1.2,2.1,1.7,3.1c0.3,0.5,0.5,1.1,0.8,1.6
			s0.4,1.1-0.5,2.2c-0.3,0.3-0.6,0.5-1.1,0.5c-1.4,0-1.8-0.5-2-1s-0.5-1.1-0.7-1.6c-0.5-1.1-0.9-2.2-1.4-3.3s-0.8-2.2-1.1-3.4
			c-0.4-1.2-0.6-2.3-0.9-3.5c-0.1-0.3,0.2-0.6,0.5-0.7c0,0,0,0,0,0C163,168.1,163.2,168.2,163.3,168.3z"/>
		<path class="st2" d="M167.1,162.4c0.8,0.9,1.5,1.9,2.2,2.9c0.7,1,1.3,2,1.9,3s1.2,2.1,1.7,3.1c0.3,0.5,0.5,1.1,0.8,1.6
			s0.4,1.1-0.5,2.2c-0.3,0.3-0.7,0.5-1.1,0.5c-1.3,0-1.8-0.5-2-1s-0.5-1.1-0.7-1.6c-0.5-1.1-0.9-2.2-1.4-3.3s-0.8-2.2-1.1-3.4
			c-0.4-1.2-0.6-2.3-0.9-3.5c-0.1-0.3,0.2-0.6,0.5-0.7c0,0,0,0,0,0C166.8,162.2,167,162.3,167.1,162.4z"/>
	</g>
	<path class="st3" d="M153.5,131.7c-3.4,2-6.9,3.8-10.5,5.2c-6.7,2.7-13.1,4.3-17.5,4.5c-0.1-0.2-0.1-0.4-0.2-0.6
		c-0.5-1.9-0.9-3.8-1.4-6c-0.1-0.6-0.3-1.3-0.4-1.9c4.5-3.4,9.5-6.2,14.8-8.2c2.6-1,5.2-1.9,7.9-2.7l2.4,3.1
		c1.5,1.9,2.9,3.8,4.2,5.6L153.5,131.7z"/>
	<path class="st0" d="M125.1,142.1l-0.1-0.4c-0.1-0.2-0.1-0.4-0.2-0.6c-0.4-1.7-0.9-3.5-1.4-6c-0.1-0.6-0.3-1.3-0.4-1.9l-0.1-0.4
		l0.3-0.2c4.6-3.4,9.6-6.2,14.9-8.3c2.6-1.1,5.2-2,7.9-2.8l0.4-0.1l0.2,0.3c0.8,1.1,1.6,2.1,2.4,3.1c1.5,1.9,2.9,3.8,4.2,5.6
		l1.1,1.6l-0.5,0.3c-3.4,2-6.9,3.8-10.6,5.3c-6.6,2.7-13,4.3-17.7,4.5L125.1,142.1z M124.2,133.2c0.1,0.5,0.2,1.1,0.3,1.6
		c0.5,2.4,0.9,4.3,1.4,6c0,0.1,0,0.1,0,0.1c4.5-0.3,10.6-1.9,16.9-4.4c3.4-1.4,6.7-3,9.9-4.9l-0.4-0.6c-1.3-1.8-2.7-3.7-4.1-5.6
		c-0.7-0.9-1.4-1.8-2.1-2.8c-2.5,0.7-5,1.6-7.4,2.6C133.4,127.2,128.6,129.9,124.2,133.2L124.2,133.2z"/>
	<path class="st4" d="M163.6,151.1c-3.7,3-7.7,5.5-12,7.6c-6.6,3.2-13,5.1-17.5,5.3c-0.1-0.2-0.2-0.4-0.3-0.6
		c-0.6-1.2-1.2-2.4-1.8-3.7s-1.2-2.8-1.8-4.3c3.1-3.4,8.5-7.3,15-10.5c4.4-2.2,9-3.8,13.7-4.8c0.6,1,1.1,2,1.6,2.9l0,0
		c0.6,1.2,1.2,2.4,1.6,3.6C162.8,148.1,163.3,149.6,163.6,151.1z"/>
	<path class="st0" d="M133.9,164.6l-0.2-0.3l-0.3-0.6c-0.6-1.1-1.2-2.4-1.8-3.7s-1.1-2.7-1.8-4.3l-0.1-0.3l0.2-0.3
		c3.3-3.6,8.8-7.5,15.2-10.6c4.4-2.2,9-3.8,13.7-4.8l0.4-0.1l0.2,0.4c0.6,1,1.1,1.9,1.5,2.8l0.1,0.1v0.1c0.6,1.2,1.1,2.4,1.6,3.5
		c0.6,1.5,1.1,3,1.5,4.6l0.1,0.4l-0.3,0.2c-3.7,3-7.7,5.6-12,7.6c-6.5,3.1-12.9,5.1-17.7,5.4L133.9,164.6z M131,155.5
		c0.6,1.5,1.1,2.7,1.6,3.9c0.6,1.3,1.2,2.6,1.8,3.7l0.2,0.3c4.6-0.3,10.8-2.2,16.9-5.2c4.1-2,8-4.4,11.6-7.2
		c-0.4-1.4-0.9-2.7-1.4-4.1c-0.5-1.1-1-2.3-1.6-3.5l-0.1-0.1c-0.4-0.8-0.8-1.6-1.3-2.5c-4.5,1-8.9,2.6-13,4.7
		C139.5,148.4,134.2,152.1,131,155.5z"/>
	<g>
		<defs>
			<path id="SVGID_1_" d="M152.3,172.7c-2.6,1.1-5.5,1.4-8.3,0.7c-3-0.8-5.7-2.5-7.6-4.9c-1.2-1.4-2.2-2.9-3.1-4.5l-0.4-0.6
				c-0.6-1.2-1.2-2.4-1.8-3.7s-1.2-2.8-1.8-4.3c-0.7-1.8-1.4-3.6-2.1-5.4l-0.7-2c-0.4-1.1-0.8-2.2-1.2-3.3c-0.3-0.8-0.5-1.6-0.8-2.4
				c-0.1-0.3-0.2-0.6-0.3-0.9s-0.1-0.4-0.2-0.6c-0.5-1.9-1-3.8-1.4-6l-0.4-1.9c-0.2-1.1-0.5-2.3-0.8-3.6c0-0.1,0-0.2,0-0.3
				c-0.1-0.2-0.1-0.5-0.2-0.7c-0.2-0.9-0.4-1.8-0.6-2.7c-0.7-3.5-1.3-6.6-1.8-9.3c-1-6.2-1-10.2,0.9-12.2c0.4-0.5,2-2,5.9-1.1
				c3.3,0.8,6.2,2.6,8.3,5.2l2.7,3.1c2.4,2.8,4.6,5.4,6.6,7.9l0.9,1l0.3,0.4l1.1,1.3c0.9,1,1.7,2.1,2.4,3.1c1.6,1.9,3,3.8,4.3,5.6
				l0.8,1.1c0.3,0.4,0.5,0.7,0.8,1.1l0.1,0.2c1.1,1.5,2.1,3,3,4.4c0.6,0.9,1.2,1.9,1.7,2.8s1.1,2,1.6,2.9l0,0
				c0.6,1.2,1.2,2.4,1.7,3.6c0.6,1.5,1.1,3,1.6,4.5c0.4,1.3,0.6,2.6,0.8,3.9c0.1,0.6,0.1,1.1,0.2,1.6
				C165.2,165.3,160.5,169,152.3,172.7z"/>
		</defs>
		<clipPath id="SVGID_2_">
			<use xlink:href="#SVGID_1_"  style="overflow:visible;"/>
		</clipPath>
		<g class="st5">
			<defs>
				<filter id="Adobe_OpacityMaskFilter" filterUnits="userSpaceOnUse" x="121.1" y="97.3" width="51.5" height="74.2">
					<feFlood  style="flood-color:white;flood-opacity:1" result="back"/>
					<feBlend  in="SourceGraphic" in2="back" mode="normal"/>
				</filter>
			</defs>
			<mask maskUnits="userSpaceOnUse" x="121.1" y="97.3" width="51.5" height="74.2" id="SVGID_3_">
				<g class="st6">

						<image style="overflow:visible;" width="56" height="79" xlink:href="D038F11186E0473F.jpg"  transform="matrix(1 0 0 1 119 95.07)">
					</image>
				</g>
			</mask>
			<g class="st7">
				<g>
					<g class="st8">
						<g>
							<path class="st9" d="M164.5,170.6c-8.4,4.5-23.7-7.9-34.2-27.5s-12.2-39.3-3.8-43.8s21.1-2.5,31.6,17.2
								c5,9.4,12.8,23.1,14.2,33.3C174,160.9,168.9,168.2,164.5,170.6z"/>
						</g>
					</g>
				</g>
			</g>
		</g>
	</g>
</g>
<g id="scarfLeft">
	<path class="st1" d="M60.8,126.3c-0.4,1.3-0.6,2.2-0.6,2.2c-0.3,1-0.7,1.9-1,2.9c-1.1,3.3-2.2,6.4-3.2,9.4
		c-0.2,0.6-0.4,1.2-0.6,1.9l-0.9,2.7c-1,2.8-1.9,5.4-2.8,7.8c-1,2.6-2.1,5.1-3.3,7.6c-0.2,0.4-0.4,0.8-0.7,1.2
		c-3,5.4-6.4,9.3-11,8.9c-8.3-0.7-17.8-4.6-21.2-11.5c-1.6-3.3-1.4-6.9,0.2-11c0.2-0.6,0.4-1.1,0.7-1.7c1-2.1,2.1-4.1,3.4-6
		c1.3-2,2.8-4.2,4.4-6.4c1-1.3,2-2.7,3.1-4.1l0.8-1.1l2.5-3.2c1.3-1.7,2.6-3.3,4.1-4.9c0.9-0.9,1.9-1.9,3-3
		c5.4-5.2,11.6-9.5,18.4-12.7l0.1-0.1c2.1-0.5,4.6-0.5,6.2,1.3C65,109.8,62.2,121.4,60.8,126.3z"/>
	<path class="st0" d="M18.9,165.6c-1.3-1-2.4-2.3-3.3-3.7c-0.8-1.4-1.4-3-1.6-4.6c-0.1-0.8-0.2-1.5-0.1-2.3c0-0.8,0.1-1.6,0.2-2.3
		c0.2-1.5,0.5-3.1,1-4.5c0.4-1.5,1-2.9,1.6-4.3c0.6-1.4,1.4-2.8,2.1-4.1l0,0.2c0-0.1,0.1-0.2,0.1-0.3l-0.1,0.1
		c0.8-1.3,1.6-2.7,2.5-3.9c0.4-0.6,0.9-1.3,1.3-1.9l1.4-1.9c0.9-1.2,1.8-2.5,2.8-3.8s2-2.4,2.9-3.6c1.9-2.4,3.9-4.8,6-7.2l6.2-7
		l3.1-3.5l1.5-1.8c0.5-0.6,1.1-1.2,1.7-1.7c2.5-2.3,5.6-3.8,8.9-4.3c0.9-0.1,1.8-0.2,2.6-0.1c0.9,0.1,1.8,0.4,2.6,0.9
		c0.7,0.5,1.3,1.2,1.7,2.1c0.4,0.8,0.6,1.6,0.8,2.4c0.2,1.6,0.3,3.2,0.1,4.7c-0.1,1.6-0.3,3.1-0.6,4.6l-1.7,9l-0.9,4.5l-1,4.5
		l-1.1,4.5c-0.4,1.5-0.8,3-1.2,4.5s-1,2.9-1.5,4.4s-1.1,2.9-1.7,4.3c-1.2,2.9-2.4,5.7-3.7,8.5l-1.1,2.1l-0.6,1l-0.6,1
		c-0.9,1.4-1.8,2.7-2.9,3.9c-1.1,1.3-2.4,2.4-3.8,3.3c-1.5,1-3.1,1.7-4.8,2.1c-1.7,0.4-3.5,0.6-5.2,0.4c-1.8-0.1-3.5-0.5-5.1-1.2
		C24.3,169.1,21.5,167.5,18.9,165.6z M37,168.9c2.8-0.9,5.2-2.6,7-4.9c0.9-1.1,1.8-2.3,2.5-3.6l0.6-1l0.5-1l1-2
		c1.3-2.7,2.5-5.5,3.7-8.3c0.6-1.4,1.2-2.8,1.7-4.2s1.1-2.8,1.6-4.2s0.9-2.9,1.3-4.3L58,131l2.1-8.9l2-8.9c0.3-1.5,0.5-3,0.7-4.4
		c0.2-1.4,0.2-2.9,0.1-4.3c-0.1-0.7-0.3-1.4-0.5-2c-0.3-0.6-0.7-1.1-1.2-1.5c-1.2-0.7-2.7-1-4-0.7c-3,0.4-5.9,1.7-8.2,3.7
		c-0.6,0.5-1.1,1-1.7,1.6l-1.6,1.7l-3.2,3.4c-2.1,2.3-4.2,4.6-6.3,6.9s-4.1,4.7-6,7.1s-3.9,4.8-5.7,7.3c-1.8,2.5-3.5,5.1-5,7.9
		l-0.1,0.1c0.1-0.1,0.1-0.2,0.1-0.3v0.2c-0.6,1.4-1.3,2.7-1.9,4.1c-0.6,1.4-1,2.8-1.4,4.3c-0.4,1.4-0.6,2.9-0.8,4.4
		c-0.1,0.7-0.1,1.5-0.1,2.2c0,0.7,0.1,1.4,0.2,2.1c0.2,1.4,0.8,2.8,1.5,4c0.8,1.2,1.8,2.3,3,3.1c2.5,1.8,5.3,3.2,8.1,4.3
		C31.1,169.6,34.1,169.7,37,168.9z"/>
	<g id="scarfBottomLeft">
		<path class="st2" d="M13.9,160.4c-0.3,1.2-0.7,2.5-1.2,3.7c-0.4,1.2-0.9,2.4-1.5,3.5s-1.1,2.3-1.6,3.4c-0.3,0.6-0.6,1.1-0.9,1.7
			c-0.1,0.3-0.4,0.6-0.6,0.7c-0.5,0.2-1,0.3-1.5,0.3c-0.4,0-0.8-0.2-1-0.6c-0.3-0.4-0.5-0.9-0.6-1.4c0-0.3,0.1-0.7,0.3-0.9
			c0.3-0.6,0.6-1.1,0.9-1.6c0.6-1.1,1.3-2.2,2-3.2s1.4-2.1,2.2-3.1c0.8-1,1.6-2,2.5-3c0.2-0.2,0.6-0.2,0.9,0
			C13.9,160,13.9,160.2,13.9,160.4z"/>
		<path class="st2" d="M17.8,166.4c-0.3,1.2-0.7,2.5-1.2,3.7c-0.4,1.2-0.9,2.4-1.4,3.5s-1.1,2.3-1.7,3.4c-0.3,0.6-0.6,1.1-0.9,1.7
			c-0.1,0.3-0.4,0.6-0.6,0.7c-0.5,0.2-1,0.3-1.5,0.3c-0.4,0-0.8-0.2-1-0.6c-0.3-0.4-0.5-0.9-0.6-1.4c0-0.3,0.1-0.7,0.3-0.9
			c0.3-0.6,0.6-1.1,0.9-1.6c0.6-1.1,1.3-2.1,2-3.2s1.4-2.1,2.2-3.1c0.8-1,1.6-2,2.5-3c0.3-0.2,0.6-0.2,0.9,0.1
			C17.7,166,17.8,166.2,17.8,166.4L17.8,166.4z"/>
		<path class="st2" d="M23.6,170.3c-0.3,1.2-0.7,2.5-1.2,3.7c-0.5,1.2-0.9,2.4-1.5,3.5s-1.1,2.3-1.6,3.4c-0.3,0.6-0.6,1.1-0.9,1.7
			c-0.1,0.3-0.4,0.6-0.6,0.7c-0.5,0.2-1,0.3-1.5,0.3c-0.4,0-0.8-0.2-1-0.6c-0.3-0.4-0.5-0.9-0.6-1.4c0-0.3,0.1-0.7,0.3-0.9
			c0.3-0.6,0.6-1.1,0.9-1.6c0.6-1.1,1.3-2.2,2-3.2s1.4-2.1,2.2-3.1c0.8-1,1.6-2,2.5-3c0.2-0.2,0.6-0.2,0.8,0c0,0,0,0,0,0
			C23.6,169.9,23.6,170.1,23.6,170.3z"/>
		<path class="st2" d="M30.5,172.5c-0.3,1.2-0.7,2.5-1.2,3.7c-0.4,1.2-0.9,2.4-1.5,3.5s-1.1,2.3-1.7,3.4c-0.3,0.6-0.6,1.1-0.9,1.7
			c-0.1,0.3-0.4,0.6-0.6,0.7c-0.5,0.2-1,0.3-1.5,0.3c-0.4,0-0.8-0.2-1-0.6c-0.3-0.4-0.5-0.9-0.5-1.4c0-0.3,0.1-0.7,0.3-0.9
			c0.3-0.6,0.6-1.1,0.9-1.6c0.6-1.1,1.3-2.2,2-3.2s1.4-2.1,2.2-3.1c0.8-1,1.6-2,2.5-3c0.3-0.2,0.6-0.2,0.9,0.1
			C30.5,172.1,30.6,172.3,30.5,172.5L30.5,172.5z"/>
		<path class="st2" d="M38.2,172.9c-0.3,1.2-0.7,2.5-1.2,3.7c-0.5,1.2-0.9,2.4-1.5,3.5s-1.1,2.3-1.7,3.4c-0.3,0.6-0.6,1.1-0.9,1.7
			c-0.1,0.3-0.4,0.6-0.7,0.7c-0.5,0.2-1,0.3-1.5,0.3c-0.4,0-0.8-0.2-1-0.6c-0.3-0.4-0.5-0.9-0.5-1.4c0-0.3,0.1-0.7,0.3-0.9
			c0.3-0.6,0.6-1.1,0.9-1.6c0.6-1.1,1.3-2.2,2-3.2s1.4-2.1,2.2-3.1c0.8-1,1.6-2,2.5-3c0.2-0.2,0.6-0.2,0.9,0
			C38.2,172.4,38.2,172.7,38.2,172.9z"/>
	</g>
	<path class="st10" d="M51.6,153.1c-1,2.6-2.1,5.1-3.3,7.6c-4.1,0.1-10.1-1.1-16.3-3.7c-7.4-3-13.3-7-15.7-10.3c1-2.1,2.1-4.1,3.4-6
		c4.1-0.4,10.6,0.9,17.4,3.6C43.5,146.9,48.7,150.1,51.6,153.1z"/>
	<path class="st11" d="M59.1,131.4c-1.1,3.3-2.2,6.4-3.2,9.4c-4.9-0.5-9.7-1.7-14.2-3.6c-5-1.9-9.6-4.6-13.7-8.1l2.5-3.2
		c1.3-1.7,2.7-3.3,4.1-4.8c4.2,0.6,8.3,1.8,12.2,3.4C51.2,126.1,55.4,128.5,59.1,131.4z"/>
	<g>
		<defs>
			<path id="SVGID_4_" d="M60.2,125.7c-0.4,1.3-0.6,2.2-0.6,2.2c-0.3,1-0.7,1.9-1,2.9c-1.1,3.3-2.2,6.5-3.2,9.4
				c-0.2,0.6-0.4,1.2-0.6,1.9l-0.9,2.7c-1,2.8-1.9,5.4-2.8,7.8c-1,2.6-2.1,5.1-3.3,7.6c-0.2,0.4-0.4,0.8-0.7,1.2
				c-3,5.4-6.4,8.3-11,7.9c-8.3-0.7-17.8-3.6-21.2-10.5c-1.6-3.3-1.4-6.9,0.2-11c0.2-0.6,0.4-1.1,0.7-1.7c1-2.1,2.1-4.1,3.4-6
				c1.3-2,2.8-4.2,4.4-6.4c1-1.3,2-2.7,3.1-4.1l0.8-1.1l2.5-3.2c1.3-1.7,2.6-3.3,4.1-4.8c0.9-0.9,1.9-1.9,3-3
				c5.4-5.2,11.6-9.5,18.4-12.7h0.1c2.1-0.5,4.6-0.5,6.2,1.3C64.4,109.2,61.6,120.8,60.2,125.7z"/>
		</defs>
		<clipPath id="SVGID_5_">
			<use xlink:href="#SVGID_4_"  style="overflow:visible;"/>
		</clipPath>
		<g class="st12">
			<defs>
				<filter id="Adobe_OpacityMaskFilter_1_" filterUnits="userSpaceOnUse" x="8" y="91.8" width="53.8" height="75.4">
					<feFlood  style="flood-color:white;flood-opacity:1" result="back"/>
					<feBlend  in="SourceGraphic" in2="back" mode="normal"/>
				</filter>
			</defs>
			<mask maskUnits="userSpaceOnUse" x="8" y="91.8" width="53.8" height="75.4" id="SVGID_6_">
				<g class="st13">

						<image style="overflow:visible;" width="59" height="81" xlink:href="D038F11186E0473D.jpg"  transform="matrix(1 0 0 1 5 89.07)">
					</image>
				</g>
			</mask>
			<g class="st14">
				<g>
					<g class="st8">
						<g>
							<path class="st9" d="M15,165.9c8,5.2,24-6.5,35.7-26.2s14.7-40,6.6-45.2s-20.7-4.1-32.4,15.7c-5.6,9.4-14.2,23.1-16.3,33.6
								C6.3,155.2,10.8,163.2,15,165.9z"/>
						</g>
					</g>
				</g>
			</g>
		</g>
	</g>
</g>
<g id="face">
	<ellipse id="skin" class="st15" cx="91.5" cy="87.3" rx="40.5" ry="30.6"/>
	<g id="light" class="st16">
		<defs>
			<filter id="Adobe_OpacityMaskFilter_2_" filterUnits="userSpaceOnUse" x="46.8" y="50" width="89.4" height="71.1">
				<feFlood  style="flood-color:white;flood-opacity:1" result="back"/>
				<feBlend  in="SourceGraphic" in2="back" mode="normal"/>
			</filter>
		</defs>
		<mask maskUnits="userSpaceOnUse" x="46.8" y="50" width="89.4" height="71.1" id="SVGID_7_">
			<g class="st17">

					<image style="overflow:visible;" width="95" height="76" xlink:href="D038F11186E04743.jpg"  transform="matrix(1 0 0 1 44 47.07)">
				</image>
			</g>
		</mask>
		<g class="st18">
			<g>
				<g>
					<defs>
						<ellipse id="SVGID_8_" cx="91.5" cy="87.3" rx="44.7" ry="33.8"/>
					</defs>
					<clipPath id="SVGID_9_">
						<use xlink:href="#SVGID_8_"  style="overflow:visible;"/>
					</clipPath>
				</g>
			</g>
			<g>
				<g>
					<defs>
						<ellipse id="SVGID_10_" cx="91.5" cy="87.3" rx="44.7" ry="33.8"/>
					</defs>
					<clipPath id="SVGID_11_">
						<use xlink:href="#SVGID_10_"  style="overflow:visible;"/>
					</clipPath>
					<g class="st19">
						<g>
							<circle class="st20" cx="93.2" cy="84.7" r="34.7"/>
						</g>
					</g>
				</g>
			</g>
			<g>
				<g>
					<defs>
						<ellipse id="SVGID_12_" cx="91.5" cy="87.3" rx="44.7" ry="33.8"/>
					</defs>
					<clipPath id="SVGID_13_">
						<use xlink:href="#SVGID_12_"  style="overflow:visible;"/>
					</clipPath>
				</g>
			</g>
		</g>
	</g>
	<ellipse id="blush" class="st21" cx="67.8" cy="94.6" rx="6.8" ry="5.3"/>
	<ellipse id="blush-2" class="st21" cx="116.8" cy="95" rx="6.8" ry="5.3"/>
	<path id="nose" class="st22" d="M90.1,86.1l5.8,0.1c0.8,0,1.4,0.5,1.4,1.3c0,0.4-0.1,0.8-0.4,1.1l-3,2.6c-0.6,0.5-1.6,0.5-2.2,0
		L89,88.4c-0.5-0.5-0.6-1.4,0-1.9C89.3,86.1,89.7,86,90.1,86.1z"/>
	<g id="earLEft">
		<ellipse transform="matrix(0.578 -0.816 0.816 0.578 -49.3215 74.4053)" class="st23" cx="47.3" cy="84.9" rx="9.3" ry="5.2"/>
		<ellipse transform="matrix(0.578 -0.816 0.816 0.578 -50.6063 74.2322)" class="st24" cx="46.5" cy="86" rx="4" ry="2.2"/>
	</g>
	<g id="earRight">
		<ellipse transform="matrix(0.911 -0.4125 0.4125 0.911 -22.896 63.7068)" class="st23" cx="136.1" cy="84.9" rx="5.2" ry="9.3"/>
		<ellipse transform="matrix(0.911 -0.4125 0.4125 0.911 -23.3739 64.0548)" class="st24" cx="136.7" cy="86.2" rx="2.2" ry="4"/>
	</g>
	<g id="left_eye">
		<circle class="st25" cx="73.2" cy="86.6" r="4.1"/>
		<circle class="st26" cx="73.2" cy="86.6" r="2.6"/>
		<circle class="st27" cx="72.1" cy="85.4" r="1.3"/>
		<circle class="st28" cx="70.6" cy="87.2" r="0.5"/>
	</g>
	<g id="left_eye-2">
		<circle class="st25" cx="111.2" cy="86.6" r="4.1"/>
		<circle class="st26" cx="111.2" cy="86.6" r="2.6"/>
		<circle class="st27" cx="110.1" cy="85.4" r="1.3"/>
		<circle class="st28" cx="108.5" cy="87.2" r="0.5"/>
	</g>
</g>
<g id="scarfMain">
	<g id="scarfMain-2">
		<path class="st29" d="M125.1,123c-1.5-0.1-3.1-0.4-4.5-0.9c-0.8-0.3-1.6-0.6-2.3-0.8c-1.9-0.8-4.1-0.4-5.6,0.9
			c-0.9,0.8-1.9,1.5-3,2.1c-0.7,0.4-1.4,0.7-2.2,0.9c-4.8,1.2-7.6-1.4-9.5-1.7c-0.2,0-0.4,0-0.7,0c-1.6,0.3-6.3,1.8-11,2.9l-0.3,0.1
			c-5.2,1-10.5,0-15-2.7c-0.8-0.5-1.6-1-2.3-1.7c-2.5-2.4-1.9,0-6.2,1c-1.3,0.3-2.7,0.3-4,0.1c-2.1-0.4-4-1.3-5.8-2.4
			c-4.4-2.7-10-8.9-8.9-14.9S53,95.6,60.5,95c1.8-0.1,3.6-0.1,5.5,0.2c1.5,0.3,3,0.7,4.4,1.5c3.5,1.9,4.8,4.5,9.2,4.4
			c1.9,0,3.7-0.3,5.5-1c3.9-1.5,6.4-4.2,10.5-4.8c1.2-0.2,2.4-0.2,3.6-0.1c3.5,0.4,3.1,2.3,8.4,3.9c0.8,0.2,1.6,0.3,2.3,0.3
			c4.9,0,8.5-4.3,13.1-4.4c0.5,0,1,0,1.4,0.1c0.6,0.1,12.4,2.2,14.6,9.8C141.1,112.9,132,123.1,125.1,123z"/>
		<path class="st0" d="M125.1,124c-1.3,0-2.5-0.2-3.8-0.6c-0.6-0.2-1.2-0.3-1.8-0.6l-1.7-0.6c-0.9-0.3-1.9-0.4-2.8-0.1
			c-0.5,0.1-0.9,0.3-1.3,0.6c-0.3,0.2-0.9,0.7-1.3,1.1c-1,0.8-2.1,1.5-3.3,2c-0.6,0.3-1.3,0.5-1.9,0.6c-0.3,0.1-0.7,0.1-1,0.2
			c-0.3,0-0.7,0.1-1,0.1c-1.3,0-2.7-0.2-3.9-0.6c-0.6-0.2-1.2-0.4-1.8-0.7c-0.5-0.2-1-0.4-1.5-0.6h-0.2c-0.1,0-0.1,0-0.2,0l-0.7,0.2
			l-1.7,0.5l-3.4,1c-1.2,0.3-2.3,0.6-3.5,0.9l-1.8,0.4c-0.6,0.1-1.3,0.3-1.9,0.3c-2.5,0.3-5.1,0.2-7.6-0.4c-2.5-0.5-4.9-1.5-7.1-2.9
			c-0.6-0.4-1.1-0.7-1.6-1.2c-0.2-0.2-0.5-0.5-0.7-0.7l-0.3-0.2l-0.3-0.2c-0.1-0.1-0.1-0.1-0.2-0.1s0,0,0,0l0,0l0,0
			c0.1,0,0.1,0,0.2,0l0,0h-0.1c-0.2,0.1-0.4,0.3-0.7,0.4s-0.6,0.4-0.9,0.5c-0.6,0.3-1.3,0.6-1.9,0.8c-2,0.6-4,0.6-6,0.1
			c-1.2-0.3-2.4-0.8-3.6-1.3c-1.1-0.6-2.2-1.3-3.2-2c-1-0.7-2-1.6-2.9-2.5c-0.9-0.9-1.7-1.9-2.5-2.9c-0.8-1-1.4-2.2-1.9-3.3
			c-0.5-1.2-0.9-2.5-1-3.8c-0.1-1.3,0-2.7,0.4-4c0.4-1.3,1.1-2.5,1.9-3.5c0.8-1,1.8-1.9,2.8-2.7c0.3-0.2,0.5-0.4,0.8-0.5
			c0.3-0.2,0.5-0.3,0.8-0.5c0.6-0.3,1.1-0.6,1.7-0.9c2.3-1,4.7-1.8,7.1-2.1c2.5-0.4,5-0.4,7.4,0c1.3,0.2,2.5,0.5,3.7,1
			c1.2,0.5,2.3,1.1,3.3,1.8c1,0.7,1.9,1.5,2.8,2.1c0.9,0.6,1.9,1,2.9,1.1c1.1,0.1,2.2,0.1,3.3-0.1c1.1-0.1,2.2-0.4,3.2-0.8
			c1.1-0.5,2.1-1,3.1-1.6c1-0.6,2-1.2,3.2-1.8c1.1-0.6,2.3-1,3.5-1.3c1.2-0.3,2.5-0.3,3.8-0.2c0.6,0,1.3,0.2,1.9,0.3
			c0.6,0.2,1.3,0.5,1.8,0.9c0.5,0.4,1,0.7,1.4,1c0.5,0.3,0.9,0.6,1.4,0.8c0.5,0.3,1,0.5,1.6,0.7c0.5,0.2,1.1,0.4,1.6,0.5
			c1.1,0.2,2.2,0.2,3.2,0c2.2-0.4,4.2-1.7,6.4-2.8c1.1-0.6,2.3-1,3.5-1.3c0.6-0.1,1.3-0.2,1.9-0.2c0.6,0,1.3,0.1,1.9,0.2
			c2.4,0.5,4.7,1.3,6.9,2.3c2.3,1,4.3,2.6,5.9,4.5c0.8,1,1.4,2.2,1.7,3.4c0.3,1.2,0.4,2.5,0.3,3.8c-0.3,2.5-1.2,4.9-2.6,7
			c-1.3,2.1-3.1,4-5.1,5.4c-1,0.8-2.1,1.4-3.3,1.9C127.8,123.7,126.5,124,125.1,124z M125.1,121.9c2.2-0.1,4.3-0.9,6-2.2
			c1.8-1.3,3.4-3,4.7-4.9c1.3-1.8,2.1-4,2.5-6.2c0.1-1.1,0.1-2.2-0.2-3.3c-0.3-1.1-0.7-2.1-1.4-2.9c-1.4-1.8-3.2-3.2-5.3-4.2
			c-2.1-1-4.3-1.8-6.6-2.3c-2.2-0.5-4.5-0.1-6.4,1.1c-2.1,1-4.2,2.4-6.7,2.9c-1.3,0.3-2.6,0.3-3.8,0c-0.6-0.1-1.2-0.3-1.8-0.5
			c-0.6-0.2-1.2-0.4-1.7-0.7c-0.6-0.3-1.1-0.6-1.6-0.9c-0.5-0.3-1-0.7-1.5-1c-0.4-0.3-0.9-0.5-1.4-0.7c-0.5-0.1-1.1-0.2-1.6-0.2
			c-2.2-0.2-4.5,0.3-6.4,1.4c-2,1-4,2.5-6.3,3.4c-1.2,0.5-2.4,0.8-3.6,1c-1.3,0.2-2.5,0.3-3.8,0.1c-1.3-0.1-2.6-0.6-3.7-1.3
			c-1.1-0.7-2-1.5-2.9-2.1c-0.9-0.6-1.9-1.2-2.9-1.6c-1-0.4-2.1-0.7-3.2-0.8c-2.3-0.3-4.5-0.2-6.8,0.2c-2.2,0.4-4.4,1-6.5,2
			c-2,0.9-3.8,2.3-5.2,4c-0.6,0.8-1.1,1.7-1.4,2.7c-0.3,1-0.4,2-0.3,3c0.1,1,0.4,2.1,0.8,3c0.4,1,1,2,1.6,2.9
			c1.3,1.8,2.9,3.4,4.8,4.7c0.9,0.6,1.9,1.2,2.9,1.7c1,0.5,2,0.9,3,1.1c1,0.2,2,0.3,3.1,0.2c1-0.1,2-0.4,2.9-0.9
			c0.2-0.1,0.4-0.3,0.7-0.4c0.2-0.1,0.5-0.3,0.8-0.5l0.3-0.2c0.1-0.1,0.3-0.1,0.4-0.2c0.3-0.1,0.7-0.1,1.1-0.1h0.3l0.2,0.1
			c0.1,0,0.3,0.1,0.4,0.2c0.2,0.1,0.4,0.2,0.6,0.4l0.4,0.3l0.4,0.3c0.2,0.2,0.4,0.4,0.6,0.5c0.4,0.3,0.8,0.7,1.3,0.9
			c3.8,2.3,8.3,3.3,12.7,2.8c0.6,0,1.1-0.1,1.7-0.2l1.7-0.4c1.1-0.3,2.3-0.6,3.4-0.8l3.4-0.9l1.8-0.5l0.5-0.1l0.2-0.1h0.1h0.1h0.2
			c0.5,0,0.9,0,1.3,0.2c0.6,0.2,1.2,0.4,1.8,0.7c0.5,0.2,1,0.4,1.6,0.6c1,0.4,2,0.6,3.1,0.6c0.3,0,0.5,0,0.8,0
			c0.3,0,0.5-0.1,0.8-0.1c0.5-0.1,1-0.2,1.5-0.4c1-0.5,1.9-1.1,2.8-1.8c0.5-0.3,0.8-0.7,1.5-1.1c1.8-1.2,4.1-1.4,6.2-0.6l1.6,0.6
			c0.5,0.2,1.1,0.4,1.6,0.6C122.9,121.7,124,121.9,125.1,121.9L125.1,121.9z"/>
	</g>
	<g id="light-2">
		<defs>
			<filter id="Adobe_OpacityMaskFilter_3_" filterUnits="userSpaceOnUse" x="30.8" y="88.9" width="115.3" height="41.4">
				<feFlood  style="flood-color:white;flood-opacity:1" result="back"/>
				<feBlend  in="SourceGraphic" in2="back" mode="normal"/>
			</filter>
		</defs>
		<mask maskUnits="userSpaceOnUse" x="30.8" y="88.9" width="115.3" height="41.4" id="SVGID_14_">
			<g class="st30">

					<image style="overflow:visible;" width="121" height="47" xlink:href="D038F11186E04745.jpg"  transform="matrix(1 0 0 1 28 86.07)">
				</image>
			</g>
		</mask>
		<g class="st31">
			<g>
				<g>
					<defs>
						<path id="SVGID_15_" d="M125.1,123c-1.5-0.1-3.1-0.4-4.5-0.9c-0.8-0.3-1.6-0.6-2.3-0.8c-1.9-0.8-4.1-0.4-5.6,0.9
							c-0.9,0.8-1.9,1.5-3,2.1c-0.7,0.4-1.4,0.7-2.2,0.9c-4.8,1.2-7.6-1.4-9.5-1.7c-0.2,0-0.4,0-0.7,0c-1.6,0.3-6.3,1.8-11,2.9
							l-0.3,0.1c-5.2,1-10.5,0-15-2.7c-0.8-0.5-1.6-1-2.3-1.7c-2.5-2.4-1.9,0-6.2,1c-1.3,0.3-2.7,0.3-4,0.1c-2.1-0.4-4-1.3-5.8-2.4
							c-4.4-2.7-10-8.9-8.9-14.9S53,95.6,60.5,95c1.8-0.1,3.6-0.1,5.5,0.2c1.5,0.3,3,0.7,4.4,1.5c3.5,1.9,4.8,4.5,9.2,4.4
							c1.9,0,3.7-0.3,5.5-1c3.9-1.5,6.4-4.2,10.5-4.8c1.2-0.2,2.4-0.2,3.6-0.1c3.5,0.4,3.1,2.3,8.4,3.9c0.8,0.2,1.6,0.3,2.3,0.3
							c4.9,0,8.5-4.3,13.1-4.4c0.5,0,1,0,1.4,0.1c0.6,0.1,12.4,2.2,14.6,9.8C141.1,112.9,132,123.1,125.1,123z"/>
					</defs>
					<clipPath id="SVGID_16_">
						<use xlink:href="#SVGID_15_"  style="overflow:visible;"/>
					</clipPath>
				</g>
			</g>
			<g>
				<g>
					<defs>
						<path id="SVGID_17_" d="M125.1,123c-1.5-0.1-3.1-0.4-4.5-0.9c-0.8-0.3-1.6-0.6-2.3-0.8c-1.9-0.8-4.1-0.4-5.6,0.9
							c-0.9,0.8-1.9,1.5-3,2.1c-0.7,0.4-1.4,0.7-2.2,0.9c-4.8,1.2-7.6-1.4-9.5-1.7c-0.2,0-0.4,0-0.7,0c-1.6,0.3-6.3,1.8-11,2.9
							l-0.3,0.1c-5.2,1-10.5,0-15-2.7c-0.8-0.5-1.6-1-2.3-1.7c-2.5-2.4-1.9,0-6.2,1c-1.3,0.3-2.7,0.3-4,0.1c-2.1-0.4-4-1.3-5.8-2.4
							c-4.4-2.7-10-8.9-8.9-14.9S53,95.6,60.5,95c1.8-0.1,3.6-0.1,5.5,0.2c1.5,0.3,3,0.7,4.4,1.5c3.5,1.9,4.8,4.5,9.2,4.4
							c1.9,0,3.7-0.3,5.5-1c3.9-1.5,6.4-4.2,10.5-4.8c1.2-0.2,2.4-0.2,3.6-0.1c3.5,0.4,3.1,2.3,8.4,3.9c0.8,0.2,1.6,0.3,2.3,0.3
							c4.9,0,8.5-4.3,13.1-4.4c0.5,0,1,0,1.4,0.1c0.6,0.1,12.4,2.2,14.6,9.8C141.1,112.9,132,123.1,125.1,123z"/>
					</defs>
					<clipPath id="SVGID_18_">
						<use xlink:href="#SVGID_17_"  style="overflow:visible;"/>
					</clipPath>
					<g class="st32">
						<g class="st33">
							<g>
								<path class="st34" d="M111.2,110.9c0,10.6-1.6,19.4-17.6,19.4s-29.1-8.6-29.1-19.3S70,88.9,86.1,88.9c7.7,0,19-0.5,26,3.4
									C119.7,96.6,111.2,105.3,111.2,110.9z"/>
							</g>
						</g>
						<g class="st35">
							<g>
								<path class="st36" d="M30.9,110.1c0.4,9.5,8.8,16.9,18.8,16.4s17.7-8.5,17.3-18s-4.3-19.7-14.3-19.2
									c-4.8,0.2-11.8,0.1-16,3.8C32.1,97.1,30.6,105.2,30.9,110.1z"/>
							</g>
						</g>
						<g class="st35">
							<g>
								<path class="st36" d="M111.2,113c0.4,9.6,8.6,17.1,18.2,16.7s17.1-8.6,16.7-18.2c-0.4-9.5-4.2-19.7-13.9-19.2
									c-4.6,0.2-11.4,0.1-15.4,3.8C112.4,100,111,108.1,111.2,113z"/>
							</g>
						</g>
					</g>
				</g>
			</g>
			<g>
				<g>
					<defs>
						<path id="SVGID_19_" d="M125.1,123c-1.5-0.1-3.1-0.4-4.5-0.9c-0.8-0.3-1.6-0.6-2.3-0.8c-1.9-0.8-4.1-0.4-5.6,0.9
							c-0.9,0.8-1.9,1.5-3,2.1c-0.7,0.4-1.4,0.7-2.2,0.9c-4.8,1.2-7.6-1.4-9.5-1.7c-0.2,0-0.4,0-0.7,0c-1.6,0.3-6.3,1.8-11,2.9
							l-0.3,0.1c-5.2,1-10.5,0-15-2.7c-0.8-0.5-1.6-1-2.3-1.7c-2.5-2.4-1.9,0-6.2,1c-1.3,0.3-2.7,0.3-4,0.1c-2.1-0.4-4-1.3-5.8-2.4
							c-4.4-2.7-10-8.9-8.9-14.9S53,95.6,60.5,95c1.8-0.1,3.6-0.1,5.5,0.2c1.5,0.3,3,0.7,4.4,1.5c3.5,1.9,4.8,4.5,9.2,4.4
							c1.9,0,3.7-0.3,5.5-1c3.9-1.5,6.4-4.2,10.5-4.8c1.2-0.2,2.4-0.2,3.6-0.1c3.5,0.4,3.1,2.3,8.4,3.9c0.8,0.2,1.6,0.3,2.3,0.3
							c4.9,0,8.5-4.3,13.1-4.4c0.5,0,1,0,1.4,0.1c0.6,0.1,12.4,2.2,14.6,9.8C141.1,112.9,132,123.1,125.1,123z"/>
					</defs>
					<clipPath id="SVGID_20_">
						<use xlink:href="#SVGID_19_"  style="overflow:visible;"/>
					</clipPath>
				</g>
			</g>
		</g>
	</g>
</g>
<g id="hair">
	<g id="hair-2">
		<path class="st37" d="M140.4,79.4c-0.2,0.1-0.4,0.2-0.5,0.5c-0.3,0.6-0.6,1.1-0.9,1.6c-2.1,2.7-5.5,3.6-7.7,1.9
			c-1.1-0.9-1.8-2.3-1.7-3.8c0-0.4-0.3-0.8-0.8-0.8c0,0,0,0,0,0c-0.8,0-1.7,0.3-2.4-0.1c-2.2-1.3-3.2-4-2.7-6.9
			c0-0.2,0.1-0.4,0.1-0.6c-0.2,0.1-0.4,0.2-0.7,0.2c-4,1.2-8.3,0-11.1-3.1c-0.3-0.3-0.8-0.4-1.2-0.1c-0.2,0.1-0.3,0.3-0.3,0.5l0,0
			c-0.5,3.2-3.6,5.4-6.8,4.9c-1.3-0.2-2.5-0.9-3.4-1.9c-0.3-0.3-0.8-0.4-1.2,0c0,0,0,0,0,0c-1.1,1.3-2.7,1.9-4.3,1.8
			c-2.5-0.4-4.3-3.3-4.6-7c0-0.4-0.4-0.8-0.8-0.8c-0.1,0-0.3,0-0.4,0.1c-1.7,1-3.6,1.7-5.5,1.9c-1.6,0.2-3.2,0.1-4.8-0.3
			c-0.4-0.1-0.8,0.1-0.9,0.5c-1.1,3-3.7,5.1-6.8,5.6c-0.9,0.1-1.8,0.1-2.7-0.1c-0.4-0.1-0.7,0.1-0.9,0.4c-0.5,1-1.1,2-1.8,3
			c-1.4,2.2-3.4,4-5.7,5.2c-1.6,0.9-3.4,1.2-5.2,0.8c-4.2-1.1-6.8-5.3-5.9-9.6c0.1-0.4-0.2-0.8-0.6-0.9c-4.5-1.2-7.9-4.5-8.4-8.8
			c-0.7-5.8,2.5-13,9.3-13.8c0.4-0.1,0.8-0.1,1.2-0.1c0.5,0,0.8-0.3,0.8-0.8c0-0.1,0-0.1,0-0.2c-0.4-1.2-0.6-2.5-0.8-3.7
			c-0.8-6.4,3.2-10.2,6.6-10.6h0.3c0.4,0,0.7-0.2,0.8-0.6c2.1-7.4,9.5-13.4,18.9-14.5c6.5-0.9,13.2,1,18.2,5.2
			c0.2,0.2,0.6,0.3,0.9,0.1c2.5-1.2,5.1-1.9,7.8-2.2c6.6-0.9,13.2,1,18.3,5.3c0.1,0.1,0.2,0.2,0.4,0.2c8.2,1.7,14.6,7.5,15.5,15v0.3
			c0,0.3,0.2,0.5,0.4,0.6c4.5,2.7,7.4,7.3,8,12.5c0.3,2.4,0.1,4.9-0.6,7.3c-0.1,0.3,0,0.6,0.2,0.8c1.2,1.4,2,3.1,2.2,4.9
			C148.6,74.1,145.3,78,140.4,79.4z"/>
		<path class="st0" d="M140.9,81.1c0.2,0,0.3-0.1,0.4-0.3c0-0.1,0.1-0.1,0.1-0.2c0,0,0-0.1,0-0.1l-0.1,0.1c-0.2,0.3-0.4,0.6-0.6,0.9
			c-0.5,0.5-1,1-1.6,1.4c-1.1,0.8-2.3,1.4-3.5,1.7c-1.3,0.4-2.6,0.3-3.9-0.2c-1.2-0.5-2.1-1.6-2.5-2.9c-0.2-0.6-0.3-1.2-0.3-1.9
			c0-0.1,0-0.3-0.1-0.4c-0.1-0.1-0.1-0.1-0.2-0.1h-0.4c-0.6,0.1-1.3,0.1-1.9,0c-0.3-0.1-0.6-0.3-0.9-0.4c-0.3-0.2-0.5-0.4-0.8-0.6
			c-1-0.9-1.7-2-2.1-3.3c-0.2-0.7-0.3-1.3-0.3-2c-0.1-0.7,0-1.3,0.3-1.9l0,0l1.5,1.3c-1.6,0.2-3.3,0.2-4.9,0.2
			c-1.6-0.1-3.2-0.5-4.8-1.1c-1.2-0.5-2.2-1.2-3.1-2.1c-0.2-0.2-0.1-0.1,0-0.1c0.1,0,0.1,0,0.2,0c0.1,0,0.1-0.1,0.2-0.2
			c0,0,0-0.1,0-0.1c0,0,0,0,0,0.1v0.2c-0.1,0.4-0.2,0.9-0.4,1.3c-0.4,0.8-0.9,1.6-1.6,2.2c-1.3,1.1-3,1.7-4.8,1.7
			c-0.8,0-1.7-0.2-2.4-0.5c-0.7-0.3-1.4-0.8-2.1-1.3l-0.2-0.2l-0.2-0.2c-0.1,0-0.1,0-0.2,0c0,0-0.1,0.1-0.1,0.1l0,0l-0.1,0.1
			l-0.2,0.2c-0.6,0.7-1.4,1.2-2.2,1.5c-0.9,0.4-1.8,0.5-2.7,0.3c-0.9-0.2-1.7-0.7-2.4-1.3c-1.2-1.2-2-2.8-2.2-4.5
			c-0.1-0.4-0.1-0.8-0.2-1.2c0-0.4-0.1-1-0.1-0.9c0,0-0.1-0.1-0.2-0.1l0,0l-0.1,0.1l-0.3,0.2l-0.5,0.3c-2.9,1.4-6.2,1.9-9.4,1.4
			l-0.3-0.1h-0.2l0,0l0,0l0,0l-0.1,0.1c-0.1,0.2-0.1,0.4-0.2,0.6c-0.2,0.4-0.4,0.8-0.6,1.1c-0.1,0.2-0.2,0.3-0.4,0.5
			c-0.1,0.2-0.2,0.3-0.4,0.5c-1,1.3-2.4,2.4-4,3c-0.8,0.3-1.7,0.5-2.5,0.6c-0.4,0-0.9,0-1.3,0c-0.2,0-0.4,0-0.7-0.1L68,74.7
			c0,0,0.1,0,0.1,0c0.1,0,0.2,0,0.2-0.1l0,0l0,0l0,0l-0.1,0.3c-0.2,0.4-0.4,0.7-0.6,1.1c-0.4,0.7-0.8,1.4-1.3,2
			c-0.5,0.7-1.1,1.3-1.7,1.8c-0.6,0.6-1.2,1.1-1.8,1.7c-1.3,1.1-2.7,1.9-4.2,2.5c-0.8,0.3-1.7,0.5-2.6,0.6c-0.5,0-1,0-1.4-0.1
			c-0.4-0.1-0.9-0.2-1.3-0.4c-3.6-1.1-6.1-4.3-6.5-8c-0.1-0.9-0.1-1.8,0.1-2.8v-0.2c0,0.1,0,0.1,0,0.2c0,0.1,0,0.2,0,0.3
			c0.1,0.2,0.2,0.4,0.4,0.5l0.2,0.1h0.1h-0.1l-0.3-0.1L46.6,74c-1.7-0.5-3.3-1.4-4.6-2.6c-0.7-0.6-1.3-1.2-1.9-1.9
			c-1.1-1.4-1.8-3.1-2.1-4.9c-0.1-0.9-0.2-1.7-0.2-2.6c0-1.7,0.3-3.4,0.9-5.1c0.6-1.7,1.4-3.2,2.5-4.6c1.8-2.1,4.2-3.5,6.9-4
			l0.7-0.1l0.6-0.1c0.2-0.1,0.4-0.1,0.7-0.1h0.1c-0.1,0-0.1,0-0.2,0c-0.1,0-0.2,0.1-0.3,0.1c-0.2,0.1-0.4,0.3-0.4,0.6
			c0,0.1,0,0.3,0,0.4c0,0.1,0.1,0.3,0,0.2c-0.1-0.4-0.2-0.8-0.3-1.2c-0.2-0.8-0.4-1.6-0.5-2.5c-0.3-1.8-0.2-3.5,0.2-5.3
			c0.4-1.8,1.3-3.5,2.6-4.8c1.3-1.5,3.1-2.5,5-2.8c0.3,0,0.5-0.1,0.8-0.1l0,0c-0.1,0-0.1,0-0.2,0c-0.1,0-0.2,0.1-0.3,0.2
			c-0.1,0.1-0.2,0.2-0.3,0.3c0,0.1-0.1,0.1-0.1,0.2c0,0,0,0.2,0,0.1l0.2-0.6c0.3-0.8,0.6-1.6,1-2.4c1.5-3,3.7-5.7,6.4-7.7
			c2.6-2,5.7-3.5,8.9-4.4c3.2-0.9,6.5-1.2,9.8-0.9c3.3,0.3,6.5,1.3,9.4,2.8c1.5,0.8,2.9,1.7,4.2,2.8l0.2,0.2c0.1,0,0.2,0.2,0,0
			c-0.2-0.2-0.5-0.2-0.8-0.2c-0.1,0-0.3,0-0.4,0.1l0.3-0.1l0.6-0.3c0.8-0.3,1.5-0.6,2.3-0.9c3.2-1,6.5-1.5,9.8-1.3
			c3.3,0.1,6.6,0.9,9.6,2.3c1.5,0.7,3,1.5,4.4,2.6c0.3,0.2,0.7,0.5,1,0.8l0.2,0.2l0.1,0.1l-0.2-0.1c-0.1-0.1-0.2-0.1-0.4-0.1
			l0.3,0.1c0.8,0.2,1.6,0.4,2.4,0.6c3.2,1,6.2,2.7,8.6,5c3.2,2.9,5.2,6.9,5.6,11.3c0,0,0,0.1,0,0v-0.1c0-0.1,0-0.1-0.1-0.2
			c-0.1-0.1-0.1-0.2-0.2-0.3c0,0-0.1-0.1-0.1-0.1h-0.1c0,0-0.1,0,0,0l0.3,0.2c0.4,0.2,0.7,0.5,1.1,0.7c1.4,1,2.6,2.2,3.7,3.6
			c2.1,2.7,3.4,5.9,3.8,9.3c0.2,1.7,0.2,3.4,0,5.1c-0.1,0.8-0.3,1.7-0.5,2.5l-0.2,0.6c0.1-0.2,0.1-0.5,0-0.7c0-0.1,0-0.1-0.1-0.2
			v-0.1l0,0l0.2,0.3l0.4,0.5c1.1,1.5,1.8,3.3,2,5.1c0.2,1.9-0.1,3.7-0.8,5.4c-0.8,1.7-1.9,3.1-3.4,4.2
			C144.3,79.9,142.6,80.7,140.9,81.1z M139.9,77.7c2.5-0.6,4.6-2.3,5.8-4.6c1-2.3,0.7-4.9-0.8-6.9c-0.1-0.1-0.2-0.2-0.3-0.4
			l-0.1-0.2l-0.1-0.1c0-0.1-0.1-0.1-0.1-0.2c-0.1-0.1-0.2-0.3-0.2-0.4c-0.2-0.6-0.3-1.2-0.1-1.8l0.1-0.5c0.2-0.7,0.3-1.3,0.4-2
			c0.2-1.4,0.2-2.7,0-4.1c-0.4-2.7-1.4-5.3-3.1-7.5c-0.8-1.1-1.8-2-2.9-2.8c-0.3-0.2-0.6-0.4-0.8-0.5l-0.2-0.1l-0.1-0.1l-0.2-0.1
			c-0.1-0.1-0.2-0.2-0.3-0.3c-0.2-0.2-0.4-0.5-0.5-0.8c-0.1-0.2-0.1-0.3-0.1-0.5c0-0.1,0-0.2,0-0.2v-0.1c-0.4-3.4-2-6.5-4.6-8.8
			c-2.1-1.9-4.5-3.3-7.2-4.1c-0.7-0.2-1.3-0.4-2-0.5l-0.2,0c-0.3-0.1-0.6-0.2-0.9-0.4c-0.1-0.1-0.3-0.2-0.4-0.3l-0.1-0.1l-0.2-0.2
			c-0.3-0.2-0.5-0.4-0.8-0.6c-1.1-0.8-2.3-1.5-3.6-2.1c-5.2-2.3-11.1-2.5-16.5-0.8c-0.7,0.2-1.3,0.5-2,0.7l-0.5,0.2l-0.2,0.1
			c-0.3,0.1-0.7,0.2-1,0.3c-0.7,0.1-1.3-0.1-1.9-0.5C93.6,26,93.7,26,93.6,26l-0.2-0.2c-1.1-0.9-2.2-1.7-3.4-2.3
			c-2.5-1.3-5.2-2-8-2.3c-5.7-0.5-11.4,1.1-16,4.4c-2.3,1.7-4.1,3.8-5.3,6.3c-0.3,0.6-0.5,1.2-0.8,1.9l-0.2,0.5c0,0-0.1,0.2-0.1,0.3
			c-0.1,0.2-0.1,0.3-0.2,0.4c-0.4,0.5-0.9,0.9-1.5,1.1c-0.2,0-0.3,0.1-0.5,0.1h-0.2l0,0h-0.3c-1.1,0.2-2.1,0.8-2.9,1.7
			c-0.8,0.9-1.4,2-1.7,3.2c-0.3,1.3-0.3,2.6-0.2,3.9c0.1,0.7,0.2,1.4,0.4,2.1c0.1,0.3,0.2,0.7,0.3,1c0.1,0.2,0.1,0.5,0.1,0.7
			c0,0.3,0,0.7-0.1,1c-0.2,0.6-0.6,1.1-1.1,1.4c-0.3,0.2-0.5,0.3-0.8,0.3c-0.1,0-0.3,0-0.5,0.1h-0.2H50h-0.3l-0.6,0.1l-0.5,0.1
			c-0.6,0.1-1.2,0.3-1.8,0.5c-2.3,1.1-4.1,3.2-4.9,5.7c-0.4,1.3-0.7,2.6-0.7,4c0,0.7,0,1.3,0.1,2c0.1,0.6,0.2,1.2,0.5,1.7
			c1.1,2.3,3.2,4.1,5.7,4.9c0.2,0.1,0.3,0.1,0.5,0.2l0.2,0.1l0.3,0.1c0.1,0.1,0.3,0.1,0.4,0.2c0.5,0.3,0.9,0.8,1.1,1.4
			c0.1,0.3,0.1,0.6,0.1,0.9c0,0.1,0,0.3,0,0.4V74c-0.1,0.6-0.2,1.2-0.1,1.8c0,1.2,0.4,2.5,1.1,3.5c0.7,1.1,1.8,1.9,3,2.4
			c0.5,0.3,1.1,0.4,1.8,0.5c0.7,0,1.3-0.1,1.9-0.3c2.8-0.8,5.1-2.7,6.5-5.2c0.3-0.6,0.7-1.3,1.1-1.9c0.2-0.3,0.4-0.6,0.6-0.9
			l0.1-0.2v-0.1l0.1-0.2c0.1-0.1,0.1-0.2,0.2-0.3c0.3-0.4,0.8-0.6,1.2-0.6c0.2,0,0.5,0,0.7,0l0.2,0.1l0.5,0.1c0.3,0,0.7,0.1,1,0.1
			c2.1,0,4-0.9,5.4-2.4c0.1-0.1,0.2-0.3,0.3-0.4c0.1-0.1,0.2-0.3,0.3-0.4c0.2-0.3,0.4-0.6,0.5-0.9c0.1-0.2,0.1-0.3,0.2-0.5l0.1-0.1
			c0-0.1,0.1-0.2,0.1-0.2c0.3-0.5,0.9-0.8,1.5-0.7h0.3h0.1l0.3,0.1c2.8,0.7,5.8,0.4,8.5-0.9l0.5-0.3l0.2-0.1l0.1-0.1l0.2-0.1
			c0.7-0.3,1.5,0,1.9,0.6c0.2,0.3,0.2,0.6,0.2,0.9c0,0.2,0.1,0.3,0.1,0.5c0.1,0.4,0.1,0.7,0.2,1.1c0.3,1.3,1,2.6,1.9,3.6
			c0.4,0.4,1,0.7,1.6,0.8c0.6,0.1,1.2,0.1,1.8-0.2c0.6-0.2,1.2-0.6,1.7-1l0.5-0.4c0.3-0.2,0.7-0.3,1-0.2c0.3,0,0.6,0.2,0.8,0.4
			c0.1,0.1,0.1,0.2,0.2,0.2l0.2,0.2c0.5,0.5,1.1,0.9,1.8,1.1c0.7,0.2,1.4,0.3,2.1,0.2c1.4-0.2,2.6-0.8,3.4-1.9
			c0.4-0.5,0.7-1,0.9-1.7c0.1-0.3,0.2-0.6,0.2-0.9l0.1-0.3c0-0.2,0.1-0.4,0.3-0.6c0.2-0.4,0.6-0.7,1.1-0.8c0.4-0.1,0.9-0.1,1.3,0.1
			c0.3,0.1,0.6,0.4,0.8,0.6c0.2,0.3,0.5,0.5,0.7,0.8c0.5,0.5,1,0.9,1.6,1.3c1.2,0.8,2.6,1.3,4,1.5c1.5,0.2,2.9-0.2,4.1-1.1
			c0.4-0.3,0.9-0.2,1.2,0.2c0.1,0.1,0.2,0.3,0.2,0.5v0.7l0,0c0,0.5-0.1,1-0.2,1.5c-0.1,0.5-0.1,1-0.1,1.5c0,1,0.4,2,1,2.9
			c0.2,0.2,0.3,0.4,0.5,0.6c0.2,0.2,0.4,0.3,0.6,0.4c0.5,0.1,1,0.1,1.6,0h0.5c0.2,0,0.4,0.1,0.6,0.2c0.4,0.2,0.6,0.6,0.6,1.1
			c0,0.5,0.1,1.1,0.3,1.6c0.3,1,1.1,1.7,2,2.2c1,0.4,2,0.3,3-0.1c1-0.4,1.8-1.1,2.3-2c0.2-0.4,0.4-0.9,0.5-1.4l0.2-0.7v-0.1
			c0-0.1,0.1-0.2,0.1-0.3c0.1-0.2,0.2-0.4,0.4-0.5C139,78.1,139.4,77.8,139.9,77.7z"/>
	</g>
	<g id="light-3">
		<g>
			<defs>
				<path id="SVGID_21_" d="M141.7,75.9c-0.2,0.1-0.5,0.2-0.6,0.5c-0.3,0.6-0.6,1.1-1,1.5c-2.1,2.6-5.7,3.4-8,1.8
					c-1.2-0.8-1.8-2.1-1.8-3.5c0-0.4-0.4-0.8-0.8-0.8c-0.9,0-1.7,0.3-2.5-0.1c-2.3-1.3-3.4-3.9-2.8-6.4c0-0.2,0.1-0.4,0.1-0.6
					l-0.7,0.2c-1.6,0.4-3.3,0.5-5,0.3c-2.5-0.3-4.8-1.4-6.5-3.2c-0.4-0.4-0.9-0.3-1.3,0c-0.1,0.1-0.2,0.2-0.2,0.4l0,0
					c-0.7,3.2-3.8,5.2-7,4.6c-1.4-0.2-2.6-0.8-3.6-1.8c-0.4-0.3-0.9-0.3-1.3,0c-1.2,1.2-2.8,1.8-4.5,1.7c-2.6-0.4-4.4-3.1-4.7-6.5
					c-0.1-0.5-0.5-0.8-1-0.7c-0.1,0-0.2,0.1-0.3,0.1c-1.8,1-3.7,1.6-5.7,1.8c-1.6,0.2-3.3,0.1-4.9-0.2c-0.4-0.1-0.8,0.1-1,0.5
					c-1.2,2.9-3.9,4.9-7.1,5.2c-0.9,0.1-1.8,0-2.7-0.2c-0.4-0.1-0.7,0.1-0.9,0.4c-0.5,1-1.2,1.9-1.8,2.8c-1.5,2.1-3.6,3.8-6,4.9
					c-1.7,0.9-3.6,1.2-5.4,0.8c-5.9-1.6-6.7-6.3-6.1-9c0.1-0.4-0.2-0.8-0.6-0.9c-4.6-1.1-8.2-4.2-8.7-8.2c-0.7-5.5,2.6-12.2,9.6-13
					c0.4-0.1,0.8-0.1,1.3-0.1c0.4,0,0.8-0.3,0.9-0.7c0-0.1,0-0.2,0-0.3c-0.4-1.1-0.7-2.3-0.8-3.5c-0.8-6,3.3-9.6,6.8-10h0.3
					c0.4,0,0.7-0.2,0.8-0.5c2.1-6.9,9.8-12.5,19.6-13.6c7.4-0.8,14.3,1.2,18.9,4.9c0.3,0.2,0.6,0.3,0.9,0.1c2.6-1.1,5.3-1.8,8.1-2.1
					c7.4-0.8,14.3,1.2,18.9,4.9c0.1,0.1,0.2,0.2,0.4,0.2c8.5,1.6,15.1,7,16.1,14.1V42c0,0.3,0.2,0.5,0.4,0.6
					c4.5,2.3,7.6,6.7,8.3,11.7c0.3,2.3,0.1,4.6-0.7,6.8c-0.1,0.3,0,0.5,0.2,0.7c1.2,1.3,2,2.9,2.3,4.6
					C150.2,71,146.8,74.6,141.7,75.9z"/>
			</defs>
			<clipPath id="SVGID_22_">
				<use xlink:href="#SVGID_21_"  style="overflow:visible;"/>
			</clipPath>
			<g class="st38">
				<g class="st39">
					<defs>
						<filter id="Adobe_OpacityMaskFilter_4_" filterUnits="userSpaceOnUse" x="37.9" y="42.6" width="46.7" height="39.4">
							<feFlood  style="flood-color:white;flood-opacity:1" result="back"/>
							<feBlend  in="SourceGraphic" in2="back" mode="normal"/>
						</filter>
					</defs>
					<mask maskUnits="userSpaceOnUse" x="37.9" y="42.6" width="46.7" height="39.4" id="SVGID_23_">
						<g class="st40">

								<image style="overflow:visible;" width="52" height="44" xlink:href="D038F11186E04747.jpg"  transform="matrix(1 0 0 1 35 40.07)">
							</image>
						</g>
					</mask>
					<g class="st41">
						<g>
							<g>
								<ellipse class="st42" cx="61.3" cy="62.3" rx="23.3" ry="19.7"/>
							</g>
						</g>
					</g>
				</g>
				<g class="st39">
					<defs>
						<filter id="Adobe_OpacityMaskFilter_5_" filterUnits="userSpaceOnUse" x="99.4" y="47.7" width="46.7" height="39.4">
							<feFlood  style="flood-color:white;flood-opacity:1" result="back"/>
							<feBlend  in="SourceGraphic" in2="back" mode="normal"/>
						</filter>
					</defs>
					<mask maskUnits="userSpaceOnUse" x="99.4" y="47.7" width="46.7" height="39.4" id="SVGID_24_">
						<g class="st43">

								<image style="overflow:visible;" width="52" height="45" xlink:href="D038F11186E04744.jpg"  transform="matrix(1 0 0 1 97 45.07)">
							</image>
						</g>
					</mask>
					<g class="st44">
						<g>
							<g>
								<ellipse class="st42" cx="122.7" cy="67.4" rx="23.3" ry="19.7"/>
							</g>
						</g>
					</g>
				</g>
				<g class="st45">
					<defs>
						<filter id="Adobe_OpacityMaskFilter_6_" filterUnits="userSpaceOnUse" x="55.2" y="26.9" width="77.1" height="52.6">
							<feFlood  style="flood-color:white;flood-opacity:1" result="back"/>
							<feBlend  in="SourceGraphic" in2="back" mode="normal"/>
						</filter>
					</defs>
					<mask maskUnits="userSpaceOnUse" x="55.2" y="26.9" width="77.1" height="52.6" id="SVGID_25_">
						<g class="st46">

								<image style="overflow:visible;" width="82" height="58" xlink:href="D038F11186E0474C.jpg"  transform="matrix(1 0 0 1 53 24.07)">
							</image>
						</g>
					</mask>
					<g class="st47">
						<g>
							<g>
								<path class="st34" d="M132.4,55c0,13.5-17.3,24.4-38.6,24.4S55.2,68.4,55.2,55s7.4-28.1,28.7-28.1c10.2,0,25.2-0.6,34.4,4.4
									C128.5,36.6,132.4,47.9,132.4,55z"/>
							</g>
						</g>
					</g>
				</g>
			</g>
		</g>
	</g>
</g>
</svg>
