<?xml version="1.0" encoding="utf-8"?>
<!-- Generator: Adobe Illustrator 22.1.0, SVG Export Plug-In . SVG Version: 6.00 Build 0)  -->
<svg version="1.1" id="tv" xmlns="http://www.w3.org/2000/svg" xmlns:xlink="http://www.w3.org/1999/xlink" x="0px" y="0px"
	 viewBox="0 0 180.9 180.9" style="enable-background:new 0 0 180.9 180.9;" xml:space="preserve">
<style type="text/css">
	.st0{fill:#333333;}
	.st1{fill:#66443C;}
	.st2{opacity:0.13;fill:#D9BFA1;enable-background:new    ;}
	.st3{fill:#6D6E71;}
	.st4{clip-path:url(#SVGID_2_);}
	.st5{opacity:0.35;fill:#BCBEC0;enable-background:new    ;}
	.st7{display:inline;fill:#2B2929;}
	.st8{display:inline;opacity:1;fill:#FFFFFF;}
	.st9{display:inline;opacity:1;}
	.st10{fill:#FFFFFF;}
	.st11{opacity:1;fill:#FFFFFA;enable-background:new    ;}
	.st12{fill:#9C3A21;}
	.st13{fill:#DA501F;}
	.st14{opacity:0.45;fill:#EAD9C5;enable-background:new    ;}
	.st15{fill:#C17629;}
	.st16{fill:#F9A131;}
	.st17{fill:#A07D60;}
	.st18{opacity:0.13;fill:#35231F;enable-background:new    ;}
	.st19{fill:#F4D7D0;}
	.st20{fill:#E04B32;}
	.st21{fill:#FFFEFF;}
	.st22{fill:none;}
	.st23{opacity:0.64;fill:#6D251B;enable-background:new    ;}
	.st24{fill:#F2E7DD;}
	.st25{fill:#E5C6AE;}
	.st26{opacity:0.32;}
	.st27{filter:url(#Adobe_OpacityMaskFilter);}
	.st28{mask:url(#SVGID_3_);}
	.st29{fill:#DD9F95;}



#count1, #count2, #count3{
opacity: 0;
}
  #tv:hover #count3{
  animation: changeScreen 3s linear 0.5s 1;
  }

  #tv:hover #count2{

  animation: changeScreen 3s linear 3.5s 1;

  }

  #tv:hover #count1{

  animation: changeScreen 3s linear 6.5s 1;

  }

  @keyframes changeScreen{
  0%{ opacity: 0; }
	10%{ opacity: 1; }
  100%{ opacity: 0;}
  }


    #satelCR{
      animation: setColorTwo 3s infinite;
      }
      #satelCL{
      animation: setColor 3s infinite;
      }

      @keyframes rotatebox{
      0%: {transform: rotate(-5deg);}
      50% {transform: rotate(5deg);}
      100% {transform: rotate(-5deg);}
      }

      @keyframes setColor{
      0%: {fill: #A07D60;}
      50% {fill: green;}
      100% {fill: #A07D60;}
      }

      @keyframes setColorTwo{
      0%: {fill: #A07D60;}
      50% {fill: red;}
      100% {fill: #A07D60;}
      }


</style>
<title>tv</title>
<ellipse id="bg" transform="matrix(0.7071 -0.7071 0.7071 0.7071 -37.4698 90.4598)" class="st0" cx="90.5" cy="90.5" rx="90.4" ry="90.5"/>
<path id="body" class="st1" d="M137.7,134.7c-3.3,7.4-11.4,12.1-19.3,12.3L93,147.6L68.2,147c-7.9-0.2-16.7-4.9-20-12.3
	c-12.3-27.8-8-78,4.8-85.4c5.1-3,25.7-4.1,39.9-4.1s35.1,1.1,40.3,4.1C146.1,56.7,150,107,137.7,134.7z"/>
<path id="light" class="st2" d="M133.3,49.3c-0.6-0.3-1.2-0.6-1.9-0.8c10.6,12.4,13.2,57.4,1.8,83.1c-3.3,7.4-11.4,12.1-19.3,12.3
	l-25.5,0.6l-24.8-0.6c-3.7-0.1-7.4-1.1-10.7-2.9c4.2,3.7,9.6,5.8,15.2,6l24.8,0.6l25.5-0.6c7.9-0.2,16-4.9,19.3-12.3
	C150,107,146.1,56.7,133.3,49.3z"/>
<path id="screen" class="st3" d="M123.6,117.3c-2.2,4.6-7.8,7.6-13.2,7.7L93,125.4l-17-0.4c-5.4-0.1-11.4-3.1-13.7-7.7
	c-8.3-17.4-5.4-49.1,3.3-53.7C69.2,61.7,83.2,61,93,61s24,0.7,27.6,2.6C129.3,68.3,132.1,99.9,123.6,117.3z"/>
<g id="screenLight">
	<g>
		<defs>
			<path id="SVGID_1_" d="M123.6,117.3c-2.2,4.6-7.8,7.6-13.2,7.7L93,125.4l-17-0.4c-5.4-0.1-11.4-3.1-13.7-7.7
				c-8.3-17.4-5.4-49.1,3.3-53.7C69.2,61.7,83.2,61,93,61s24,0.7,27.6,2.6C129.3,68.3,132.1,99.9,123.6,117.3z"/>
		</defs>
		<clipPath id="SVGID_2_">
			<use xlink:href="#SVGID_1_"  style="overflow:visible;"/>
		</clipPath>
		<g class="st4">
			<path class="st5" d="M54.1,152.7c-4.6-11.8,21-53.4,37-68.8c22.2-21.4,54.8-35.5,60.9-30.7c17.8,14.2,40.3,59.7,18.4,90.2
				c-16.4,22.8-48.6,23.2-66.3,23.4C92.8,166.9,59.8,167.4,54.1,152.7z"/>
		</g>
	</g>
</g>
<g id="count3" class="st6">
	<path id="count_x5F_one" class="st7" d="M123.6,117.3c-2.2,4.6-7.8,7.6-13.2,7.7L93,125.4l-17-0.4c-5.4-0.1-11.4-3.1-13.7-7.7
		c-8.3-17.4-5.4-49.1,3.3-53.7C69.2,61.7,83.2,61,93,61s24,0.7,27.6,2.6C129.3,68.3,132.1,99.9,123.6,117.3z"/>
	<path class="st8" d="M93.1,105.3c-6.8,0-12.4-5.6-12.4-12.4s5.6-12.4,12.4-12.4c6.8,0,12.4,5.6,12.4,12.4S99.9,105.3,93.1,105.3z
		 M93.1,82.9c-5.5,0-10,4.5-10,10s4.5,10,10,10c5.5,0,10-4.5,10-10S98.6,82.9,93.1,82.9z"/>
	<g class="st9">
		<path class="st10" d="M90.6,95.1c0.3,0.2,1,0.5,1.7,0.5c1.4,0,1.8-0.9,1.8-1.5c0-1.1-1-1.6-2-1.6h-0.6v-0.8h0.6
			c0.8,0,1.8-0.4,1.8-1.3c0-0.6-0.4-1.2-1.4-1.2c-0.6,0-1.2,0.3-1.6,0.5l-0.3-0.8c0.4-0.3,1.2-0.6,2.1-0.6c1.6,0,2.3,0.9,2.3,1.9
			c0,0.8-0.5,1.5-1.5,1.9v0c1,0.2,1.8,0.9,1.8,2c0,1.3-1,2.4-2.9,2.4c-0.9,0-1.7-0.3-2.1-0.5L90.6,95.1z"/>
	</g>
</g>
<g id="count2" class="st6">
	<path class="st7" d="M123.6,117.3c-2.2,4.6-7.8,7.6-13.2,7.7L93,125.4l-17-0.4c-5.4-0.1-11.4-3.1-13.7-7.7
		c-8.3-17.4-5.4-49.1,3.3-53.7C69.2,61.7,83.2,61,93,61s24,0.7,27.6,2.6C129.3,68.3,132.1,99.9,123.6,117.3z"/>
	<g class="st9">
		<path class="st10" d="M90.7,96.3v-0.7l0.8-0.8c2-1.9,2.9-2.9,2.9-4.1c0-0.8-0.4-1.5-1.6-1.5c-0.7,0-1.3,0.4-1.7,0.7l-0.3-0.8
			c0.5-0.5,1.3-0.8,2.2-0.8c1.7,0,2.4,1.2,2.4,2.3c0,1.5-1.1,2.6-2.7,4.2l-0.6,0.6v0h3.5v0.9H90.7z"/>
	</g>
	<path class="st8" d="M93.1,105.3c-6.8,0-12.4-5.6-12.4-12.4s5.6-12.4,12.4-12.4c6.8,0,12.4,5.6,12.4,12.4S99.9,105.3,93.1,105.3z
		 M93.1,82.9c-5.5,0-10,4.5-10,10s4.5,10,10,10c5.5,0,10-4.5,10-10S98.6,82.9,93.1,82.9z"/>
</g>
<g id="count1" class="st6">
	<path id="count_x5F_one_1_" class="st7" d="M123.6,117.3c-2.2,4.6-7.8,7.6-13.2,7.7L93,125.4l-17-0.4c-5.4-0.1-11.4-3.1-13.7-7.7
		c-8.3-17.4-5.4-49.1,3.3-53.7C69.2,61.7,83.2,61,93,61s24,0.7,27.6,2.6C129.3,68.3,132.1,99.9,123.6,117.3z"/>
	<path class="st8" d="M93.1,105.3c-6.8,0-12.4-5.6-12.4-12.4s5.6-12.4,12.4-12.4c6.8,0,12.4,5.6,12.4,12.4S99.9,105.3,93.1,105.3z
		 M93.1,82.9c-5.5,0-10,4.5-10,10s4.5,10,10,10c5.5,0,10-4.5,10-10S98.6,82.9,93.1,82.9z"/>
	<g class="st9">
		<path class="st10" d="M92.9,89.4L92.9,89.4l-1.6,0.8l-0.2-0.9l2-1h1v8.9h-1.2V89.4z"/>
	</g>
</g>
<path id="screenLightTop" class="st11" d="M108.1,64.9c0.1-0.8,7.1-2.4,11.1,1.4s2.9,10.6,2,10.8s-0.9-4.4-4.8-8
	S108,65.5,108.1,64.9z"/>
<g id="buttonRed">
	<circle class="st12" cx="112.3" cy="135.2" r="5.3"/>
	<circle class="st13" cx="112.3" cy="135.2" r="4.3"/>
	<path class="st14" d="M114.2,131.4c-2.7,0.9-4.4,3.4-4.4,6.2c0,0.3,0,0.7,0.1,1c1.9,1.4,4.6,0.9,5.9-1c1.4-1.9,0.9-4.6-1-5.9
		C114.6,131.5,114.4,131.4,114.2,131.4L114.2,131.4z"/>
</g>
<g id="buttonOrange">
	<circle class="st15" cx="100.4" cy="135.9" r="3.3"/>
	<circle class="st16" cx="100.4" cy="135.9" r="2.6"/>
	<path class="st14" d="M101.6,133.6c-1.6,0.6-2.7,2.1-2.7,3.9c0,0.2,0,0.4,0,0.6c1.2,0.8,2.8,0.5,3.7-0.7s0.5-2.8-0.7-3.7
		C101.7,133.7,101.6,133.6,101.6,133.6L101.6,133.6z"/>
</g>
<path id="satelL" class="st1" d="M73,60.7c-0.6-0.2-1.2-0.6-1.6-1.1c-0.3-0.4-0.6-0.8-0.7-1.3l-0.6-2.8c-0.4-1.9-0.8-3.7-1.2-5.6
	c-0.8-3.7-1.6-7.5-2.3-11.2s-1.4-7.5-2-11.3c-0.3-1.9-0.6-3.8-0.9-5.7L63.2,19c-0.1-1-0.3-1.9-0.4-2.9l0.9-0.2
	c0.3,0.9,0.6,1.8,0.9,2.7l0.9,2.7c0.6,1.8,1.1,3.6,1.6,5.5c1.1,3.7,2.1,7.3,3.1,11S72.1,45.3,73,49c0.4,1.8,0.9,3.7,1.3,5.6l0.7,2.8
	c0.1,0.5,0.1,1-0.1,1.5c-0.2,0.6-0.5,1.2-1,1.7L73,60.7z"/>
<circle id="satelCL" class="st17" cx="63.5" cy="16.9" r="2.9"/>
<path id="satelR" class="st1" d="M74.7,59.6c-0.5-0.4-0.9-0.9-1.2-1.5c-0.2-0.5-0.3-1-0.3-1.5l0.2-2.8c0.2-1.9,0.3-3.8,0.5-5.7
	c0.4-3.8,0.7-7.6,1.2-11.4s0.9-7.6,1.4-11.4c0.3-1.9,0.5-3.8,0.8-5.7l0.4-2.8c0.2-0.9,0.3-1.9,0.5-2.8l0.9,0.1c0,1,0,1.9,0,2.9v2.9
	c0,1.9,0,3.8-0.1,5.7c-0.1,3.8-0.2,7.6-0.4,11.4c-0.2,3.8-0.4,7.6-0.7,11.4c-0.1,1.9-0.2,3.8-0.4,5.7l-0.2,2.8
	c-0.1,0.5-0.2,1-0.5,1.4c-0.4,0.5-0.8,1-1.4,1.3L74.7,59.6z"/>
<circle id="satelCR" class="st17" cx="78.7" cy="14" r="2.9"/>
<circle id="satelBottom" class="st1" cx="72.9" cy="47.9" r="8.2"/>
<path id="shadow" class="st18" d="M57.9,57.4c5.1-3,25.7-4.1,39.9-4.1s35.1,1.1,40.3,4.1c0.3,0.2,0.6,0.4,0.9,0.6
	c-1.8-4.2-3.9-7.3-6.4-8.8c-5-2.9-25.6-4-39.6-4s-34.2,1.1-39.3,4c-12.6,7.3-16.8,56.7-4.7,84c0.4,0.9,0.9,1.8,1.5,2.6
	C41.5,107.4,46.1,64.2,57.9,57.4z"/>
<g id="popcorn">
	<g id="box">
		<path class="st19" d="M70.4,160.4l-0.2,0.1c-0.7,0.4-1.3,0.2-1.4-0.5l-4.6-36.7c-0.1-1.2,0.4-2.4,1.4-3.1l0.2-0.2
			c0.9-0.5,1.8,0,1.9,1.2l3.8,37.2C71.6,159.2,71.2,160,70.4,160.4z"/>
		<path class="st19" d="M75.8,157.3l-0.2,0.1c-0.7,0.4-1.3,0.2-1.4-0.5l-3.1-37.6c-0.1-1.2,0.5-2.4,1.5-3.2l0.2-0.2
			c0.9-0.6,1.7,0,1.8,1.2l2.3,38.1C76.9,156,76.5,156.8,75.8,157.3z"/>
		<path class="st19" d="M81.2,154l-0.2,0.1c-0.7,0.4-1.3,0.2-1.3-0.6L78.2,115c0-1.3,0.6-2.5,1.6-3.2l0.2-0.2c0.9-0.5,1.7,0,1.7,1.3
			l0.7,39C82.3,152.8,81.9,153.5,81.2,154z"/>
		<path class="st20" d="M67.7,162.1l-0.2,0.1c-0.7,0.4-1.3,0.2-1.4-0.5l-5.4-36.3c-0.1-1.2,0.4-2.4,1.3-3.1l0.2-0.2
			c0.9-0.6,1.8,0,1.9,1.1l4.6,36.7C68.9,160.9,68.4,161.6,67.7,162.1z"/>
		<path class="st20" d="M73.2,158.8l-0.2,0.1c-0.7,0.4-1.3,0.2-1.4-0.5l-3.8-37.2c-0.1-1.2,0.4-2.4,1.4-3.1l0.2-0.2
			c0.9-0.6,1.7,0,1.8,1.2l3,37.7C74.3,157.6,73.8,158.4,73.2,158.8z"/>
		<path class="st20" d="M78.5,155.6l-0.2,0.1c-0.7,0.4-1.3,0.2-1.3-0.6l-2.3-38.1c-0.1-1.3,0.5-2.4,1.5-3.2l0.2-0.2
			c0.9-0.5,1.7,0,1.7,1.2l1.5,38.6C79.6,154.4,79.2,155.2,78.5,155.6z"/>
		<path class="st20" d="M61.8,161.5l0.2,0.1c0.8,0.2,1.3-0.2,1.2-0.9l-5.7-36.6c-0.2-1.2-1.1-2.2-2.2-2.6l-0.3-0.1
			c-1-0.3-1.7,0.4-1.5,1.6l6.6,36.8C60.4,160.7,61,161.3,61.8,161.5z"/>
		<path class="st20" d="M55.8,159.9l0.2,0.1c0.8,0.2,1.3-0.2,1.2-0.9L49.8,122c-0.3-1.2-1.1-2.2-2.3-2.7l-0.3-0.1
			c-1-0.3-1.7,0.4-1.4,1.6l8.3,37.3C54.4,159,55,159.6,55.8,159.9z"/>
		<path class="st20" d="M49.7,158.1l0.2,0.1c0.8,0.2,1.3-0.2,1.1-0.9l-9.2-37.5c-0.3-1.2-1.2-2.2-2.4-2.7l-0.3-0.1
			c-1-0.3-1.6,0.5-1.3,1.7L48,156.4C48.3,157.2,48.9,157.9,49.7,158.1z"/>
		<path class="st21" d="M64.9,162.4l0.2,0.1c0.8,0.2,1.3-0.2,1.3-0.8l-4.8-36.3c-0.2-1.2-1-2.2-2.2-2.6l-0.3-0.1
			c-1-0.3-1.7,0.4-1.5,1.6l5.7,36.6C63.5,161.6,64.1,162.2,64.9,162.4z"/>
		<path class="st21" d="M58.8,160.7l0.2,0.1c0.8,0.2,1.3-0.2,1.2-0.9l-6.6-36.8c-0.3-1.2-1.1-2.2-2.3-2.7l-0.3-0.1
			c-1-0.3-1.7,0.4-1.4,1.6l7.5,37.1C57.3,159.8,58,160.4,58.8,160.7z"/>
		<path class="st21" d="M52.8,159l0.2,0.1c0.8,0.2,1.3-0.2,1.1-0.9l-8.3-37.3c-0.3-1.2-1.2-2.2-2.3-2.7l-0.3-0.1
			c-1-0.3-1.6,0.5-1.3,1.6l9.2,37.5C51.3,158.1,52,158.8,52.8,159z"/>
		<path class="st20" d="M57.5,124.2c-0.2-1.2-1.1-2.2-2.2-2.6l-0.3-0.1c-1-0.3-1.7,0.4-1.5,1.6l6.6,36.8c0.2,0.8,0.9,1.4,1.7,1.6
			l0.2,0.1c0.8,0.2,1.3-0.2,1.2-0.9"/>
		<path class="st20" d="M55.8,159.9l0.2,0.1c0.8,0.2,1.3-0.2,1.2-0.9L49.8,122c-0.3-1.2-1.1-2.2-2.3-2.7l-0.3-0.1
			c-1-0.3-1.7,0.4-1.4,1.6l8.3,37.3C54.4,159,55,159.6,55.8,159.9z"/>
		<path class="st20" d="M49.7,158.1l0.2,0.1c0.8,0.2,1.3-0.2,1.1-0.9l-9.2-37.5c-0.3-1.2-1.2-2.2-2.4-2.7l-0.3-0.1
			c-1-0.3-1.6,0.5-1.3,1.7L48,156.4C48.3,157.2,48.9,157.9,49.7,158.1z"/>
		<path class="st21" d="M64.9,162.4l0.2,0.1c0.8,0.2,1.3-0.2,1.3-0.8l-4.8-36.3c-0.2-1.2-1-2.2-2.2-2.6l-0.3-0.1
			c-1-0.3-1.7,0.4-1.5,1.6l5.7,36.6C63.5,161.6,64.1,162.2,64.9,162.4z"/>
		<path class="st21" d="M58.8,160.7l0.2,0.1c0.8,0.2,1.3-0.2,1.2-0.9l-6.6-36.8c-0.3-1.2-1.1-2.2-2.3-2.7l-0.3-0.1
			c-1-0.3-1.7,0.4-1.4,1.6l7.5,37.1C57.3,159.8,58,160.4,58.8,160.7z"/>
		<path class="st21" d="M52.8,159l0.2,0.1c0.8,0.2,1.3-0.2,1.1-0.9l-8.3-37.3c-0.3-1.2-1.2-2.2-2.3-2.7l-0.3-0.1
			c-1-0.3-1.6,0.5-1.3,1.6l9.2,37.5C51.3,158.1,52,158.8,52.8,159z"/>
		<path class="st20" d="M57.5,124.2c-0.2-1.2-1.1-2.2-2.2-2.6l-0.3-0.1c-1-0.3-1.7,0.4-1.5,1.6l6.6,36.8c0.2,0.8,0.9,1.4,1.7,1.6
			l0.2,0.1c0.8,0.2,1.3-0.2,1.2-0.9"/>
		<path class="st20" d="M55.8,159.9l0.2,0.1c0.8,0.2,1.3-0.2,1.2-0.9L49.8,122c-0.3-1.2-1.1-2.2-2.3-2.7l-0.3-0.1
			c-1-0.3-1.7,0.4-1.4,1.6l8.3,37.3C54.4,159,55,159.6,55.8,159.9z"/>
		<line class="st22" x1="37.9" y1="118.7" x2="48" y2="156.4"/>
		<path class="st21" d="M64.9,162.4l0.2,0.1c0.8,0.2,1.3-0.2,1.3-0.8l-4.8-36.3c-0.2-1.2-1-2.2-2.2-2.6l-0.3-0.1
			c-1-0.3-1.7,0.4-1.5,1.6l5.7,36.6C63.5,161.6,64.1,162.2,64.9,162.4z"/>
		<line class="st22" x1="60.2" y1="159.9" x2="53.6" y2="123.1"/>
		<line class="st22" x1="54.1" y1="158.2" x2="45.8" y2="120.9"/>
		<path class="st23" d="M65.2,162.6l-0.2-0.1c-0.8-0.2-1.4-0.9-1.6-1.6c0.1,0.7-0.4,1.1-1.2,0.8l-0.2-0.1c-0.8-0.2-1.4-0.9-1.7-1.6
			c0.1,0.7-0.4,1.1-1.2,0.9l-0.2-0.1c-0.7-0.2-1.2-0.7-1.5-1.3c-0.1,0.5-0.5,0.7-1.2,0.5L56,160c-0.8-0.2-1.4-0.9-1.7-1.7
			c0.2,0.7-0.4,1.1-1.1,0.9l-0.2-0.1c-0.8-0.2-1.5-0.9-1.7-1.7c0.2,0.7-0.3,1.1-1.1,0.9l-0.2-0.1c-0.8-0.3-1.5-0.9-1.8-1.7L38,118.9
			c-0.3-1.2,0.3-2,1.3-1.7l0.3,0.1c1.2,0.5,2.1,1.5,2.4,2.7c-0.3-1.2,0.3-1.9,1.3-1.7l0.3,0.1c1.2,0.5,2.1,1.5,2.3,2.7
			c-0.3-1.2,0.4-1.9,1.4-1.6l0.3,0.1c0.9,0.4,1.7,1.1,2.1,2c0-0.6,0.5-1.1,1.1-1.1c0.1,0,0.3,0,0.4,0.1l0.3,0.1
			c1.2,0.4,2,1.4,2.2,2.7c-0.2-1.2,0.5-1.9,1.5-1.6l0.3,0.1c1.1,0.4,2,1.4,2.2,2.6c-0.2-1.2,0.5-1.9,1.5-1.6l0.3,0.1
			c1.1,0.4,2,1.4,2.2,2.6l4.8,36.3C66.6,162.5,66,162.9,65.2,162.6z"/>
	</g>
	<g id="food">
		<path class="st24" d="M61.1,111.3c-0.2,0-0.4,0-0.6,0c-0.6,1.5-2.3,2.3-3.8,1.7c-1.4-0.5-2.2-2.1-1.8-3.5c0.1-0.2,0.1-0.3,0.2-0.5
			c-0.7-0.1-1.3-0.6-1.5-1.4c0-0.9,0.9-1.7,2.1-1.7c0.3,0,0.7,0,1,0.1c0.3-0.8,1.1-1.4,1.9-1.4c1.2-0.1,2.3,0.9,2.4,2.1
			c0,0.1,0,0.2,0,0.2c1.2,0.1,2.2,1.1,2.1,2.4C63.1,110.4,62.2,111.3,61.1,111.3L61.1,111.3z"/>
		<path class="st0" d="M57.7,113.4c-0.3,0-0.6-0.1-0.9-0.2c-1.6-0.5-2.5-2.2-1.9-3.8c0-0.1,0.1-0.3,0.2-0.4
			c-0.7-0.1-1.3-0.7-1.4-1.4c-0.1-0.9,1-1.8,2.2-1.9c0.3,0,0.6,0,0.9,0.1c0.5-1.2,1.9-1.7,3.1-1.2c0.8,0.4,1.3,1.1,1.4,2v0.2
			c1.1,0.1,2,1.1,2,2.2c0.1,1.3-0.9,2.4-2.2,2.5l0,0c-0.2,0-0.4,0-0.5,0C60.1,112.7,58.9,113.4,57.7,113.4z M56,106h-0.2
			c-1.2,0.1-2.1,0.8-2,1.6c0.1,0.7,0.7,1.2,1.4,1.3h0.2l-0.1,0.1c-0.1,0.2-0.1,0.3-0.2,0.5c-0.5,1.5,0.3,3,1.8,3.5
			c1.5,0.5,3-0.3,3.5-1.8l0,0v-0.1h0.1c0.2,0,0.4,0,0.6,0l0,0c1.2-0.1,2-1.1,1.9-2.3c-0.1-1-0.9-1.8-1.9-1.9h0v-0.1
			c0-0.1,0-0.2,0-0.2c-0.1-1.2-1-2.1-2.2-2c0,0,0,0,0,0c-0.9,0.1-1.6,0.6-1.8,1.4v0.1h-0.1C56.5,106,56.3,106,56,106z"/>
		<path class="st24" d="M73.7,113.3c-0.2,0-0.4,0-0.6,0c-0.6,1.5-2.3,2.3-3.8,1.7c-1.4-0.5-2.2-2.1-1.8-3.5c0.1-0.2,0.1-0.3,0.2-0.5
			c-0.7-0.1-1.3-0.6-1.5-1.4c-0.1-0.9,0.9-1.7,2.1-1.7c0.3,0,0.7,0,1,0.1c0.4-1.2,1.7-1.7,2.9-1.3c0.8,0.3,1.4,1.1,1.4,2v0.2
			c1.2,0.1,2.1,1.2,2,2.4C75.6,112.4,74.8,113.3,73.7,113.3L73.7,113.3z"/>
		<path class="st0" d="M70.3,115.4c-0.3,0-0.6-0.1-0.9-0.2c-1.6-0.5-2.5-2.2-2-3.8c0,0,0,0,0,0c0-0.1,0.1-0.2,0.2-0.4
			c-0.7-0.1-1.3-0.7-1.4-1.4c-0.1-1,0.9-1.8,2.2-1.9c0.3,0,0.6,0,0.9,0.1c0.5-1.2,1.9-1.7,3.1-1.2c0.8,0.4,1.4,1.1,1.4,2
			c0,0,0,0.1,0,0.2c1.1,0.2,1.9,1.1,2,2.2c0,0.6-0.2,1.2-0.6,1.7c-0.4,0.5-1,0.8-1.6,0.8c-0.2,0-0.4,0-0.5,0
			C72.6,114.6,71.5,115.4,70.3,115.4z M68.6,108h-0.2c-1.2,0.1-2.1,0.8-2,1.6c0.1,0.7,0.7,1.2,1.4,1.3h0.2l-0.1,0.1
			c-0.1,0.2-0.1,0.3-0.2,0.5c-0.5,1.5,0.3,3,1.8,3.5s3-0.3,3.5-1.8v-0.1h0.1c0.2,0,0.4,0,0.6,0l0,0c0.6,0,1.1-0.3,1.4-0.7
			c0.4-0.4,0.6-1,0.5-1.5c-0.1-1.1-0.9-1.9-1.9-2h-0.1v-0.1c0-0.1,0-0.2,0-0.2c-0.1-1.2-1.1-2-2.2-2c-0.8,0-1.5,0.6-1.8,1.4v0.1
			h-0.1C69.1,108,68.9,108,68.6,108z"/>
		<path class="st25" d="M66.1,105.6c-0.2,0.1-0.4,0.2-0.6,0.2c0.4,1.6-0.6,3.2-2.2,3.6c-1.6,0.4-3.2-0.6-3.6-2.2
			c-0.1-0.3-0.1-0.5-0.1-0.8c0-0.2,0-0.4,0-0.5c-0.7,0.2-1.5,0-2-0.6c-0.4-0.8,0.1-1.9,1.2-2.5c0.3-0.2,0.6-0.3,1-0.3
			c-0.1-1.5,1.4-3.1,3.7-2.2c0.3,0.4,0.5,0.8,0.7,1.2l0,0c1.2-0.4,2.5,0.2,2.9,1.4C67.5,103.9,67.1,105,66.1,105.6L66.1,105.6z"/>
		<path class="st0" d="M62.5,109.2c-1.6,0-2.9-1.2-3.1-2.7c0-0.1,0-0.3,0-0.4c-0.7,0.2-1.5-0.1-1.9-0.7c-0.5-0.8,0.1-2,1.3-2.7
			c0.3-0.2,0.6-0.3,0.9-0.3c0-0.8,0.4-1.5,1-2c0.9-0.6,2-0.7,2.9-0.3l0,0l0,0c0.1,0.2,0.2,0.4,0.3,0.6c0.1,0.2,0.2,0.4,0.3,0.6
			c1.3-0.4,2.6,0.3,3,1.5c0.4,1.1-0.1,2.3-1.2,2.9l0,0c-0.2,0.1-0.3,0.2-0.5,0.2c0.1,1.7-1.1,3.1-2.7,3.3
			C62.8,109.2,62.6,109.2,62.5,109.2z M59.7,105.8v0.2c0,0.2,0,0.3,0,0.5c0.2,1.6,1.6,2.7,3.2,2.5c1.6-0.2,2.7-1.6,2.5-3.2v-0.1h0.1
			c0.2,0,0.4-0.1,0.6-0.2l0,0c1-0.6,1.4-1.9,0.9-2.9c0,0,0,0,0,0c-0.5-0.9-1.6-1.4-2.6-1c-0.1,0-0.2,0-0.2-0.1
			c-0.1-0.2-0.2-0.4-0.3-0.6c-0.1-0.1-0.2-0.3-0.3-0.5c-0.9-0.4-1.9-0.3-2.6,0.2c-0.6,0.4-0.9,1.1-0.8,1.9v0.1h-0.1
			c-0.3,0.1-0.6,0.2-0.9,0.3c-1,0.6-1.6,1.6-1.2,2.3c0.4,0.6,1.2,0.8,1.8,0.6L59.7,105.8z"/>
		<path class="st25" d="M46.1,116.8c-0.1,0.1-0.3,0.1-0.5,0.1c0,1.2-1,2.2-2.2,2.2c-1.2,0-2.2-1-2.2-2.2c0-0.1,0-0.3,0-0.4
			c-0.6,0.1-1.1-0.1-1.4-0.6c-0.2-0.6,0.3-1.4,1.1-1.8c0.2-0.1,0.5-0.2,0.7-0.2c0-0.6,0.4-1.2,1-1.5c0.9-0.3,1.9,0.1,2.2,0.9
			c0,0,0,0,0,0c0,0.1,0,0.1,0.1,0.2c0.9-0.2,1.8,0.4,2,1.3c0.2,0.8-0.3,1.6-1,1.9L46.1,116.8z"/>
		<path class="st0" d="M43.4,119.2c-1.3,0-2.3-1-2.3-2.3l0,0c0-0.1,0-0.2,0-0.3c-0.6,0.1-1.1-0.2-1.3-0.7c-0.3-0.7,0.3-1.5,1.2-1.9
			c0.2-0.1,0.4-0.1,0.7-0.2c0.1-1,1-1.7,2-1.6c0.7,0.1,1.2,0.5,1.5,1.1v0.1c0.8-0.1,1.7,0.3,2,1.1c0.2,0.4,0.2,0.9,0,1.4
			c-0.2,0.5-0.5,0.8-1,1c-0.1,0-0.2,0.1-0.4,0.1C45.7,118.2,44.7,119.2,43.4,119.2z M41.4,116.3v0.2c0,0.1,0,0.3,0,0.4
			c0.1,1.2,1.1,2,2.2,1.9c1-0.1,1.9-0.9,1.9-1.9v-0.1h0.1c0.1,0,0.3-0.1,0.4-0.1l0,0c0.8-0.3,1.2-1.2,0.9-2
			c-0.3-0.7-1.1-1.1-1.8-0.9H45v-0.1c0-0.1,0-0.1,0-0.2c-0.4-0.8-1.3-1.2-2.1-0.8c-0.5,0.2-0.9,0.7-0.9,1.3v0.1h-0.1
			c-0.2,0-0.5,0.1-0.7,0.2c-0.8,0.3-1.3,1-1,1.6C40.5,116.2,41,116.4,41.4,116.3L41.4,116.3z"/>
		<path class="st25" d="M68.6,119.6c-0.1,0.1-0.3,0.1-0.4,0.1c-0.1,1.2-1.1,2.1-2.4,2.1c-1.1-0.1-2-1-2.1-2.1c0-0.1,0-0.3,0-0.4
			c-0.6,0.1-1.1-0.1-1.4-0.6c-0.2-0.6,0.3-1.4,1.1-1.8c0.2-0.1,0.5-0.1,0.7-0.2c0.1-0.9,0.9-1.6,1.8-1.6c0.6,0,1.2,0.4,1.5,1
			c0,0.1,0.1,0.1,0.1,0.2c0.8-0.2,1.7,0.2,2,1C69.9,118.3,69.5,119.3,68.6,119.6C68.6,119.6,68.6,119.6,68.6,119.6z"/>
		<path class="st0" d="M66,122.1c-1.3,0-2.3-1.1-2.3-2.3c0-0.1,0-0.2,0-0.3l0,0c-0.5,0.1-1.1-0.2-1.3-0.7c-0.3-0.7,0.3-1.5,1.2-1.9
			c0.2-0.1,0.4-0.1,0.7-0.2c0.1-0.7,0.5-1.2,1.1-1.5c0.9-0.4,2,0.1,2.4,1v0.1c1-0.2,1.9,0.5,2.1,1.4c0.1,0.4,0,0.7-0.1,1.1
			c-0.2,0.5-0.5,0.8-1,1c-0.1,0-0.2,0.1-0.4,0.1C68.3,121.1,67.2,122.1,66,122.1z M64,119.2v0.2c0,0.1,0,0.2,0,0.4
			c0.1,1.2,1.1,2,2.2,1.9c1-0.1,1.9-0.9,1.9-1.9v-0.1h0.1c0.1,0,0.3,0,0.4-0.1l0,0c0.4-0.2,0.7-0.5,0.9-0.8c0.2-0.4,0.2-0.8,0-1.2
			c-0.3-0.7-1.1-1.1-1.8-0.9h-0.1v-0.1c0-0.1,0-0.1,0-0.2c-0.4-0.8-1.3-1.2-2.1-0.8c-0.5,0.2-0.9,0.7-0.9,1.3v0.1h-0.1
			c-0.2,0-0.5,0.1-0.7,0.2c-0.8,0.3-1.3,1-1,1.6C63,119,63.6,119.3,64,119.2L64,119.2z"/>
		<path class="st25" d="M73.4,118.1c-0.1-0.1-0.3-0.1-0.4-0.2l0,0c-0.9,0.9-2.3,0.9-3.1,0c-0.8-0.8-0.9-2.2,0-3.1
			c0.1-0.1,0.2-0.2,0.3-0.2l0,0c-0.5-0.3-0.7-0.9-0.5-1.4c0.2-0.6,1.2-0.8,2-0.5c0.2,0.1,0.4,0.2,0.6,0.4l0,0
			c0.7-0.6,1.8-0.6,2.4,0.1c0.4,0.5,0.6,1.2,0.3,1.8l-0.1,0.2l0,0c0.8,0.5,1,1.6,0.5,2.3C75,118,74.2,118.3,73.4,118.1L73.4,118.1z"
			/>
		<path class="st0" d="M71.5,118.6c-1.3,0-2.4-1-2.4-2.3c0-0.6,0.2-1.3,0.7-1.7l0.2-0.2c-0.4-0.3-0.6-0.9-0.5-1.5
			c0.5-0.7,1.4-1,2.2-0.6c0.2,0.1,0.4,0.2,0.6,0.3c0.8-0.6,1.9-0.5,2.6,0.2c0.4,0.5,0.6,1.3,0.3,1.9v0.1c0.8,0.6,1,1.7,0.5,2.5
			c-0.5,0.7-1.4,1-2.2,0.7l0,0c-0.1-0.1-0.2-0.1-0.3-0.2C72.7,118.4,72.1,118.6,71.5,118.6z M70.8,112.6c-0.4,0-0.9,0.2-1.1,0.6
			c-0.1,0.5,0.1,1,0.5,1.3l0,0v0.1h-0.1c-0.1,0.1-0.2,0.1-0.3,0.2c-0.8,0.8-0.8,2.1,0,2.9c0.8,0.8,2.1,0.8,2.9,0l0.1-0.1l0.1,0.1
			c0.1,0.1,0.2,0.2,0.4,0.2l0,0c0.4,0.2,0.8,0.2,1.2,0c0.4-0.2,0.7-0.5,0.8-0.8c0.3-0.7,0-1.5-0.6-1.9l-0.1-0.1v-0.1l0.1-0.1
			c0.3-0.6,0.1-1.3-0.4-1.8c-0.6-0.5-1.5-0.5-2.1,0l-0.1,0.1l-0.1-0.1c-0.4-0.3-0.9-0.5-1.4-0.5L70.8,112.6z"/>
		<path class="st25" d="M57.7,119.4c-0.1,0.1-0.2,0.2-0.3,0.3l0,0c0.6,1.1,0.2,2.4-0.9,3c-1,0.5-2.3,0.2-2.9-0.7
			c-0.1-0.1-0.1-0.2-0.2-0.3l0,0c-0.4,0.4-1,0.4-1.5,0.2c-0.5-0.6-0.5-1.5,0.1-2.1c0.2-0.2,0.3-0.4,0.5-0.5l0,0
			c-0.5-0.8-0.2-1.8,0.6-2.3c0.6-0.3,1.3-0.3,1.9,0.1l0.1,0.1l0,0c0.7-0.6,1.8-0.6,2.4,0.1C58.1,117.8,58.2,118.7,57.7,119.4
			L57.7,119.4z"/>
		<path class="st0" d="M55.5,123.2c-0.8,0-1.6-0.4-2-1.1c0-0.1-0.1-0.2-0.1-0.2c-0.4,0.3-1.1,0.4-1.5,0.1c-0.6-0.6-0.6-1.6,0-2.2
			c0.1-0.2,0.3-0.4,0.5-0.5c-0.4-0.8-0.1-1.8,0.7-2.3c0.6-0.4,1.5-0.4,2.1,0.1h0.1c0.6-0.6,1.6-0.6,2.3-0.1c0.4,0.3,0.6,0.7,0.7,1.2
			c0.1,0.5-0.1,1-0.4,1.3c-0.1,0.1-0.2,0.2-0.3,0.3c0.6,1.1,0.2,2.5-0.9,3.1C56.3,123,55.9,123.1,55.5,123.2z M53.4,121.5h0.1v0.1
			c0,0.1,0.1,0.2,0.2,0.3c0.6,1,1.9,1.2,2.9,0.6c0.9-0.6,1.2-1.8,0.7-2.7l-0.1-0.1l0.1-0.1c0.1-0.1,0.2-0.2,0.3-0.3l0,0
			c0.5-0.7,0.4-1.7-0.2-2.2c-0.6-0.5-1.5-0.5-2.1,0.1l-0.1,0.1l-0.1-0.1c0,0-0.1-0.1-0.1-0.1c-0.7-0.6-1.6-0.5-2.2,0.2
			c-0.4,0.5-0.5,1.2-0.1,1.8l0,0.1l-0.1,0.1c-0.2,0.1-0.4,0.3-0.5,0.5c-0.5,0.7-0.6,1.5-0.1,1.9C52.4,121.9,52.9,121.9,53.4,121.5
			L53.4,121.5z"/>
		<path class="st25" d="M51.9,114.7c-0.2,0-0.4,0-0.6,0c-0.7,1.5-2.5,2.2-4,1.5c-1.2-0.6-1.9-1.9-1.7-3.2c0.1-0.2,0.1-0.3,0.2-0.5
			c-0.8-0.1-1.4-0.6-1.5-1.4c-0.1-0.9,0.9-1.7,2.1-1.8c0.3,0,0.7,0,1,0.1c0.5-1.4,2.5-2.3,4.3-0.6c0.1,0.4,0.1,0.9,0.2,1.4l0,0
			c1.3,0.1,2.2,1.2,2.1,2.4C53.8,113.7,53,114.6,51.9,114.7L51.9,114.7z"/>
		<path class="st0" d="M48.4,117c-0.3,0-0.6,0-0.9-0.1c-1.6-0.5-2.6-2.2-2.1-3.9c0-0.1,0.1-0.3,0.1-0.4c-0.8-0.1-1.3-0.7-1.5-1.4
			c-0.1-1,0.9-1.8,2.2-2c0.3,0,0.7,0,1,0c0.3-0.7,0.9-1.2,1.7-1.4c1-0.2,2.1,0.1,2.8,0.9l0,0l0,0c0,0.2,0.1,0.5,0.1,0.6
			c0,0.2,0.1,0.4,0.1,0.6c1.1,0.1,2,1,2.2,2.2c0.1,1.3-0.8,2.5-2.2,2.6l0,0c-0.2,0-0.4,0-0.5,0C51,116.1,49.8,117,48.4,117z
			 M46.7,109.5h-0.3c-1.2,0.1-2.1,0.9-2,1.7c0.2,0.7,0.7,1.2,1.4,1.2H46l-0.1,0.1c-0.1,0.2-0.1,0.3-0.2,0.5
			c-0.4,1.5,0.5,3.1,2.1,3.5c1.4,0.4,2.9-0.4,3.4-1.8v-0.1h0.1c0.2,0,0.4,0,0.6,0c0.6-0.1,1.1-0.3,1.5-0.8c0.4-0.4,0.5-1,0.5-1.6
			c-0.1-1.1-0.9-1.9-2-2c-0.1,0-0.1-0.1-0.1-0.2c0-0.2,0-0.5-0.1-0.7c0-0.2,0-0.4-0.1-0.6c-0.6-0.7-1.6-1-2.5-0.8
			c-0.7,0.2-1.3,0.7-1.5,1.4v0.1h-0.1C47.1,109.4,46.9,109.4,46.7,109.5L46.7,109.5z"/>
		<path class="st25" d="M68.1,110.5c-0.2,0.1-0.4,0.2-0.6,0.2c0,1.7-1.3,3-3,3c-1.4,0-2.6-1-2.9-2.3c0-0.2,0-0.4,0-0.5
			c-0.7,0.2-1.5,0-2-0.6c-0.4-0.8,0.1-1.9,1.2-2.5c0.3-0.2,0.7-0.3,1-0.3c-0.1-1.5,1.3-3.1,3.7-2.2c0.3,0.6,0.6,0.9,0.7,1.2l0,0
			c1.2-0.4,2.5,0.2,2.9,1.4C69.5,108.8,69.1,110,68.1,110.5L68.1,110.5z"/>
		<path class="st0" d="M64.6,114.2c-1.6,0-2.9-1.2-3.1-2.7c0-0.1,0-0.3,0-0.4c-0.7,0.2-1.5-0.1-1.9-0.7c-0.5-0.8,0.1-2,1.3-2.7
			c0.3-0.2,0.6-0.3,0.9-0.3c0-0.8,0.3-1.5,0.9-2c0.9-0.6,2-0.7,2.9-0.3l0,0l0,0l0.3,0.6c0.1,0.2,0.2,0.4,0.3,0.6
			c1.3-0.4,2.6,0.3,3,1.5c0.4,1.1-0.1,2.3-1.2,2.9c-0.2,0.1-0.3,0.2-0.5,0.2c0.2,1.7-1,3.2-2.6,3.4L64.6,114.2z M61.8,110.8v0.2
			c0,0.2,0,0.3,0,0.5c0.2,1.6,1.6,2.7,3.2,2.5c1.5-0.2,2.6-1.6,2.5-3.1v-0.1h0.1c0.2-0.1,0.4-0.1,0.6-0.2l0,0c0.5-0.3,0.8-0.7,1-1.3
			c0.3-1.1-0.3-2.3-1.5-2.7c-0.4-0.1-0.9-0.1-1.3,0c-0.1,0-0.2,0-0.2-0.1c-0.1-0.2-0.2-0.4-0.3-0.6l-0.3-0.5
			c-0.9-0.4-1.9-0.3-2.6,0.2c-0.6,0.4-0.9,1.1-0.8,1.9v0.1h-0.1c-0.3,0.1-0.6,0.2-0.9,0.3c-1,0.6-1.6,1.6-1.2,2.3
			c0.4,0.6,1.1,0.8,1.8,0.6L61.8,110.8z"/>
		<path class="st25" d="M81,112c-0.2,0.1-0.4,0.2-0.6,0.3c0.1,1.7-1.1,3.1-2.7,3.2c-1.4,0.1-2.7-0.7-3.1-2c0-0.2-0.1-0.4-0.1-0.5
			c-0.7,0.3-1.5,0.1-2-0.5c-0.5-0.8-0.1-1.9,1-2.6c0.3-0.2,0.6-0.3,0.9-0.4c-0.2-1.5,1.1-3.2,3.5-2.5c0.3,0.4,0.5,0.7,0.8,1.1l0,0
			c1.1-0.6,2.5-0.2,3.1,0.9C82.5,110,82.1,111.4,81,112z"/>
		<path class="st0" d="M77.5,115.9c-1.5,0-2.7-1-3-2.5c0-0.1-0.1-0.3-0.1-0.4c-0.7,0.3-1.5,0-2-0.6c-0.5-0.8-0.1-2,1-2.8
			c0.3-0.2,0.6-0.3,0.9-0.4c-0.1-0.8,0.2-1.5,0.8-2c0.8-0.7,1.9-0.9,2.9-0.5l0,0l0,0c0.2,0.2,0.3,0.4,0.4,0.5
			c0.1,0.2,0.3,0.3,0.4,0.5c1.1-0.5,2.3-0.1,2.9,0.9c0.4,0.5,0.5,1.2,0.4,1.8c-0.1,0.6-0.5,1.2-1,1.5c-0.2,0.1-0.3,0.2-0.5,0.2
			c0.3,1.6-0.8,3.2-2.4,3.6C77.9,115.9,77.7,115.9,77.5,115.9z M74.7,112.7v0.2c0,0.2,0,0.3,0.1,0.5c0.3,1.5,1.9,2.5,3.4,2.2
			c1.5-0.3,2.5-1.8,2.2-3.3v-0.1h0.1c0.2-0.1,0.4-0.1,0.5-0.3l0,0c1-0.6,1.3-2,0.7-3c-0.6-0.9-1.8-1.3-2.8-0.8c-0.1,0-0.2,0-0.2-0.1
			c0,0,0,0,0,0c-0.1-0.2-0.3-0.4-0.4-0.6l-0.4-0.5c-0.9-0.3-1.9-0.1-2.6,0.5c-0.5,0.5-0.8,1.2-0.7,1.9v0.1h-0.1
			c-0.3,0.1-0.6,0.2-0.9,0.4c-1,0.7-1.4,1.8-0.9,2.4c0.5,0.5,1.2,0.7,1.8,0.4L74.7,112.7z"/>
		<path class="st24" d="M65.2,114c-0.4,0.5-1.1,0.7-1.8,0.6c-0.4,1.1-1.7,1.7-2.9,1.3c-1.1-0.4-1.6-1.6-1.3-2.7
			c0-0.1,0.1-0.3,0.2-0.4c-0.5-0.1-1-0.5-1.1-1c0-0.7,0.7-1.2,1.6-1.3c0.3,0,0.5,0,0.8,0.1c0.4-1.1,1.9-1.6,3.2-0.3
			c0,0.5,0.1,0.8,0.1,1c1,0.1,1.6,0.9,1.6,1.9C65.5,113.5,65.4,113.8,65.2,114z"/>
		<path class="st0" d="M61.4,116.3c-0.2,0-0.5,0-0.7-0.1c-0.6-0.2-1.1-0.6-1.3-1.2c-0.3-0.6-0.3-1.2-0.1-1.8c0-0.1,0.1-0.2,0.1-0.2
			c-0.6-0.1-1-0.6-1.1-1.1c0-0.4,0.2-0.8,0.5-1c0.4-0.3,0.8-0.4,1.2-0.4c0.2,0,0.5,0,0.7,0c0.2-0.5,0.7-0.9,1.3-1
			c0.8-0.1,1.5,0.2,2.1,0.7l0,0l0,0c0,0.2,0,0.3,0,0.5c0,0.1,0,0.3,0,0.4c0.6,0.1,1.1,0.5,1.3,1c0.3,0.6,0.3,1.3-0.1,1.9l0,0
			c-0.4,0.5-1.1,0.8-1.8,0.7C63.1,115.6,62.3,116.2,61.4,116.3z M60.1,110.7H60c-0.4,0-0.8,0.1-1.1,0.4c-0.2,0.2-0.4,0.5-0.4,0.8
			c0,0.4,0.4,0.8,1,0.9h0.2l-0.1,0.1c-0.1,0.1-0.1,0.2-0.2,0.3c-0.4,1.1,0.2,2.3,1.3,2.6c1.1,0.4,2.3-0.2,2.6-1.3v-0.1h0.1
			c0.6,0.1,1.2-0.1,1.6-0.6c0.3-0.5,0.4-1.1,0.1-1.7c-0.2-0.5-0.7-0.8-1.3-0.8h-0.1v-0.1c0-0.2,0-0.3,0-0.5c0-0.1,0-0.3,0-0.4
			c-0.5-0.5-1.2-0.7-1.8-0.6c-0.5,0.1-1,0.5-1.1,1v0.1h-0.1C60.6,110.7,60.3,110.7,60.1,110.7z"/>
		<path class="st24" d="M69.8,113c-0.1,0.7-0.6,1.2-1.2,1.4c0.2,1.2-0.6,2.3-1.8,2.5c-1.2,0.2-2.3-0.6-2.5-1.8c0-0.1,0-0.3,0-0.4
			c-0.5,0.2-1.1,0-1.5-0.4c-0.4-0.6,0-1.4,0.8-1.9c0.2-0.1,0.5-0.2,0.7-0.3c-0.2-1.1,0.9-2.3,2.6-1.8c0.2,0.3,0.4,0.6,0.6,0.9
			c0.9-0.4,1.9,0.1,2.3,0.9C69.8,112.4,69.8,112.7,69.8,113z"/>
		<path class="st0" d="M66.4,117.1c-1.1,0-2.1-0.8-2.3-1.9c0-0.1,0-0.2,0-0.3c-0.5,0.2-1.1,0-1.5-0.5c-0.3-0.8,0-1.7,0.8-2.1
			c0.2-0.1,0.4-0.2,0.6-0.3c0-0.6,0.2-1.1,0.6-1.5c0.6-0.5,1.4-0.6,2.2-0.3l0,0l0,0l0.3,0.4c0.1,0.1,0.2,0.3,0.2,0.4
			c0.5-0.2,1.2-0.1,1.6,0.2c0.6,0.4,0.9,1.1,0.8,1.7l0,0c-0.1,0.7-0.6,1.2-1.2,1.4c0.2,1.2-0.6,2.4-1.8,2.6
			C66.7,117,66.5,117.1,66.4,117.1z M64.3,114.6v0.2c0,0.1,0,0.2,0,0.4c0.2,1.1,1.3,1.9,2.4,1.7s1.9-1.3,1.7-2.4v-0.1h0.1
			c0.6-0.2,1-0.7,1.2-1.3c0-0.6-0.2-1.2-0.7-1.5c-0.4-0.3-1-0.3-1.5-0.1h-0.1v-0.1c-0.1-0.2-0.2-0.3-0.3-0.4l-0.2-0.4
			c-0.6-0.2-1.4-0.1-1.9,0.3c-0.4,0.3-0.6,0.9-0.5,1.4v0.1h-0.1c-0.2,0.1-0.5,0.2-0.7,0.3c-0.7,0.4-1.1,1.2-0.8,1.7
			c0.3,0.4,0.9,0.5,1.3,0.3L64.3,114.6z"/>
		<path class="st25" d="M60.1,115.7c-0.2,0-0.4,0-0.6,0c-0.5,1.5-2.1,2.3-3.6,1.8c-1.5-0.5-2.3-2.1-1.8-3.7c0.1-0.2,0.1-0.3,0.2-0.5
			c-0.7-0.1-1.3-0.6-1.4-1.3c0-0.9,0.9-1.6,2.1-1.7c0.3,0,0.7,0,1,0.1c0.4-1.1,1.7-1.7,2.8-1.3c0.8,0.3,1.4,1.1,1.4,1.9
			c0,0.1,0,0.2,0,0.2c1.2,0.1,2.1,1.2,2,2.4C62,114.8,61.1,115.6,60.1,115.7L60.1,115.7z"/>
		<path class="st0" d="M56.8,117.8c-0.3,0-0.6-0.1-0.9-0.2c-1.6-0.5-2.4-2.2-1.9-3.8c0-0.1,0.1-0.2,0.2-0.3
			c-0.7-0.1-1.3-0.7-1.4-1.4c-0.1-0.9,0.9-1.8,2.2-1.8c0.3,0,0.6,0,0.9,0.1c0.5-1.2,1.9-1.7,3.1-1.2c0.8,0.3,1.3,1.1,1.4,1.9
			c0,0,0,0.1,0,0.1c1.3,0.2,2.2,1.3,2,2.6c-0.1,0.5-0.3,0.9-0.6,1.2c-0.4,0.5-1,0.7-1.6,0.8c-0.2,0-0.3,0-0.5,0
			C59.1,117,58,117.8,56.8,117.8z M55.1,110.5h-0.2c-1.1,0.1-2,0.8-2,1.6c0.1,0.7,0.7,1.2,1.3,1.2h0.2l-0.1,0.2
			c-0.1,0.1-0.1,0.3-0.2,0.4c-0.4,1.4,0.4,3,1.8,3.4c1.4,0.4,2.9-0.3,3.4-1.7v-0.1h0.1c0.2,0,0.4,0,0.6,0l0,0c0.5,0,1.1-0.3,1.4-0.7
			c0.4-0.4,0.6-0.9,0.5-1.5c-0.1-1-0.9-1.8-1.9-1.9l0,0v-0.1c0-0.1,0-0.2,0-0.2c0-1.1-1-2-2.1-2c-0.8,0-1.6,0.6-1.9,1.4v0.1h-0.1
			C55.6,110.5,55.4,110.5,55.1,110.5z"/>
		<path class="st24" d="M62.9,122.3c-0.2,0-0.4,0-0.6,0c-0.6,1.5-2.2,2.3-3.7,1.7c-1.5-0.5-2.2-2.1-1.8-3.6c0.1-0.2,0.1-0.3,0.2-0.5
			c-0.7-0.1-1.3-0.6-1.5-1.4c-0.1-0.9,0.9-1.7,2.1-1.7c0.3,0,0.7,0,1,0.1c0.4-1.2,1.7-1.7,2.9-1.3c0.8,0.3,1.4,1.1,1.4,2v0.2
			c1.2,0.1,2.2,1.1,2.1,2.4C64.9,121.4,64,122.2,62.9,122.3L62.9,122.3z"/>
		<path class="st0" d="M59.5,124.3c-0.3,0-0.6-0.1-0.9-0.2c-1.6-0.5-2.5-2.2-2-3.8c0,0,0-0.1,0-0.1c0-0.1,0.1-0.2,0.2-0.4
			c-0.7-0.1-1.3-0.7-1.4-1.4c-0.1-1,1-1.8,2.2-1.9c0.3,0,0.6,0,0.9,0.1c0.5-1.2,1.9-1.7,3.1-1.2c0.8,0.4,1.4,1.1,1.4,2
			c0,0,0,0.1,0,0.1c1.1,0.2,1.9,1.1,2,2.2c0.1,0.6-0.2,1.2-0.6,1.7c-0.4,0.5-1,0.8-1.6,0.8l0,0c-0.2,0-0.4,0-0.5,0
			C61.8,123.6,60.7,124.3,59.5,124.3z M57.8,116.9h-0.2c-1.2,0.1-2.1,0.8-2,1.6c0,0.6,0.6,1.1,1.4,1.3h0.2L57,120
			c-0.1,0.1-0.1,0.3-0.2,0.5c-0.5,1.5,0.3,3,1.8,3.5c1.5,0.5,3-0.3,3.5-1.8l0,0v-0.1h0.1c0.2,0,0.4,0,0.6,0l0,0c1.2,0,2.1-1,2-2.2
			c0,0,0,0,0-0.1c-0.1-1.1-0.9-1.9-1.9-2h-0.1v-0.1c0-0.1,0-0.2,0-0.2c-0.1-1.2-1.2-2-2.3-1.8c-0.8,0.1-1.4,0.6-1.7,1.3v0.1h-0.1
			C58.3,117,58.1,117,57.8,116.9z"/>
		<path class="st24" d="M35.2,121.8c-0.1,0-0.3,0-0.4,0c-0.3,1-1.4,1.5-2.4,1.2c-1-0.3-1.5-1.4-1.2-2.4c0-0.1,0.1-0.2,0.1-0.3
			c-0.5-0.1-0.9-0.4-1-0.9c0-0.6,0.6-1.1,1.4-1.1c0.2,0,0.4,0,0.6,0.1c0.3-0.8,1.1-1.1,1.9-0.9c0.5,0.2,0.9,0.7,0.9,1.3
			c0,0.1,0,0.1,0,0.2c0.8,0,1.5,0.6,1.5,1.5C36.7,121.2,36,121.9,35.2,121.8L35.2,121.8z"/>
		<path class="st0" d="M33,123.2c-0.2,0-0.4,0-0.6-0.1c-1.1-0.3-1.6-1.4-1.3-2.5c0,0,0,0,0-0.1c0-0.1,0-0.1,0.1-0.2
			c-0.5-0.1-0.8-0.5-0.9-1c0-0.6,0.6-1.2,1.5-1.3c0.2,0,0.4,0,0.6,0c0.4-0.8,1.4-1.1,2.1-0.7c0.5,0.2,0.8,0.7,0.9,1.3v0.1
			c0.7,0.1,1.3,0.7,1.3,1.5c0.1,0.9-0.5,1.6-1.4,1.8c0,0-0.1,0-0.1,0c-0.1,0-0.2,0-0.3,0C34.6,122.8,33.8,123.3,33,123.2z
			 M31.9,118.4h-0.1c-0.7,0-1.3,0.5-1.3,1c0.1,0.4,0.4,0.7,0.9,0.8h0.2l-0.1,0.1c0,0.1-0.1,0.2-0.1,0.3c-0.3,0.9,0.2,1.9,1.1,2.2
			c0,0,0,0,0,0c0.9,0.3,1.9-0.2,2.2-1.1c0,0,0,0,0,0v-0.1h0.1c0.1,0,0.2,0,0.4,0l0,0c0.4,0,0.7-0.2,0.9-0.4c0.5-0.5,0.4-1.4-0.1-1.9
			c-0.2-0.2-0.5-0.3-0.8-0.3h-0.1v-0.3c-0.1-0.7-0.7-1.3-1.4-1.2c-0.5,0-1,0.4-1.2,0.8v0.1h-0.1C32.2,118.4,32.1,118.4,31.9,118.4z"
			/>
		<path class="st24" d="M77.3,114.9c-0.1,0-0.2,0-0.3,0c-0.2,0.9-1.1,1.4-2,1.1c-0.9-0.2-1.4-1.1-1.1-2c0,0,0-0.1,0-0.1
			c0-0.1,0.1-0.2,0.1-0.3c-0.4,0-0.7-0.4-0.8-0.8c0-0.5,0.5-0.9,1.2-1c0.2,0,0.4,0,0.6,0.1c0.2-0.5,0.6-0.8,1.1-0.8
			c0.7-0.1,1.3,0.5,1.3,1.1c0,0,0,0,0,0c0,0,0,0.1,0,0.1c0.7,0,1.2,0.6,1.2,1.2C78.5,114.4,78,114.9,77.3,114.9L77.3,114.9
			L77.3,114.9z"/>
		<path class="st0" d="M75.4,116.1c-1,0-1.7-0.8-1.7-1.8c0-0.2,0-0.4,0.1-0.5c0,0,0-0.1,0-0.2c-0.4-0.1-0.7-0.4-0.8-0.8
			c0-0.6,0.6-1,1.3-1.1c0.2,0,0.3,0,0.5,0c0.3-0.7,1.1-1,1.8-0.6c0.4,0.2,0.7,0.7,0.8,1.1l0,0c0.6,0.1,1.1,0.6,1.1,1.3
			c0,0.4-0.1,0.7-0.3,1c-0.2,0.3-0.6,0.4-0.9,0.5c-0.1,0-0.2,0-0.3,0C76.7,115.7,76.1,116.1,75.4,116.1z M74.4,112L74.4,112
			c-0.7,0-1.2,0.4-1.2,0.8s0.3,0.6,0.7,0.7h0.2l-0.1,0.1c0,0.1-0.1,0.2-0.1,0.2c-0.3,0.8,0.2,1.6,1,1.9c0.8,0.3,1.6-0.2,1.9-1v-0.1
			h0.1c0.1,0,0.2,0,0.3,0l0,0c0.3,0,0.6-0.2,0.8-0.4c0.2-0.2,0.3-0.5,0.3-0.8c0-0.5-0.5-1-1-1.1h-0.1v-0.2c-0.1-0.6-0.7-1-1.3-0.9
			c-0.4,0.1-0.7,0.3-0.8,0.7v0.1h-0.1C74.7,112,74.6,112,74.4,112z"/>
		<path class="st24" d="M51.5,120.8c-0.2,0-0.4,0-0.5,0c-0.5,1.3-2,2-3.4,1.5c-1.3-0.5-1.9-1.9-1.6-3.2c0-0.2,0.1-0.3,0.2-0.4
			c-0.7-0.1-1.2-0.6-1.3-1.2c0-0.8,0.8-1.5,1.9-1.5c0.3,0,0.6,0,0.9,0.1c0.4-1,1.6-1.5,2.6-1.1c0.7,0.3,1.2,0.9,1.2,1.7
			c0,0.1,0,0.1,0,0.2c1,0.1,1.8,0.9,1.8,1.9C53.4,119.8,52.6,120.8,51.5,120.8z"/>
		<path class="st0" d="M48.5,122.7c-1.5,0-2.7-1.2-2.7-2.7c0-0.3,0-0.6,0.1-0.8c0-0.1,0.1-0.2,0.1-0.3c-0.7-0.1-1.2-0.6-1.3-1.3
			c0-0.8,0.9-1.6,2-1.7c0.3,0,0.6,0,0.8,0.1c0.5-1,1.8-1.5,2.8-0.9c0.6,0.3,1.1,1,1.2,1.7v0.1c1,0.1,1.8,1,1.8,2
			c0,0.6-0.1,1.1-0.5,1.5c-0.4,0.4-0.9,0.7-1.5,0.7l0,0c-0.2,0-0.3,0-0.5,0C50.5,122,49.6,122.7,48.5,122.7z M47,116.1h-0.2
			c-1,0.1-1.8,0.7-1.8,1.4c0.1,0.6,0.6,1.1,1.2,1.1h0.2l-0.1,0.1c-0.1,0.1-0.1,0.3-0.2,0.4c-0.2,0.6-0.2,1.3,0.1,1.9
			c0.6,1.2,2.1,1.7,3.3,1.1c0.6-0.3,1-0.8,1.2-1.4v-0.1H51c0.2,0,0.3,0,0.5,0c1-0.1,1.8-1,1.7-2c-0.1-0.9-0.8-1.7-1.7-1.7h-0.1v-0.3
			c-0.1-1-1-1.8-2-1.8c-0.7,0-1.4,0.5-1.6,1.2v0.1h-0.1C47.4,116.1,47.2,116.1,47,116.1z"/>
		<path class="st24" d="M42.9,115.5c-0.2,0.1-0.3,0.2-0.5,0.2c0.2,1.4-0.8,2.7-2.2,2.9c-1.4,0.2-2.6-0.7-2.9-2c0-0.2,0-0.3,0-0.5
			c-0.6,0.2-1.3,0-1.7-0.5c-0.4-0.7,0-1.7,1-2.2c0.3-0.2,0.5-0.3,0.8-0.3c-0.1-1.1,0.8-2.1,1.9-2.1c0.7,0,1.4,0.3,1.8,0.8l0.1,0.2
			c1-0.4,2.2,0.1,2.6,1.1C44.1,113.9,43.8,115,42.9,115.5L42.9,115.5z"/>
		<path class="st0" d="M39.8,118.9c-1.3,0-2.5-1-2.7-2.3c0-0.1,0-0.2,0-0.3c-0.6,0.2-1.3,0-1.7-0.6c-0.4-0.9,0.1-2,1-2.4
			c0.2-0.1,0.5-0.3,0.8-0.3c-0.1-0.8,0.3-1.6,1-2c1-0.6,2.3-0.3,2.9,0.7l0.1,0.1c0.9-0.4,2,0,2.5,0.9c0.3,0.5,0.4,1.1,0.3,1.6
			c-0.1,0.6-0.5,1-1,1.3c-0.1,0.1-0.3,0.1-0.4,0.2c0.2,1.4-0.8,2.7-2.2,3C40.2,118.8,40,118.9,39.8,118.9z M37.4,116v0.2
			c0,0.1,0,0.3,0,0.4c0.2,1.4,1.5,2.3,2.9,2c1.4-0.2,2.3-1.5,2-2.9v-0.1h0.1c0.2,0,0.3-0.1,0.5-0.2c0.9-0.5,1.2-1.7,0.7-2.6
			c-0.5-0.8-1.5-1.1-2.4-0.7H41V112l-0.1-0.2c-0.5-0.9-1.7-1.2-2.6-0.6c-0.6,0.4-1,1.1-0.9,1.8v0.1h-0.1c-0.3,0.1-0.5,0.2-0.8,0.3
			c-0.9,0.5-1.3,1.5-0.9,2.1c0.4,0.5,1,0.6,1.6,0.4H37.4z"/>
		<path class="st24" d="M55.1,107.3c-0.1,0.4-0.4,0.8-0.8,1c0,0-0.1,0.1,0,0.1c0.3,1.2-0.4,2.4-1.6,2.7c-1.1,0.3-2.2-0.3-2.6-1.4
			c0-0.1-0.1-0.3-0.1-0.4c-0.5,0.3-1.1,0.2-1.5-0.2c-0.4-0.7-0.2-1.6,0.5-2c0.2-0.2,0.4-0.3,0.6-0.4c0,0,0.1-0.1,0.1-0.1
			c-0.2-0.9,0.3-1.8,1.2-2.1c0.7-0.2,1.4,0.1,1.8,0.6l0,0c0,0,0.1,0,0.2,0c0.8-0.5,1.9-0.2,2.3,0.7c0,0.1,0.1,0.1,0.1,0.2
			C55.2,106.6,55.2,107,55.1,107.3z"/>
		<path class="st0" d="M52.1,111.4c-1,0-1.9-0.6-2.2-1.6c0-0.1-0.1-0.2-0.1-0.3c-0.5,0.2-1.1,0.2-1.5-0.2c-0.4-0.8-0.2-1.7,0.5-2.2
			c0.2-0.2,0.4-0.3,0.6-0.4c-0.2-0.9,0.2-1.7,1-2.1c0.8-0.3,1.6-0.1,2.1,0.6c0.5-0.3,1-0.3,1.5-0.1c0.5,0.2,0.9,0.6,1.1,1.1
			c0.1,0.4,0.1,0.8,0,1.2c-0.1,0.5-0.5,0.8-0.9,1.1c0.4,1.2-0.3,2.4-1.5,2.8C52.6,111.4,52.3,111.4,52.1,111.4z M50,109.2v0.2
			c0,0.1,0.1,0.2,0.1,0.4c0.4,1.1,1.5,1.7,2.6,1.4c1.1-0.4,1.7-1.5,1.4-2.6c0-0.1,0-0.2,0.1-0.3c0.4-0.2,0.6-0.5,0.8-0.9l0,0
			c0.1-0.3,0.1-0.7,0-1c-0.2-0.4-0.5-0.8-1-0.9c-0.4-0.2-0.9-0.1-1.3,0.1c-0.1,0.1-0.2,0-0.3-0.1c-0.5-0.7-1.5-0.8-2.2-0.3
			c-0.5,0.4-0.7,1-0.6,1.6c0,0.1,0,0.2-0.1,0.3c-0.2,0.1-0.4,0.2-0.5,0.3c-0.7,0.6-0.9,1.4-0.5,1.8c0.4,0.3,0.9,0.4,1.4,0.1
			L50,109.2z"/>
		<path class="st24" d="M56.1,114.3c-0.1,0.1-0.2,0.2-0.4,0.3c0.4,1.1-0.1,2.4-1.3,2.9c-1,0.4-2.2,0-2.7-1c-0.1-0.1-0.1-0.2-0.1-0.4
			c-0.5,0.3-1.1,0.3-1.5,0c-0.4-0.6-0.3-1.5,0.3-2c0.2-0.2,0.4-0.3,0.6-0.5c-0.4-0.9,0.1-1.9,0.9-2.2c0.6-0.2,1.3-0.1,1.8,0.3
			c0,0,0.1,0.1,0.1,0.1c0.7-0.6,1.8-0.4,2.4,0.3C56.7,112.8,56.6,113.8,56.1,114.3L56.1,114.3z"/>
		<path class="st0" d="M53.7,117.9c-0.3,0-0.5,0-0.8-0.1c-0.6-0.2-1.1-0.6-1.3-1.2l-0.1-0.2c-0.5,0.3-1.1,0.3-1.5-0.1
			c-0.5-0.7-0.4-1.7,0.3-2.2c0.2-0.2,0.3-0.3,0.5-0.4c-0.3-0.9,0.2-2,1.1-2.3c0.7-0.2,1.4-0.1,1.9,0.4l0.1,0.1
			c0.7-0.5,1.7-0.4,2.3,0.2c0.4,0.3,0.6,0.8,0.6,1.3c0,0.5-0.2,0.9-0.5,1.3c-0.1,0.1-0.2,0.2-0.3,0.2c0.5,1.2-0.1,2.6-1.3,3
			C54.4,117.8,54.1,117.9,53.7,117.9L53.7,117.9z M51.7,115.9v0.2c0,0.1,0.1,0.2,0.1,0.4c0.2,0.5,0.7,0.9,1.2,1.1
			c0.5,0.2,1.1,0.2,1.6-0.1c1-0.5,1.5-1.7,1-2.8v-0.1h0.1c0.1-0.1,0.2-0.2,0.3-0.3l0,0c0.3-0.3,0.4-0.7,0.4-1.1
			c0-0.4-0.2-0.8-0.5-1.1c-0.6-0.5-1.4-0.6-2-0.1l-0.1,0.1l-0.1-0.1c0,0-0.1-0.1-0.1-0.1c-0.6-0.6-1.6-0.6-2.2,0.1c0,0,0,0,0,0
			c-0.4,0.4-0.5,1.1-0.3,1.7v0.1H51c-0.2,0.1-0.4,0.3-0.6,0.4c-0.6,0.6-0.7,1.5-0.3,1.9c0.4,0.3,1,0.3,1.4,0L51.7,115.9z"/>
		<path class="st25" d="M55.9,109.7c-0.3,0.3-0.6,0.4-1,0.3c-0.2,0.7-1,1.1-1.7,0.8c-0.7-0.2-1.1-1-0.8-1.7c0-0.1,0.1-0.1,0.1-0.2
			c-0.3,0-0.6-0.3-0.7-0.6c0-0.4,0.4-0.7,1-0.8c0.1,0,0.3,0,0.5,0c0.2-0.5,0.9-0.8,1.4-0.6c0.1,0.1,0.3,0.2,0.4,0.3
			c0.1,0.1,0.1,0.1,0.1,0.2c0,0.2,0,0.3,0,0.5c0.6,0,1,0.5,0.9,1.1c0,0.2-0.1,0.3-0.2,0.5C55.9,109.6,55.9,109.6,55.9,109.7z"/>
		<path class="st0" d="M53.7,111c-0.1,0-0.3,0-0.4-0.1c-0.4-0.1-0.7-0.4-0.8-0.7c-0.2-0.3-0.2-0.7-0.1-1.1c0,0,0-0.1,0-0.1
			c-0.3-0.1-0.6-0.4-0.6-0.7c0-0.5,0.5-0.9,1.1-0.9c0.1,0,0.3,0,0.4,0c0.1-0.3,0.4-0.5,0.7-0.6c0.4-0.1,0.9,0,1.2,0.3
			c0.1,0.1,0.1,0.2,0.2,0.3v0.2c0,0.1,0,0.2,0,0.2c0.3,0.1,0.6,0.3,0.8,0.6c0.2,0.4,0.2,0.8,0,1.1c0,0.1-0.1,0.1-0.1,0.2l0,0
			c-0.3,0.3-0.6,0.4-1,0.4C54.7,110.6,54.2,111,53.7,111z M52.9,107.7L52.9,107.7c-0.6,0-0.9,0.3-0.9,0.6c0.1,0.3,0.3,0.5,0.6,0.5
			h0.2l-0.1,0.2c0,0.1-0.1,0.1-0.1,0.2c-0.1,0.3-0.1,0.6,0.1,0.9c0.3,0.6,1,0.8,1.6,0.5c0.3-0.1,0.5-0.4,0.6-0.7v-0.1h0.1
			c0.3,0.1,0.6-0.1,0.9-0.3c0,0,0.1-0.1,0.1-0.1c0.1-0.3,0.1-0.6,0-0.9c-0.1-0.3-0.4-0.4-0.7-0.4H55V108c0-0.1,0-0.2,0-0.3v-0.2
			c0,0,0-0.1-0.1-0.1c-0.3-0.3-0.6-0.4-1-0.3c-0.3,0.1-0.5,0.3-0.6,0.5v0.1h-0.1C53.1,107.7,53,107.7,52.9,107.7L52.9,107.7z"/>
		<path class="st25" d="M88.6,111c-0.3,0.3-0.6,0.4-1,0.3c-0.2,0.7-0.9,1.1-1.6,1s-1.1-0.9-1-1.6c0-0.1,0-0.1,0.1-0.2
			c0-0.1,0.1-0.2,0.1-0.2c-0.3,0-0.6-0.3-0.7-0.6c0-0.4,0.4-0.8,1-0.8c0.1,0,0.3,0,0.4,0c0.2-0.5,0.9-0.8,1.4-0.6
			c0.1,0.1,0.3,0.2,0.4,0.3c0.1,0.1,0.1,0.1,0.1,0.2c0,0.2,0,0.3,0,0.5c0.6,0,1,0.5,0.9,1.1c0,0.2-0.1,0.3-0.2,0.5
			C88.6,110.9,88.6,110.9,88.6,111z"/>
		<path class="st0" d="M86.3,112.3c-0.2,0-0.3,0-0.4-0.1c-0.4-0.1-0.7-0.4-0.8-0.7c-0.2-0.3-0.2-0.7-0.1-1.1v-0.1
			c-0.3-0.1-0.6-0.4-0.6-0.7c0-0.5,0.4-0.9,1.1-0.9c0.1,0,0.3,0,0.4,0c0.2-0.3,0.4-0.5,0.7-0.6c0.4-0.1,0.9,0,1.2,0.4
			c0.1,0.1,0.1,0.2,0.2,0.3v0.2c0,0.1,0,0.2,0,0.2c0.3,0.1,0.6,0.3,0.8,0.6c0.2,0.4,0.2,0.8,0,1.2c0,0.1-0.1,0.1-0.1,0.2l0,0
			c-0.3,0.3-0.6,0.4-1,0.4C87.4,111.9,86.9,112.2,86.3,112.3z M85.6,109L85.6,109c-0.6,0-0.9,0.3-0.9,0.7s0.2,0.4,0.6,0.5h0.2
			l-0.1,0.1l-0.1,0.2c-0.1,0.3-0.1,0.6,0.1,0.9c0.1,0.3,0.4,0.5,0.7,0.6c0.6,0.2,1.3-0.1,1.5-0.7c0,0,0,0,0,0v-0.1h0.1
			c0.3,0.1,0.6,0,0.9-0.3c0,0,0.1-0.1,0.1-0.1c0.2-0.3,0.2-0.6,0-0.9c-0.1-0.3-0.4-0.4-0.7-0.4h-0.1v-0.1c0-0.1,0-0.2,0-0.3v-0.2
			c0,0,0-0.1-0.1-0.1c-0.3-0.3-0.6-0.4-1-0.3c-0.3,0.1-0.5,0.3-0.6,0.5v0.1h-0.1C85.8,109,85.7,109,85.6,109z"/>
	</g>
</g>
<g id="light_1_" class="st26">
	<defs>
		<filter id="Adobe_OpacityMaskFilter" filterUnits="userSpaceOnUse" x="43.6" y="45.9" width="103.4" height="100.9">
			<feFlood  style="flood-color:white;flood-opacity:1" result="back"/>
			<feBlend  in="SourceGraphic" in2="back" mode="normal"/>
		</filter>
	</defs>
	<mask maskUnits="userSpaceOnUse" x="43.6" y="45.9" width="103.4" height="100.9" id="SVGID_3_">
		<g class="st27">

				<image style="overflow:visible;" width="108" height="106" xlink:href="C1139B54F8CB23E8.jpg"  transform="matrix(1 0 0 1 41 42.92)">
			</image>
		</g>
	</mask>
	<g class="st28">
		<g>
			<g>
				<ellipse class="st29" cx="95.3" cy="96.3" rx="51.7" ry="50.4"/>
			</g>
		</g>
	</g>
</g>
</svg>
